<?xml version='1.0' encoding='utf-8'?>
<mlt LC_NUMERIC="C" producer="main_bin" root="/home/soma/Videos/remal-gombi" version="7.30.0">
 <profile colorspace="709" description="4K DCI 2160p 30 fps" display_aspect_den="135" display_aspect_num="256" frame_rate_den="1" frame_rate_num="30" height="2160" progressive="1" sample_aspect_den="1" sample_aspect_num="1" width="4096"/>
 <producer id="producer3" in="00:00:00.000" out="00:10:29.233">
  <property name="length">18878</property>
  <property name="eof">pause</property>
  <property name="resource">media/pictures/logo-remal.jpg</property>
  <property name="ttl">25</property>
  <property name="aspect_ratio">1</property>
  <property name="meta.media.progressive">1</property>
  <property name="seekable">1</property>
  <property name="format">1</property>
  <property name="meta.media.width">600</property>
  <property name="meta.media.height">434</property>
  <property name="mlt_service">qimage</property>
  <property name="kdenlive:duration">00:00:05:00</property>
  <property name="xml">was here</property>
  <property name="kdenlive:folderid">-1</property>
  <property name="kdenlive:id">4</property>
  <property name="kdenlive:control_uuid">{3b8eb518-18f7-48c3-b911-a163b6c21ed0}</property>
  <property name="kdenlive:clip_type">2</property>
  <property name="kdenlive:file_size">39636</property>
  <property name="kdenlive:file_hash">7c84230aba034cea830b4202757a3089</property>
  <property name="kdenlive:activeeffect">0</property>
  <property name="kdenlive:monitorPosition">765</property>
  <property name="kdenlive:clipname">Logo - remal</property>
  <filter id="filter8">
   <property name="rotate_center">1</property>
   <property name="mlt_service">qtblend</property>
   <property name="kdenlive_id">qtblend</property>
   <property name="compositing">0</property>
   <property name="distort">0</property>
   <property name="rect">00:00:00.000=3872 1950 169 235 1.000000</property>
   <property name="rotation">00:00:00.000=0</property>
   <property name="kdenlive:collapsed">0</property>
  </filter>
 </producer>
 <producer id="producer4" in="00:00:00.000" out="00:00:18.733">
  <property name="length">563</property>
  <property name="eof">pause</property>
  <property name="resource"/>
  <property name="meta.media.progressive">1</property>
  <property name="aspect_ratio">1</property>
  <property name="seekable">1</property>
  <property name="mlt_service">kdenlivetitle</property>
  <property name="kdenlive:duration">00:00:05:00</property>
  <property name="kdenlive:clipname">Page 01.01</property>
  <property name="xmldata">&lt;kdenlivetitle LC_NUMERIC="C" duration="150" height="2160" out="149" width="4096">
 &lt;item type="QGraphicsTextItem" z-index="1002">
  &lt;position x="1827" y="1739">
   &lt;transform>1,0,0,0,1,0,0,0,1&lt;/transform>
  &lt;/position>
  &lt;content alignment="1" box-height="150" box-width="1872.33" font="Noto Sans" font-color="230,81,0,255" font-italic="0" font-outline="0" font-outline-color="0,0,0,255" font-pixel-size="110" font-underline="0" font-weight="700" letter-spacing="0" line-spacing="0" shadow="0;#64000000;3;3;3" tab-width="80" typewriter="0;2;1;0;0">https://github.com/zappee/gombi&lt;/content>
 &lt;/item>
 &lt;item type="QGraphicsTextItem" z-index="1001">
  &lt;position x="1429" y="1462">
   &lt;transform>1,0,0,0,1,0,0,0,1&lt;/transform>
  &lt;/position>
  &lt;content alignment="2" box-height="273" box-width="2267.52" font="Noto Sans" font-color="230,81,0,255" font-italic="0" font-pixel-size="200" font-underline="0" font-weight="900" letter-spacing="0" line-spacing="0" shadow="0;#64000000;3;3;3" tab-width="80" typewriter="0;2;1;0;0">Remal Gombi Platform&lt;/content>
 &lt;/item>
 &lt;startviewport rect="0,0,4096,2160"/>
 &lt;endviewport rect="0,0,4096,2160"/>
 &lt;background color="170,255,0,0"/>
&lt;/kdenlivetitle>
</property>
  <property name="xml">was here</property>
  <property name="kdenlive:folderid">-1</property>
  <property name="kdenlive:id">5</property>
  <property name="kdenlive:control_uuid">{50231655-40df-437b-a8d8-73d7b1ebe839}</property>
  <property name="kdenlive:clip_type">2</property>
  <property name="kdenlive:uniqueId">{5afd88b8-2b23-470c-a71d-6182966f8dcc}</property>
  <property name="kdenlive:file_hash">b54c7bb9f571b9d3292d64c6a6d0c3f9</property>
  <property name="force_reload">0</property>
  <property name="meta.media.width">4096</property>
  <property name="meta.media.height">2160</property>
  <property name="kdenlive:monitorPosition">194</property>
 </producer>
 <producer id="producer1" in="00:00:00.000" out="00:00:21.233">
  <property name="length">638</property>
  <property name="eof">pause</property>
  <property name="resource">media/pictures/background-with-orange-curved-shape-in-corner.eps</property>
  <property name="ttl">25</property>
  <property name="aspect_ratio">1</property>
  <property name="meta.media.progressive">1</property>
  <property name="seekable">1</property>
  <property name="format">1</property>
  <property name="meta.media.width">3900</property>
  <property name="meta.media.height">2194</property>
  <property name="mlt_service">qimage</property>
  <property name="kdenlive:duration">00:00:05:00</property>
  <property name="xml">was here</property>
  <property name="kdenlive:folderid">-1</property>
  <property name="kdenlive:id">6</property>
  <property name="kdenlive:control_uuid">{45491641-8633-4058-8de6-823e5fd78dbe}</property>
  <property name="kdenlive:clip_type">2</property>
  <property name="kdenlive:file_size">3559</property>
  <property name="kdenlive:file_hash">c02ef5f43fb7452d5dea95e1f26e9e9b</property>
  <property name="kdenlive:monitorPosition">49</property>
  <property name="kdenlive:clipname">Page 01 - background</property>
 </producer>
 <producer id="producer2" in="00:00:00.000" out="00:00:35.267">
  <property name="length">1059</property>
  <property name="eof">pause</property>
  <property name="resource">media/pictures/logo-gombi.png</property>
  <property name="ttl">25</property>
  <property name="aspect_ratio">1</property>
  <property name="meta.media.progressive">1</property>
  <property name="seekable">1</property>
  <property name="format">2</property>
  <property name="meta.media.width">810</property>
  <property name="meta.media.height">291</property>
  <property name="mlt_service">qimage</property>
  <property name="kdenlive:duration">00:00:05:00</property>
  <property name="xml">was here</property>
  <property name="kdenlive:folderid">-1</property>
  <property name="kdenlive:id">7</property>
  <property name="kdenlive:control_uuid">{2b9a229b-bf94-431f-bf3f-8dd28dd2b2d3}</property>
  <property name="kdenlive:clip_type">2</property>
  <property name="kdenlive:file_size">40957</property>
  <property name="kdenlive:file_hash">deca0020d89e255d6ad6d87d34bf6f6c</property>
  <property name="kdenlive:monitorPosition">104</property>
  <property name="kdenlive:clipname">Logo - gombi</property>
 </producer>
 <producer id="producer5" in="00:00:00.000" out="00:00:04.967">
  <property name="length">150</property>
  <property name="eof">pause</property>
  <property name="resource"/>
  <property name="meta.media.progressive">1</property>
  <property name="aspect_ratio">1</property>
  <property name="seekable">1</property>
  <property name="mlt_service">kdenlivetitle</property>
  <property name="kdenlive:duration">00:00:05:00</property>
  <property name="kdenlive:clipname">Page 01</property>
  <property name="xmldata">&lt;kdenlivetitle LC_NUMERIC="C" duration="150" height="2160" out="149" width="4096">
 &lt;item type="QGraphicsTextItem" z-index="0">
  &lt;position x="3971" y="2040">
   &lt;transform>1,0,0,0,1,0,0,0,1&lt;/transform>
  &lt;/position>
  &lt;content alignment="2" box-height="69" box-width="28.5938" font="Noto Sans" font-color="117,117,117,255" font-italic="0" font-outline="0" font-outline-color="0,0,0,255" font-pixel-size="50" font-underline="0" font-weight="900" letter-spacing="0" line-spacing="0" shadow="0;#64000000;3;3;3" tab-width="80" typewriter="0;2;1;0;0">1&lt;/content>
 &lt;/item>
 &lt;startviewport rect="0,0,4096,2160"/>
 &lt;endviewport rect="0,0,4096,2160"/>
 &lt;background color="170,255,0,0"/>
&lt;/kdenlivetitle>
</property>
  <property name="xml">was here</property>
  <property name="kdenlive:folderid">-1</property>
  <property name="kdenlive:id">8</property>
  <property name="kdenlive:control_uuid">{bd5d5dfb-6477-4896-8369-f01d96c611cc}</property>
  <property name="kdenlive:clip_type">2</property>
  <property name="kdenlive:uniqueId">{5d2b7536-6b14-41e5-9e9f-33a510c0b1c8}</property>
  <property name="kdenlive:file_hash">f6d1fd251024ffded92e1c2b61bd4706</property>
  <property name="force_reload">0</property>
  <property name="meta.media.width">4096</property>
  <property name="meta.media.height">2160</property>
  <property name="kdenlive:monitorPosition">48</property>
 </producer>
 <producer id="producer6" in="00:00:00.000" out="00:00:04.967">
  <property name="length">00:00:05.000</property>
  <property name="eof">pause</property>
  <property name="resource">#ff000000</property>
  <property name="aspect_ratio">1</property>
  <property name="mlt_service">color</property>
  <property name="kdenlive:clipname">Page 01 - fade</property>
  <property name="kdenlive:duration">00:00:05:00</property>
  <property name="xml">was here</property>
  <property name="seekable">1</property>
  <property name="kdenlive:folderid">-1</property>
  <property name="kdenlive:id">9</property>
  <property name="kdenlive:control_uuid">{efe077cf-a419-4db9-bc96-65a290bfb933}</property>
  <property name="mlt_image_format">rgb</property>
  <property name="kdenlive:clip_type">2</property>
  <property name="kdenlive:file_hash">5b0940ab70748200b1fae87129fa214e</property>
  <property name="kdenlive:monitorPosition">93</property>
 </producer>
 <producer id="producer8" in="00:00:00.000" out="00:00:20.400">
  <property name="length">613</property>
  <property name="eof">pause</property>
  <property name="resource"/>
  <property name="meta.media.progressive">1</property>
  <property name="aspect_ratio">1</property>
  <property name="seekable">1</property>
  <property name="mlt_service">kdenlivetitle</property>
  <property name="kdenlive:duration">00:00:05:00</property>
  <property name="kdenlive:clipname">Page 03.01</property>
  <property name="xmldata">&lt;kdenlivetitle LC_NUMERIC="C" duration="150" height="2160" out="149" width="4096">
 &lt;item type="QGraphicsTextItem" z-index="1">
  &lt;position x="320" y="100">
   &lt;transform>1,0,0,0,1,0,0,0,1&lt;/transform>
  &lt;/position>
  &lt;content alignment="2" box-height="205" box-width="604.313" font="Noto Sans" font-color="255,255,255,255" font-italic="0" font-pixel-size="150" font-underline="0" font-weight="900" letter-spacing="0" shadow="0;#64000000;3;3;3" tab-width="80" typewriter="0;2;1;0;0">Content&lt;/content>
 &lt;/item>
 &lt;startviewport rect="0,0,4096,2160"/>
 &lt;endviewport rect="0,0,4096,2160"/>
 &lt;background color="0,0,0,0"/>
&lt;/kdenlivetitle>
</property>
  <property name="xml">was here</property>
  <property name="kdenlive:folderid">-1</property>
  <property name="kdenlive:id">10</property>
  <property name="kdenlive:control_uuid">{f46581e5-b32c-433a-8d90-f0433ca77714}</property>
  <property name="kdenlive:clip_type">2</property>
  <property name="kdenlive:uniqueId">{3cd0159e-23c4-4227-a463-9ce4ffbf6263}</property>
  <property name="kdenlive:file_hash">1f459787c96c1f3bc044ac3c646fd7e5</property>
  <property name="force_reload">0</property>
  <property name="meta.media.width">4096</property>
  <property name="meta.media.height">2160</property>
  <property name="kdenlive:monitorPosition">54</property>
 </producer>
 <producer id="producer7" in="00:00:00.000" out="00:00:09.967">
  <property name="length">300</property>
  <property name="eof">pause</property>
  <property name="resource"/>
  <property name="meta.media.progressive">1</property>
  <property name="aspect_ratio">1</property>
  <property name="seekable">1</property>
  <property name="mlt_service">kdenlivetitle</property>
  <property name="kdenlive:duration">00:00:05:00</property>
  <property name="kdenlive:clipname">Page 02 .01</property>
  <property name="xmldata">&lt;kdenlivetitle LC_NUMERIC="C" duration="150" height="2160" out="149" width="4096">
 &lt;item type="QGraphicsTextItem" z-index="3">
  &lt;position x="1000" y="1390">
   &lt;transform>1,0,0,0,1,0,0,0,1&lt;/transform>
  &lt;/position>
  &lt;content alignment="1" box-height="545" box-width="2790.72" font="Noto Sans" font-color="255,255,255,255" font-italic="0" font-pixel-size="80" font-underline="0" font-weight="300" letter-spacing="0" line-spacing="0" shadow="0;#64000000;3;3;3" tab-width="80" typewriter="0;2;1;0;0">Congue taciti varius ligula nullam dapibus. Scelerisque tellus fermentum
fermentum porta. Sodales tempus vestibulum libero augue feugiat.
In posuere facilisi leo arcu potenti vulputate. Vivamus curabitur vulputate
vestibulum mattis faucibus conubia feugiat quam. Tempor pharetra iaculis
euismod tempus leo magnis luctus augue.&lt;/content>
 &lt;/item>
 &lt;item type="QGraphicsTextItem" z-index="2">
  &lt;position x="1000" y="980">
   &lt;transform>1,0,0,0,1,0,0,0,1&lt;/transform>
  &lt;/position>
  &lt;content alignment="0" box-height="109" box-width="1052.52" font="Noto Sans" font-color="255,255,255,255" font-italic="0" font-pixel-size="80" font-underline="0" font-weight="300" letter-spacing="0" shadow="0;#64000000;3;3;3" tab-width="80" typewriter="0;2;1;0;0">arnold.somogyi@gmail.com&lt;/content>
 &lt;/item>
 &lt;item type="QGraphicsTextItem" z-index="1">
  &lt;position x="400" y="1200">
   &lt;transform>1,0,0,0,1,0,0,0,1&lt;/transform>
  &lt;/position>
  &lt;content alignment="2" box-height="137" box-width="1315.31" font="Noto Sans" font-color="255,255,255,255" font-italic="0" font-pixel-size="100" font-underline="0" font-weight="700" letter-spacing="0" line-spacing="0" shadow="0;#64000000;3;3;3" tab-width="80" typewriter="0;2;1;0;0">About the Technical Editor&lt;/content>
 &lt;/item>
 &lt;item type="QGraphicsTextItem" z-index="0">
  &lt;position x="1000" y="400">
   &lt;transform>1,0,0,0,1,0,0,0,1&lt;/transform>
  &lt;/position>
  &lt;content alignment="1" box-height="545" box-width="2701.02" font="Noto Sans" font-color="255,255,255,255" font-italic="0" font-pixel-size="80" font-underline="0" font-weight="300" letter-spacing="0" line-spacing="0" shadow="0;#64000000;3;3;3" tab-width="80" typewriter="0;2;1;0;0">Lorem ipsum dolor sit amet, consectetur adipiscing elit, sed do eiusmod
incididunt ut labore et dolore magna aliqua. Ut enim ad minim veniam,
nostrud exercitation ullamco laboris nisi ut aliquip ex ea commodo.
Duis aute irure dolor in reprehenderit in voluptate velit esse cillum eu
fugiat nulla pariatur.&lt;/content>
 &lt;/item>
 &lt;item type="QGraphicsTextItem" z-index="0">
  &lt;position x="400" y="210">
   &lt;transform>1,0,0,0,1,0,0,0,1&lt;/transform>
  &lt;/position>
  &lt;content alignment="2" box-height="137" box-width="874.422" font="Noto Sans" font-color="255,255,255,255" font-italic="0" font-pixel-size="100" font-underline="0" font-weight="700" letter-spacing="0" line-spacing="0" shadow="0;#64000000;3;3;3" tab-width="80" typewriter="0;2;1;0;0">About the Author&lt;/content>
 &lt;/item>
 &lt;startviewport rect="0,0,4096,2160"/>
 &lt;endviewport rect="0,0,4096,2160"/>
 &lt;background color="0,0,0,0"/>
&lt;/kdenlivetitle>
</property>
  <property name="xml">was here</property>
  <property name="kdenlive:folderid">-1</property>
  <property name="kdenlive:id">11</property>
  <property name="kdenlive:control_uuid">{787ec912-990d-4653-bc3b-ff2ec9fcacaa}</property>
  <property name="kdenlive:clip_type">2</property>
  <property name="kdenlive:uniqueId">{bbdf98ac-f841-4eaa-a8a0-29e240b1e743}</property>
  <property name="kdenlive:file_hash">161a345c5920ccf4a3988e74de39fa89</property>
  <property name="force_reload">0</property>
  <property name="meta.media.width">4096</property>
  <property name="meta.media.height">2160</property>
  <property name="kdenlive:monitorPosition">149</property>
 </producer>
 <producer id="producer9" in="00:00:00.000" out="00:00:09.967">
  <property name="length">300</property>
  <property name="eof">pause</property>
  <property name="resource"/>
  <property name="meta.media.progressive">1</property>
  <property name="aspect_ratio">1</property>
  <property name="seekable">1</property>
  <property name="mlt_service">kdenlivetitle</property>
  <property name="kdenlive:duration">00:00:05:00</property>
  <property name="kdenlive:clipname">Page 02</property>
  <property name="xmldata">&lt;kdenlivetitle LC_NUMERIC="C" duration="150" height="2160" out="149" width="4096">
 &lt;item type="QGraphicsTextItem" z-index="0">
  &lt;position x="3971" y="2040">
   &lt;transform>1,0,0,0,1,0,0,0,1&lt;/transform>
  &lt;/position>
  &lt;content alignment="2" box-height="69" box-width="28.5938" font="Noto Sans" font-color="117,117,117,255" font-italic="0" font-pixel-size="50" font-underline="0" font-weight="900" letter-spacing="0" line-spacing="0" shadow="0;#64000000;3;3;3" tab-width="80" typewriter="0;2;1;0;0">2&lt;/content>
 &lt;/item>
 &lt;startviewport rect="0,0,4096,2160"/>
 &lt;endviewport rect="0,0,4096,2160"/>
 &lt;background color="170,255,0,0"/>
&lt;/kdenlivetitle>
</property>
  <property name="xml">was here</property>
  <property name="kdenlive:folderid">-1</property>
  <property name="kdenlive:id">12</property>
  <property name="kdenlive:clip_type">2</property>
  <property name="kdenlive:file_hash">ce7a57acf249ed30535d2f0c76a8cbcf</property>
  <property name="force_reload">0</property>
  <property name="kdenlive:monitorPosition">48</property>
  <property name="kdenlive:control_uuid">{c4e88a7d-e7eb-4c02-96d9-92588b11afd3}</property>
  <property name="kdenlive:uniqueId">{4e52f4d1-16f1-41dc-8920-ba1faac7f160}</property>
  <property name="meta.media.width">4096</property>
  <property name="meta.media.height">2160</property>
 </producer>
 <producer id="producer11" in="00:00:00.000" out="00:00:12.133">
  <property name="length">365</property>
  <property name="eof">pause</property>
  <property name="resource">#ff000000</property>
  <property name="aspect_ratio">1</property>
  <property name="mlt_service">color</property>
  <property name="kdenlive:clipname">Page 02 - fade</property>
  <property name="kdenlive:duration">00:00:05.000</property>
  <property name="xml">was here</property>
  <property name="seekable">1</property>
  <property name="kdenlive:folderid">-1</property>
  <property name="kdenlive:id">13</property>
  <property name="mlt_image_format">rgb</property>
  <property name="kdenlive:clip_type">2</property>
  <property name="kdenlive:file_hash">fb762ca3b45ce510ad2f75a8b6baef35</property>
  <property name="kdenlive:monitorPosition">48</property>
  <property name="kdenlive:control_uuid">{93ced9c2-1645-4337-b030-5c4bbb59e65b}</property>
 </producer>
 <producer id="producer12" in="00:00:00.000" out="00:00:20.400">
  <property name="length">613</property>
  <property name="eof">pause</property>
  <property name="resource"/>
  <property name="meta.media.progressive">1</property>
  <property name="aspect_ratio">1</property>
  <property name="seekable">1</property>
  <property name="mlt_service">kdenlivetitle</property>
  <property name="kdenlive:duration">00:00:05:00</property>
  <property name="kdenlive:clipname">Page 03.02</property>
  <property name="xmldata">&lt;kdenlivetitle LC_NUMERIC="C" duration="150" height="2160" out="149" width="4096">
 &lt;item type="QGraphicsRectItem" z-index="2">
  &lt;position x="630" y="490">
   &lt;transform zoom="100">1,0,0,0,1,0,0,0,1&lt;/transform>
  &lt;/position>
  &lt;content brushcolor="215,159,13,255" pencolor="0,0,0,255" penwidth="0" rect="0,0,2550,10"/>
 &lt;/item>
 &lt;item type="QGraphicsTextItem" z-index="1">
  &lt;position x="1095" y="340">
   &lt;transform>1,0,0,0,1,0,0,0,1&lt;/transform>
  &lt;/position>
  &lt;content alignment="0" box-height="137" box-width="1342.23" font="Noto Sans" font-color="255,255,255,255" font-italic="0" font-pixel-size="100" font-underline="0" font-weight="700" letter-spacing="0" shadow="0;#64000000;3;3;3" tab-width="80" typewriter="0;2;1;0;0">The Remal Gombi Platform&lt;/content>
 &lt;/item>
 &lt;item type="QGraphicsTextItem" z-index="0">
  &lt;position x="630" y="340">
   &lt;transform>1,0,0,0,1,0,0,0,1&lt;/transform>
  &lt;/position>
  &lt;content alignment="1" box-height="137" box-width="295.141" font="Noto Sans" font-color="255,255,255,255" font-italic="0" font-pixel-size="100" font-underline="0" font-weight="700" letter-spacing="0" line-spacing="0" shadow="0;#64000000;3;3;3" tab-width="80" typewriter="0;2;1;0;0">Part 1&lt;/content>
 &lt;/item>
 &lt;startviewport rect="0,0,4096,2160"/>
 &lt;endviewport rect="0,0,4096,2160"/>
 &lt;background color="0,0,0,0"/>
&lt;/kdenlivetitle>
</property>
  <property name="xml">was here</property>
  <property name="kdenlive:folderid">-1</property>
  <property name="kdenlive:id">14</property>
  <property name="kdenlive:control_uuid">{2e5db806-6027-47e0-b867-d5d1a83d744e}</property>
  <property name="kdenlive:clip_type">2</property>
  <property name="kdenlive:uniqueId">{09c51f14-b74b-4815-a63a-01efefc1f245}</property>
  <property name="kdenlive:file_hash">44f435862e8968dfe52d643523c0735b</property>
  <property name="force_reload">0</property>
  <property name="meta.media.width">4096</property>
  <property name="meta.media.height">2160</property>
  <property name="kdenlive:monitorPosition">222</property>
 </producer>
 <producer id="producer10" in="00:00:00.000" out="00:00:25.533">
  <property name="length">767</property>
  <property name="eof">pause</property>
  <property name="resource"/>
  <property name="meta.media.progressive">1</property>
  <property name="aspect_ratio">1</property>
  <property name="seekable">1</property>
  <property name="mlt_service">kdenlivetitle</property>
  <property name="kdenlive:duration">00:00:05:00</property>
  <property name="kdenlive:clipname">Page 03</property>
  <property name="xmldata">&lt;kdenlivetitle LC_NUMERIC="C" duration="150" height="2160" out="149" width="4096">
 &lt;item type="QGraphicsTextItem" z-index="0">
  &lt;position x="3971" y="2040">
   &lt;transform>1,0,0,0,1,0,0,0,1&lt;/transform>
  &lt;/position>
  &lt;content alignment="2" box-height="69" box-width="28.5938" font="Noto Sans" font-color="117,117,117,255" font-italic="0" font-pixel-size="50" font-underline="0" font-weight="900" letter-spacing="0" line-spacing="0" shadow="0;#64000000;3;3;3" tab-width="80" typewriter="0;2;1;0;0">3&lt;/content>
 &lt;/item>
 &lt;startviewport rect="0,0,4096,2160"/>
 &lt;endviewport rect="0,0,4096,2160"/>
 &lt;background color="170,255,0,0"/>
&lt;/kdenlivetitle>
</property>
  <property name="xml">was here</property>
  <property name="kdenlive:folderid">-1</property>
  <property name="kdenlive:id">15</property>
  <property name="kdenlive:clip_type">2</property>
  <property name="kdenlive:file_hash">3ba8e5820d63b40e0d5dee3d56f910fe</property>
  <property name="force_reload">0</property>
  <property name="kdenlive:monitorPosition">23</property>
  <property name="kdenlive:control_uuid">{fe41acec-18f0-425d-9cee-483049493e4d}</property>
  <property name="kdenlive:uniqueId">{174f0eb7-427a-4c83-a349-a8d14903f15e}</property>
  <property name="meta.media.width">4096</property>
  <property name="meta.media.height">2160</property>
 </producer>
 <producer id="producer16" in="00:00:00.000" out="00:00:13.600">
  <property name="length">409</property>
  <property name="eof">pause</property>
  <property name="resource">media/pictures/profilephoto-arnold.somogyi.png</property>
  <property name="ttl">25</property>
  <property name="aspect_ratio">1</property>
  <property name="meta.media.progressive">1</property>
  <property name="seekable">1</property>
  <property name="format">2</property>
  <property name="meta.media.width">560</property>
  <property name="meta.media.height">598</property>
  <property name="mlt_service">qimage</property>
  <property name="kdenlive:duration">00:00:05:00</property>
  <property name="xml">was here</property>
  <property name="kdenlive:folderid">-1</property>
  <property name="kdenlive:id">16</property>
  <property name="kdenlive:control_uuid">{799dc427-a236-40ce-9a02-a872e0f1afcb}</property>
  <property name="kdenlive:clip_type">2</property>
  <property name="kdenlive:file_size">391557</property>
  <property name="kdenlive:file_hash">a8920e187dfd8dd14156cf516fe7da18</property>
  <property name="kdenlive:clipname">Page 02.02</property>
  <property name="kdenlive:monitorPosition">0</property>
 </producer>
 <producer id="producer15" in="00:00:00.000" out="00:00:18.433">
  <property name="length">554</property>
  <property name="eof">pause</property>
  <property name="resource"/>
  <property name="meta.media.progressive">1</property>
  <property name="aspect_ratio">1</property>
  <property name="seekable">1</property>
  <property name="mlt_service">kdenlivetitle</property>
  <property name="kdenlive:duration">00:00:05:00</property>
  <property name="kdenlive:clipname">Page 03.02.01</property>
  <property name="xmldata">&lt;kdenlivetitle LC_NUMERIC="C" duration="150" height="2160" out="149" width="4096">
 &lt;item type="QGraphicsTextItem" z-index="1">
  &lt;position x="880" y="570">
   &lt;transform>1,0,0,0,1,0,0,0,1&lt;/transform>
  &lt;/position>
  &lt;content alignment="0" box-height="137" box-width="57.1875" font="Noto Sans" font-color="255,255,255,255" font-italic="0" font-pixel-size="100" font-underline="0" font-weight="300" letter-spacing="0" shadow="0;#64000000;3;3;3" tab-width="80" typewriter="0;2;1;0;0">1&lt;/content>
 &lt;/item>
 &lt;item type="QGraphicsTextItem" z-index="0">
  &lt;position x="1095" y="570">
   &lt;transform>1,0,0,0,1,0,0,0,1&lt;/transform>
  &lt;/position>
  &lt;content alignment="1" box-height="137" box-width="1192.16" font="Noto Sans" font-color="255,255,255,255" font-italic="0" font-pixel-size="100" font-underline="0" font-weight="300" letter-spacing="0" line-spacing="0" shadow="0;#64000000;3;3;3" tab-width="80" typewriter="0;2;1;0;0">Platform overview (00:30)&lt;/content>
 &lt;/item>
 &lt;startviewport rect="0,0,4096,2160"/>
 &lt;endviewport rect="0,0,4096,2160"/>
 &lt;background color="0,0,0,0"/>
&lt;/kdenlivetitle>
</property>
  <property name="xml">was here</property>
  <property name="kdenlive:folderid">-1</property>
  <property name="kdenlive:id">17</property>
  <property name="kdenlive:control_uuid">{b55d9891-dca8-4842-b285-ea32a83feba9}</property>
  <property name="kdenlive:clip_type">2</property>
  <property name="kdenlive:uniqueId">{de4360cc-5796-428f-ad1d-64586c5fabc9}</property>
  <property name="kdenlive:file_hash">532c9344aa5648f212d8419c95f6e6a8</property>
  <property name="force_reload">0</property>
  <property name="meta.media.width">4096</property>
  <property name="meta.media.height">2160</property>
  <property name="kdenlive:monitorPosition">69</property>
 </producer>
 <producer id="producer14" in="00:00:00.000" out="00:00:19.067">
  <property name="length">573</property>
  <property name="eof">pause</property>
  <property name="resource"/>
  <property name="meta.media.progressive">1</property>
  <property name="aspect_ratio">1</property>
  <property name="seekable">1</property>
  <property name="mlt_service">kdenlivetitle</property>
  <property name="kdenlive:duration">00:00:05:00</property>
  <property name="kdenlive:clipname">Page 03.02.02</property>
  <property name="xmldata">&lt;kdenlivetitle LC_NUMERIC="C" duration="150" height="2160" out="149" width="4096">
 &lt;item type="QGraphicsTextItem" z-index="1">
  &lt;position x="880" y="730">
   &lt;transform>1,0,0,0,1,0,0,0,1&lt;/transform>
  &lt;/position>
  &lt;content alignment="0" box-height="137" box-width="57.1875" font="Noto Sans" font-color="255,255,255,255" font-italic="0" font-pixel-size="100" font-underline="0" font-weight="300" letter-spacing="0" shadow="0;#64000000;3;3;3" tab-width="80" typewriter="0;2;1;0;0">2&lt;/content>
 &lt;/item>
 &lt;item type="QGraphicsTextItem" z-index="0">
  &lt;position x="1095" y="730">
   &lt;transform>1,0,0,0,1,0,0,0,1&lt;/transform>
  &lt;/position>
  &lt;content alignment="1" box-height="137" box-width="852.016" font="Noto Sans" font-color="255,255,255,255" font-italic="0" font-pixel-size="100" font-underline="0" font-weight="300" letter-spacing="0" line-spacing="0" shadow="0;#64000000;3;3;3" tab-width="80" typewriter="0;2;1;0;0">Quick start (03:40)&lt;/content>
 &lt;/item>
 &lt;startviewport rect="0,0,4096,2160"/>
 &lt;endviewport rect="0,0,4096,2160"/>
 &lt;background color="0,0,0,0"/>
&lt;/kdenlivetitle>
</property>
  <property name="xml">was here</property>
  <property name="kdenlive:folderid">-1</property>
  <property name="kdenlive:id">18</property>
  <property name="kdenlive:clip_type">2</property>
  <property name="kdenlive:file_hash">4fcd6c9e44ad7d0c483152c6b562e221</property>
  <property name="force_reload">0</property>
  <property name="kdenlive:monitorPosition">30</property>
  <property name="kdenlive:control_uuid">{2f91ebc8-9289-4f6b-a58d-3e8295352ca0}</property>
  <property name="kdenlive:uniqueId">{76367af4-1502-46ef-9bd7-3f5e586e62e2}</property>
  <property name="meta.media.width">4096</property>
  <property name="meta.media.height">2160</property>
 </producer>
 <producer id="producer13" in="00:00:00.000" out="00:00:18.067">
  <property name="length">543</property>
  <property name="eof">pause</property>
  <property name="resource"/>
  <property name="meta.media.progressive">1</property>
  <property name="aspect_ratio">1</property>
  <property name="seekable">1</property>
  <property name="mlt_service">kdenlivetitle</property>
  <property name="kdenlive:duration">00:00:05:00</property>
  <property name="kdenlive:clipname">Page 03.03</property>
  <property name="xmldata">&lt;kdenlivetitle LC_NUMERIC="C" duration="150" height="2160" out="149" width="4096">
 &lt;item type="QGraphicsRectItem" z-index="2">
  &lt;position x="630" y="1080">
   &lt;transform zoom="100">1,0,0,0,1,0,0,0,1&lt;/transform>
  &lt;/position>
  &lt;content brushcolor="215,159,13,255" pencolor="0,0,0,255" penwidth="0" rect="0,0,2550,10"/>
 &lt;/item>
 &lt;item type="QGraphicsTextItem" z-index="1">
  &lt;position x="1095" y="930">
   &lt;transform>1,0,0,0,1,0,0,0,1&lt;/transform>
  &lt;/position>
  &lt;content alignment="0" box-height="137" box-width="740.859" font="Noto Sans" font-color="255,255,255,255" font-italic="0" font-pixel-size="100" font-underline="0" font-weight="700" letter-spacing="0" shadow="0;#64000000;3;3;3" tab-width="80" typewriter="0;2;1;0;0">Docker images&lt;/content>
 &lt;/item>
 &lt;item type="QGraphicsTextItem" z-index="0">
  &lt;position x="630" y="930">
   &lt;transform>1,0,0,0,1,0,0,0,1&lt;/transform>
  &lt;/position>
  &lt;content alignment="1" box-height="137" box-width="295.141" font="Noto Sans" font-color="255,255,255,255" font-italic="0" font-pixel-size="100" font-underline="0" font-weight="700" letter-spacing="0" line-spacing="0" shadow="0;#64000000;3;3;3" tab-width="80" typewriter="0;2;1;0;0">Part 2&lt;/content>
 &lt;/item>
 &lt;startviewport rect="0,0,4096,2160"/>
 &lt;endviewport rect="0,0,4096,2160"/>
 &lt;background color="0,0,0,0"/>
&lt;/kdenlivetitle>
</property>
  <property name="xml">was here</property>
  <property name="kdenlive:folderid">-1</property>
  <property name="kdenlive:id">19</property>
  <property name="kdenlive:clip_type">2</property>
  <property name="kdenlive:file_hash">111df1c574e23007e1fc90484a8bc671</property>
  <property name="force_reload">0</property>
  <property name="kdenlive:monitorPosition">135</property>
  <property name="kdenlive:control_uuid">{81092c95-4122-447d-aa1b-4dcd31287f50}</property>
  <property name="kdenlive:uniqueId">{742e0a12-814b-4b61-b8cd-4e53be7c7aba}</property>
  <property name="meta.media.width">4096</property>
  <property name="meta.media.height">2160</property>
 </producer>
 <chain id="chain1" out="00:00:00.600">
  <property name="length">19</property>
  <property name="eof">pause</property>
  <property name="resource">media/audio/audio-effect-slide-in.mp3</property>
  <property name="mlt_service">avformat</property>
  <property name="meta.media.nb_streams">1</property>
  <property name="meta.media.0.stream.type">audio</property>
  <property name="meta.media.0.codec.sample_fmt">fltp</property>
  <property name="meta.media.0.codec.sample_rate">24000</property>
  <property name="meta.media.0.codec.channels">2</property>
  <property name="meta.media.0.codec.layout">stereo</property>
  <property name="meta.media.0.codec.name">mp3float</property>
  <property name="meta.media.0.codec.long_name">MP3 (MPEG audio layer 3)</property>
  <property name="meta.media.0.codec.bit_rate">160000</property>
  <property name="seekable">1</property>
  <property name="audio_index">0</property>
  <property name="video_index">-1</property>
  <property name="astream">0</property>
  <property name="kdenlive:folderid">-1</property>
  <property name="kdenlive:id">20</property>
  <property name="kdenlive:control_uuid">{c2dbb3fe-03b3-468b-9d71-e31c429ddd4c}</property>
  <property name="kdenlive:clip_type">1</property>
  <property name="kdenlive:file_size">12480</property>
  <property name="kdenlive:file_hash">d5422d72a14f925b8c4876041f8a90fd</property>
  <property name="kdenlive:audio_max0">193</property>
  <property name="kdenlive:clipname">Audio effect - slide-in</property>
  <property name="kdenlive:monitorPosition">0</property>
 </chain>
 <producer id="producer20" in="00:00:00.000" out="00:00:18.433">
  <property name="length">554</property>
  <property name="eof">pause</property>
  <property name="resource"/>
  <property name="meta.media.progressive">1</property>
  <property name="aspect_ratio">1</property>
  <property name="seekable">1</property>
  <property name="mlt_service">kdenlivetitle</property>
  <property name="kdenlive:duration">00:00:05:00</property>
  <property name="kdenlive:clipname">Page 03.03.01</property>
  <property name="xmldata">&lt;kdenlivetitle LC_NUMERIC="C" duration="150" height="2160" out="149" width="4096">
 &lt;item type="QGraphicsTextItem" z-index="1">
  &lt;position x="880" y="1160">
   &lt;transform>1,0,0,0,1,0,0,0,1&lt;/transform>
  &lt;/position>
  &lt;content alignment="0" box-height="137" box-width="57.1875" font="Noto Sans" font-color="255,255,255,255" font-italic="0" font-pixel-size="100" font-underline="0" font-weight="300" letter-spacing="0" shadow="0;#64000000;3;3;3" tab-width="80" typewriter="0;2;1;0;0">1&lt;/content>
 &lt;/item>
 &lt;item type="QGraphicsTextItem" z-index="0">
  &lt;position x="1095" y="1160">
   &lt;transform>1,0,0,0,1,0,0,0,1&lt;/transform>
  &lt;/position>
  &lt;content alignment="1" box-height="137" box-width="387.422" font="Noto Sans" font-color="255,255,255,255" font-italic="0" font-pixel-size="100" font-underline="0" font-weight="300" letter-spacing="0" line-spacing="0" shadow="0;#64000000;3;3;3" tab-width="80" typewriter="0;2;1;0;0">Concept&lt;/content>
 &lt;/item>
 &lt;startviewport rect="0,0,4096,2160"/>
 &lt;endviewport rect="0,0,4096,2160"/>
 &lt;background color="0,0,0,0"/>
&lt;/kdenlivetitle>
</property>
  <property name="xml">was here</property>
  <property name="kdenlive:folderid">-1</property>
  <property name="kdenlive:id">21</property>
  <property name="kdenlive:clip_type">2</property>
  <property name="kdenlive:file_hash">69e8d732ff5042489e0558d3c35899e5</property>
  <property name="force_reload">0</property>
  <property name="kdenlive:monitorPosition">30</property>
  <property name="kdenlive:control_uuid">{b5a59cd8-802c-4237-8605-2ceaebedf577}</property>
  <property name="kdenlive:uniqueId">{8d7f1933-a55c-4a9c-9697-fa55c676eb33}</property>
  <property name="meta.media.width">4096</property>
  <property name="meta.media.height">2160</property>
 </producer>
 <producer id="producer19" in="00:00:00.000" out="00:00:18.433">
  <property name="length">554</property>
  <property name="eof">pause</property>
  <property name="resource"/>
  <property name="meta.media.progressive">1</property>
  <property name="aspect_ratio">1</property>
  <property name="seekable">1</property>
  <property name="mlt_service">kdenlivetitle</property>
  <property name="kdenlive:duration">00:00:05:00</property>
  <property name="kdenlive:clipname">Page 03.03.02</property>
  <property name="xmldata">&lt;kdenlivetitle LC_NUMERIC="C" duration="150" height="2160" out="149" width="4096">
 &lt;item type="QGraphicsTextItem" z-index="1">
  &lt;position x="880" y="1320">
   &lt;transform>1,0,0,0,1,0,0,0,1&lt;/transform>
  &lt;/position>
  &lt;content alignment="0" box-height="137" box-width="57.1875" font="Noto Sans" font-color="255,255,255,255" font-italic="0" font-pixel-size="100" font-underline="0" font-weight="300" letter-spacing="0" shadow="0;#64000000;3;3;3" tab-width="80" typewriter="0;2;1;0;0">2&lt;/content>
 &lt;/item>
 &lt;item type="QGraphicsTextItem" z-index="0">
  &lt;position x="1095" y="1320">
   &lt;transform>1,0,0,0,1,0,0,0,1&lt;/transform>
  &lt;/position>
  &lt;content alignment="1" box-height="137" box-width="1521.48" font="Noto Sans" font-color="255,255,255,255" font-italic="0" font-pixel-size="100" font-underline="0" font-weight="300" letter-spacing="0" line-spacing="0" shadow="0;#64000000;3;3;3" tab-width="80" typewriter="0;2;1;0;0">Exploring the platform's images &lt;/content>
 &lt;/item>
 &lt;startviewport rect="0,0,4096,2160"/>
 &lt;endviewport rect="0,0,4096,2160"/>
 &lt;background color="0,0,0,0"/>
&lt;/kdenlivetitle>
</property>
  <property name="xml">was here</property>
  <property name="kdenlive:folderid">-1</property>
  <property name="kdenlive:id">22</property>
  <property name="kdenlive:clip_type">2</property>
  <property name="kdenlive:file_hash">88fc53b1fe8e1808da9f7342db3b8c73</property>
  <property name="force_reload">0</property>
  <property name="kdenlive:monitorPosition">30</property>
  <property name="kdenlive:control_uuid">{d0625ecd-1698-4ca9-99bf-828b9a8dca18}</property>
  <property name="kdenlive:uniqueId">{99eabd06-4dc7-4256-8e3b-ca732f98dfb0}</property>
  <property name="meta.media.width">4096</property>
  <property name="meta.media.height">2160</property>
 </producer>
 <producer id="producer18" in="00:00:00.000" out="00:00:18.067">
  <property name="length">543</property>
  <property name="eof">pause</property>
  <property name="resource"/>
  <property name="meta.media.progressive">1</property>
  <property name="aspect_ratio">1</property>
  <property name="seekable">1</property>
  <property name="mlt_service">kdenlivetitle</property>
  <property name="kdenlive:duration">00:00:05:00</property>
  <property name="kdenlive:clipname">Page 03.04</property>
  <property name="xmldata">&lt;kdenlivetitle LC_NUMERIC="C" duration="150" height="2160" out="149" width="4096">
 &lt;item type="QGraphicsRectItem" z-index="2">
  &lt;position x="630" y="1670">
   &lt;transform zoom="100">1,0,0,0,1,0,0,0,1&lt;/transform>
  &lt;/position>
  &lt;content brushcolor="215,159,13,255" pencolor="0,0,0,255" penwidth="0" rect="0,0,2550,10"/>
 &lt;/item>
 &lt;item type="QGraphicsTextItem" z-index="1">
  &lt;position x="1095" y="1520">
   &lt;transform>1,0,0,0,1,0,0,0,1&lt;/transform>
  &lt;/position>
  &lt;content alignment="0" box-height="137" box-width="2044.42" font="Noto Sans" font-color="255,255,255,255" font-italic="0" font-pixel-size="100" font-underline="0" font-weight="700" letter-spacing="0" shadow="0;#64000000;3;3;3" tab-width="80" typewriter="0;2;1;0;0">Software development with the Platform&lt;/content>
 &lt;/item>
 &lt;item type="QGraphicsTextItem" z-index="0">
  &lt;position x="630" y="1520">
   &lt;transform>1,0,0,0,1,0,0,0,1&lt;/transform>
  &lt;/position>
  &lt;content alignment="1" box-height="137" box-width="295.141" font="Noto Sans" font-color="255,255,255,255" font-italic="0" font-pixel-size="100" font-underline="0" font-weight="700" letter-spacing="0" line-spacing="0" shadow="0;#64000000;3;3;3" tab-width="80" typewriter="0;2;1;0;0">Part 3&lt;/content>
 &lt;/item>
 &lt;startviewport rect="0,0,4096,2160"/>
 &lt;endviewport rect="0,0,4096,2160"/>
 &lt;background color="0,0,0,0"/>
&lt;/kdenlivetitle>
</property>
  <property name="xml">was here</property>
  <property name="kdenlive:folderid">-1</property>
  <property name="kdenlive:id">23</property>
  <property name="kdenlive:clip_type">2</property>
  <property name="kdenlive:file_hash">811834f96d5bfd3cc5af1120de0381d4</property>
  <property name="force_reload">0</property>
  <property name="kdenlive:monitorPosition">37</property>
  <property name="kdenlive:control_uuid">{a41a1924-04af-4ea2-a2d1-ccaaf7d33b6e}</property>
  <property name="kdenlive:uniqueId">{665910a8-7e35-4858-b7cf-f2582ead6270}</property>
  <property name="meta.media.width">4096</property>
  <property name="meta.media.height">2160</property>
 </producer>
 <producer id="producer17" in="00:00:00.000" out="00:00:18.067">
  <property name="length">543</property>
  <property name="eof">pause</property>
  <property name="resource"/>
  <property name="meta.media.progressive">1</property>
  <property name="aspect_ratio">1</property>
  <property name="seekable">1</property>
  <property name="mlt_service">kdenlivetitle</property>
  <property name="kdenlive:duration">00:00:05:00</property>
  <property name="kdenlive:clipname">Page 03.05</property>
  <property name="xmldata">&lt;kdenlivetitle LC_NUMERIC="C" duration="150" height="2160" out="149" width="4096">
 &lt;item type="QGraphicsRectItem" z-index="2">
  &lt;position x="630" y="1890">
   &lt;transform zoom="100">1,0,0,0,1,0,0,0,1&lt;/transform>
  &lt;/position>
  &lt;content brushcolor="215,159,13,255" pencolor="0,0,0,255" penwidth="0" rect="0,0,2550,10"/>
 &lt;/item>
 &lt;item type="QGraphicsTextItem" z-index="1">
  &lt;position x="1095" y="1740">
   &lt;transform>1,0,0,0,1,0,0,0,1&lt;/transform>
  &lt;/position>
  &lt;content alignment="0" box-height="137" box-width="1882.91" font="Noto Sans" font-color="255,255,255,255" font-italic="0" font-pixel-size="100" font-underline="0" font-weight="700" letter-spacing="0" shadow="0;#64000000;3;3;3" tab-width="80" typewriter="0;2;1;0;0">Running in a production environment&lt;/content>
 &lt;/item>
 &lt;item type="QGraphicsTextItem" z-index="0">
  &lt;position x="630" y="1740">
   &lt;transform>1,0,0,0,1,0,0,0,1&lt;/transform>
  &lt;/position>
  &lt;content alignment="1" box-height="137" box-width="295.141" font="Noto Sans" font-color="255,255,255,255" font-italic="0" font-pixel-size="100" font-underline="0" font-weight="700" letter-spacing="0" line-spacing="0" shadow="0;#64000000;3;3;3" tab-width="80" typewriter="0;2;1;0;0">Part 4&lt;/content>
 &lt;/item>
 &lt;startviewport rect="0,0,4096,2160"/>
 &lt;endviewport rect="0,0,4096,2160"/>
 &lt;background color="0,0,0,0"/>
&lt;/kdenlivetitle>
</property>
  <property name="xml">was here</property>
  <property name="kdenlive:folderid">-1</property>
  <property name="kdenlive:id">24</property>
  <property name="kdenlive:clip_type">2</property>
  <property name="kdenlive:file_hash">4a6679b8e062b23c6e7f3f0cadb9c37c</property>
  <property name="force_reload">0</property>
  <property name="kdenlive:monitorPosition">50</property>
  <property name="kdenlive:control_uuid">{fc1ea1fa-c8ad-4280-a70f-3352dbc7af44}</property>
  <property name="kdenlive:uniqueId">{ccb63597-e037-4d5b-9cdf-6aeed9fd56db}</property>
  <property name="meta.media.width">4096</property>
  <property name="meta.media.height">2160</property>
 </producer>
 <producer id="producer21" in="00:00:00.000" out="00:10:30.267">
  <property name="length">18909</property>
  <property name="eof">pause</property>
  <property name="resource">media/pictures/logo-gombi-transparent.png</property>
  <property name="ttl">25</property>
  <property name="aspect_ratio">1</property>
  <property name="meta.media.progressive">1</property>
  <property name="seekable">1</property>
  <property name="format">2</property>
  <property name="meta.media.width">752</property>
  <property name="meta.media.height">240</property>
  <property name="mlt_service">qimage</property>
  <property name="kdenlive:duration">00:00:05:00</property>
  <property name="xml">was here</property>
  <property name="kdenlive:folderid">-1</property>
  <property name="kdenlive:id">25</property>
  <property name="kdenlive:control_uuid">{83bf1abd-d335-440a-b4fd-23243ee36d66}</property>
  <property name="kdenlive:clip_type">2</property>
  <property name="kdenlive:file_size">41054</property>
  <property name="kdenlive:file_hash">f292ad871fb3f3c6dd6a50ebe6c4bdb2</property>
  <property name="kdenlive:clipname">Logo - gombi - transparent</property>
  <property name="kdenlive:monitorPosition">29</property>
 </producer>
 <producer id="producer27" in="00:00:00.000" out="00:00:19.033">
  <property name="length">572</property>
  <property name="eof">pause</property>
  <property name="resource">#ff000000</property>
  <property name="aspect_ratio">1</property>
  <property name="mlt_service">color</property>
  <property name="kdenlive:clipname">Page 03 - fade</property>
  <property name="kdenlive:duration">00:00:05.000</property>
  <property name="xml">was here</property>
  <property name="seekable">1</property>
  <property name="kdenlive:folderid">-1</property>
  <property name="kdenlive:id">26</property>
  <property name="mlt_image_format">rgb</property>
  <property name="kdenlive:clip_type">2</property>
  <property name="kdenlive:file_hash">fb762ca3b45ce510ad2f75a8b6baef35</property>
  <property name="kdenlive:monitorPosition">401</property>
  <property name="kdenlive:control_uuid">{c01793cc-9b20-4f75-a3a2-260ef40eb30a}</property>
 </producer>
 <producer id="producer26" in="00:00:00.000" out="00:00:29.933">
  <property name="length">899</property>
  <property name="eof">pause</property>
  <property name="resource"/>
  <property name="meta.media.progressive">1</property>
  <property name="aspect_ratio">1</property>
  <property name="seekable">1</property>
  <property name="mlt_service">kdenlivetitle</property>
  <property name="kdenlive:duration">00:00:05:00</property>
  <property name="kdenlive:clipname">Page 04</property>
  <property name="xmldata">&lt;kdenlivetitle LC_NUMERIC="C" duration="150" height="2160" out="149" width="4096">
 &lt;item type="QGraphicsTextItem" z-index="0">
  &lt;position x="3971" y="2040">
   &lt;transform>1,0,0,0,1,0,0,0,1&lt;/transform>
  &lt;/position>
  &lt;content alignment="2" box-height="69" box-width="28.5938" font="Noto Sans" font-color="117,117,117,255" font-italic="0" font-pixel-size="50" font-underline="0" font-weight="900" letter-spacing="0" line-spacing="0" shadow="0;#64000000;3;3;3" tab-width="80" typewriter="0;2;1;0;0">4&lt;/content>
 &lt;/item>
 &lt;startviewport rect="0,0,4096,2160"/>
 &lt;endviewport rect="0,0,4096,2160"/>
 &lt;background color="170,255,0,0"/>
&lt;/kdenlivetitle>
</property>
  <property name="xml">was here</property>
  <property name="kdenlive:folderid">-1</property>
  <property name="kdenlive:id">27</property>
  <property name="kdenlive:clip_type">2</property>
  <property name="kdenlive:file_hash">e16de23023736080e7355f328e937502</property>
  <property name="force_reload">0</property>
  <property name="kdenlive:monitorPosition">826</property>
  <property name="kdenlive:control_uuid">{de9fddea-f4f5-41a9-a3f7-2dc806f7cfb1}</property>
  <property name="kdenlive:uniqueId">{de8422c3-d71f-456f-aef0-c4ae2e4acb23}</property>
  <property name="meta.media.width">4096</property>
  <property name="meta.media.height">2160</property>
 </producer>
 <producer id="producer25" in="00:00:00.000" out="00:00:29.933">
  <property name="length">899</property>
  <property name="eof">pause</property>
  <property name="resource"/>
  <property name="meta.media.progressive">1</property>
  <property name="aspect_ratio">1</property>
  <property name="seekable">1</property>
  <property name="mlt_service">kdenlivetitle</property>
  <property name="kdenlive:duration">00:00:05:00</property>
  <property name="kdenlive:clipname">Page 04.01</property>
  <property name="xmldata">&lt;kdenlivetitle LC_NUMERIC="C" duration="150" height="2160" out="149" width="4096">
 &lt;item type="QGraphicsTextItem" z-index="1">
  &lt;position x="320" y="100">
   &lt;transform>1,0,0,0,1,0,0,0,1&lt;/transform>
  &lt;/position>
  &lt;content alignment="1" box-height="205" box-width="1732.98" font="Noto Sans" font-color="0,0,0,255" font-italic="0" font-pixel-size="150" font-underline="0" font-weight="900" letter-spacing="0" line-spacing="0" shadow="0;#64000000;3;3;3" tab-width="80" typewriter="0;2;1;0;0">(1.1) Platform overview&lt;/content>
 &lt;/item>
 &lt;startviewport rect="0,0,4096,2160"/>
 &lt;endviewport rect="0,0,4096,2160"/>
 &lt;background color="0,0,0,0"/>
&lt;/kdenlivetitle>
</property>
  <property name="xml">was here</property>
  <property name="kdenlive:folderid">-1</property>
  <property name="kdenlive:id">28</property>
  <property name="kdenlive:clip_type">2</property>
  <property name="kdenlive:file_hash">664104ee55e6bbd993c87685f59aa324</property>
  <property name="force_reload">0</property>
  <property name="kdenlive:monitorPosition">49</property>
  <property name="kdenlive:control_uuid">{e13e47f4-7238-4ae6-be4e-f22b3aca8a6b}</property>
  <property name="kdenlive:uniqueId">{6acc590e-108f-4b76-b2fc-b25adef0a287}</property>
  <property name="meta.media.width">4096</property>
  <property name="meta.media.height">2160</property>
 </producer>
 <producer id="producer24" in="00:00:00.000" out="00:00:31.167">
  <property name="length">936</property>
  <property name="eof">pause</property>
  <property name="resource"/>
  <property name="meta.media.progressive">1</property>
  <property name="aspect_ratio">1</property>
  <property name="seekable">1</property>
  <property name="mlt_service">kdenlivetitle</property>
  <property name="kdenlive:duration">00:00:05:00</property>
  <property name="kdenlive:clipname">Page 04.02</property>
  <property name="xmldata">&lt;kdenlivetitle LC_NUMERIC="C" duration="150" height="2160" out="149" width="4096">
 &lt;item type="QGraphicsTextItem" z-index="2">
  &lt;position x="320" y="500">
   &lt;transform>1,0,0,0,1,0,0,0,1&lt;/transform>
  &lt;/position>
  &lt;content alignment="1" box-height="408" box-width="3412.83" font="Noto Sans" font-color="0,0,0,255" font-italic="0" font-pixel-size="100" font-underline="0" font-weight="400" letter-spacing="0" line-spacing="0" shadow="0;#64000000;3;3;3" tab-width="80" typewriter="0;2;1;0;0">The Remal-Gombi is an open source development platform that provides
 a ready-for-use development environment best fits best for Spring Boot
 development and supports Java 23.&lt;/content>
 &lt;/item>
 &lt;startviewport rect="0,0,4096,2160"/>
 &lt;endviewport rect="0,0,4096,2160"/>
 &lt;background color="0,0,0,0"/>
&lt;/kdenlivetitle>
</property>
  <property name="xml">was here</property>
  <property name="kdenlive:folderid">-1</property>
  <property name="kdenlive:id">29</property>
  <property name="kdenlive:clip_type">2</property>
  <property name="kdenlive:file_hash">4ba8cd0511f3ce00bcd27d4763aed78b</property>
  <property name="force_reload">0</property>
  <property name="kdenlive:monitorPosition">149</property>
  <property name="kdenlive:control_uuid">{ebd9ab99-2338-4996-8c60-868b3897e445}</property>
  <property name="kdenlive:uniqueId">{0d5e95ec-2f1e-4a21-9b07-a2c716b9021a}</property>
  <property name="meta.media.width">4096</property>
  <property name="meta.media.height">2160</property>
 </producer>
 <producer id="producer28" in="00:00:00.000" out="00:00:29.933">
  <property name="length">899</property>
  <property name="eof">pause</property>
  <property name="resource">#ff000000</property>
  <property name="aspect_ratio">1</property>
  <property name="mlt_service">color</property>
  <property name="kdenlive:clipname">Page 04 - fade</property>
  <property name="kdenlive:duration">00:00:05.000</property>
  <property name="xml">was here</property>
  <property name="seekable">1</property>
  <property name="kdenlive:folderid">-1</property>
  <property name="kdenlive:id">30</property>
  <property name="mlt_image_format">rgb</property>
  <property name="kdenlive:clip_type">2</property>
  <property name="kdenlive:monitorPosition">23</property>
  <property name="kdenlive:control_uuid">{ce5552a3-f88b-4139-91b6-3a6e947202fc}</property>
  <property name="kdenlive:file_hash">5b0940ab70748200b1fae87129fa214e</property>
 </producer>
 <producer id="producer22" in="00:00:00.000" out="00:03:41.867">
  <property name="length">6657</property>
  <property name="eof">pause</property>
  <property name="resource">#ffffecb3</property>
  <property name="aspect_ratio">1</property>
  <property name="mlt_service">color</property>
  <property name="kdenlive:clipname">Background - yellow</property>
  <property name="kdenlive:duration">00:00:05:00</property>
  <property name="xml">was here</property>
  <property name="seekable">1</property>
  <property name="kdenlive:folderid">-1</property>
  <property name="kdenlive:id">31</property>
  <property name="kdenlive:control_uuid">{9a50b4bd-491f-4acc-9e2b-d3d1ecd42322}</property>
  <property name="mlt_image_format">rgb</property>
  <property name="kdenlive:clip_type">2</property>
  <property name="kdenlive:monitorPosition">4690</property>
  <property name="kdenlive:file_hash">f5f2319a7f81ac0443f05a810cc720de</property>
 </producer>
 <producer id="producer23" in="00:00:00.000" out="00:00:21.400">
  <property name="length">643</property>
  <property name="eof">pause</property>
  <property name="resource"/>
  <property name="meta.media.progressive">1</property>
  <property name="aspect_ratio">1</property>
  <property name="seekable">1</property>
  <property name="mlt_service">kdenlivetitle</property>
  <property name="kdenlive:duration">00:00:05:00</property>
  <property name="kdenlive:clipname">Page 04.03</property>
  <property name="xmldata">&lt;kdenlivetitle LC_NUMERIC="C" duration="150" height="2160" out="149" width="4096">
 &lt;item type="QGraphicsTextItem" z-index="2">
  &lt;position x="320" y="1000">
   &lt;transform>1,0,0,0,1,0,0,0,1&lt;/transform>
  &lt;/position>
  &lt;content alignment="1" box-height="816" box-width="3428.09" font="Noto Sans" font-color="0,0,0,255" font-italic="0" font-pixel-size="100" font-underline="0" font-weight="400" letter-spacing="0" line-spacing="0" shadow="0;#64000000;3;3;3" tab-width="80" typewriter="0;2;1;0;0">The Gombi Platform that developers use to build applications can also be
used in a production environment without modification. It is fully
horizontally scalable, uses secure communication channels between the
building boxes and provides a full Private Certificate Authority server to
issue, renew and revoke server certificates signed by the organisation's
root CA.&lt;/content>
 &lt;/item>
 &lt;startviewport rect="0,0,4096,2160"/>
 &lt;endviewport rect="0,0,4096,2160"/>
 &lt;background color="0,0,0,0"/>
&lt;/kdenlivetitle>
</property>
  <property name="xml">was here</property>
  <property name="kdenlive:folderid">-1</property>
  <property name="kdenlive:id">32</property>
  <property name="kdenlive:clip_type">2</property>
  <property name="kdenlive:file_hash">7846a8db31e479d6ed99b2d93531229e</property>
  <property name="force_reload">0</property>
  <property name="kdenlive:monitorPosition">23</property>
  <property name="kdenlive:control_uuid">{3de02f6e-df6b-4f6c-b45c-d19b0eefb009}</property>
  <property name="kdenlive:uniqueId">{f1039f73-67be-4e57-9e19-cfffab9d5e1d}</property>
  <property name="meta.media.width">4096</property>
  <property name="meta.media.height">2160</property>
 </producer>
 <chain id="chain5" out="00:00:16.167">
  <property name="length">486</property>
  <property name="eof">pause</property>
  <property name="resource">media/audio/audio-script-page-04.02.mp3</property>
  <property name="mlt_service">avformat</property>
  <property name="meta.media.nb_streams">1</property>
  <property name="meta.media.0.stream.type">audio</property>
  <property name="meta.media.0.codec.sample_fmt">fltp</property>
  <property name="meta.media.0.codec.sample_rate">44100</property>
  <property name="meta.media.0.codec.channels">1</property>
  <property name="meta.media.0.codec.layout">mono</property>
  <property name="meta.media.0.codec.name">mp3float</property>
  <property name="meta.media.0.codec.long_name">MP3 (MPEG audio layer 3)</property>
  <property name="meta.media.0.codec.bit_rate">64000</property>
  <property name="meta.attr.encoder.markup">Lavf60.16.100</property>
  <property name="seekable">1</property>
  <property name="audio_index">0</property>
  <property name="video_index">-1</property>
  <property name="astream">0</property>
  <property name="kdenlive:control_uuid">{e6396cf1-2f6c-4db4-8c28-2857a5e09fd1}</property>
  <property name="kdenlive:id">33</property>
  <property name="kdenlive:clip_type">1</property>
  <property name="kdenlive:file_size">129794</property>
  <property name="kdenlive:file_hash">5bf99a2ade285dc73bbba06032d2c72d</property>
  <property name="kdenlive:folderid">-1</property>
  <property name="kdenlive:audio_max0">123</property>
  <property name="kdenlive:monitorPosition">0</property>
  <property name="kdenlive:clipname">Audio script - page 04.02</property>
 </chain>
 <chain id="chain6" out="00:00:24.533">
  <property name="length">737</property>
  <property name="eof">pause</property>
  <property name="resource">media/audio/audio-script-page-04.03.mp3</property>
  <property name="mlt_service">avformat</property>
  <property name="meta.media.nb_streams">1</property>
  <property name="meta.media.0.stream.type">audio</property>
  <property name="meta.media.0.codec.sample_fmt">fltp</property>
  <property name="meta.media.0.codec.sample_rate">44100</property>
  <property name="meta.media.0.codec.channels">1</property>
  <property name="meta.media.0.codec.layout">mono</property>
  <property name="meta.media.0.codec.name">mp3float</property>
  <property name="meta.media.0.codec.long_name">MP3 (MPEG audio layer 3)</property>
  <property name="meta.media.0.codec.bit_rate">64000</property>
  <property name="meta.attr.encoder.markup">Lavf60.16.100</property>
  <property name="seekable">1</property>
  <property name="audio_index">0</property>
  <property name="video_index">-1</property>
  <property name="astream">0</property>
  <property name="kdenlive:control_uuid">{717b0317-0259-4e4a-946c-838009c7a9a7}</property>
  <property name="kdenlive:id">34</property>
  <property name="kdenlive:clip_type">1</property>
  <property name="kdenlive:file_size">196667</property>
  <property name="kdenlive:file_hash">dbb024fd214a96604e0d17b89602ee71</property>
  <property name="kdenlive:folderid">-1</property>
  <property name="kdenlive:audio_max0">131</property>
  <property name="kdenlive:monitorPosition">0</property>
  <property name="kdenlive:clipname">Audio script - page 04.03</property>
 </chain>
 <producer id="producer32" in="00:00:00.000" out="00:00:36.867">
  <property name="length">1107</property>
  <property name="eof">pause</property>
  <property name="resource"/>
  <property name="meta.media.progressive">1</property>
  <property name="aspect_ratio">1</property>
  <property name="seekable">1</property>
  <property name="mlt_service">kdenlivetitle</property>
  <property name="kdenlive:duration">00:00:05:00</property>
  <property name="kdenlive:clipname">Page 05</property>
  <property name="xmldata">&lt;kdenlivetitle LC_NUMERIC="C" duration="150" height="2160" out="149" width="4096">
 &lt;item type="QGraphicsTextItem" z-index="0">
  &lt;position x="3971" y="2040">
   &lt;transform>1,0,0,0,1,0,0,0,1&lt;/transform>
  &lt;/position>
  &lt;content alignment="2" box-height="136" box-width="28.5938" font="Noto Sans" font-color="117,117,117,255" font-italic="0" font-pixel-size="50" font-underline="0" font-weight="900" letter-spacing="0" line-spacing="0" shadow="0;#64000000;3;3;3" tab-width="80" typewriter="0;2;1;0;0">5
&lt;/content>
 &lt;/item>
 &lt;startviewport rect="0,0,4096,2160"/>
 &lt;endviewport rect="0,0,4096,2160"/>
 &lt;background color="170,255,0,0"/>
&lt;/kdenlivetitle>
</property>
  <property name="xml">was here</property>
  <property name="kdenlive:folderid">-1</property>
  <property name="kdenlive:id">35</property>
  <property name="kdenlive:clip_type">2</property>
  <property name="kdenlive:file_hash">f3e7fcf726b1388f4f7f728e00dede89</property>
  <property name="force_reload">0</property>
  <property name="kdenlive:monitorPosition">95</property>
  <property name="kdenlive:control_uuid">{49fdb727-533f-43b7-a415-586c7023d8f6}</property>
  <property name="kdenlive:uniqueId">{97efe44e-87cc-45e3-9491-5762937a4e95}</property>
  <property name="meta.media.width">4096</property>
  <property name="meta.media.height">2160</property>
 </producer>
 <producer id="producer33" in="00:00:00.000" out="00:00:36.867">
  <property name="length">1107</property>
  <property name="eof">pause</property>
  <property name="resource">#ff000000</property>
  <property name="aspect_ratio">1</property>
  <property name="mlt_service">color</property>
  <property name="kdenlive:clipname">Page 0,5 - fade</property>
  <property name="kdenlive:duration">00:00:05.000</property>
  <property name="xml">was here</property>
  <property name="seekable">1</property>
  <property name="kdenlive:folderid">-1</property>
  <property name="kdenlive:id">36</property>
  <property name="mlt_image_format">rgb</property>
  <property name="kdenlive:clip_type">2</property>
  <property name="kdenlive:monitorPosition">23</property>
  <property name="kdenlive:file_hash">fb762ca3b45ce510ad2f75a8b6baef35</property>
  <property name="kdenlive:control_uuid">{13cd2a40-3457-47a9-ad12-855b10fb3903}</property>
 </producer>
 <producer id="producer31" in="00:00:00.000" out="00:00:36.867">
  <property name="length">1107</property>
  <property name="eof">pause</property>
  <property name="resource"/>
  <property name="meta.media.progressive">1</property>
  <property name="aspect_ratio">1</property>
  <property name="seekable">1</property>
  <property name="mlt_service">kdenlivetitle</property>
  <property name="kdenlive:duration">00:00:05:00</property>
  <property name="kdenlive:clipname">Page 05.01</property>
  <property name="xmldata">&lt;kdenlivetitle LC_NUMERIC="C" duration="150" height="2160" out="149" width="4096">
 &lt;item type="QGraphicsTextItem" z-index="1">
  &lt;position x="320" y="100">
   &lt;transform>1,0,0,0,1,0,0,0,1&lt;/transform>
  &lt;/position>
  &lt;content alignment="1" box-height="205" box-width="1732.98" font="Noto Sans" font-color="0,0,0,255" font-italic="0" font-pixel-size="150" font-underline="0" font-weight="900" letter-spacing="0" line-spacing="0" shadow="0;#64000000;3;3;3" tab-width="80" typewriter="0;2;1;0;0">(1.1) Platform overview&lt;/content>
 &lt;/item>
 &lt;startviewport rect="0,0,4096,2160"/>
 &lt;endviewport rect="0,0,4096,2160"/>
 &lt;background color="0,0,0,0"/>
&lt;/kdenlivetitle>
</property>
  <property name="xml">was here</property>
  <property name="kdenlive:folderid">-1</property>
  <property name="kdenlive:id">37</property>
  <property name="kdenlive:clip_type">2</property>
  <property name="kdenlive:file_hash">4e06eb3e5d7f74c7c01a7cc2e4688608</property>
  <property name="force_reload">0</property>
  <property name="kdenlive:monitorPosition">116</property>
  <property name="kdenlive:control_uuid">{543e4298-6562-4bde-bf37-0c39a6d8e701}</property>
  <property name="kdenlive:uniqueId">{0baec353-250f-4b53-bb25-2b0a1abb48f5}</property>
  <property name="meta.media.width">4096</property>
  <property name="meta.media.height">2160</property>
 </producer>
 <producer id="producer30" in="00:00:00.000" out="00:00:36.867">
  <property name="length">1107</property>
  <property name="eof">pause</property>
  <property name="resource"/>
  <property name="meta.media.progressive">1</property>
  <property name="aspect_ratio">1</property>
  <property name="seekable">1</property>
  <property name="mlt_service">kdenlivetitle</property>
  <property name="kdenlive:duration">00:00:05:00</property>
  <property name="kdenlive:clipname">Page 05.02</property>
  <property name="xmldata">&lt;kdenlivetitle LC_NUMERIC="C" duration="150" height="2160" out="149" width="4096">
 &lt;item type="QGraphicsTextItem" z-index="2">
  &lt;position x="320" y="500">
   &lt;transform>1,0,0,0,1,0,0,0,1&lt;/transform>
  &lt;/position>
  &lt;content alignment="1" box-height="680" box-width="3390.16" font="Noto Sans" font-color="0,0,0,255" font-italic="0" font-pixel-size="100" font-underline="0" font-weight="400" letter-spacing="0" line-spacing="0" shadow="0;#64000000;3;3;3" tab-width="80" typewriter="0;2;1;0;0">It also supports advanced real-time monitoring capabilities with time-
and counter-based metrics that can be used by the operation teams or
managers to measure/present SLAs. Fully customisable charts can easily
show the frequency of service calls (e.g. REST endpoints) or the serving
time of requests for any service in the Platform.&lt;/content>
 &lt;/item>
 &lt;startviewport rect="0,0,4096,2160"/>
 &lt;endviewport rect="0,0,4096,2160"/>
 &lt;background color="0,0,0,0"/>
&lt;/kdenlivetitle>
</property>
  <property name="xml">was here</property>
  <property name="kdenlive:folderid">-1</property>
  <property name="kdenlive:id">38</property>
  <property name="kdenlive:clip_type">2</property>
  <property name="kdenlive:file_hash">46ca0f4015fb7273e01f4b463849bb08</property>
  <property name="force_reload">0</property>
  <property name="kdenlive:monitorPosition">149</property>
  <property name="kdenlive:control_uuid">{4c368f6d-a0ed-4c31-91e2-a66cadd9f5e8}</property>
  <property name="kdenlive:uniqueId">{47caa42a-39f8-44e6-8428-3702290e2a9e}</property>
  <property name="meta.media.width">4096</property>
  <property name="meta.media.height">2160</property>
 </producer>
 <producer id="producer29" in="00:00:00.000" out="00:00:31.167">
  <property name="length">936</property>
  <property name="eof">pause</property>
  <property name="resource"/>
  <property name="meta.media.progressive">1</property>
  <property name="aspect_ratio">1</property>
  <property name="seekable">1</property>
  <property name="mlt_service">kdenlivetitle</property>
  <property name="kdenlive:duration">00:00:05:00</property>
  <property name="kdenlive:clipname">Page 05.03</property>
  <property name="xmldata">&lt;kdenlivetitle LC_NUMERIC="C" duration="150" height="2160" out="149" width="4096">
 &lt;item type="QGraphicsTextItem" z-index="3">
  &lt;position x="320" y="1310">
   &lt;transform>1,0,0,0,1,0,0,0,1&lt;/transform>
  &lt;/position>
  &lt;content alignment="0" box-height="680" box-width="3567.39" font="Noto Sans" font-color="0,0,0,255" font-italic="0" font-pixel-size="100" font-underline="0" font-weight="400" letter-spacing="0" shadow="0;#64000000;3;3;3" tab-width="80" typewriter="0;2;1;0;0">The services provided by the Gombi Platform support rapid development
for start-ups, small and medium-sized companies. With the Gombi Platform,
IT teams can quickly deliver the IT solutions that what the business needs,
and later, as the business evolves, the services and building blocks can be
easily improved and replaced with zero downtime.&lt;/content>
 &lt;/item>
 &lt;startviewport rect="0,0,4096,2160"/>
 &lt;endviewport rect="0,0,4096,2160"/>
 &lt;background color="0,0,0,0"/>
&lt;/kdenlivetitle>
</property>
  <property name="xml">was here</property>
  <property name="kdenlive:folderid">-1</property>
  <property name="kdenlive:id">39</property>
  <property name="kdenlive:clip_type">2</property>
  <property name="kdenlive:file_hash">cd40db49ec18d210eb9c525b2d3615bc</property>
  <property name="force_reload">0</property>
  <property name="kdenlive:monitorPosition">149</property>
  <property name="kdenlive:control_uuid">{b10ba586-4578-499c-b851-a4b0177d0c47}</property>
  <property name="kdenlive:uniqueId">{252e0bb7-c8f7-4860-b850-d55851ed5021}</property>
  <property name="meta.media.width">4096</property>
  <property name="meta.media.height">2160</property>
 </producer>
 <chain id="chain7" out="00:04:30.533">
  <property name="length">8117</property>
  <property name="eof">pause</property>
  <property name="resource">media/audio/background-music-freedom.mp3</property>
  <property name="mlt_service">avformat</property>
  <property name="meta.media.nb_streams">1</property>
  <property name="meta.media.0.stream.type">audio</property>
  <property name="meta.media.0.codec.sample_fmt">fltp</property>
  <property name="meta.media.0.codec.sample_rate">44100</property>
  <property name="meta.media.0.codec.channels">2</property>
  <property name="meta.media.0.codec.layout">stereo</property>
  <property name="meta.media.0.codec.name">mp3float</property>
  <property name="meta.media.0.codec.long_name">MP3 (MPEG audio layer 3)</property>
  <property name="meta.media.0.codec.bit_rate">320000</property>
  <property name="meta.attr.artist.markup">Roa</property>
  <property name="meta.attr.TBPM.markup">130</property>
  <property name="meta.attr.encoded_by.markup">LAME in FL Studio 20</property>
  <property name="meta.attr.title.markup">freedom</property>
  <property name="meta.attr.date.markup">2020</property>
  <property name="seekable">1</property>
  <property name="audio_index">0</property>
  <property name="video_index">-1</property>
  <property name="astream">0</property>
  <property name="kdenlive:folderid">-1</property>
  <property name="kdenlive:id">40</property>
  <property name="kdenlive:control_uuid">{9801a800-c36e-40c6-9e05-cfbff6c70b4e}</property>
  <property name="kdenlive:clip_type">1</property>
  <property name="kdenlive:file_size">10824280</property>
  <property name="kdenlive:file_hash">77cbff1ce69ee3ac25751219be97df16</property>
  <property name="kdenlive:audio_max0">232</property>
  <property name="kdenlive:clipname">Audio bakground music - freedom</property>
  <property name="kdenlive:monitorPosition">8</property>
 </chain>
 <chain id="chain17" out="00:00:21.500">
  <property name="length">646</property>
  <property name="eof">pause</property>
  <property name="resource">media/audio/audio-script-page-05.02.mp3</property>
  <property name="mlt_service">avformat</property>
  <property name="meta.media.nb_streams">1</property>
  <property name="meta.media.0.stream.type">audio</property>
  <property name="meta.media.0.codec.sample_fmt">fltp</property>
  <property name="meta.media.0.codec.sample_rate">44100</property>
  <property name="meta.media.0.codec.channels">1</property>
  <property name="meta.media.0.codec.layout">mono</property>
  <property name="meta.media.0.codec.name">mp3float</property>
  <property name="meta.media.0.codec.long_name">MP3 (MPEG audio layer 3)</property>
  <property name="meta.media.0.codec.bit_rate">64000</property>
  <property name="meta.attr.encoder.markup">Lavf60.16.100</property>
  <property name="seekable">1</property>
  <property name="audio_index">0</property>
  <property name="video_index">-1</property>
  <property name="astream">0</property>
  <property name="kdenlive:folderid">-1</property>
  <property name="kdenlive:id">41</property>
  <property name="kdenlive:control_uuid">{ddcc005e-d162-41ef-93ac-770da8cb2db6}</property>
  <property name="kdenlive:clip_type">1</property>
  <property name="kdenlive:file_size">172426</property>
  <property name="kdenlive:file_hash">c99051ac3ff277e968adbd04ab2906cd</property>
  <property name="kdenlive:audio_max0">133</property>
  <property name="kdenlive:monitorPosition">0</property>
  <property name="kdenlive:clipname">Audio script - page 05.02</property>
 </chain>
 <chain id="chain18" out="00:00:28.167">
  <property name="length">846</property>
  <property name="eof">pause</property>
  <property name="resource">media/audio/audio-script-page-05.03.mp3</property>
  <property name="mlt_service">avformat</property>
  <property name="meta.media.nb_streams">1</property>
  <property name="meta.media.0.stream.type">audio</property>
  <property name="meta.media.0.codec.sample_fmt">fltp</property>
  <property name="meta.media.0.codec.sample_rate">44100</property>
  <property name="meta.media.0.codec.channels">1</property>
  <property name="meta.media.0.codec.layout">mono</property>
  <property name="meta.media.0.codec.name">mp3float</property>
  <property name="meta.media.0.codec.long_name">MP3 (MPEG audio layer 3)</property>
  <property name="meta.media.0.codec.bit_rate">64000</property>
  <property name="meta.attr.encoder.markup">Lavf60.16.100</property>
  <property name="seekable">1</property>
  <property name="audio_index">0</property>
  <property name="video_index">-1</property>
  <property name="astream">0</property>
  <property name="kdenlive:folderid">-1</property>
  <property name="kdenlive:id">42</property>
  <property name="kdenlive:control_uuid">{98905c49-2706-4c68-8a56-08ba347301ff}</property>
  <property name="kdenlive:clip_type">1</property>
  <property name="kdenlive:file_size">225924</property>
  <property name="kdenlive:file_hash">24f171659f2719a175b2d4fa06b674fe</property>
  <property name="kdenlive:audio_max0">125</property>
  <property name="kdenlive:clipname">Audio script - page 05.03</property>
  <property name="kdenlive:monitorPosition">0</property>
 </chain>
 <producer id="producer45" in="00:00:00.000" out="00:00:37.567">
  <property name="length">1128</property>
  <property name="eof">pause</property>
  <property name="resource"/>
  <property name="meta.media.progressive">1</property>
  <property name="aspect_ratio">1</property>
  <property name="seekable">1</property>
  <property name="mlt_service">kdenlivetitle</property>
  <property name="kdenlive:duration">00:00:05:00</property>
  <property name="kdenlive:clipname">Page 06</property>
  <property name="xmldata">&lt;kdenlivetitle LC_NUMERIC="C" duration="150" height="2160" out="149" width="4096">
 &lt;item type="QGraphicsTextItem" z-index="0">
  &lt;position x="3971" y="2040">
   &lt;transform>1,0,0,0,1,0,0,0,1&lt;/transform>
  &lt;/position>
  &lt;content alignment="2" box-height="69" box-width="28.5938" font="Noto Sans" font-color="117,117,117,255" font-italic="0" font-pixel-size="50" font-underline="0" font-weight="900" letter-spacing="0" line-spacing="0" shadow="0;#64000000;3;3;3" tab-width="80" typewriter="0;2;1;0;0">6&lt;/content>
 &lt;/item>
 &lt;startviewport rect="0,0,4096,2160"/>
 &lt;endviewport rect="0,0,4096,2160"/>
 &lt;background color="170,255,0,0"/>
&lt;/kdenlivetitle>
</property>
  <property name="xml">was here</property>
  <property name="kdenlive:folderid">-1</property>
  <property name="kdenlive:id">43</property>
  <property name="kdenlive:clip_type">2</property>
  <property name="kdenlive:file_hash">54a23c96e5167f76348d5a414580c25c</property>
  <property name="force_reload">0</property>
  <property name="kdenlive:monitorPosition">826</property>
  <property name="kdenlive:control_uuid">{528b716b-1fb0-4393-9a2c-0293ffdcfeb8}</property>
  <property name="kdenlive:uniqueId">{c6123b6a-e155-4558-913e-c7aaf7fb311c}</property>
  <property name="meta.media.width">4096</property>
  <property name="meta.media.height">2160</property>
 </producer>
 <producer id="producer48" in="00:00:00.000" out="00:00:41.767">
  <property name="length">1254</property>
  <property name="eof">pause</property>
  <property name="resource">#ff000000</property>
  <property name="aspect_ratio">1</property>
  <property name="mlt_service">color</property>
  <property name="kdenlive:clipname">Page 06 - fade</property>
  <property name="kdenlive:duration">00:00:05.000</property>
  <property name="xml">was here</property>
  <property name="seekable">1</property>
  <property name="kdenlive:folderid">-1</property>
  <property name="kdenlive:id">44</property>
  <property name="mlt_image_format">rgb</property>
  <property name="kdenlive:clip_type">2</property>
  <property name="kdenlive:monitorPosition">23</property>
  <property name="kdenlive:file_hash">fb762ca3b45ce510ad2f75a8b6baef35</property>
  <property name="kdenlive:control_uuid">{b977ac01-3a47-4499-adf9-d022989f49e7}</property>
 </producer>
 <producer id="producer42" in="00:00:00.000" out="00:00:37.100">
  <property name="length">1114</property>
  <property name="eof">pause</property>
  <property name="resource"/>
  <property name="meta.media.progressive">1</property>
  <property name="aspect_ratio">1</property>
  <property name="seekable">1</property>
  <property name="mlt_service">kdenlivetitle</property>
  <property name="kdenlive:duration">00:00:05:00</property>
  <property name="kdenlive:clipname">Page 06.01</property>
  <property name="xmldata">&lt;kdenlivetitle LC_NUMERIC="C" duration="150" height="2160" out="149" width="4096">
 &lt;item type="QGraphicsTextItem" z-index="1">
  &lt;position x="320" y="100">
   &lt;transform>1,0,0,0,1,0,0,0,1&lt;/transform>
  &lt;/position>
  &lt;content alignment="1" box-height="205" box-width="1732.98" font="Noto Sans" font-color="0,0,0,255" font-italic="0" font-pixel-size="150" font-underline="0" font-weight="900" letter-spacing="0" line-spacing="0" shadow="0;#64000000;3;3;3" tab-width="80" typewriter="0;2;1;0;0">(1.1) Platform overview&lt;/content>
 &lt;/item>
 &lt;startviewport rect="0,0,4096,2160"/>
 &lt;endviewport rect="0,0,4096,2160"/>
 &lt;background color="0,0,0,0"/>
&lt;/kdenlivetitle>
</property>
  <property name="xml">was here</property>
  <property name="kdenlive:folderid">-1</property>
  <property name="kdenlive:id">45</property>
  <property name="kdenlive:clip_type">2</property>
  <property name="kdenlive:file_hash">0fdbc97aa7b8c561bae85a479607dab1</property>
  <property name="force_reload">0</property>
  <property name="kdenlive:monitorPosition">30</property>
  <property name="kdenlive:control_uuid">{4d663ed4-f9d4-44aa-8e7c-d4938dd43f6c}</property>
  <property name="kdenlive:uniqueId">{87e41a0c-4bf4-418e-ae69-b62690355dfc}</property>
  <property name="meta.media.width">4096</property>
  <property name="meta.media.height">2160</property>
 </producer>
 <producer id="producer39" in="00:00:00.000" out="00:00:36.867">
  <property name="length">1107</property>
  <property name="eof">pause</property>
  <property name="resource"/>
  <property name="meta.media.progressive">1</property>
  <property name="aspect_ratio">1</property>
  <property name="seekable">1</property>
  <property name="mlt_service">kdenlivetitle</property>
  <property name="kdenlive:duration">00:00:05:00</property>
  <property name="kdenlive:clipname">Page 06.02</property>
  <property name="xmldata">&lt;kdenlivetitle LC_NUMERIC="C" duration="150" height="2160" out="149" width="4096">
 &lt;item type="QGraphicsTextItem" z-index="2">
  &lt;position x="320" y="500">
   &lt;transform>1,0,0,0,1,0,0,0,1&lt;/transform>
  &lt;/position>
  &lt;content alignment="1" box-height="272" box-width="3142.78" font="Noto Sans" font-color="0,0,0,255" font-italic="0" font-pixel-size="100" font-underline="0" font-weight="400" letter-spacing="0" line-spacing="0" shadow="0;#64000000;3;3;3" tab-width="80" typewriter="0;2;1;0;0">The platform is best suited for building microservices with Java and
Spring Boot.&lt;/content>
 &lt;/item>
 &lt;startviewport rect="0,0,4096,2160"/>
 &lt;endviewport rect="0,0,4096,2160"/>
 &lt;background color="0,0,0,0"/>
&lt;/kdenlivetitle>
</property>
  <property name="xml">was here</property>
  <property name="kdenlive:folderid">-1</property>
  <property name="kdenlive:id">46</property>
  <property name="kdenlive:clip_type">2</property>
  <property name="kdenlive:file_hash">d0e32d3a1b6fc8bb2dde35816c56dd3c</property>
  <property name="force_reload">0</property>
  <property name="kdenlive:monitorPosition">232</property>
  <property name="kdenlive:control_uuid">{5f8c62e2-bdc8-4d6a-97a4-3e81798e3a48}</property>
  <property name="kdenlive:uniqueId">{32d9a984-2c07-4cd1-b2b5-1efb73fbe4e8}</property>
  <property name="meta.media.width">4096</property>
  <property name="meta.media.height">2160</property>
 </producer>
 <chain id="chain19" out="00:00:12.167">
  <property name="length">366</property>
  <property name="eof">pause</property>
  <property name="resource">media/audio/audio-script-page-06.02.mp3</property>
  <property name="mlt_service">avformat</property>
  <property name="meta.media.nb_streams">1</property>
  <property name="meta.media.0.stream.type">audio</property>
  <property name="meta.media.0.codec.sample_fmt">fltp</property>
  <property name="meta.media.0.codec.sample_rate">44100</property>
  <property name="meta.media.0.codec.channels">1</property>
  <property name="meta.media.0.codec.layout">mono</property>
  <property name="meta.media.0.codec.name">mp3float</property>
  <property name="meta.media.0.codec.long_name">MP3 (MPEG audio layer 3)</property>
  <property name="meta.media.0.codec.bit_rate">64000</property>
  <property name="meta.attr.encoder.markup">Lavf60.16.100</property>
  <property name="seekable">1</property>
  <property name="audio_index">0</property>
  <property name="video_index">-1</property>
  <property name="astream">0</property>
  <property name="kdenlive:folderid">-1</property>
  <property name="kdenlive:id">47</property>
  <property name="kdenlive:control_uuid">{9c74faa8-f53b-4615-bc99-5636a54f397a}</property>
  <property name="kdenlive:clip_type">1</property>
  <property name="kdenlive:file_size">97820</property>
  <property name="kdenlive:file_hash">aa9e1d3e4f36438ec47f8dec646e2fc9</property>
  <property name="kdenlive:audio_max0">133</property>
  <property name="kdenlive:clipname">Audio script - page 06.02</property>
  <property name="kdenlive:monitorPosition">0</property>
 </chain>
 <producer id="producer46" in="00:00:00.000" out="00:00:37.567">
  <property name="length">1128</property>
  <property name="eof">pause</property>
  <property name="resource"/>
  <property name="meta.media.progressive">1</property>
  <property name="aspect_ratio">1</property>
  <property name="seekable">1</property>
  <property name="mlt_service">kdenlivetitle</property>
  <property name="kdenlive:duration">00:00:05:00</property>
  <property name="kdenlive:clipname">Page 07</property>
  <property name="xmldata">&lt;kdenlivetitle LC_NUMERIC="C" duration="150" height="2160" out="149" width="4096">
 &lt;item type="QGraphicsTextItem" z-index="0">
  &lt;position x="3971" y="2040">
   &lt;transform>1,0,0,0,1,0,0,0,1&lt;/transform>
  &lt;/position>
  &lt;content alignment="2" box-height="69" box-width="28.5938" font="Noto Sans" font-color="117,117,117,255" font-italic="0" font-pixel-size="50" font-underline="0" font-weight="900" letter-spacing="0" line-spacing="0" shadow="0;#64000000;3;3;3" tab-width="80" typewriter="0;2;1;0;0">7&lt;/content>
 &lt;/item>
 &lt;startviewport rect="0,0,4096,2160"/>
 &lt;endviewport rect="0,0,4096,2160"/>
 &lt;background color="170,255,0,0"/>
&lt;/kdenlivetitle>
</property>
  <property name="xml">was here</property>
  <property name="kdenlive:folderid">-1</property>
  <property name="kdenlive:id">48</property>
  <property name="kdenlive:clip_type">2</property>
  <property name="kdenlive:file_hash">a5cdfd1bab2b00a494e957ebd04c1b78</property>
  <property name="force_reload">0</property>
  <property name="kdenlive:monitorPosition">747</property>
  <property name="kdenlive:control_uuid">{7a9b44e7-ee16-4c86-8c01-7d576a7d0be6}</property>
  <property name="kdenlive:uniqueId">{fcd24fb0-dfda-4430-9387-11f9eac442cb}</property>
  <property name="meta.media.width">4096</property>
  <property name="meta.media.height">2160</property>
 </producer>
 <producer id="producer49" in="00:00:00.000" out="00:00:41.767">
  <property name="length">00:00:41.800</property>
  <property name="eof">pause</property>
  <property name="resource">#ff000000</property>
  <property name="aspect_ratio">1</property>
  <property name="mlt_service">color</property>
  <property name="kdenlive:clipname">Page 07 - fade</property>
  <property name="kdenlive:duration">00:00:05.000</property>
  <property name="xml">was here</property>
  <property name="seekable">1</property>
  <property name="kdenlive:folderid">-1</property>
  <property name="kdenlive:id">49</property>
  <property name="mlt_image_format">rgb</property>
  <property name="kdenlive:clip_type">2</property>
  <property name="kdenlive:monitorPosition">23</property>
  <property name="kdenlive:file_hash">fb762ca3b45ce510ad2f75a8b6baef35</property>
  <property name="kdenlive:control_uuid">{1a6dceb8-09cd-4f8d-84f3-67ae40a11d9d}</property>
 </producer>
 <producer id="producer43" in="00:00:00.000" out="00:00:37.100">
  <property name="length">1114</property>
  <property name="eof">pause</property>
  <property name="resource"/>
  <property name="meta.media.progressive">1</property>
  <property name="aspect_ratio">1</property>
  <property name="seekable">1</property>
  <property name="mlt_service">kdenlivetitle</property>
  <property name="kdenlive:duration">00:00:05:00</property>
  <property name="kdenlive:clipname">Page 07.01</property>
  <property name="xmldata">&lt;kdenlivetitle LC_NUMERIC="C" duration="150" height="2160" out="149" width="4096">
 &lt;item type="QGraphicsTextItem" z-index="1">
  &lt;position x="320" y="100">
   &lt;transform>1,0,0,0,1,0,0,0,1&lt;/transform>
  &lt;/position>
  &lt;content alignment="1" box-height="205" box-width="1732.98" font="Noto Sans" font-color="0,0,0,255" font-italic="0" font-pixel-size="150" font-underline="0" font-weight="900" letter-spacing="0" line-spacing="0" shadow="0;#64000000;3;3;3" tab-width="80" typewriter="0;2;1;0;0">(1.1) Platform overview&lt;/content>
 &lt;/item>
 &lt;startviewport rect="0,0,4096,2160"/>
 &lt;endviewport rect="0,0,4096,2160"/>
 &lt;background color="0,0,0,0"/>
&lt;/kdenlivetitle>
</property>
  <property name="xml">was here</property>
  <property name="kdenlive:folderid">-1</property>
  <property name="kdenlive:id">50</property>
  <property name="kdenlive:clip_type">2</property>
  <property name="kdenlive:file_hash">6ece3ded582be653cd4a28a6d7cb417f</property>
  <property name="force_reload">0</property>
  <property name="kdenlive:monitorPosition">30</property>
  <property name="kdenlive:control_uuid">{c3c19a84-140e-4128-a250-7eb421e05950}</property>
  <property name="kdenlive:uniqueId">{5d976905-5f4c-417b-9766-29e753746f86}</property>
  <property name="meta.media.width">4096</property>
  <property name="meta.media.height">2160</property>
 </producer>
 <producer id="producer40" in="00:00:00.000" out="00:00:36.867">
  <property name="length">1107</property>
  <property name="eof">pause</property>
  <property name="resource"/>
  <property name="meta.media.progressive">1</property>
  <property name="aspect_ratio">1</property>
  <property name="seekable">1</property>
  <property name="mlt_service">kdenlivetitle</property>
  <property name="kdenlive:duration">00:00:05:00</property>
  <property name="kdenlive:clipname">Page 07.02</property>
  <property name="xmldata">&lt;kdenlivetitle LC_NUMERIC="C" duration="150" height="2160" out="149" width="4096">
 &lt;item type="QGraphicsTextItem" z-index="2">
  &lt;position x="320" y="500">
   &lt;transform>1,0,0,0,1,0,0,0,1&lt;/transform>
  &lt;/position>
  &lt;content alignment="1" box-height="137" box-width="1247.23" font="Noto Sans" font-color="0,0,0,255" font-italic="0" font-pixel-size="100" font-underline="0" font-weight="700" letter-spacing="0" line-spacing="0" shadow="0;#64000000;3;3;3" tab-width="80" typewriter="0;2;1;0;0">The Platform offers (1/3):&lt;/content>
 &lt;/item>
 &lt;startviewport rect="0,0,4096,2160"/>
 &lt;endviewport rect="0,0,4096,2160"/>
 &lt;background color="0,0,0,0"/>
&lt;/kdenlivetitle>
</property>
  <property name="xml">was here</property>
  <property name="kdenlive:folderid">-1</property>
  <property name="kdenlive:id">51</property>
  <property name="kdenlive:clip_type">2</property>
  <property name="kdenlive:file_hash">96ee19f58fe9c11aa958a2fc2186e39d</property>
  <property name="force_reload">0</property>
  <property name="kdenlive:monitorPosition">149</property>
  <property name="kdenlive:control_uuid">{55c60b52-d077-4a1d-9d27-d61c8180050a}</property>
  <property name="kdenlive:uniqueId">{9a34a992-51f2-45ca-8419-2ab3ad1a18fd}</property>
  <property name="meta.media.width">4096</property>
  <property name="meta.media.height">2160</property>
 </producer>
 <producer id="producer37" in="00:00:00.000" out="00:00:36.867">
  <property name="length">1107</property>
  <property name="eof">pause</property>
  <property name="resource"/>
  <property name="meta.media.progressive">1</property>
  <property name="aspect_ratio">1</property>
  <property name="seekable">1</property>
  <property name="mlt_service">kdenlivetitle</property>
  <property name="kdenlive:duration">00:00:05:00</property>
  <property name="kdenlive:clipname">Page 07.03</property>
  <property name="xmldata">&lt;kdenlivetitle LC_NUMERIC="C" duration="150" height="2160" out="149" width="4096">
 &lt;item type="QGraphicsTextItem" z-index="2">
  &lt;position x="470" y="710">
   &lt;transform>1,0,0,0,1,0,0,0,1&lt;/transform>
  &lt;/position>
  &lt;content alignment="1" box-height="272" box-width="3141.34" font="Noto Sans" font-color="0,0,0,255" font-italic="0" font-pixel-size="100" font-underline="0" font-weight="400" letter-spacing="0" line-spacing="0" shadow="0;#64000000;3;3;3" tab-width="80" typewriter="0;2;1;0;0">• Java Runtime Environment with pre-configured Docker containers
   with Java 11, 17, 21 and 23&lt;/content>
 &lt;/item>
 &lt;startviewport rect="0,0,4096,2160"/>
 &lt;endviewport rect="0,0,4096,2160"/>
 &lt;background color="0,0,0,0"/>
&lt;/kdenlivetitle>
</property>
  <property name="xml">was here</property>
  <property name="kdenlive:folderid">-1</property>
  <property name="kdenlive:id">52</property>
  <property name="kdenlive:clip_type">2</property>
  <property name="kdenlive:file_hash">a46251f1d11fb66d964c0c4f2a40dc93</property>
  <property name="force_reload">0</property>
  <property name="kdenlive:monitorPosition">31</property>
  <property name="kdenlive:control_uuid">{4920a340-7dd0-42ae-ba5c-cc96cc568d47}</property>
  <property name="kdenlive:uniqueId">{cd1b2298-7ec9-4c4d-9928-513cba7af9e5}</property>
  <property name="meta.media.width">4096</property>
  <property name="meta.media.height">2160</property>
 </producer>
 <producer id="producer36" in="00:00:00.000" out="00:00:36.867">
  <property name="length">1107</property>
  <property name="eof">pause</property>
  <property name="resource"/>
  <property name="meta.media.progressive">1</property>
  <property name="aspect_ratio">1</property>
  <property name="seekable">1</property>
  <property name="mlt_service">kdenlivetitle</property>
  <property name="kdenlive:duration">00:00:05:00</property>
  <property name="kdenlive:clipname">Page 07.04</property>
  <property name="xmldata">&lt;kdenlivetitle LC_NUMERIC="C" duration="150" height="2160" out="149" width="4096">
 &lt;item type="QGraphicsTextItem" z-index="2">
  &lt;position x="470" y="1040">
   &lt;transform>1,0,0,0,1,0,0,0,1&lt;/transform>
  &lt;/position>
  &lt;content alignment="1" box-height="272" box-width="3348.72" font="Noto Sans" font-color="0,0,0,255" font-italic="0" font-pixel-size="100" font-underline="0" font-weight="400" letter-spacing="0" line-spacing="0" shadow="0;#64000000;3;3;3" tab-width="80" typewriter="0;2;1;0;0">• Java runtime environment containers with embedded database server
  supporting the 'Database per Service' design pattern&lt;/content>
 &lt;/item>
 &lt;startviewport rect="0,0,4096,2160"/>
 &lt;endviewport rect="0,0,4096,2160"/>
 &lt;background color="0,0,0,0"/>
&lt;/kdenlivetitle>
</property>
  <property name="xml">was here</property>
  <property name="kdenlive:folderid">-1</property>
  <property name="kdenlive:id">53</property>
  <property name="kdenlive:clip_type">2</property>
  <property name="kdenlive:file_hash">ae7b93980b77462073d931b7ec7a35e4</property>
  <property name="force_reload">0</property>
  <property name="kdenlive:monitorPosition">81</property>
  <property name="kdenlive:control_uuid">{942696c1-4f14-492f-929d-22aa306cf2da}</property>
  <property name="kdenlive:uniqueId">{5f1c89a0-3dac-4a0e-b825-ae2e631a9b69}</property>
  <property name="meta.media.width">4096</property>
  <property name="meta.media.height">2160</property>
 </producer>
 <producer id="producer35" in="00:00:00.000" out="00:00:36.867">
  <property name="length">1107</property>
  <property name="eof">pause</property>
  <property name="resource"/>
  <property name="meta.media.progressive">1</property>
  <property name="aspect_ratio">1</property>
  <property name="seekable">1</property>
  <property name="mlt_service">kdenlivetitle</property>
  <property name="kdenlive:duration">00:00:05:00</property>
  <property name="kdenlive:clipname">Page 07.05</property>
  <property name="xmldata">&lt;kdenlivetitle LC_NUMERIC="C" duration="150" height="2160" out="149" width="4096">
 &lt;item type="QGraphicsTextItem" z-index="2">
  &lt;position x="470" y="1380">
   &lt;transform>1,0,0,0,1,0,0,0,1&lt;/transform>
  &lt;/position>
  &lt;content alignment="1" box-height="137" box-width="2611.08" font="Noto Sans" font-color="0,0,0,255" font-italic="0" font-pixel-size="100" font-underline="0" font-weight="400" letter-spacing="0" line-spacing="0" shadow="0;#64000000;3;3;3" tab-width="80" typewriter="0;2;1;0;0">• Platform-wide Private Certificate Authority (PKI) server&lt;/content>
 &lt;/item>
 &lt;startviewport rect="0,0,4096,2160"/>
 &lt;endviewport rect="0,0,4096,2160"/>
 &lt;background color="0,0,0,0"/>
&lt;/kdenlivetitle>
</property>
  <property name="xml">was here</property>
  <property name="kdenlive:folderid">-1</property>
  <property name="kdenlive:id">54</property>
  <property name="kdenlive:clip_type">2</property>
  <property name="kdenlive:file_hash">f5a76a9be49ed763927b27a2103f8347</property>
  <property name="force_reload">0</property>
  <property name="kdenlive:monitorPosition">149</property>
  <property name="kdenlive:control_uuid">{de1aea5f-0ae7-4749-aa39-c501dddf5f84}</property>
  <property name="kdenlive:uniqueId">{2ccf8c45-7745-441d-bc6b-572d87a36e14}</property>
  <property name="meta.media.width">4096</property>
  <property name="meta.media.height">2160</property>
 </producer>
 <producer id="producer34" in="00:00:00.000" out="00:00:36.867">
  <property name="length">1107</property>
  <property name="eof">pause</property>
  <property name="resource"/>
  <property name="meta.media.progressive">1</property>
  <property name="aspect_ratio">1</property>
  <property name="seekable">1</property>
  <property name="mlt_service">kdenlivetitle</property>
  <property name="kdenlive:duration">00:00:05:00</property>
  <property name="kdenlive:clipname">Page 07.06</property>
  <property name="xmldata">&lt;kdenlivetitle LC_NUMERIC="C" duration="150" height="2160" out="149" width="4096">
 &lt;item type="QGraphicsTextItem" z-index="2">
  &lt;position x="470" y="1610">
   &lt;transform>1,0,0,0,1,0,0,0,1&lt;/transform>
  &lt;/position>
  &lt;content alignment="1" box-height="272" box-width="2940.22" font="Noto Sans" font-color="0,0,0,255" font-italic="0" font-pixel-size="100" font-underline="0" font-weight="400" letter-spacing="0" line-spacing="0" shadow="0;#64000000;3;3;3" tab-width="80" typewriter="0;2;1;0;0">• Distributed Service Registry with codeless, automated service
  registration&lt;/content>
 &lt;/item>
 &lt;startviewport rect="0,0,4096,2160"/>
 &lt;endviewport rect="0,0,4096,2160"/>
 &lt;background color="0,0,0,0"/>
&lt;/kdenlivetitle>
</property>
  <property name="xml">was here</property>
  <property name="kdenlive:folderid">-1</property>
  <property name="kdenlive:id">55</property>
  <property name="kdenlive:clip_type">2</property>
  <property name="kdenlive:file_hash">b7b2708e1e50edc9b6f65c5b408dcd89</property>
  <property name="force_reload">0</property>
  <property name="kdenlive:monitorPosition">60</property>
  <property name="kdenlive:control_uuid">{9493fff7-3c60-4e64-a7d1-1dd5883453ea}</property>
  <property name="kdenlive:uniqueId">{af3da112-7238-4228-8206-54c14b409c08}</property>
  <property name="meta.media.width">4096</property>
  <property name="meta.media.height">2160</property>
 </producer>
 <chain id="chain20" out="00:00:09.400">
  <property name="length">283</property>
  <property name="eof">pause</property>
  <property name="resource">media/audio/audio-script-page-07.03.mp3</property>
  <property name="mlt_service">avformat</property>
  <property name="meta.media.nb_streams">1</property>
  <property name="meta.media.0.stream.type">audio</property>
  <property name="meta.media.0.codec.sample_fmt">fltp</property>
  <property name="meta.media.0.codec.sample_rate">44100</property>
  <property name="meta.media.0.codec.channels">1</property>
  <property name="meta.media.0.codec.layout">mono</property>
  <property name="meta.media.0.codec.name">mp3float</property>
  <property name="meta.media.0.codec.long_name">MP3 (MPEG audio layer 3)</property>
  <property name="meta.media.0.codec.bit_rate">64000</property>
  <property name="meta.attr.encoder.markup">Lavf60.16.100</property>
  <property name="seekable">1</property>
  <property name="audio_index">0</property>
  <property name="video_index">-1</property>
  <property name="astream">0</property>
  <property name="kdenlive:folderid">-1</property>
  <property name="kdenlive:id">56</property>
  <property name="kdenlive:control_uuid">{c70599fd-b2da-406a-a0d4-57e83cac3b30}</property>
  <property name="kdenlive:clip_type">1</property>
  <property name="kdenlive:file_size">75668</property>
  <property name="kdenlive:file_hash">9ff9f0cafcd0c9000a9a6659521404b6</property>
  <property name="kdenlive:audio_max0">140</property>
  <property name="kdenlive:clipname">Audio script - page 07.03</property>
  <property name="kdenlive:monitorPosition">0</property>
 </chain>
 <chain id="chain21" out="00:00:09.800">
  <property name="length">295</property>
  <property name="eof">pause</property>
  <property name="resource">media/audio/audio-script-page-07.04.mp3</property>
  <property name="mlt_service">avformat</property>
  <property name="meta.media.nb_streams">1</property>
  <property name="meta.media.0.stream.type">audio</property>
  <property name="meta.media.0.codec.sample_fmt">fltp</property>
  <property name="meta.media.0.codec.sample_rate">44100</property>
  <property name="meta.media.0.codec.channels">1</property>
  <property name="meta.media.0.codec.layout">mono</property>
  <property name="meta.media.0.codec.name">mp3float</property>
  <property name="meta.media.0.codec.long_name">MP3 (MPEG audio layer 3)</property>
  <property name="meta.media.0.codec.bit_rate">64000</property>
  <property name="meta.attr.encoder.markup">Lavf60.16.100</property>
  <property name="seekable">1</property>
  <property name="audio_index">0</property>
  <property name="video_index">-1</property>
  <property name="astream">0</property>
  <property name="kdenlive:folderid">-1</property>
  <property name="kdenlive:id">57</property>
  <property name="kdenlive:control_uuid">{d6663bab-ce59-45eb-b951-897e2459de8d}</property>
  <property name="kdenlive:clip_type">1</property>
  <property name="kdenlive:file_size">79012</property>
  <property name="kdenlive:file_hash">0228718c201b0531a8ff011dd1f12998</property>
  <property name="kdenlive:audio_max0">136</property>
  <property name="kdenlive:monitorPosition">0</property>
  <property name="kdenlive:clipname">Audio script - page 07.04</property>
 </chain>
 <chain id="chain22" out="00:00:08.233">
  <property name="length">248</property>
  <property name="eof">pause</property>
  <property name="resource">media/audio/audio-script-page-07.05.mp3</property>
  <property name="mlt_service">avformat</property>
  <property name="meta.media.nb_streams">1</property>
  <property name="meta.media.0.stream.type">audio</property>
  <property name="meta.media.0.codec.sample_fmt">fltp</property>
  <property name="meta.media.0.codec.sample_rate">44100</property>
  <property name="meta.media.0.codec.channels">1</property>
  <property name="meta.media.0.codec.layout">mono</property>
  <property name="meta.media.0.codec.name">mp3float</property>
  <property name="meta.media.0.codec.long_name">MP3 (MPEG audio layer 3)</property>
  <property name="meta.media.0.codec.bit_rate">64000</property>
  <property name="meta.attr.encoder.markup">Lavf60.16.100</property>
  <property name="seekable">1</property>
  <property name="audio_index">0</property>
  <property name="video_index">-1</property>
  <property name="astream">0</property>
  <property name="kdenlive:folderid">-1</property>
  <property name="kdenlive:id">58</property>
  <property name="kdenlive:control_uuid">{f95a3266-3a61-4751-87a7-b88eb99aa844}</property>
  <property name="kdenlive:clip_type">1</property>
  <property name="kdenlive:file_size">66473</property>
  <property name="kdenlive:file_hash">f4f84a4b55ae2c2329efc4bf19dabc24</property>
  <property name="kdenlive:audio_max0">121</property>
  <property name="kdenlive:clipname">Audio script - page 07.05</property>
  <property name="kdenlive:monitorPosition">0</property>
 </chain>
 <chain id="chain23" out="00:00:04.500">
  <property name="length">136</property>
  <property name="eof">pause</property>
  <property name="resource">media/audio/audio-script-page-07.02.mp3</property>
  <property name="mlt_service">avformat</property>
  <property name="meta.media.nb_streams">1</property>
  <property name="meta.media.0.stream.type">audio</property>
  <property name="meta.media.0.codec.sample_fmt">fltp</property>
  <property name="meta.media.0.codec.sample_rate">44100</property>
  <property name="meta.media.0.codec.channels">1</property>
  <property name="meta.media.0.codec.layout">mono</property>
  <property name="meta.media.0.codec.name">mp3float</property>
  <property name="meta.media.0.codec.long_name">MP3 (MPEG audio layer 3)</property>
  <property name="meta.media.0.codec.bit_rate">64000</property>
  <property name="meta.attr.encoder.markup">Lavf60.16.100</property>
  <property name="seekable">1</property>
  <property name="audio_index">0</property>
  <property name="video_index">-1</property>
  <property name="astream">0</property>
  <property name="kdenlive:folderid">-1</property>
  <property name="kdenlive:id">59</property>
  <property name="kdenlive:control_uuid">{53b5129c-7380-4f16-a1d5-4aac3339b412}</property>
  <property name="kdenlive:clip_type">1</property>
  <property name="kdenlive:file_size">36380</property>
  <property name="kdenlive:file_hash">f0ec771680207062a235813262614ccc</property>
  <property name="kdenlive:audio_max0">127</property>
  <property name="kdenlive:clipname">Audio script - page 07.02</property>
  <property name="kdenlive:monitorPosition">0</property>
 </chain>
 <chain id="chain24" out="00:00:07.667">
  <property name="length">231</property>
  <property name="eof">pause</property>
  <property name="resource">media/audio/audio-script-page-07.06.mp3</property>
  <property name="mlt_service">avformat</property>
  <property name="meta.media.nb_streams">1</property>
  <property name="meta.media.0.stream.type">audio</property>
  <property name="meta.media.0.codec.sample_fmt">fltp</property>
  <property name="meta.media.0.codec.sample_rate">44100</property>
  <property name="meta.media.0.codec.channels">1</property>
  <property name="meta.media.0.codec.layout">mono</property>
  <property name="meta.media.0.codec.name">mp3float</property>
  <property name="meta.media.0.codec.long_name">MP3 (MPEG audio layer 3)</property>
  <property name="meta.media.0.codec.bit_rate">64000</property>
  <property name="meta.attr.encoder.markup">Lavf60.16.100</property>
  <property name="seekable">1</property>
  <property name="audio_index">0</property>
  <property name="video_index">-1</property>
  <property name="astream">0</property>
  <property name="kdenlive:folderid">-1</property>
  <property name="kdenlive:id">60</property>
  <property name="kdenlive:control_uuid">{e67953d9-8cb5-414f-91c8-3231d84f09a2}</property>
  <property name="kdenlive:clip_type">1</property>
  <property name="kdenlive:file_size">61875</property>
  <property name="kdenlive:file_hash">d4ea2c3c273ec95ed651a90f7b4246df</property>
  <property name="kdenlive:audio_max0">123</property>
  <property name="kdenlive:clipname">Audio script - page 07.06</property>
  <property name="kdenlive:monitorPosition">0</property>
 </chain>
 <producer id="producer47" in="00:00:00.000" out="00:00:37.567">
  <property name="length">1128</property>
  <property name="eof">pause</property>
  <property name="resource"/>
  <property name="meta.media.progressive">1</property>
  <property name="aspect_ratio">1</property>
  <property name="seekable">1</property>
  <property name="mlt_service">kdenlivetitle</property>
  <property name="kdenlive:duration">00:00:05:00</property>
  <property name="kdenlive:clipname">Page 08</property>
  <property name="xmldata">&lt;kdenlivetitle LC_NUMERIC="C" duration="150" height="2160" out="149" width="4096">
 &lt;item type="QGraphicsTextItem" z-index="0">
  &lt;position x="3971" y="2040">
   &lt;transform>1,0,0,0,1,0,0,0,1&lt;/transform>
  &lt;/position>
  &lt;content alignment="2" box-height="69" box-width="28.5938" font="Noto Sans" font-color="117,117,117,255" font-italic="0" font-pixel-size="50" font-underline="0" font-weight="900" letter-spacing="0" line-spacing="0" shadow="0;#64000000;3;3;3" tab-width="80" typewriter="0;2;1;0;0">8&lt;/content>
 &lt;/item>
 &lt;startviewport rect="0,0,4096,2160"/>
 &lt;endviewport rect="0,0,4096,2160"/>
 &lt;background color="170,255,0,0"/>
&lt;/kdenlivetitle>
</property>
  <property name="xml">was here</property>
  <property name="kdenlive:folderid">-1</property>
  <property name="kdenlive:id">61</property>
  <property name="kdenlive:clip_type">2</property>
  <property name="kdenlive:file_hash">8befded536d070e2cd6836acd4af06c7</property>
  <property name="force_reload">0</property>
  <property name="kdenlive:monitorPosition">661</property>
  <property name="kdenlive:control_uuid">{e748650f-802b-4559-9ac4-944db6f41a77}</property>
  <property name="kdenlive:uniqueId">{0c474321-7a4d-4edd-ad2c-84a6a4419119}</property>
  <property name="meta.media.width">4096</property>
  <property name="meta.media.height">2160</property>
 </producer>
 <producer id="producer50" in="00:00:00.000" out="00:00:41.767">
  <property name="length">00:00:41.800</property>
  <property name="eof">pause</property>
  <property name="resource">#ff000000</property>
  <property name="aspect_ratio">1</property>
  <property name="mlt_service">color</property>
  <property name="kdenlive:clipname">Page 08 - fade</property>
  <property name="kdenlive:duration">00:00:05.000</property>
  <property name="xml">was here</property>
  <property name="seekable">1</property>
  <property name="kdenlive:folderid">-1</property>
  <property name="kdenlive:id">62</property>
  <property name="mlt_image_format">rgb</property>
  <property name="kdenlive:clip_type">2</property>
  <property name="kdenlive:monitorPosition">24</property>
  <property name="kdenlive:file_hash">fb762ca3b45ce510ad2f75a8b6baef35</property>
  <property name="kdenlive:control_uuid">{fe84aa87-e2af-474c-9ac6-b1bab2d0c92d}</property>
 </producer>
 <producer id="producer44" in="00:00:00.000" out="00:00:37.100">
  <property name="length">1114</property>
  <property name="eof">pause</property>
  <property name="resource"/>
  <property name="meta.media.progressive">1</property>
  <property name="aspect_ratio">1</property>
  <property name="seekable">1</property>
  <property name="mlt_service">kdenlivetitle</property>
  <property name="kdenlive:duration">00:00:05:00</property>
  <property name="kdenlive:clipname">Page 08.01</property>
  <property name="xmldata">&lt;kdenlivetitle LC_NUMERIC="C" duration="150" height="2160" out="149" width="4096">
 &lt;item type="QGraphicsTextItem" z-index="1">
  &lt;position x="320" y="100">
   &lt;transform>1,0,0,0,1,0,0,0,1&lt;/transform>
  &lt;/position>
  &lt;content alignment="1" box-height="205" box-width="1732.98" font="Noto Sans" font-color="0,0,0,255" font-italic="0" font-pixel-size="150" font-underline="0" font-weight="900" letter-spacing="0" line-spacing="0" shadow="0;#64000000;3;3;3" tab-width="80" typewriter="0;2;1;0;0">(1.1) Platform overview&lt;/content>
 &lt;/item>
 &lt;startviewport rect="0,0,4096,2160"/>
 &lt;endviewport rect="0,0,4096,2160"/>
 &lt;background color="0,0,0,0"/>
&lt;/kdenlivetitle>
</property>
  <property name="xml">was here</property>
  <property name="kdenlive:folderid">-1</property>
  <property name="kdenlive:id">63</property>
  <property name="kdenlive:clip_type">2</property>
  <property name="kdenlive:file_hash">c3bc4e03ae338eaf7bb889ddca8f4dd5</property>
  <property name="force_reload">0</property>
  <property name="kdenlive:monitorPosition">30</property>
  <property name="kdenlive:control_uuid">{e5927cbc-f60d-4775-811c-6c113af5fc80}</property>
  <property name="kdenlive:uniqueId">{5fbd603a-dbe2-4b6f-984f-1e3090152de5}</property>
  <property name="meta.media.width">4096</property>
  <property name="meta.media.height">2160</property>
 </producer>
 <producer id="producer41" in="00:00:00.000" out="00:00:36.867">
  <property name="length">1107</property>
  <property name="eof">pause</property>
  <property name="resource"/>
  <property name="meta.media.progressive">1</property>
  <property name="aspect_ratio">1</property>
  <property name="seekable">1</property>
  <property name="mlt_service">kdenlivetitle</property>
  <property name="kdenlive:duration">00:00:05:00</property>
  <property name="kdenlive:clipname">Page 08.02</property>
  <property name="xmldata">&lt;kdenlivetitle LC_NUMERIC="C" duration="150" height="2160" out="149" width="4096">
 &lt;item type="QGraphicsTextItem" z-index="2">
  &lt;position x="320" y="500">
   &lt;transform>1,0,0,0,1,0,0,0,1&lt;/transform>
  &lt;/position>
  &lt;content alignment="1" box-height="137" box-width="1247.23" font="Noto Sans" font-color="0,0,0,255" font-italic="0" font-pixel-size="100" font-underline="0" font-weight="700" letter-spacing="0" line-spacing="0" shadow="0;#64000000;3;3;3" tab-width="80" typewriter="0;2;1;0;0">The Platform offers (2/3):&lt;/content>
 &lt;/item>
 &lt;startviewport rect="0,0,4096,2160"/>
 &lt;endviewport rect="0,0,4096,2160"/>
 &lt;background color="0,0,0,0"/>
&lt;/kdenlivetitle>
</property>
  <property name="xml">was here</property>
  <property name="kdenlive:folderid">-1</property>
  <property name="kdenlive:id">64</property>
  <property name="kdenlive:clip_type">2</property>
  <property name="kdenlive:file_hash">61bbfae6a21373737b99c386a8db37f0</property>
  <property name="force_reload">0</property>
  <property name="kdenlive:monitorPosition">149</property>
  <property name="kdenlive:control_uuid">{6530f7d1-2f09-492a-8207-52d59ef304c7}</property>
  <property name="kdenlive:uniqueId">{11e1da66-da67-4112-a19b-8cbb944fa806}</property>
  <property name="meta.media.width">4096</property>
  <property name="meta.media.height">2160</property>
 </producer>
 <chain id="chain25" out="00:00:04.500">
  <property name="length">136</property>
  <property name="eof">pause</property>
  <property name="resource">media/audio/audio-script-page-08.02.mp3</property>
  <property name="mlt_service">avformat</property>
  <property name="meta.media.nb_streams">1</property>
  <property name="meta.media.0.stream.type">audio</property>
  <property name="meta.media.0.codec.sample_fmt">fltp</property>
  <property name="meta.media.0.codec.sample_rate">44100</property>
  <property name="meta.media.0.codec.channels">1</property>
  <property name="meta.media.0.codec.layout">mono</property>
  <property name="meta.media.0.codec.name">mp3float</property>
  <property name="meta.media.0.codec.long_name">MP3 (MPEG audio layer 3)</property>
  <property name="meta.media.0.codec.bit_rate">64000</property>
  <property name="meta.attr.encoder.markup">Lavf60.16.100</property>
  <property name="seekable">1</property>
  <property name="audio_index">0</property>
  <property name="video_index">-1</property>
  <property name="astream">0</property>
  <property name="kdenlive:folderid">-1</property>
  <property name="kdenlive:id">65</property>
  <property name="kdenlive:control_uuid">{b483fe96-7764-4336-adc9-954a50177733}</property>
  <property name="kdenlive:clip_type">1</property>
  <property name="kdenlive:file_size">36380</property>
  <property name="kdenlive:file_hash">f0ec771680207062a235813262614ccc</property>
  <property name="kdenlive:audio_max0">127</property>
  <property name="kdenlive:clipname">Audio script - page 08.02</property>
  <property name="kdenlive:monitorPosition">0</property>
 </chain>
 <producer id="producer38" in="00:00:00.000" out="00:00:36.867">
  <property name="length">1107</property>
  <property name="eof">pause</property>
  <property name="resource"/>
  <property name="meta.media.progressive">1</property>
  <property name="aspect_ratio">1</property>
  <property name="seekable">1</property>
  <property name="mlt_service">kdenlivetitle</property>
  <property name="kdenlive:duration">00:00:05:00</property>
  <property name="kdenlive:clipname">Page 08.03</property>
  <property name="xmldata">&lt;kdenlivetitle LC_NUMERIC="C" duration="150" height="2160" out="149" width="4096">
 &lt;item type="QGraphicsTextItem" z-index="2">
  &lt;position x="470" y="710">
   &lt;transform>1,0,0,0,1,0,0,0,1&lt;/transform>
  &lt;/position>
  &lt;content alignment="1" box-height="272" box-width="3050.19" font="Noto Sans" font-color="0,0,0,255" font-italic="0" font-pixel-size="100" font-underline="0" font-weight="400" letter-spacing="0" line-spacing="0" shadow="0;#64000000;3;3;3" tab-width="80" typewriter="0;2;1;0;0">• A distributed Key-Value store supporting centralised application
  configuration management and real-time configuration&lt;/content>
 &lt;/item>
 &lt;startviewport rect="0,0,4096,2160"/>
 &lt;endviewport rect="0,0,4096,2160"/>
 &lt;background color="0,0,0,0"/>
&lt;/kdenlivetitle>
</property>
  <property name="xml">was here</property>
  <property name="kdenlive:folderid">-1</property>
  <property name="kdenlive:id">66</property>
  <property name="kdenlive:clip_type">2</property>
  <property name="kdenlive:file_hash">70bedf5874a1f0c3100a1990df22efb6</property>
  <property name="force_reload">0</property>
  <property name="kdenlive:monitorPosition">31</property>
  <property name="kdenlive:control_uuid">{165673fa-8836-4a98-83bb-807a1c570024}</property>
  <property name="kdenlive:uniqueId">{a37a1bbf-3b3f-46b4-a76e-a12c0545b8eb}</property>
  <property name="meta.media.width">4096</property>
  <property name="meta.media.height">2160</property>
 </producer>
 <chain id="chain42" out="00:00:10.633">
  <property name="length">320</property>
  <property name="eof">pause</property>
  <property name="resource">media/audio/audio-script-page-08.03.mp3</property>
  <property name="mlt_service">avformat</property>
  <property name="meta.media.nb_streams">1</property>
  <property name="meta.media.0.stream.type">audio</property>
  <property name="meta.media.0.codec.sample_fmt">fltp</property>
  <property name="meta.media.0.codec.sample_rate">44100</property>
  <property name="meta.media.0.codec.channels">1</property>
  <property name="meta.media.0.codec.layout">mono</property>
  <property name="meta.media.0.codec.name">mp3float</property>
  <property name="meta.media.0.codec.long_name">MP3 (MPEG audio layer 3)</property>
  <property name="meta.media.0.codec.bit_rate">64000</property>
  <property name="meta.attr.encoder.markup">Lavf60.16.100</property>
  <property name="seekable">1</property>
  <property name="audio_index">0</property>
  <property name="video_index">-1</property>
  <property name="astream">0</property>
  <property name="kdenlive:control_uuid">{c04c7ead-a63d-4043-9725-42737eb30bd0}</property>
  <property name="kdenlive:id">67</property>
  <property name="kdenlive:clip_type">1</property>
  <property name="kdenlive:file_size">85490</property>
  <property name="kdenlive:file_hash">85a48e699b0c763fae4a3c573f8b0209</property>
  <property name="kdenlive:folderid">-1</property>
  <property name="kdenlive:monitorPosition">166</property>
  <property name="kdenlive:audio_max0">122</property>
  <property name="kdenlive:clipname">Audio script - page 08.03</property>
 </chain>
 <producer id="producer53" in="00:00:00.000" out="00:00:36.867">
  <property name="length">1107</property>
  <property name="eof">pause</property>
  <property name="resource"/>
  <property name="meta.media.progressive">1</property>
  <property name="aspect_ratio">1</property>
  <property name="seekable">1</property>
  <property name="mlt_service">kdenlivetitle</property>
  <property name="kdenlive:duration">00:00:05:00</property>
  <property name="kdenlive:clipname">Page 08.04</property>
  <property name="xmldata">&lt;kdenlivetitle LC_NUMERIC="C" duration="150" height="2160" out="149" width="4096">
 &lt;item type="QGraphicsTextItem" z-index="2">
  &lt;position x="470" y="1040">
   &lt;transform>1,0,0,0,1,0,0,0,1&lt;/transform>
  &lt;/position>
  &lt;content alignment="1" box-height="272" box-width="3008.52" font="Noto Sans" font-color="0,0,0,255" font-italic="0" font-pixel-size="100" font-underline="0" font-weight="400" letter-spacing="0" line-spacing="0" shadow="0;#64000000;3;3;3" tab-width="80" typewriter="0;2;1;0;0">• Distributed cache service through three different topologies as
  embedded cache, client-server cache and near-cache&lt;/content>
 &lt;/item>
 &lt;startviewport rect="0,0,4096,2160"/>
 &lt;endviewport rect="0,0,4096,2160"/>
 &lt;background color="0,0,0,0"/>
&lt;/kdenlivetitle>
</property>
  <property name="xml">was here</property>
  <property name="kdenlive:folderid">-1</property>
  <property name="kdenlive:id">68</property>
  <property name="kdenlive:clip_type">2</property>
  <property name="kdenlive:file_hash">fac3a12f85541f9ff50d7f573d1ac942</property>
  <property name="force_reload">0</property>
  <property name="kdenlive:monitorPosition">81</property>
  <property name="kdenlive:control_uuid">{60c55ed2-5f3b-4ef9-8cf4-ad9a01d2720c}</property>
  <property name="kdenlive:uniqueId">{0f27cdd3-dd73-4435-a482-230162756280}</property>
  <property name="meta.media.width">4096</property>
  <property name="meta.media.height">2160</property>
 </producer>
 <chain id="chain31" out="00:00:10.433">
  <property name="length">314</property>
  <property name="eof">pause</property>
  <property name="resource">media/audio/audio-script-page-08.04.mp3</property>
  <property name="mlt_service">avformat</property>
  <property name="meta.media.nb_streams">1</property>
  <property name="meta.media.0.stream.type">audio</property>
  <property name="meta.media.0.codec.sample_fmt">fltp</property>
  <property name="meta.media.0.codec.sample_rate">44100</property>
  <property name="meta.media.0.codec.channels">1</property>
  <property name="meta.media.0.codec.layout">mono</property>
  <property name="meta.media.0.codec.name">mp3float</property>
  <property name="meta.media.0.codec.long_name">MP3 (MPEG audio layer 3)</property>
  <property name="meta.media.0.codec.bit_rate">64000</property>
  <property name="meta.attr.encoder.markup">Lavf60.16.100</property>
  <property name="seekable">1</property>
  <property name="audio_index">0</property>
  <property name="video_index">-1</property>
  <property name="astream">0</property>
  <property name="kdenlive:folderid">-1</property>
  <property name="kdenlive:id">69</property>
  <property name="kdenlive:control_uuid">{16145d68-01af-4a55-b423-74ee20105388}</property>
  <property name="kdenlive:clip_type">1</property>
  <property name="kdenlive:file_size">84027</property>
  <property name="kdenlive:file_hash">b0938865f180658cfb6762d901dd8bf1</property>
  <property name="kdenlive:audio_max0">121</property>
  <property name="kdenlive:clipname">Audio script - page 08.04</property>
  <property name="kdenlive:monitorPosition">0</property>
 </chain>
 <producer id="producer52" in="00:00:00.000" out="00:00:36.867">
  <property name="length">1107</property>
  <property name="eof">pause</property>
  <property name="resource"/>
  <property name="meta.media.progressive">1</property>
  <property name="aspect_ratio">1</property>
  <property name="seekable">1</property>
  <property name="mlt_service">kdenlivetitle</property>
  <property name="kdenlive:duration">00:00:05:00</property>
  <property name="kdenlive:clipname">Page 08.05</property>
  <property name="xmldata">&lt;kdenlivetitle LC_NUMERIC="C" duration="150" height="2160" out="149" width="4096">
 &lt;item type="QGraphicsTextItem" z-index="2">
  &lt;position x="470" y="1380">
   &lt;transform>1,0,0,0,1,0,0,0,1&lt;/transform>
  &lt;/position>
  &lt;content alignment="1" box-height="137" box-width="2385.27" font="Noto Sans" font-color="0,0,0,255" font-italic="0" font-pixel-size="100" font-underline="0" font-weight="400" letter-spacing="0" line-spacing="0" shadow="0;#64000000;3;3;3" tab-width="80" typewriter="0;2;1;0;0">• Stream processing and event handling with Kafka&lt;/content>
 &lt;/item>
 &lt;startviewport rect="0,0,4096,2160"/>
 &lt;endviewport rect="0,0,4096,2160"/>
 &lt;background color="0,0,0,0"/>
&lt;/kdenlivetitle>
</property>
  <property name="xml">was here</property>
  <property name="kdenlive:folderid">-1</property>
  <property name="kdenlive:id">70</property>
  <property name="kdenlive:clip_type">2</property>
  <property name="kdenlive:file_hash">bf9e09c4d6d46617cef8d8a8f1b860e8</property>
  <property name="force_reload">0</property>
  <property name="kdenlive:monitorPosition">149</property>
  <property name="kdenlive:control_uuid">{8c9ccc31-0968-4a17-b278-c625106ca01f}</property>
  <property name="kdenlive:uniqueId">{6c88fcfe-8a51-40b9-8ecb-ea8dc7f24e3d}</property>
  <property name="meta.media.width">4096</property>
  <property name="meta.media.height">2160</property>
 </producer>
 <chain id="chain32" out="00:00:10.333">
  <property name="length">311</property>
  <property name="eof">pause</property>
  <property name="resource">media/audio/audio-script-page-08.05.mp3</property>
  <property name="mlt_service">avformat</property>
  <property name="meta.media.nb_streams">1</property>
  <property name="meta.media.0.stream.type">audio</property>
  <property name="meta.media.0.codec.sample_fmt">fltp</property>
  <property name="meta.media.0.codec.sample_rate">44100</property>
  <property name="meta.media.0.codec.channels">1</property>
  <property name="meta.media.0.codec.layout">mono</property>
  <property name="meta.media.0.codec.name">mp3float</property>
  <property name="meta.media.0.codec.long_name">MP3 (MPEG audio layer 3)</property>
  <property name="meta.media.0.codec.bit_rate">64000</property>
  <property name="meta.attr.encoder.markup">Lavf60.16.100</property>
  <property name="seekable">1</property>
  <property name="audio_index">0</property>
  <property name="video_index">-1</property>
  <property name="astream">0</property>
  <property name="kdenlive:folderid">-1</property>
  <property name="kdenlive:id">71</property>
  <property name="kdenlive:control_uuid">{7d02d658-aab1-4941-b4a6-489d257fa071}</property>
  <property name="kdenlive:clip_type">1</property>
  <property name="kdenlive:file_size">83191</property>
  <property name="kdenlive:file_hash">249dd48ea854fc819b642ded5580e1aa</property>
  <property name="kdenlive:audio_max0">132</property>
  <property name="kdenlive:clipname">Audio script - page 08.05</property>
  <property name="kdenlive:monitorPosition">0</property>
 </chain>
 <producer id="producer51" in="00:00:00.000" out="00:00:36.867">
  <property name="length">1107</property>
  <property name="eof">pause</property>
  <property name="resource"/>
  <property name="meta.media.progressive">1</property>
  <property name="aspect_ratio">1</property>
  <property name="seekable">1</property>
  <property name="mlt_service">kdenlivetitle</property>
  <property name="kdenlive:duration">00:00:05:00</property>
  <property name="kdenlive:clipname">Page 08.06</property>
  <property name="xmldata">&lt;kdenlivetitle LC_NUMERIC="C" duration="150" height="2160" out="149" width="4096">
 &lt;item type="QGraphicsTextItem" z-index="2">
  &lt;position x="470" y="1610">
   &lt;transform>1,0,0,0,1,0,0,0,1&lt;/transform>
  &lt;/position>
  &lt;content alignment="1" box-height="137" box-width="2059.2" font="Noto Sans" font-color="0,0,0,255" font-italic="0" font-pixel-size="100" font-underline="0" font-weight="400" letter-spacing="0" line-spacing="0" shadow="0;#64000000;3;3;3" tab-width="80" typewriter="0;2;1;0;0">• High performance distributed LDAP server&lt;/content>
 &lt;/item>
 &lt;startviewport rect="0,0,4096,2160"/>
 &lt;endviewport rect="0,0,4096,2160"/>
 &lt;background color="0,0,0,0"/>
&lt;/kdenlivetitle>
</property>
  <property name="xml">was here</property>
  <property name="kdenlive:folderid">-1</property>
  <property name="kdenlive:id">72</property>
  <property name="kdenlive:clip_type">2</property>
  <property name="kdenlive:file_hash">ce2746018d17172bd4aedfd791bab052</property>
  <property name="force_reload">0</property>
  <property name="kdenlive:monitorPosition">60</property>
  <property name="kdenlive:control_uuid">{15472051-1707-46ed-9834-b692bf96bf06}</property>
  <property name="kdenlive:uniqueId">{eae1378c-4007-41bb-9f3e-3051bc81963d}</property>
  <property name="meta.media.width">4096</property>
  <property name="meta.media.height">2160</property>
 </producer>
 <chain id="chain33" out="00:00:06.367">
  <property name="length">192</property>
  <property name="eof">pause</property>
  <property name="resource">media/audio/audio-script-page-08.06.mp3</property>
  <property name="mlt_service">avformat</property>
  <property name="meta.media.nb_streams">1</property>
  <property name="meta.media.0.stream.type">audio</property>
  <property name="meta.media.0.codec.sample_fmt">fltp</property>
  <property name="meta.media.0.codec.sample_rate">44100</property>
  <property name="meta.media.0.codec.channels">1</property>
  <property name="meta.media.0.codec.layout">mono</property>
  <property name="meta.media.0.codec.name">mp3float</property>
  <property name="meta.media.0.codec.long_name">MP3 (MPEG audio layer 3)</property>
  <property name="meta.media.0.codec.bit_rate">64000</property>
  <property name="meta.attr.encoder.markup">Lavf60.16.100</property>
  <property name="seekable">1</property>
  <property name="audio_index">0</property>
  <property name="video_index">-1</property>
  <property name="astream">0</property>
  <property name="kdenlive:folderid">-1</property>
  <property name="kdenlive:id">73</property>
  <property name="kdenlive:control_uuid">{7eba94de-6bc2-4516-afa6-24a92b5c1afe}</property>
  <property name="kdenlive:clip_type">1</property>
  <property name="kdenlive:file_size">51427</property>
  <property name="kdenlive:file_hash">4fb53bc6c546f29c230d6934417fa11f</property>
  <property name="kdenlive:audio_max0">124</property>
  <property name="kdenlive:clipname">Audio script - page 08.06</property>
  <property name="kdenlive:monitorPosition">0</property>
 </chain>
 <producer id="producer78" in="00:00:00.000" out="00:00:37.567">
  <property name="length">1128</property>
  <property name="eof">pause</property>
  <property name="resource"/>
  <property name="meta.media.progressive">1</property>
  <property name="aspect_ratio">1</property>
  <property name="seekable">1</property>
  <property name="mlt_service">kdenlivetitle</property>
  <property name="kdenlive:duration">00:00:05:00</property>
  <property name="kdenlive:clipname">Page 09</property>
  <property name="xmldata">&lt;kdenlivetitle LC_NUMERIC="C" duration="150" height="2160" out="149" width="4096">
 &lt;item type="QGraphicsTextItem" z-index="0">
  &lt;position x="3971" y="2040">
   &lt;transform>1,0,0,0,1,0,0,0,1&lt;/transform>
  &lt;/position>
  &lt;content alignment="2" box-height="69" box-width="28.5938" font="Noto Sans" font-color="117,117,117,255" font-italic="0" font-pixel-size="50" font-underline="0" font-weight="900" letter-spacing="0" line-spacing="0" shadow="0;#64000000;3;3;3" tab-width="80" typewriter="0;2;1;0;0">9&lt;/content>
 &lt;/item>
 &lt;startviewport rect="0,0,4096,2160"/>
 &lt;endviewport rect="0,0,4096,2160"/>
 &lt;background color="170,255,0,0"/>
&lt;/kdenlivetitle>
</property>
  <property name="xml">was here</property>
  <property name="kdenlive:folderid">-1</property>
  <property name="kdenlive:id">74</property>
  <property name="kdenlive:clip_type">2</property>
  <property name="kdenlive:file_hash">357ba9b97c5c166abc938bd52693083f</property>
  <property name="force_reload">0</property>
  <property name="kdenlive:monitorPosition">826</property>
  <property name="kdenlive:control_uuid">{ea29bf07-1bcd-4ff3-bf95-40f7aa2abd5f}</property>
  <property name="kdenlive:uniqueId">{e39aea50-7204-4365-bab3-7bfab2acf180}</property>
  <property name="meta.media.width">4096</property>
  <property name="meta.media.height">2160</property>
 </producer>
 <producer id="producer81" in="00:00:00.000" out="00:00:41.767">
  <property name="length">00:00:41.800</property>
  <property name="eof">pause</property>
  <property name="resource">#ff000000</property>
  <property name="aspect_ratio">1</property>
  <property name="mlt_service">color</property>
  <property name="kdenlive:clipname">Page 09 - fade</property>
  <property name="kdenlive:duration">00:00:05.000</property>
  <property name="xml">was here</property>
  <property name="seekable">1</property>
  <property name="kdenlive:folderid">-1</property>
  <property name="kdenlive:id">75</property>
  <property name="mlt_image_format">rgb</property>
  <property name="kdenlive:clip_type">2</property>
  <property name="kdenlive:monitorPosition">25</property>
  <property name="kdenlive:file_hash">fb762ca3b45ce510ad2f75a8b6baef35</property>
  <property name="kdenlive:control_uuid">{1d25b990-584d-4c17-8fb5-8211ca4594a9}</property>
 </producer>
 <producer id="producer75" in="00:00:00.000" out="00:00:37.100">
  <property name="length">1114</property>
  <property name="eof">pause</property>
  <property name="resource"/>
  <property name="meta.media.progressive">1</property>
  <property name="aspect_ratio">1</property>
  <property name="seekable">1</property>
  <property name="mlt_service">kdenlivetitle</property>
  <property name="kdenlive:duration">00:00:05:00</property>
  <property name="kdenlive:clipname">Page 09.01</property>
  <property name="xmldata">&lt;kdenlivetitle LC_NUMERIC="C" duration="150" height="2160" out="149" width="4096">
 &lt;item type="QGraphicsTextItem" z-index="1">
  &lt;position x="320" y="100">
   &lt;transform>1,0,0,0,1,0,0,0,1&lt;/transform>
  &lt;/position>
  &lt;content alignment="1" box-height="205" box-width="1732.98" font="Noto Sans" font-color="0,0,0,255" font-italic="0" font-pixel-size="150" font-underline="0" font-weight="900" letter-spacing="0" line-spacing="0" shadow="0;#64000000;3;3;3" tab-width="80" typewriter="0;2;1;0;0">(1.1) Platform overview&lt;/content>
 &lt;/item>
 &lt;startviewport rect="0,0,4096,2160"/>
 &lt;endviewport rect="0,0,4096,2160"/>
 &lt;background color="0,0,0,0"/>
&lt;/kdenlivetitle>
</property>
  <property name="xml">was here</property>
  <property name="kdenlive:folderid">-1</property>
  <property name="kdenlive:id">76</property>
  <property name="kdenlive:clip_type">2</property>
  <property name="kdenlive:file_hash">d2b6880c4c18988bf76234af60dd898c</property>
  <property name="force_reload">0</property>
  <property name="kdenlive:monitorPosition">30</property>
  <property name="kdenlive:control_uuid">{279dc135-060d-4e44-a8e1-692e654585bd}</property>
  <property name="kdenlive:uniqueId">{44d616e6-4571-4a50-97d3-6988682d03b6}</property>
  <property name="meta.media.width">4096</property>
  <property name="meta.media.height">2160</property>
 </producer>
 <producer id="producer73" in="00:00:00.000" out="00:00:36.867">
  <property name="length">1107</property>
  <property name="eof">pause</property>
  <property name="resource"/>
  <property name="meta.media.progressive">1</property>
  <property name="aspect_ratio">1</property>
  <property name="seekable">1</property>
  <property name="mlt_service">kdenlivetitle</property>
  <property name="kdenlive:duration">00:00:05:00</property>
  <property name="kdenlive:clipname">Page 09.02</property>
  <property name="xmldata">&lt;kdenlivetitle LC_NUMERIC="C" duration="150" height="2160" out="149" width="4096">
 &lt;item type="QGraphicsTextItem" z-index="2">
  &lt;position x="320" y="500">
   &lt;transform>1,0,0,0,1,0,0,0,1&lt;/transform>
  &lt;/position>
  &lt;content alignment="1" box-height="137" box-width="1247.23" font="Noto Sans" font-color="0,0,0,255" font-italic="0" font-pixel-size="100" font-underline="0" font-weight="700" letter-spacing="0" line-spacing="0" shadow="0;#64000000;3;3;3" tab-width="80" typewriter="0;2;1;0;0">The Platform offers (3/3):&lt;/content>
 &lt;/item>
 &lt;startviewport rect="0,0,4096,2160"/>
 &lt;endviewport rect="0,0,4096,2160"/>
 &lt;background color="0,0,0,0"/>
&lt;/kdenlivetitle>
</property>
  <property name="xml">was here</property>
  <property name="kdenlive:folderid">-1</property>
  <property name="kdenlive:id">77</property>
  <property name="kdenlive:clip_type">2</property>
  <property name="kdenlive:file_hash">185b9fa3e65c2532bd48804bdac83035</property>
  <property name="force_reload">0</property>
  <property name="kdenlive:monitorPosition">149</property>
  <property name="kdenlive:control_uuid">{03dea12c-7907-4e8f-96d0-5fb4bc1d5aeb}</property>
  <property name="kdenlive:uniqueId">{9fdaf2ac-aa1c-4f0d-acb5-4684feefa44e}</property>
  <property name="meta.media.width">4096</property>
  <property name="meta.media.height">2160</property>
 </producer>
 <producer id="producer68" in="00:00:00.000" out="00:00:36.867">
  <property name="length">1107</property>
  <property name="eof">pause</property>
  <property name="resource"/>
  <property name="meta.media.progressive">1</property>
  <property name="aspect_ratio">1</property>
  <property name="seekable">1</property>
  <property name="mlt_service">kdenlivetitle</property>
  <property name="kdenlive:duration">00:00:05:00</property>
  <property name="kdenlive:clipname">Page 09.03</property>
  <property name="xmldata">&lt;kdenlivetitle LC_NUMERIC="C" duration="150" height="2160" out="149" width="4096">
 &lt;item type="QGraphicsTextItem" z-index="2">
  &lt;position x="470" y="710">
   &lt;transform>1,0,0,0,1,0,0,0,1&lt;/transform>
  &lt;/position>
  &lt;content alignment="1" box-height="408" box-width="3365.3" font="Noto Sans" font-color="0,0,0,255" font-italic="0" font-pixel-size="100" font-underline="0" font-weight="400" letter-spacing="0" line-spacing="0" shadow="0;#64000000;3;3;3" tab-width="80" typewriter="0;2;1;0;0">• Open source Access Management solution supporting authentication
  and authorisation such as OAUTH, SSO, federation, self-registration via
  Google, Facebook, Twitter, GitHub, etc.&lt;/content>
 &lt;/item>
 &lt;startviewport rect="0,0,4096,2160"/>
 &lt;endviewport rect="0,0,4096,2160"/>
 &lt;background color="0,0,0,0"/>
&lt;/kdenlivetitle>
</property>
  <property name="xml">was here</property>
  <property name="kdenlive:folderid">-1</property>
  <property name="kdenlive:id">78</property>
  <property name="kdenlive:clip_type">2</property>
  <property name="kdenlive:file_hash">c7447bdb0f9ec6dfb363867470da9894</property>
  <property name="force_reload">0</property>
  <property name="kdenlive:monitorPosition">31</property>
  <property name="kdenlive:control_uuid">{a515e8fc-b783-424a-a6f2-f4f94b9c1340}</property>
  <property name="kdenlive:uniqueId">{701c6cf3-4394-4467-b34c-797e40aad736}</property>
  <property name="meta.media.width">4096</property>
  <property name="meta.media.height">2160</property>
 </producer>
 <chain id="chain38" out="00:00:14.200">
  <property name="length">427</property>
  <property name="eof">pause</property>
  <property name="resource">media/audio/audio-script-page-09.03.mp3</property>
  <property name="mlt_service">avformat</property>
  <property name="meta.media.nb_streams">1</property>
  <property name="meta.media.0.stream.type">audio</property>
  <property name="meta.media.0.codec.sample_fmt">fltp</property>
  <property name="meta.media.0.codec.sample_rate">44100</property>
  <property name="meta.media.0.codec.channels">1</property>
  <property name="meta.media.0.codec.layout">mono</property>
  <property name="meta.media.0.codec.name">mp3float</property>
  <property name="meta.media.0.codec.long_name">MP3 (MPEG audio layer 3)</property>
  <property name="meta.media.0.codec.bit_rate">64000</property>
  <property name="meta.attr.encoder.markup">Lavf60.16.100</property>
  <property name="seekable">1</property>
  <property name="audio_index">0</property>
  <property name="video_index">-1</property>
  <property name="astream">0</property>
  <property name="kdenlive:folderid">-1</property>
  <property name="kdenlive:id">79</property>
  <property name="kdenlive:control_uuid">{835b5832-6a47-466d-a7d1-d08c2ca77680}</property>
  <property name="kdenlive:clip_type">1</property>
  <property name="kdenlive:file_size">114120</property>
  <property name="kdenlive:file_hash">68cb20332b0e1027d674b203a79410b7</property>
  <property name="kdenlive:audio_max0">118</property>
  <property name="kdenlive:clipname">Audio script - page 09.03</property>
  <property name="kdenlive:monitorPosition">0</property>
 </chain>
 <producer id="producer63" in="00:00:00.000" out="00:00:36.867">
  <property name="length">1107</property>
  <property name="eof">pause</property>
  <property name="resource"/>
  <property name="meta.media.progressive">1</property>
  <property name="aspect_ratio">1</property>
  <property name="seekable">1</property>
  <property name="mlt_service">kdenlivetitle</property>
  <property name="kdenlive:duration">00:00:05:00</property>
  <property name="kdenlive:clipname">Page 09.04</property>
  <property name="xmldata">&lt;kdenlivetitle LC_NUMERIC="C" duration="150" height="2160" out="149" width="4096">
 &lt;item type="QGraphicsTextItem" z-index="2">
  &lt;position x="470" y="1200">
   &lt;transform>1,0,0,0,1,0,0,0,1&lt;/transform>
  &lt;/position>
  &lt;content alignment="1" box-height="272" box-width="3327.41" font="Noto Sans" font-color="0,0,0,255" font-italic="0" font-pixel-size="100" font-underline="0" font-weight="400" letter-spacing="0" line-spacing="0" shadow="0;#64000000;3;3;3" tab-width="80" typewriter="0;2;1;0;0">• Collect and display events that occur across the Gombi Platform, such
  as user clicks, service call details, user request and response times&lt;/content>
 &lt;/item>
 &lt;startviewport rect="0,0,4096,2160"/>
 &lt;endviewport rect="0,0,4096,2160"/>
 &lt;background color="0,0,0,0"/>
&lt;/kdenlivetitle>
</property>
  <property name="xml">was here</property>
  <property name="kdenlive:folderid">-1</property>
  <property name="kdenlive:id">80</property>
  <property name="kdenlive:clip_type">2</property>
  <property name="kdenlive:file_hash">3c5a1ecda109289fdb0438b47a4ccae0</property>
  <property name="force_reload">0</property>
  <property name="kdenlive:monitorPosition">81</property>
  <property name="kdenlive:control_uuid">{6c621d52-76b5-4a51-9d7f-aa543bc644b0}</property>
  <property name="kdenlive:uniqueId">{6c897a51-a540-41d7-92a4-1ef81d38254a}</property>
  <property name="meta.media.width">4096</property>
  <property name="meta.media.height">2160</property>
 </producer>
 <chain id="chain39" out="00:00:12.167">
  <property name="length">366</property>
  <property name="eof">pause</property>
  <property name="resource">media/audio/audio-script-page-09.04.mp3</property>
  <property name="mlt_service">avformat</property>
  <property name="meta.media.nb_streams">1</property>
  <property name="meta.media.0.stream.type">audio</property>
  <property name="meta.media.0.codec.sample_fmt">fltp</property>
  <property name="meta.media.0.codec.sample_rate">44100</property>
  <property name="meta.media.0.codec.channels">1</property>
  <property name="meta.media.0.codec.layout">mono</property>
  <property name="meta.media.0.codec.name">mp3float</property>
  <property name="meta.media.0.codec.long_name">MP3 (MPEG audio layer 3)</property>
  <property name="meta.media.0.codec.bit_rate">64000</property>
  <property name="meta.attr.encoder.markup">Lavf60.16.100</property>
  <property name="seekable">1</property>
  <property name="audio_index">0</property>
  <property name="video_index">-1</property>
  <property name="astream">0</property>
  <property name="kdenlive:folderid">-1</property>
  <property name="kdenlive:id">81</property>
  <property name="kdenlive:control_uuid">{daccbdb7-8734-42f4-ad30-10e34b328926}</property>
  <property name="kdenlive:clip_type">1</property>
  <property name="kdenlive:file_size">97820</property>
  <property name="kdenlive:file_hash">354db9a964d8ef813d35666ec38e9776</property>
  <property name="kdenlive:audio_max0">131</property>
  <property name="kdenlive:clipname">Audio script - page 09.04</property>
  <property name="kdenlive:monitorPosition">0</property>
 </chain>
 <producer id="producer59" in="00:00:00.000" out="00:00:36.867">
  <property name="length">1107</property>
  <property name="eof">pause</property>
  <property name="resource"/>
  <property name="meta.media.progressive">1</property>
  <property name="aspect_ratio">1</property>
  <property name="seekable">1</property>
  <property name="mlt_service">kdenlivetitle</property>
  <property name="kdenlive:duration">00:00:05:00</property>
  <property name="kdenlive:clipname">Page 09.05</property>
  <property name="xmldata">&lt;kdenlivetitle LC_NUMERIC="C" duration="150" height="2160" out="149" width="4096">
 &lt;item type="QGraphicsTextItem" z-index="2">
  &lt;position x="470" y="1530">
   &lt;transform>1,0,0,0,1,0,0,0,1&lt;/transform>
  &lt;/position>
  &lt;content alignment="1" box-height="137" box-width="2104.56" font="Noto Sans" font-color="0,0,0,255" font-italic="0" font-pixel-size="100" font-underline="0" font-weight="400" letter-spacing="0" line-spacing="0" shadow="0;#64000000;3;3;3" tab-width="80" typewriter="0;2;1;0;0">• Monitoring of Kafka topic message streams&lt;/content>
 &lt;/item>
 &lt;startviewport rect="0,0,4096,2160"/>
 &lt;endviewport rect="0,0,4096,2160"/>
 &lt;background color="0,0,0,0"/>
&lt;/kdenlivetitle>
</property>
  <property name="xml">was here</property>
  <property name="kdenlive:folderid">-1</property>
  <property name="kdenlive:id">82</property>
  <property name="kdenlive:clip_type">2</property>
  <property name="kdenlive:file_hash">dc9c79e080f91ab735794573d3f1abc4</property>
  <property name="force_reload">0</property>
  <property name="kdenlive:monitorPosition">64</property>
  <property name="kdenlive:control_uuid">{de1af1aa-9eaf-4828-8ac1-8622c0030115}</property>
  <property name="kdenlive:uniqueId">{9084a692-a571-4c6f-9384-a0ada08b03a4}</property>
  <property name="meta.media.width">4096</property>
  <property name="meta.media.height">2160</property>
 </producer>
 <chain id="chain40" out="00:00:06.167">
  <property name="length">186</property>
  <property name="eof">pause</property>
  <property name="resource">media/audio/audio-script-page-09.05.mp3</property>
  <property name="mlt_service">avformat</property>
  <property name="meta.media.nb_streams">1</property>
  <property name="meta.media.0.stream.type">audio</property>
  <property name="meta.media.0.codec.sample_fmt">fltp</property>
  <property name="meta.media.0.codec.sample_rate">44100</property>
  <property name="meta.media.0.codec.channels">1</property>
  <property name="meta.media.0.codec.layout">mono</property>
  <property name="meta.media.0.codec.name">mp3float</property>
  <property name="meta.media.0.codec.long_name">MP3 (MPEG audio layer 3)</property>
  <property name="meta.media.0.codec.bit_rate">64000</property>
  <property name="meta.attr.encoder.markup">Lavf60.16.100</property>
  <property name="seekable">1</property>
  <property name="audio_index">0</property>
  <property name="video_index">-1</property>
  <property name="astream">0</property>
  <property name="kdenlive:folderid">-1</property>
  <property name="kdenlive:id">83</property>
  <property name="kdenlive:control_uuid">{d70d4327-c173-4db6-babc-770acbcce0de}</property>
  <property name="kdenlive:clip_type">1</property>
  <property name="kdenlive:file_size">49755</property>
  <property name="kdenlive:file_hash">72d3c3a8f41afefc89a550e2b4f0ccf8</property>
  <property name="kdenlive:audio_max0">134</property>
  <property name="kdenlive:clipname">Audio script - page 09.05</property>
  <property name="kdenlive:monitorPosition">0</property>
 </chain>
 <chain id="chain41" out="00:00:04.500">
  <property name="length">136</property>
  <property name="eof">pause</property>
  <property name="resource">media/audio/audio-script-page-09.02.mp3</property>
  <property name="mlt_service">avformat</property>
  <property name="meta.media.nb_streams">1</property>
  <property name="meta.media.0.stream.type">audio</property>
  <property name="meta.media.0.codec.sample_fmt">fltp</property>
  <property name="meta.media.0.codec.sample_rate">44100</property>
  <property name="meta.media.0.codec.channels">1</property>
  <property name="meta.media.0.codec.layout">mono</property>
  <property name="meta.media.0.codec.name">mp3float</property>
  <property name="meta.media.0.codec.long_name">MP3 (MPEG audio layer 3)</property>
  <property name="meta.media.0.codec.bit_rate">64000</property>
  <property name="meta.attr.encoder.markup">Lavf60.16.100</property>
  <property name="seekable">1</property>
  <property name="audio_index">0</property>
  <property name="video_index">-1</property>
  <property name="astream">0</property>
  <property name="kdenlive:folderid">-1</property>
  <property name="kdenlive:id">84</property>
  <property name="kdenlive:control_uuid">{d6afb067-0d61-4650-9f03-188bb3186adc}</property>
  <property name="kdenlive:clip_type">1</property>
  <property name="kdenlive:file_size">36380</property>
  <property name="kdenlive:file_hash">f0ec771680207062a235813262614ccc</property>
  <property name="kdenlive:audio_max0">127</property>
  <property name="kdenlive:clipname">Audio script - page 09.02</property>
  <property name="kdenlive:monitorPosition">0</property>
 </chain>
 <producer id="producer79" in="00:00:00.000" out="00:00:53.200">
  <property name="length">1597</property>
  <property name="eof">pause</property>
  <property name="resource"/>
  <property name="meta.media.progressive">1</property>
  <property name="aspect_ratio">1</property>
  <property name="seekable">1</property>
  <property name="mlt_service">kdenlivetitle</property>
  <property name="kdenlive:duration">00:00:05:00</property>
  <property name="kdenlive:clipname">Page 10</property>
  <property name="xmldata">&lt;kdenlivetitle LC_NUMERIC="C" duration="150" height="2160" out="149" width="4096">
 &lt;item type="QGraphicsTextItem" z-index="0">
  &lt;position x="3942" y="2040">
   &lt;transform>1,0,0,0,1,0,0,0,1&lt;/transform>
  &lt;/position>
  &lt;content alignment="2" box-height="69" box-width="57.1875" font="Noto Sans" font-color="117,117,117,255" font-italic="0" font-pixel-size="50" font-underline="0" font-weight="900" letter-spacing="0" line-spacing="0" shadow="0;#64000000;3;3;3" tab-width="80" typewriter="0;2;1;0;0">10&lt;/content>
 &lt;/item>
 &lt;startviewport rect="0,0,4096,2160"/>
 &lt;endviewport rect="0,0,4096,2160"/>
 &lt;background color="170,255,0,0"/>
&lt;/kdenlivetitle>
</property>
  <property name="xml">was here</property>
  <property name="kdenlive:folderid">-1</property>
  <property name="kdenlive:id">85</property>
  <property name="kdenlive:clip_type">2</property>
  <property name="kdenlive:file_hash">46dfc4c626835b17e55dd744a30b0d89</property>
  <property name="force_reload">0</property>
  <property name="kdenlive:monitorPosition">1099</property>
  <property name="kdenlive:control_uuid">{7b7272d2-6404-45cc-8b9d-44ced133aed5}</property>
  <property name="kdenlive:uniqueId">{f86ba8ce-6840-4711-9e42-580e3260fced}</property>
  <property name="meta.media.width">4096</property>
  <property name="meta.media.height">2160</property>
 </producer>
 <producer id="producer82" in="00:00:00.000" out="00:00:55.700">
  <property name="length">1672</property>
  <property name="eof">pause</property>
  <property name="resource">#ff000000</property>
  <property name="aspect_ratio">1</property>
  <property name="mlt_service">color</property>
  <property name="kdenlive:clipname">Page 10 - fade</property>
  <property name="kdenlive:duration">00:00:05.000</property>
  <property name="xml">was here</property>
  <property name="seekable">1</property>
  <property name="kdenlive:folderid">-1</property>
  <property name="kdenlive:id">86</property>
  <property name="mlt_image_format">rgb</property>
  <property name="kdenlive:clip_type">2</property>
  <property name="kdenlive:monitorPosition">25</property>
  <property name="kdenlive:file_hash">fb762ca3b45ce510ad2f75a8b6baef35</property>
  <property name="kdenlive:control_uuid">{d3ea15d5-ed9a-4ab2-8f71-e211b3e310a9}</property>
 </producer>
 <producer id="producer76" in="00:00:00.000" out="00:00:53.600">
  <property name="length">1609</property>
  <property name="eof">pause</property>
  <property name="resource"/>
  <property name="meta.media.progressive">1</property>
  <property name="aspect_ratio">1</property>
  <property name="seekable">1</property>
  <property name="mlt_service">kdenlivetitle</property>
  <property name="kdenlive:duration">00:00:05:00</property>
  <property name="kdenlive:clipname">Page 10.01</property>
  <property name="xmldata">&lt;kdenlivetitle LC_NUMERIC="C" duration="150" height="2160" out="149" width="4096">
 &lt;item type="QGraphicsTextItem" z-index="1">
  &lt;position x="320" y="100">
   &lt;transform>1,0,0,0,1,0,0,0,1&lt;/transform>
  &lt;/position>
  &lt;content alignment="1" box-height="205" box-width="1732.98" font="Noto Sans" font-color="0,0,0,255" font-italic="0" font-pixel-size="150" font-underline="0" font-weight="900" letter-spacing="0" line-spacing="0" shadow="0;#64000000;3;3;3" tab-width="80" typewriter="0;2;1;0;0">(1.1) Platform overview&lt;/content>
 &lt;/item>
 &lt;startviewport rect="0,0,4096,2160"/>
 &lt;endviewport rect="0,0,4096,2160"/>
 &lt;background color="0,0,0,0"/>
&lt;/kdenlivetitle>
</property>
  <property name="xml">was here</property>
  <property name="kdenlive:folderid">-1</property>
  <property name="kdenlive:id">87</property>
  <property name="kdenlive:clip_type">2</property>
  <property name="kdenlive:file_hash">b433fd669b38e39cea68d83080720836</property>
  <property name="force_reload">0</property>
  <property name="kdenlive:monitorPosition">223</property>
  <property name="kdenlive:control_uuid">{5ca781cc-92b8-4c91-a994-7e292e9a7ce3}</property>
  <property name="kdenlive:uniqueId">{4057ff91-ee19-4b3a-a56b-1e7a3a692447}</property>
  <property name="meta.media.width">4096</property>
  <property name="meta.media.height">2160</property>
 </producer>
 <producer id="producer55" in="00:00:00.000" out="00:01:05.600">
  <property name="length">00:01:05.633</property>
  <property name="eof">pause</property>
  <property name="resource">media/pictures/diagram-docker-images.png</property>
  <property name="ttl">25</property>
  <property name="aspect_ratio">1</property>
  <property name="meta.media.progressive">1</property>
  <property name="seekable">1</property>
  <property name="format">2</property>
  <property name="meta.media.width">1268</property>
  <property name="meta.media.height">765</property>
  <property name="mlt_service">qimage</property>
  <property name="kdenlive:duration">00:00:05.000</property>
  <property name="xml">was here</property>
  <property name="kdenlive:folderid">-1</property>
  <property name="kdenlive:id">88</property>
  <property name="kdenlive:control_uuid">{6f4ff8ee-6e2e-41f1-bcc5-99d13de0081a}</property>
  <property name="kdenlive:clip_type">2</property>
  <property name="kdenlive:file_size">74581</property>
  <property name="kdenlive:clipname">Diagram - docker images - full</property>
  <property name="kdenlive:monitorPosition">130</property>
  <property name="kdenlive:originalurl">media/pictures/diagram-docker-images.png</property>
  <property name="kdenlive:proxy">-</property>
  <property name="kdenlive:file_hash">14a7ac72b008fb8b552217268c3d8687</property>
 </producer>
 <producer id="producer84" in="00:00:00.000" out="00:01:12.167">
  <property name="length">2166</property>
  <property name="eof">pause</property>
  <property name="resource">#ffffffff</property>
  <property name="aspect_ratio">1</property>
  <property name="mlt_service">color</property>
  <property name="kdenlive:clipname">Background - white</property>
  <property name="kdenlive:duration">00:00:05:00</property>
  <property name="xml">was here</property>
  <property name="seekable">1</property>
  <property name="kdenlive:folderid">-1</property>
  <property name="kdenlive:id">89</property>
  <property name="kdenlive:control_uuid">{fb2403f0-442a-49cb-bc17-269d70efa97c}</property>
  <property name="mlt_image_format">rgb</property>
  <property name="kdenlive:clip_type">2</property>
  <property name="kdenlive:monitorPosition">689</property>
  <property name="kdenlive:file_hash">c52ab8cb48d1c625bfed6bac67235bf3</property>
 </producer>
 <producer id="producer74" in="00:00:00.000" out="00:00:51.867">
  <property name="length">1557</property>
  <property name="eof">pause</property>
  <property name="resource"/>
  <property name="meta.media.progressive">1</property>
  <property name="aspect_ratio">1</property>
  <property name="seekable">1</property>
  <property name="mlt_service">kdenlivetitle</property>
  <property name="kdenlive:duration">00:00:05:00</property>
  <property name="kdenlive:clipname">Page 10.02</property>
  <property name="xmldata">&lt;kdenlivetitle LC_NUMERIC="C" duration="150" height="2160" out="149" width="4096">
 &lt;item type="QGraphicsTextItem" z-index="0">
  &lt;position x="320" y="350">
   &lt;transform>1,0,0,0,1,0,0,0,1&lt;/transform>
  &lt;/position>
  &lt;content alignment="1" box-height="137" box-width="749.266" font="Noto Sans" font-color="0,0,0,255" font-italic="0" font-pixel-size="100" font-underline="0" font-weight="900" letter-spacing="0" line-spacing="0" shadow="0;#64000000;3;3;3" tab-width="80" typewriter="0;2;1;0;0">Docker Images&lt;/content>
 &lt;/item>
 &lt;startviewport rect="0,0,4096,2160"/>
 &lt;endviewport rect="0,0,4096,2160"/>
 &lt;background color="0,0,0,0"/>
&lt;/kdenlivetitle>
</property>
  <property name="xml">was here</property>
  <property name="kdenlive:folderid">-1</property>
  <property name="kdenlive:id">90</property>
  <property name="kdenlive:control_uuid">{b157b1f0-4e5e-4085-8d90-432f0da20161}</property>
  <property name="kdenlive:clip_type">2</property>
  <property name="kdenlive:uniqueId">{f8c695c9-c240-4392-8103-1369ba99d078}</property>
  <property name="kdenlive:file_hash">43018bc93182564ce7e209fd5c7229a1</property>
  <property name="force_reload">0</property>
  <property name="meta.media.width">4096</property>
  <property name="meta.media.height">2160</property>
  <property name="kdenlive:monitorPosition">148</property>
 </producer>
 <producer id="producer64" in="00:00:00.000" out="00:00:04.967">
  <property name="length">00:00:05.000</property>
  <property name="eof">pause</property>
  <property name="resource">media/pictures/diagram-docker-images-highlighted-3rd-party.png</property>
  <property name="ttl">25</property>
  <property name="aspect_ratio">1</property>
  <property name="meta.media.progressive">1</property>
  <property name="seekable">1</property>
  <property name="format">2</property>
  <property name="meta.media.width">4096</property>
  <property name="meta.media.height">2160</property>
  <property name="mlt_service">qimage</property>
  <property name="kdenlive:duration">00:00:05:00</property>
  <property name="xml">was here</property>
  <property name="kdenlive:folderid">-1</property>
  <property name="kdenlive:id">91</property>
  <property name="kdenlive:control_uuid">{d47e3e80-e5ff-4e57-93d9-dac5c1392ac0}</property>
  <property name="kdenlive:clip_type">2</property>
  <property name="kdenlive:file_size">342407</property>
  <property name="kdenlive:file_hash">2b3027becc970695eca5b350bbed91c1</property>
  <property name="kdenlive:monitorPosition">42</property>
  <property name="kdenlive:clipname">Diagram - docker images - highlighted - 3rd-party</property>
 </producer>
 <producer id="producer56" in="00:00:00.000" out="00:00:04.967">
  <property name="length">00:00:05.000</property>
  <property name="eof">pause</property>
  <property name="resource">media/pictures/diagram-docker-images-highlighted-remal.png</property>
  <property name="ttl">25</property>
  <property name="aspect_ratio">1</property>
  <property name="meta.media.progressive">1</property>
  <property name="seekable">1</property>
  <property name="format">2</property>
  <property name="meta.media.width">4096</property>
  <property name="meta.media.height">2160</property>
  <property name="mlt_service">qimage</property>
  <property name="kdenlive:duration">00:00:05:00</property>
  <property name="xml">was here</property>
  <property name="kdenlive:folderid">-1</property>
  <property name="kdenlive:id">92</property>
  <property name="kdenlive:control_uuid">{1a206447-4acf-4b00-8859-f3006db633b7}</property>
  <property name="kdenlive:clip_type">2</property>
  <property name="kdenlive:file_size">441783</property>
  <property name="kdenlive:file_hash">dd4c2bf90cab8e73d53c2aa206671d79</property>
  <property name="kdenlive:clipname">Diagram - docker images - highlighted - remal</property>
  <property name="kdenlive:monitorPosition">0</property>
 </producer>
 <producer id="producer69" in="00:00:00.000" out="00:00:44.000">
  <property name="length">1321</property>
  <property name="eof">pause</property>
  <property name="resource"/>
  <property name="meta.media.progressive">1</property>
  <property name="aspect_ratio">1</property>
  <property name="seekable">1</property>
  <property name="mlt_service">kdenlivetitle</property>
  <property name="kdenlive:duration">00:00:05:00</property>
  <property name="kdenlive:clipname">Page 10.03</property>
  <property name="xmldata">&lt;kdenlivetitle LC_NUMERIC="C" duration="150" height="2160" out="149" width="4096">
 &lt;item type="QGraphicsTextItem" z-index="0">
  &lt;position x="3255" y="400">
   &lt;transform>1,0,0,0,1,0,0,0,1&lt;/transform>
  &lt;/position>
  &lt;content alignment="4" box-height="136" box-width="214.906" font="Noto Sans" font-color="0,0,0,255" font-italic="0" font-pixel-size="50" font-underline="0" font-weight="400" letter-spacing="0" line-spacing="0" shadow="0;#64000000;3;3;3" tab-width="80" typewriter="0;2;1;0;0">3rd party
images&lt;/content>
 &lt;/item>
 &lt;startviewport rect="0,0,4096,2160"/>
 &lt;endviewport rect="0,0,4096,2160"/>
 &lt;background color="0,0,0,0"/>
&lt;/kdenlivetitle>
</property>
  <property name="xml">was here</property>
  <property name="kdenlive:folderid">-1</property>
  <property name="kdenlive:id">93</property>
  <property name="kdenlive:clip_type">2</property>
  <property name="kdenlive:file_hash">4af8c1f5574fbe4832346065765ce57b</property>
  <property name="force_reload">0</property>
  <property name="kdenlive:monitorPosition">62</property>
  <property name="kdenlive:control_uuid">{e574b867-40d1-484f-b640-fc42afe33352}</property>
  <property name="kdenlive:uniqueId">{eec104ae-0666-4144-862f-d40d701e7ad7}</property>
  <property name="meta.media.width">4096</property>
  <property name="meta.media.height">2160</property>
 </producer>
 <producer id="producer60" in="00:00:00.000" out="00:00:44.000">
  <property name="length">1321</property>
  <property name="eof">pause</property>
  <property name="resource"/>
  <property name="meta.media.progressive">1</property>
  <property name="aspect_ratio">1</property>
  <property name="seekable">1</property>
  <property name="mlt_service">kdenlivetitle</property>
  <property name="kdenlive:duration">00:00:05:00</property>
  <property name="kdenlive:clipname">Page 10.04</property>
  <property name="xmldata">&lt;kdenlivetitle LC_NUMERIC="C" duration="150" height="2160" out="149" width="4096">
 &lt;item type="QGraphicsTextItem" z-index="0">
  &lt;position x="3299" y="1150">
   &lt;transform>1,0,0,0,1,0,0,0,1&lt;/transform>
  &lt;/position>
  &lt;content alignment="4" box-height="136" box-width="334.766" font="Noto Sans" font-color="0,0,0,255" font-italic="0" font-pixel-size="50" font-underline="0" font-weight="400" letter-spacing="0" line-spacing="0" shadow="0;#64000000;3;3;3" tab-width="80" typewriter="0;2;1;0;0">Remal Gombi
images&lt;/content>
 &lt;/item>
 &lt;startviewport rect="0,0,4096,2160"/>
 &lt;endviewport rect="0,0,4096,2160"/>
 &lt;background color="0,0,0,0"/>
&lt;/kdenlivetitle>
</property>
  <property name="xml">was here</property>
  <property name="kdenlive:folderid">-1</property>
  <property name="kdenlive:id">94</property>
  <property name="kdenlive:clip_type">2</property>
  <property name="kdenlive:file_hash">b40244cda452013167395d1c6d285265</property>
  <property name="force_reload">0</property>
  <property name="kdenlive:monitorPosition">117</property>
  <property name="kdenlive:control_uuid">{9919552f-4bae-475b-ad42-1871707ce304}</property>
  <property name="kdenlive:uniqueId">{55c42201-4baf-43f5-ac6f-7763f98b50e4}</property>
  <property name="meta.media.width">4096</property>
  <property name="meta.media.height">2160</property>
 </producer>
 <producer id="producer65" in="00:00:00.000" out="00:00:04.967">
  <property name="length">00:00:05.000</property>
  <property name="eof">pause</property>
  <property name="resource">media/pictures/diagram-docker-images-highlighted-remal-base.png</property>
  <property name="ttl">25</property>
  <property name="aspect_ratio">1</property>
  <property name="meta.media.progressive">1</property>
  <property name="seekable">1</property>
  <property name="format">2</property>
  <property name="meta.media.width">4096</property>
  <property name="meta.media.height">2160</property>
  <property name="mlt_service">qimage</property>
  <property name="kdenlive:duration">00:00:05.000</property>
  <property name="xml">was here</property>
  <property name="kdenlive:folderid">-1</property>
  <property name="kdenlive:id">95</property>
  <property name="kdenlive:control_uuid">{d0c5c110-509c-42e8-b921-b0c82fd53f1a}</property>
  <property name="kdenlive:clip_type">2</property>
  <property name="kdenlive:file_size">340767</property>
  <property name="kdenlive:clipname">Diagram - docker images - highlighted - remal base</property>
  <property name="kdenlive:monitorPosition">0</property>
  <property name="kdenlive:originalurl">media/pictures/diagram-docker-images-highlighted-remal-base.png</property>
  <property name="kdenlive:proxy">-</property>
  <property name="kdenlive:file_hash">44f78101689e14fafce73fb38c790aba</property>
 </producer>
 <producer id="producer70" in="00:00:00.000" out="00:00:44.000">
  <property name="length">1321</property>
  <property name="eof">pause</property>
  <property name="resource"/>
  <property name="meta.media.progressive">1</property>
  <property name="aspect_ratio">1</property>
  <property name="seekable">1</property>
  <property name="mlt_service">kdenlivetitle</property>
  <property name="kdenlive:duration">00:00:05:00</property>
  <property name="kdenlive:clipname">Page 10.05</property>
  <property name="xmldata">&lt;kdenlivetitle LC_NUMERIC="C" duration="150" height="2160" out="149" width="4096">
 &lt;item type="QGraphicsTextItem" z-index="0">
  &lt;position x="2900" y="640">
   &lt;transform>1,0,0,0,1,0,0,0,1&lt;/transform>
  &lt;/position>
  &lt;content alignment="4" box-height="136" box-width="334.766" font="Noto Sans" font-color="0,0,0,255" font-italic="0" font-pixel-size="50" font-underline="0" font-weight="400" letter-spacing="0" line-spacing="0" shadow="0;#64000000;3;3;3" tab-width="80" typewriter="0;2;1;0;0">Remal Gombi
BASE image&lt;/content>
 &lt;/item>
 &lt;startviewport rect="0,0,4096,2160"/>
 &lt;endviewport rect="0,0,4096,2160"/>
 &lt;background color="0,0,0,0"/>
&lt;/kdenlivetitle>
</property>
  <property name="xml">was here</property>
  <property name="kdenlive:folderid">-1</property>
  <property name="kdenlive:id">96</property>
  <property name="kdenlive:clip_type">2</property>
  <property name="kdenlive:file_hash">6bc6f5ad1374188621d1ea4a233930c6</property>
  <property name="force_reload">0</property>
  <property name="kdenlive:monitorPosition">120</property>
  <property name="kdenlive:control_uuid">{e0ca44f5-bde4-4ea2-87af-5fbec319057a}</property>
  <property name="kdenlive:uniqueId">{a22887cd-974f-4a7d-ac0c-d436da65cd36}</property>
  <property name="meta.media.width">4096</property>
  <property name="meta.media.height">2160</property>
 </producer>
 <producer id="producer57" in="00:00:00.000" out="00:00:04.967">
  <property name="length">00:00:05.000</property>
  <property name="eof">pause</property>
  <property name="resource">media/pictures/diagram-docker-images-highlighted-remal-core.png</property>
  <property name="ttl">25</property>
  <property name="aspect_ratio">1</property>
  <property name="meta.media.progressive">1</property>
  <property name="seekable">1</property>
  <property name="format">2</property>
  <property name="meta.media.width">4096</property>
  <property name="meta.media.height">2160</property>
  <property name="mlt_service">qimage</property>
  <property name="kdenlive:duration">00:00:05:00</property>
  <property name="xml">was here</property>
  <property name="kdenlive:folderid">-1</property>
  <property name="kdenlive:id">97</property>
  <property name="kdenlive:control_uuid">{14a9fda7-404a-4d4e-9c4c-0b96fb6d8379}</property>
  <property name="kdenlive:clip_type">2</property>
  <property name="kdenlive:file_size">362249</property>
  <property name="kdenlive:file_hash">4eebc7c76a2b2e2fe5de60b8f32e3026</property>
  <property name="kdenlive:clipname">Diagram - docker images - highlighted - remal core</property>
  <property name="kdenlive:monitorPosition">0</property>
 </producer>
 <producer id="producer61" in="00:00:00.000" out="00:00:44.000">
  <property name="length">1321</property>
  <property name="eof">pause</property>
  <property name="resource"/>
  <property name="meta.media.progressive">1</property>
  <property name="aspect_ratio">1</property>
  <property name="seekable">1</property>
  <property name="mlt_service">kdenlivetitle</property>
  <property name="kdenlive:duration">00:00:05:00</property>
  <property name="kdenlive:clipname">Page 10.06</property>
  <property name="xmldata">&lt;kdenlivetitle LC_NUMERIC="C" duration="150" height="2160" out="149" width="4096">
 &lt;item type="QGraphicsTextItem" z-index="0">
  &lt;position x="2900" y="870">
   &lt;transform>1,0,0,0,1,0,0,0,1&lt;/transform>
  &lt;/position>
  &lt;content alignment="4" box-height="136" box-width="334.766" font="Noto Sans" font-color="0,0,0,255" font-italic="0" font-pixel-size="50" font-underline="0" font-weight="400" letter-spacing="0" line-spacing="0" shadow="0;#64000000;3;3;3" tab-width="80" typewriter="0;2;1;0;0">Remal Gombi
CORE images&lt;/content>
 &lt;/item>
 &lt;startviewport rect="0,0,4096,2160"/>
 &lt;endviewport rect="0,0,4096,2160"/>
 &lt;background color="0,0,0,0"/>
&lt;/kdenlivetitle>
</property>
  <property name="xml">was here</property>
  <property name="kdenlive:folderid">-1</property>
  <property name="kdenlive:id">98</property>
  <property name="kdenlive:clip_type">2</property>
  <property name="kdenlive:file_hash">78720da859ae3e8ee2452295516252f9</property>
  <property name="force_reload">0</property>
  <property name="kdenlive:monitorPosition">58</property>
  <property name="kdenlive:control_uuid">{32b69bc3-994c-48ab-beee-e67e08728d9e}</property>
  <property name="kdenlive:uniqueId">{2736c033-67f4-4349-95c6-d36557843a1e}</property>
  <property name="meta.media.width">4096</property>
  <property name="meta.media.height">2160</property>
 </producer>
 <producer id="producer66" in="00:00:00.000" out="00:00:04.967">
  <property name="length">00:00:05.000</property>
  <property name="eof">pause</property>
  <property name="resource">media/pictures/diagram-docker-images-highlighted-remal-infra.png</property>
  <property name="ttl">25</property>
  <property name="aspect_ratio">1</property>
  <property name="meta.media.progressive">1</property>
  <property name="seekable">1</property>
  <property name="format">2</property>
  <property name="meta.media.width">4096</property>
  <property name="meta.media.height">2160</property>
  <property name="mlt_service">qimage</property>
  <property name="kdenlive:duration">00:00:05:00</property>
  <property name="xml">was here</property>
  <property name="kdenlive:folderid">-1</property>
  <property name="kdenlive:id">99</property>
  <property name="kdenlive:control_uuid">{bc966d31-5254-4ac8-98d1-edf6c55d12dc}</property>
  <property name="kdenlive:clip_type">2</property>
  <property name="kdenlive:file_size">400145</property>
  <property name="kdenlive:file_hash">bd84789ebba5149daf1f5f6fd25f054e</property>
  <property name="kdenlive:clipname">Diagram - docker images - highlighted - remal infra</property>
  <property name="kdenlive:monitorPosition">0</property>
 </producer>
 <producer id="producer71" in="00:00:00.000" out="00:00:44.000">
  <property name="length">1321</property>
  <property name="eof">pause</property>
  <property name="resource"/>
  <property name="meta.media.progressive">1</property>
  <property name="aspect_ratio">1</property>
  <property name="seekable">1</property>
  <property name="mlt_service">kdenlivetitle</property>
  <property name="kdenlive:duration">00:00:05:00</property>
  <property name="kdenlive:clipname">Page 10.07</property>
  <property name="xmldata">&lt;kdenlivetitle LC_NUMERIC="C" duration="150" height="2160" out="149" width="4096">
 &lt;item type="QGraphicsTextItem" z-index="0">
  &lt;position x="3050" y="1250">
   &lt;transform>1,0,0,0,1,0,0,0,1&lt;/transform>
  &lt;/position>
  &lt;content alignment="4" box-height="136" box-width="334.766" font="Noto Sans" font-color="0,0,0,255" font-italic="0" font-pixel-size="50" font-underline="0" font-weight="400" letter-spacing="0" line-spacing="0" shadow="0;#64000000;3;3;3" tab-width="80" typewriter="0;2;1;0;0">Remal Gombi
INFRA images&lt;/content>
 &lt;/item>
 &lt;startviewport rect="0,0,4096,2160"/>
 &lt;endviewport rect="0,0,4096,2160"/>
 &lt;background color="0,0,0,0"/>
&lt;/kdenlivetitle>
</property>
  <property name="xml">was here</property>
  <property name="kdenlive:folderid">-1</property>
  <property name="kdenlive:id">100</property>
  <property name="kdenlive:clip_type">2</property>
  <property name="kdenlive:file_hash">3e273316c33126a05295162eb7854c59</property>
  <property name="force_reload">0</property>
  <property name="kdenlive:monitorPosition">110</property>
  <property name="kdenlive:control_uuid">{26667478-2b6a-4c7b-a299-a7728f1a5d1a}</property>
  <property name="kdenlive:uniqueId">{2b2d3cf3-54ec-49c5-8d46-2f1b13756709}</property>
  <property name="meta.media.width">4096</property>
  <property name="meta.media.height">2160</property>
 </producer>
 <producer id="producer58" in="00:00:00.000" out="00:00:04.967">
  <property name="length">00:00:05.000</property>
  <property name="eof">pause</property>
  <property name="resource">media/pictures/diagram-docker-images-highlighted-remal-app.png</property>
  <property name="ttl">25</property>
  <property name="aspect_ratio">1</property>
  <property name="meta.media.progressive">1</property>
  <property name="seekable">1</property>
  <property name="format">2</property>
  <property name="meta.media.width">4096</property>
  <property name="meta.media.height">2160</property>
  <property name="mlt_service">qimage</property>
  <property name="kdenlive:duration">00:00:05:00</property>
  <property name="xml">was here</property>
  <property name="kdenlive:folderid">-1</property>
  <property name="kdenlive:id">101</property>
  <property name="kdenlive:control_uuid">{03ca3fcd-9119-450a-a662-f86c2b8b2074}</property>
  <property name="kdenlive:clip_type">2</property>
  <property name="kdenlive:file_size">361459</property>
  <property name="kdenlive:file_hash">cfc4e991b56a3aca4a6ac4c5d4f3460b</property>
  <property name="kdenlive:clipname">Diagram - docker images - highlighted - remal app</property>
  <property name="kdenlive:monitorPosition">0</property>
 </producer>
 <producer id="producer62" in="00:00:00.000" out="00:00:44.000">
  <property name="length">1321</property>
  <property name="eof">pause</property>
  <property name="resource"/>
  <property name="meta.media.progressive">1</property>
  <property name="aspect_ratio">1</property>
  <property name="seekable">1</property>
  <property name="mlt_service">kdenlivetitle</property>
  <property name="kdenlive:duration">00:00:05:00</property>
  <property name="kdenlive:clipname">Page 10.08</property>
  <property name="xmldata">&lt;kdenlivetitle LC_NUMERIC="C" duration="150" height="2160" out="149" width="4096">
 &lt;item type="QGraphicsTextItem" z-index="0">
  &lt;position x="2550" y="1450">
   &lt;transform>1,0,0,0,1,0,0,0,1&lt;/transform>
  &lt;/position>
  &lt;content alignment="4" box-height="136" box-width="334.766" font="Noto Sans" font-color="0,0,0,255" font-italic="0" font-pixel-size="50" font-underline="0" font-weight="400" letter-spacing="0" line-spacing="0" shadow="0;#64000000;3;3;3" tab-width="80" typewriter="0;2;1;0;0">Remal Gombi
APP images&lt;/content>
 &lt;/item>
 &lt;startviewport rect="0,0,4096,2160"/>
 &lt;endviewport rect="0,0,4096,2160"/>
 &lt;background color="0,0,0,0"/>
&lt;/kdenlivetitle>
</property>
  <property name="xml">was here</property>
  <property name="kdenlive:folderid">-1</property>
  <property name="kdenlive:id">102</property>
  <property name="kdenlive:clip_type">2</property>
  <property name="kdenlive:file_hash">976985fd35be04d32f2f1181a79d93b6</property>
  <property name="force_reload">0</property>
  <property name="kdenlive:monitorPosition">114</property>
  <property name="kdenlive:control_uuid">{60479273-e848-4cfc-b6d3-1b94419a17a5}</property>
  <property name="kdenlive:uniqueId">{93eade4e-858a-41e9-a21c-6574f9df178c}</property>
  <property name="meta.media.width">4096</property>
  <property name="meta.media.height">2160</property>
 </producer>
 <producer id="producer67" in="00:00:00.000" out="00:00:04.967">
  <property name="length">00:00:05.000</property>
  <property name="eof">pause</property>
  <property name="resource">media/pictures/diagram-docker-images-highlighted-remal-monitoring.png</property>
  <property name="ttl">25</property>
  <property name="aspect_ratio">1</property>
  <property name="meta.media.progressive">1</property>
  <property name="seekable">1</property>
  <property name="format">2</property>
  <property name="meta.media.width">4096</property>
  <property name="meta.media.height">2160</property>
  <property name="mlt_service">qimage</property>
  <property name="kdenlive:duration">00:00:05:00</property>
  <property name="xml">was here</property>
  <property name="kdenlive:folderid">-1</property>
  <property name="kdenlive:id">103</property>
  <property name="kdenlive:control_uuid">{1b013979-f422-434e-b836-8a18501b10ac}</property>
  <property name="kdenlive:clip_type">2</property>
  <property name="kdenlive:file_size">353559</property>
  <property name="kdenlive:file_hash">dc246ef3964c7c760f7e3440c7d3c07c</property>
  <property name="kdenlive:clipname">Diagram - docker images - highlighted - remal monitoring</property>
  <property name="kdenlive:monitorPosition">0</property>
 </producer>
 <producer id="producer72" in="00:00:00.000" out="00:00:44.000">
  <property name="length">1321</property>
  <property name="eof">pause</property>
  <property name="resource"/>
  <property name="meta.media.progressive">1</property>
  <property name="aspect_ratio">1</property>
  <property name="seekable">1</property>
  <property name="mlt_service">kdenlivetitle</property>
  <property name="kdenlive:duration">00:00:05:00</property>
  <property name="kdenlive:clipname">Page 10.09</property>
  <property name="xmldata">&lt;kdenlivetitle LC_NUMERIC="C" duration="150" height="2160" out="149" width="4096">
 &lt;item type="QGraphicsTextItem" z-index="0">
  &lt;position x="3500" y="1830">
   &lt;transform>1,0,0,0,1,0,0,0,1&lt;/transform>
  &lt;/position>
  &lt;content alignment="4" box-height="136" box-width="511.078" font="Noto Sans" font-color="0,0,0,255" font-italic="0" font-pixel-size="50" font-underline="0" font-weight="400" letter-spacing="0" line-spacing="0" shadow="0;#64000000;3;3;3" tab-width="80" typewriter="0;2;1;0;0">Remal Gombi
MONITORING images&lt;/content>
 &lt;/item>
 &lt;startviewport rect="0,0,4096,2160"/>
 &lt;endviewport rect="0,0,4096,2160"/>
 &lt;background color="0,0,0,0"/>
&lt;/kdenlivetitle>
</property>
  <property name="xml">was here</property>
  <property name="kdenlive:folderid">-1</property>
  <property name="kdenlive:id">104</property>
  <property name="kdenlive:clip_type">2</property>
  <property name="kdenlive:file_hash">d5f30a038fc2da98db0d8fa28e8d8457</property>
  <property name="force_reload">0</property>
  <property name="kdenlive:monitorPosition">150</property>
  <property name="kdenlive:control_uuid">{3ea30ec6-c33d-431e-b279-3c114815edab}</property>
  <property name="kdenlive:uniqueId">{2add569f-26fd-43b8-8d60-4955bf16f1c3}</property>
  <property name="meta.media.width">4096</property>
  <property name="meta.media.height">2160</property>
 </producer>
 <producer id="producer80" in="00:00:00.000" out="00:06:54.233">
  <property name="length">12428</property>
  <property name="eof">pause</property>
  <property name="resource"/>
  <property name="meta.media.progressive">1</property>
  <property name="aspect_ratio">1</property>
  <property name="seekable">1</property>
  <property name="mlt_service">kdenlivetitle</property>
  <property name="kdenlive:duration">00:00:05:00</property>
  <property name="kdenlive:clipname">Page 11</property>
  <property name="xmldata">&lt;kdenlivetitle LC_NUMERIC="C" duration="150" height="2160" out="149" width="4096">
 &lt;item type="QGraphicsTextItem" z-index="0">
  &lt;position x="3942" y="2040">
   &lt;transform>1,0,0,0,1,0,0,0,1&lt;/transform>
  &lt;/position>
  &lt;content alignment="2" box-height="69" box-width="57.1875" font="Noto Sans" font-color="117,117,117,255" font-italic="0" font-pixel-size="50" font-underline="0" font-weight="900" letter-spacing="0" line-spacing="0" shadow="0;#64000000;3;3;3" tab-width="80" typewriter="0;2;1;0;0">11&lt;/content>
 &lt;/item>
 &lt;startviewport rect="0,0,4096,2160"/>
 &lt;endviewport rect="0,0,4096,2160"/>
 &lt;background color="170,255,0,0"/>
&lt;/kdenlivetitle>
</property>
  <property name="xml">was here</property>
  <property name="kdenlive:folderid">-1</property>
  <property name="kdenlive:id">105</property>
  <property name="kdenlive:clip_type">2</property>
  <property name="kdenlive:file_hash">a20984eb24ba21258e0339fb3cd9e250</property>
  <property name="force_reload">0</property>
  <property name="kdenlive:monitorPosition">826</property>
  <property name="kdenlive:control_uuid">{3900526c-1fed-416e-9fd9-fb2cac7e9c1d}</property>
  <property name="kdenlive:uniqueId">{361c2697-8d93-4ccb-af56-769a953fb257}</property>
  <property name="meta.media.width">4096</property>
  <property name="meta.media.height">2160</property>
 </producer>
 <producer id="producer83" in="00:00:00.000" out="00:06:55.267">
  <property name="length">12459</property>
  <property name="eof">pause</property>
  <property name="resource">#ff000000</property>
  <property name="aspect_ratio">1</property>
  <property name="mlt_service">color</property>
  <property name="kdenlive:clipname">Page 11 - fade</property>
  <property name="kdenlive:duration">00:00:05.000</property>
  <property name="xml">was here</property>
  <property name="seekable">1</property>
  <property name="kdenlive:folderid">-1</property>
  <property name="kdenlive:id">106</property>
  <property name="mlt_image_format">rgb</property>
  <property name="kdenlive:clip_type">2</property>
  <property name="kdenlive:monitorPosition">25</property>
  <property name="kdenlive:file_hash">fb762ca3b45ce510ad2f75a8b6baef35</property>
  <property name="kdenlive:control_uuid">{61bbd1fb-b067-4692-bfd1-f28f3dd2f4f7}</property>
 </producer>
 <producer id="producer77" in="00:00:00.000" out="00:05:57.167">
  <property name="length">10716</property>
  <property name="eof">pause</property>
  <property name="resource"/>
  <property name="meta.media.progressive">1</property>
  <property name="aspect_ratio">1</property>
  <property name="seekable">1</property>
  <property name="mlt_service">kdenlivetitle</property>
  <property name="kdenlive:duration">00:00:05:00</property>
  <property name="kdenlive:clipname">Page 11.01</property>
  <property name="xmldata">&lt;kdenlivetitle LC_NUMERIC="C" duration="150" height="2160" out="149" width="4096">
 &lt;item type="QGraphicsTextItem" z-index="1">
  &lt;position x="320" y="100">
   &lt;transform>1,0,0,0,1,0,0,0,1&lt;/transform>
  &lt;/position>
  &lt;content alignment="1" box-height="205" box-width="1191.23" font="Noto Sans" font-color="0,0,0,255" font-italic="0" font-pixel-size="150" font-underline="0" font-weight="900" letter-spacing="0" line-spacing="0" shadow="0;#64000000;3;3;3" tab-width="80" typewriter="0;2;1;0;0">(1.2) Quick start&lt;/content>
 &lt;/item>
 &lt;startviewport rect="0,0,4096,2160"/>
 &lt;endviewport rect="0,0,4096,2160"/>
 &lt;background color="0,0,0,0"/>
&lt;/kdenlivetitle>
</property>
  <property name="xml">was here</property>
  <property name="kdenlive:folderid">-1</property>
  <property name="kdenlive:id">107</property>
  <property name="kdenlive:clip_type">2</property>
  <property name="kdenlive:file_hash">31868cd7e75f01e10cb532a23a042b69</property>
  <property name="force_reload">0</property>
  <property name="kdenlive:monitorPosition">54</property>
  <property name="kdenlive:control_uuid">{4d6aa2ec-56ca-4d72-ad8f-4f3940c56202}</property>
  <property name="kdenlive:uniqueId">{9a3f2080-026c-4ad1-88b2-aa2b5b2185dd}</property>
  <property name="meta.media.width">4096</property>
  <property name="meta.media.height">2160</property>
 </producer>
 <producer id="producer54" in="00:00:00.000" out="00:06:04.267">
  <property name="length">10929</property>
  <property name="eof">pause</property>
  <property name="resource">#ffe6ee9c</property>
  <property name="aspect_ratio">1</property>
  <property name="mlt_service">color</property>
  <property name="kdenlive:clipname">Background - green</property>
  <property name="kdenlive:duration">00:00:05.000</property>
  <property name="xml">was here</property>
  <property name="seekable">1</property>
  <property name="kdenlive:folderid">-1</property>
  <property name="kdenlive:id">108</property>
  <property name="mlt_image_format">rgb</property>
  <property name="kdenlive:clip_type">2</property>
  <property name="kdenlive:monitorPosition">102</property>
  <property name="kdenlive:control_uuid">{f16c0bef-5190-4542-9cd7-ab0452679582}</property>
  <property name="kdenlive:file_hash">de4f84fb3b5d7f8777c4380fb71d0528</property>
 </producer>
 <chain id="chain43" out="00:02:16.000">
  <property name="length">4081</property>
  <property name="eof">pause</property>
  <property name="resource">media/audio/background-music-maxkomusic-inspirational-corporate.mp3</property>
  <property name="mlt_service">avformat-novalidate</property>
  <property name="meta.media.nb_streams">2</property>
  <property name="meta.media.0.stream.type">audio</property>
  <property name="meta.media.0.codec.sample_fmt">fltp</property>
  <property name="meta.media.0.codec.sample_rate">44100</property>
  <property name="meta.media.0.codec.channels">2</property>
  <property name="meta.media.0.codec.layout">stereo</property>
  <property name="meta.media.0.codec.name">mp3float</property>
  <property name="meta.media.0.codec.long_name">MP3 (MPEG audio layer 3)</property>
  <property name="meta.media.0.codec.bit_rate">320000</property>
  <property name="meta.attr.0.stream.encoder.markup">LAME3.100</property>
  <property name="meta.media.1.stream.type">video</property>
  <property name="meta.media.1.stream.frame_rate">90000</property>
  <property name="meta.media.1.stream.sample_aspect_ratio">0</property>
  <property name="meta.media.1.codec.width">502</property>
  <property name="meta.media.1.codec.height">502</property>
  <property name="meta.media.1.codec.rotate">0</property>
  <property name="meta.media.1.codec.pix_fmt">yuvj422p</property>
  <property name="meta.media.1.codec.sample_aspect_ratio">1</property>
  <property name="meta.media.1.codec.colorspace">601</property>
  <property name="meta.media.1.codec.name">mjpeg</property>
  <property name="meta.media.1.codec.long_name">MJPEG (Motion JPEG)</property>
  <property name="meta.media.1.codec.bit_rate">0</property>
  <property name="meta.attr.1.stream.comment.markup">Cover (front)</property>
  <property name="meta.attr.album.markup">No-Copyright Background Music</property>
  <property name="meta.attr.artist.markup">MaxKoMusic</property>
  <property name="meta.attr.TBPM.markup">120</property>
  <property name="meta.attr.genre.markup">Soundtrack</property>
  <property name="seekable">1</property>
  <property name="meta.media.sample_aspect_num">76</property>
  <property name="meta.media.sample_aspect_den">76</property>
  <property name="format">3</property>
  <property name="audio_index">0</property>
  <property name="video_index">1</property>
  <property name="vstream">0</property>
  <property name="meta.media.frame_rate_num">90000</property>
  <property name="meta.media.frame_rate_den">1</property>
  <property name="meta.media.colorspace">601</property>
  <property name="meta.media.color_trc">2</property>
  <property name="meta.media.has_b_frames">0</property>
  <property name="meta.media.width">502</property>
  <property name="meta.media.height">502</property>
  <property name="meta.media.aspect_ratio">1</property>
  <property name="meta.media.color_range">full</property>
  <property name="astream">0</property>
  <property name="meta.media.top_field_first">0</property>
  <property name="meta.media.progressive">1</property>
  <property name="kdenlive:folderid">-1</property>
  <property name="kdenlive:id">109</property>
  <property name="kdenlive:control_uuid">{417f7a87-5c54-45a7-b685-57a4f4bd2b03}</property>
  <property name="mute_on_pause">0</property>
  <property name="kdenlive:clip_type">0</property>
  <property name="kdenlive:file_size">5513070</property>
  <property name="kdenlive:file_hash">ba02b47dfdf6b3ccd816c8aa6b0261a7</property>
  <property name="kdenlive:audio_max0">244</property>
  <property name="kdenlive:clipname">Audio background - music - maxkomusic inspirational corporate</property>
  <property name="kdenlive:monitorPosition">1171</property>
 </chain>
 <producer id="producer88" in="00:00:00.000" out="00:05:55.533">
  <property name="length">10667</property>
  <property name="eof">pause</property>
  <property name="resource"/>
  <property name="meta.media.progressive">1</property>
  <property name="aspect_ratio">1</property>
  <property name="seekable">1</property>
  <property name="mlt_service">kdenlivetitle</property>
  <property name="kdenlive:duration">00:00:05:00</property>
  <property name="kdenlive:clipname">Page 11.02.01</property>
  <property name="xmldata">&lt;kdenlivetitle LC_NUMERIC="C" duration="150" height="2160" out="149" width="4096">
 &lt;item type="QGraphicsPixmapItem" z-index="7">
  &lt;position x="1415" y="720">
   &lt;transform>0.122163,0,0,0,0.122163,0,0,0,1&lt;/transform>
  &lt;/position>
  &lt;content url="/home/soma/Videos/remal-gombi/media/pictures/video-extract-01-gombi-build-git-clone.png"/>
 &lt;/item>
 &lt;item type="QGraphicsTextItem" z-index="2">
  &lt;position x="320" y="800">
   &lt;transform>1,0,0,0,1,0,0,0,1&lt;/transform>
  &lt;/position>
  &lt;content alignment="1" box-height="109" box-width="840.703" font="Noto Sans" font-color="0,0,0,255" font-italic="0" font-pixel-size="80" font-underline="0" font-weight="300" letter-spacing="0" line-spacing="0" shadow="0;#64000000;3;3;3" tab-width="80" typewriter="0;2;1;0;0">1) Get the source code&lt;/content>
 &lt;/item>
 &lt;startviewport rect="0,0,4096,2160"/>
 &lt;endviewport rect="0,0,4096,2160"/>
 &lt;background color="0,0,0,0"/>
&lt;/kdenlivetitle>
</property>
  <property name="xml">was here</property>
  <property name="kdenlive:folderid">-1</property>
  <property name="kdenlive:id">110</property>
  <property name="kdenlive:clip_type">2</property>
  <property name="kdenlive:file_hash">2d1f8b43bfe312c7c9c8397915ba4253</property>
  <property name="force_reload">0</property>
  <property name="kdenlive:monitorPosition">3565</property>
  <property name="kdenlive:control_uuid">{170c578b-240e-4b21-a9c0-855de85dc989}</property>
  <property name="kdenlive:uniqueId">{a77df042-8953-489d-842b-3b44b9027ce1}</property>
  <property name="meta.media.width">4096</property>
  <property name="meta.media.height">2160</property>
 </producer>
 <producer id="producer87" in="00:00:00.000" out="00:05:52.667">
  <property name="length">10581</property>
  <property name="eof">pause</property>
  <property name="resource"/>
  <property name="meta.media.progressive">1</property>
  <property name="aspect_ratio">1</property>
  <property name="seekable">1</property>
  <property name="mlt_service">kdenlivetitle</property>
  <property name="kdenlive:duration">00:00:05:00</property>
  <property name="kdenlive:clipname">Page 11.03.01</property>
  <property name="xmldata">&lt;kdenlivetitle LC_NUMERIC="C" duration="150" height="2160" out="149" width="4096">
 &lt;item type="QGraphicsPixmapItem" z-index="9">
  &lt;position x="1415" y="1110">
   &lt;transform>0.122163,0,0,0,0.122163,0,0,0,1&lt;/transform>
  &lt;/position>
  &lt;content url="/home/soma/Videos/remal-gombi/media/pictures/video-extract-02-gombi-build-start tomcat.png"/>
 &lt;/item>
 &lt;item type="QGraphicsTextItem" z-index="3">
  &lt;position x="320" y="1200">
   &lt;transform>1,0,0,0,1,0,0,0,1&lt;/transform>
  &lt;/position>
  &lt;content alignment="1" box-height="109" box-width="982.563" font="Noto Sans" font-color="0,0,0,255" font-italic="0" font-pixel-size="80" font-underline="0" font-weight="300" letter-spacing="0" line-spacing="0" shadow="0;#64000000;3;3;3" tab-width="80" typewriter="0;2;1;0;0">2) Prepading for the build &lt;/content>
 &lt;/item>
 &lt;startviewport rect="0,0,4096,2160"/>
 &lt;endviewport rect="0,0,4096,2160"/>
 &lt;background color="0,0,0,0"/>
&lt;/kdenlivetitle>
</property>
  <property name="xml">was here</property>
  <property name="kdenlive:folderid">-1</property>
  <property name="kdenlive:id">111</property>
  <property name="kdenlive:clip_type">2</property>
  <property name="kdenlive:file_hash">499f399cf5089e4bdcb556708f9d9481</property>
  <property name="force_reload">0</property>
  <property name="kdenlive:monitorPosition">1881</property>
  <property name="kdenlive:control_uuid">{af991496-9526-493e-8afa-3545a86fa118}</property>
  <property name="kdenlive:uniqueId">{73a585f5-ae78-451c-8a2c-a5044876703d}</property>
  <property name="meta.media.width">4096</property>
  <property name="meta.media.height">2160</property>
 </producer>
 <producer id="producer86" in="00:00:00.000" out="00:05:49.433">
  <property name="length">10484</property>
  <property name="eof">pause</property>
  <property name="resource"/>
  <property name="meta.media.progressive">1</property>
  <property name="aspect_ratio">1</property>
  <property name="seekable">1</property>
  <property name="mlt_service">kdenlivetitle</property>
  <property name="kdenlive:duration">00:00:05:00</property>
  <property name="kdenlive:clipname">Page 11.04</property>
  <property name="xmldata">&lt;kdenlivetitle LC_NUMERIC="C" duration="150" height="2160" out="149" width="4096">
 &lt;item type="QGraphicsPixmapItem" z-index="9">
  &lt;position x="3335" y="720">
   &lt;transform>0.122163,0,0,0,0.122163,0,0,0,1&lt;/transform>
  &lt;/position>
  &lt;content url="/home/soma/Videos/remal-gombi/media/pictures/video-extract-04-gombi-build-update install kits.png"/>
 &lt;/item>
 &lt;item type="QGraphicsTextItem" z-index="4">
  &lt;position x="2200" y="800">
   &lt;transform>1,0,0,0,1,0,0,0,1&lt;/transform>
  &lt;/position>
  &lt;content alignment="1" box-height="109" box-width="1007.14" font="Noto Sans" font-color="0,0,0,255" font-italic="0" font-pixel-size="80" font-underline="0" font-weight="300" letter-spacing="0" line-spacing="0" shadow="0;#64000000;3;3;3" tab-width="80" typewriter="0;2;1;0;0">3) Build the Docker images&lt;/content>
 &lt;/item>
 &lt;startviewport rect="0,0,4096,2160"/>
 &lt;endviewport rect="0,0,4096,2160"/>
 &lt;background color="0,0,0,0"/>
&lt;/kdenlivetitle>
</property>
  <property name="xml">was here</property>
  <property name="kdenlive:folderid">-1</property>
  <property name="kdenlive:id">112</property>
  <property name="kdenlive:clip_type">2</property>
  <property name="kdenlive:file_hash">b0fd22ba3de98d6e8efaa17a7bdfd917</property>
  <property name="force_reload">0</property>
  <property name="kdenlive:monitorPosition">5314</property>
  <property name="kdenlive:control_uuid">{e7530e3f-ed6a-4571-b023-87a42f56e5ff}</property>
  <property name="kdenlive:uniqueId">{02620295-376d-45a0-9494-817c93819338}</property>
  <property name="meta.media.width">4096</property>
  <property name="meta.media.height">2160</property>
 </producer>
 <producer id="producer85" in="00:00:00.000" out="00:05:46.167">
  <property name="length">10386</property>
  <property name="eof">pause</property>
  <property name="resource"/>
  <property name="meta.media.progressive">1</property>
  <property name="aspect_ratio">1</property>
  <property name="seekable">1</property>
  <property name="mlt_service">kdenlivetitle</property>
  <property name="kdenlive:duration">00:00:05:00</property>
  <property name="kdenlive:clipname">Page 11.05</property>
  <property name="xmldata">&lt;kdenlivetitle LC_NUMERIC="C" duration="150" height="2160" out="149" width="4096">
 &lt;item type="QGraphicsRectItem" z-index="9">
  &lt;position x="3335" y="1110">
   &lt;transform zoom="100">1,0,0,0,1,0,0,0,1&lt;/transform>
  &lt;/position>
  &lt;content brushcolor="209,44,255,255" pencolor="0,0,0,255" penwidth="0" rect="0,0,500,263"/>
 &lt;/item>
 &lt;item type="QGraphicsTextItem" z-index="5">
  &lt;position x="2200" y="1200">
   &lt;transform>1,0,0,0,1,0,0,0,1&lt;/transform>
  &lt;/position>
  &lt;content alignment="1" box-height="109" box-width="920.719" font="Noto Sans" font-color="0,0,0,255" font-italic="0" font-pixel-size="80" font-underline="0" font-weight="300" letter-spacing="0" line-spacing="0" shadow="0;#64000000;3;3;3" tab-width="80" typewriter="0;2;1;0;0">4) Build the Java projects&lt;/content>
 &lt;/item>
 &lt;startviewport rect="0,0,4096,2160"/>
 &lt;endviewport rect="0,0,4096,2160"/>
 &lt;background color="0,0,0,0"/>
&lt;/kdenlivetitle>
</property>
  <property name="xml">was here</property>
  <property name="kdenlive:folderid">-1</property>
  <property name="kdenlive:id">113</property>
  <property name="kdenlive:clip_type">2</property>
  <property name="kdenlive:file_hash">46d6bb4955adbee7dda0a0f04a9705d9</property>
  <property name="force_reload">0</property>
  <property name="kdenlive:monitorPosition">3472</property>
  <property name="kdenlive:control_uuid">{5c4f4452-bba8-4cc1-b927-0a3ff368697a}</property>
  <property name="kdenlive:uniqueId">{6f58eef2-5a12-4bfe-baaa-d47436eeb839}</property>
  <property name="meta.media.width">4096</property>
  <property name="meta.media.height">2160</property>
 </producer>
 <chain id="chain44" out="00:01:16.033">
  <property name="length">2282</property>
  <property name="eof">pause</property>
  <property name="resource">media/videos/01 - gombi build - git clone.mkv</property>
  <property name="mlt_service">avformat-novalidate</property>
  <property name="meta.media.nb_streams">2</property>
  <property name="meta.media.0.stream.type">video</property>
  <property name="meta.media.0.stream.frame_rate">50</property>
  <property name="meta.media.0.stream.sample_aspect_ratio">0</property>
  <property name="meta.media.0.codec.width">3840</property>
  <property name="meta.media.0.codec.height">2400</property>
  <property name="meta.media.0.codec.rotate">0</property>
  <property name="meta.media.0.codec.pix_fmt">yuv420p</property>
  <property name="meta.media.0.codec.sample_aspect_ratio">0</property>
  <property name="meta.media.0.codec.colorspace">709</property>
  <property name="meta.media.0.codec.color_trc">1</property>
  <property name="meta.media.0.codec.name">h264</property>
  <property name="meta.media.0.codec.long_name">H.264 / AVC / MPEG-4 AVC / MPEG-4 part 10</property>
  <property name="meta.media.0.codec.bit_rate">0</property>
  <property name="meta.attr.0.stream.DURATION.markup">00:01:16.060000000</property>
  <property name="meta.media.1.stream.type">audio</property>
  <property name="meta.media.1.codec.sample_fmt">fltp</property>
  <property name="meta.media.1.codec.sample_rate">44100</property>
  <property name="meta.media.1.codec.channels">1</property>
  <property name="meta.media.1.codec.layout">mono</property>
  <property name="meta.media.1.codec.name">aac</property>
  <property name="meta.media.1.codec.long_name">AAC (Advanced Audio Coding)</property>
  <property name="meta.media.1.codec.bit_rate">0</property>
  <property name="meta.attr.1.stream.title.markup">Track1</property>
  <property name="meta.attr.1.stream.DURATION.markup">00:01:16.068000000</property>
  <property name="meta.attr.ENCODER.markup">Lavf60.16.100</property>
  <property name="seekable">1</property>
  <property name="meta.media.sample_aspect_num">1</property>
  <property name="meta.media.sample_aspect_den">1</property>
  <property name="format">3</property>
  <property name="audio_index">1</property>
  <property name="video_index">0</property>
  <property name="vstream">0</property>
  <property name="meta.media.frame_rate_num">50</property>
  <property name="meta.media.frame_rate_den">1</property>
  <property name="meta.media.colorspace">709</property>
  <property name="meta.media.color_trc">1</property>
  <property name="meta.media.has_b_frames">0</property>
  <property name="meta.media.width">3840</property>
  <property name="meta.media.height">2400</property>
  <property name="meta.media.aspect_ratio">1</property>
  <property name="meta.media.color_range">mpeg</property>
  <property name="astream">0</property>
  <property name="meta.media.top_field_first">0</property>
  <property name="meta.media.progressive">1</property>
  <property name="kdenlive:folderid">-1</property>
  <property name="kdenlive:id">114</property>
  <property name="kdenlive:control_uuid">{13ee9b59-1ccb-4821-9409-189a8762d690}</property>
  <property name="mute_on_pause">0</property>
  <property name="kdenlive:clip_type">0</property>
  <property name="kdenlive:file_size">23840970</property>
  <property name="kdenlive:file_hash">04df03592ce329cea168c7103f4e25ee</property>
  <property name="kdenlive:audio_max1">1</property>
  <property name="kdenlive:clipname">Video - gombi build - 01 git clone</property>
  <property name="kdenlive:monitorPosition">556</property>
 </chain>
 <producer id="producer93" in="00:00:00.000" out="00:01:11.267">
  <property name="length">2139</property>
  <property name="eof">pause</property>
  <property name="resource">0x000000ff</property>
  <property name="aspect_ratio">1</property>
  <property name="mlt_service">color</property>
  <property name="kdenlive:clipname">Background - black</property>
  <property name="kdenlive:duration">00:00:05:00</property>
  <property name="xml">was here</property>
  <property name="seekable">1</property>
  <property name="kdenlive:folderid">-1</property>
  <property name="kdenlive:id">115</property>
  <property name="kdenlive:control_uuid">{bee79987-c9d5-44a5-86a3-18a64e562936}</property>
  <property name="mlt_image_format">rgb</property>
  <property name="kdenlive:clip_type">2</property>
  <property name="kdenlive:file_hash">9196813120dc5c505072516b15baf414</property>
  <property name="kdenlive:monitorPosition">0</property>
 </producer>
 <chain id="chain45" out="00:01:31.700">
  <property name="length">2752</property>
  <property name="eof">pause</property>
  <property name="resource">media/videos/02 - gombi build - start tomcat.mkv</property>
  <property name="mlt_service">avformat-novalidate</property>
  <property name="meta.media.nb_streams">2</property>
  <property name="meta.media.0.stream.type">video</property>
  <property name="meta.media.0.stream.frame_rate">50</property>
  <property name="meta.media.0.stream.sample_aspect_ratio">0</property>
  <property name="meta.media.0.codec.width">3840</property>
  <property name="meta.media.0.codec.height">2400</property>
  <property name="meta.media.0.codec.rotate">0</property>
  <property name="meta.media.0.codec.pix_fmt">yuv420p</property>
  <property name="meta.media.0.codec.sample_aspect_ratio">0</property>
  <property name="meta.media.0.codec.colorspace">709</property>
  <property name="meta.media.0.codec.color_trc">1</property>
  <property name="meta.media.0.codec.name">h264</property>
  <property name="meta.media.0.codec.long_name">H.264 / AVC / MPEG-4 AVC / MPEG-4 part 10</property>
  <property name="meta.media.0.codec.bit_rate">0</property>
  <property name="meta.attr.0.stream.DURATION.markup">00:01:31.700000000</property>
  <property name="meta.media.1.stream.type">audio</property>
  <property name="meta.media.1.codec.sample_fmt">fltp</property>
  <property name="meta.media.1.codec.sample_rate">44100</property>
  <property name="meta.media.1.codec.channels">1</property>
  <property name="meta.media.1.codec.layout">mono</property>
  <property name="meta.media.1.codec.name">aac</property>
  <property name="meta.media.1.codec.long_name">AAC (Advanced Audio Coding)</property>
  <property name="meta.media.1.codec.bit_rate">0</property>
  <property name="meta.attr.1.stream.title.markup">Track1</property>
  <property name="meta.attr.1.stream.DURATION.markup">00:01:31.719000000</property>
  <property name="meta.attr.ENCODER.markup">Lavf60.16.100</property>
  <property name="seekable">1</property>
  <property name="meta.media.sample_aspect_num">1</property>
  <property name="meta.media.sample_aspect_den">1</property>
  <property name="format">3</property>
  <property name="audio_index">1</property>
  <property name="video_index">0</property>
  <property name="vstream">0</property>
  <property name="meta.media.frame_rate_num">50</property>
  <property name="meta.media.frame_rate_den">1</property>
  <property name="meta.media.colorspace">709</property>
  <property name="meta.media.color_trc">1</property>
  <property name="meta.media.has_b_frames">0</property>
  <property name="meta.media.width">3840</property>
  <property name="meta.media.height">2400</property>
  <property name="meta.media.aspect_ratio">1</property>
  <property name="meta.media.color_range">mpeg</property>
  <property name="astream">0</property>
  <property name="meta.media.top_field_first">0</property>
  <property name="meta.media.progressive">1</property>
  <property name="kdenlive:folderid">-1</property>
  <property name="kdenlive:id">116</property>
  <property name="kdenlive:control_uuid">{01b46870-0f77-4c7d-8e59-b368a193625f}</property>
  <property name="mute_on_pause">0</property>
  <property name="kdenlive:clip_type">0</property>
  <property name="kdenlive:file_size">29012146</property>
  <property name="kdenlive:file_hash">2150952520545732fa82ff8ceadb169d</property>
  <property name="kdenlive:audio_max1">1</property>
  <property name="kdenlive:clipname">Video - gombi build - 02 start tomcat</property>
  <property name="kdenlive:monitorPosition">459</property>
 </chain>
 <producer id="producer92" in="00:00:00.000" out="00:02:36.533">
  <property name="length">4697</property>
  <property name="eof">pause</property>
  <property name="resource"/>
  <property name="meta.media.progressive">1</property>
  <property name="aspect_ratio">1</property>
  <property name="seekable">1</property>
  <property name="mlt_service">kdenlivetitle</property>
  <property name="kdenlive:duration">00:00:05:00</property>
  <property name="kdenlive:clipname">Page 11.02.02</property>
  <property name="xmldata">&lt;kdenlivetitle LC_NUMERIC="C" duration="150" height="2160" out="149" width="4096">
 &lt;item type="QGraphicsTextItem" z-index="4">
  &lt;position x="2845" y="330">
   &lt;transform>1,0,0,0,1,0,0,0,1&lt;/transform>
  &lt;/position>
  &lt;content alignment="1" box-height="544" box-width="1121.27" font="Noto Sans" font-color="255,255,255,255" font-italic="0" font-outline="1" font-outline-color="0,0,0,255" font-pixel-size="50" font-underline="0" font-weight="700" letter-spacing="0" line-spacing="0" shadow="0;#64000000;3;3;3" tab-width="80" typewriter="0;2;1;0;0">We keep the size of the Docker image as
small as possible by downloading the install
kits from a web server during the build and
deleting them from the same layer after use.

You will therefore need to set up a local web
server before the build and make all files
available via HTTP.&lt;/content>
 &lt;/item>
 &lt;item type="QGraphicsRectItem" z-index="3">
  &lt;position x="2800" y="280">
   &lt;transform zoom="100">1,0,0,0,1,0,0,0,1&lt;/transform>
  &lt;/position>
  &lt;content brushcolor="211,47,47,200" pencolor="0,0,0,255" penwidth="0" rect="0,0,1210,650"/>
 &lt;/item>
 &lt;startviewport rect="0,0,4096,2160"/>
 &lt;endviewport rect="0,0,4096,2160"/>
 &lt;background color="0,0,0,0"/>
&lt;/kdenlivetitle>
</property>
  <property name="xml">was here</property>
  <property name="kdenlive:folderid">-1</property>
  <property name="kdenlive:id">117</property>
  <property name="kdenlive:clip_type">2</property>
  <property name="kdenlive:file_hash">139b43019ff80c3685f38d0a3b412a99</property>
  <property name="force_reload">0</property>
  <property name="kdenlive:monitorPosition">481</property>
  <property name="kdenlive:control_uuid">{027a32fd-b812-4029-9f0a-54b04a2ac40a}</property>
  <property name="kdenlive:uniqueId">{eac1a877-ed72-4021-9528-2c90f0c61382}</property>
  <property name="meta.media.width">4096</property>
  <property name="meta.media.height">2160</property>
 </producer>
 <chain id="chain54" out="00:00:05.533">
  <property name="length">167</property>
  <property name="eof">pause</property>
  <property name="resource">media/audio/audio-script-page-11.01.mp3</property>
  <property name="mlt_service">avformat</property>
  <property name="meta.media.nb_streams">1</property>
  <property name="meta.media.0.stream.type">audio</property>
  <property name="meta.media.0.codec.sample_fmt">fltp</property>
  <property name="meta.media.0.codec.sample_rate">44100</property>
  <property name="meta.media.0.codec.channels">1</property>
  <property name="meta.media.0.codec.layout">mono</property>
  <property name="meta.media.0.codec.name">mp3float</property>
  <property name="meta.media.0.codec.long_name">MP3 (MPEG audio layer 3)</property>
  <property name="meta.media.0.codec.bit_rate">64000</property>
  <property name="meta.attr.encoder.markup">Lavf60.16.100</property>
  <property name="seekable">1</property>
  <property name="audio_index">0</property>
  <property name="video_index">-1</property>
  <property name="astream">0</property>
  <property name="kdenlive:folderid">-1</property>
  <property name="kdenlive:id">118</property>
  <property name="kdenlive:control_uuid">{55e1c06d-7ba1-4455-ad85-f7970ca8f0f3}</property>
  <property name="kdenlive:clip_type">1</property>
  <property name="kdenlive:file_size">44739</property>
  <property name="kdenlive:file_hash">538a270a268e21a549e5ebb5954c6575</property>
  <property name="kdenlive:audio_max0">94</property>
  <property name="kdenlive:clipname">Audio script - page 11.01</property>
  <property name="kdenlive:monitorPosition">0</property>
 </chain>
 <chain id="chain55" out="00:00:05.400">
  <property name="length">163</property>
  <property name="eof">pause</property>
  <property name="resource">media/audio/audio-script-page-11.02.01.mp3</property>
  <property name="mlt_service">avformat</property>
  <property name="meta.media.nb_streams">1</property>
  <property name="meta.media.0.stream.type">audio</property>
  <property name="meta.media.0.codec.sample_fmt">fltp</property>
  <property name="meta.media.0.codec.sample_rate">44100</property>
  <property name="meta.media.0.codec.channels">1</property>
  <property name="meta.media.0.codec.layout">mono</property>
  <property name="meta.media.0.codec.name">mp3float</property>
  <property name="meta.media.0.codec.long_name">MP3 (MPEG audio layer 3)</property>
  <property name="meta.media.0.codec.bit_rate">64000</property>
  <property name="meta.attr.encoder.markup">Lavf60.16.100</property>
  <property name="seekable">1</property>
  <property name="audio_index">0</property>
  <property name="video_index">-1</property>
  <property name="astream">0</property>
  <property name="kdenlive:folderid">-1</property>
  <property name="kdenlive:id">119</property>
  <property name="kdenlive:control_uuid">{d6765626-3bd0-4cdd-aa12-75895412ee53}</property>
  <property name="kdenlive:clip_type">1</property>
  <property name="kdenlive:file_size">43694</property>
  <property name="kdenlive:file_hash">3a2afba065dfde4cd9ebbe2be62f3e50</property>
  <property name="kdenlive:audio_max0">121</property>
  <property name="kdenlive:clipname">Audio script - page 11.02.01</property>
  <property name="kdenlive:monitorPosition">0</property>
 </chain>
 <chain id="chain56" out="00:00:08.867">
  <property name="length">267</property>
  <property name="eof">pause</property>
  <property name="resource">media/audio/audio-script-page-11.03.01.mp3</property>
  <property name="mlt_service">avformat</property>
  <property name="meta.media.nb_streams">1</property>
  <property name="meta.media.0.stream.type">audio</property>
  <property name="meta.media.0.codec.sample_fmt">fltp</property>
  <property name="meta.media.0.codec.sample_rate">44100</property>
  <property name="meta.media.0.codec.channels">1</property>
  <property name="meta.media.0.codec.layout">mono</property>
  <property name="meta.media.0.codec.name">mp3float</property>
  <property name="meta.media.0.codec.long_name">MP3 (MPEG audio layer 3)</property>
  <property name="meta.media.0.codec.bit_rate">64000</property>
  <property name="meta.attr.encoder.markup">Lavf60.16.100</property>
  <property name="seekable">1</property>
  <property name="audio_index">0</property>
  <property name="video_index">-1</property>
  <property name="astream">0</property>
  <property name="kdenlive:folderid">-1</property>
  <property name="kdenlive:id">120</property>
  <property name="kdenlive:control_uuid">{56ad58e5-0348-4232-afa4-45e7a094ed3e}</property>
  <property name="kdenlive:clip_type">1</property>
  <property name="kdenlive:file_size">71489</property>
  <property name="kdenlive:file_hash">89d074eb84e03a2a6ba00e0c64414bb1</property>
  <property name="kdenlive:audio_max0">103</property>
  <property name="kdenlive:clipname">Audio script - page 11.03.01</property>
  <property name="kdenlive:monitorPosition">0</property>
 </chain>
 <chain id="chain57" out="00:00:04.600">
  <property name="length">139</property>
  <property name="eof">pause</property>
  <property name="resource">media/audio/audio-script-page-11.04.01.mp3</property>
  <property name="mlt_service">avformat</property>
  <property name="meta.media.nb_streams">1</property>
  <property name="meta.media.0.stream.type">audio</property>
  <property name="meta.media.0.codec.sample_fmt">fltp</property>
  <property name="meta.media.0.codec.sample_rate">44100</property>
  <property name="meta.media.0.codec.channels">1</property>
  <property name="meta.media.0.codec.layout">mono</property>
  <property name="meta.media.0.codec.name">mp3float</property>
  <property name="meta.media.0.codec.long_name">MP3 (MPEG audio layer 3)</property>
  <property name="meta.media.0.codec.bit_rate">64000</property>
  <property name="meta.attr.encoder.markup">Lavf60.16.100</property>
  <property name="seekable">1</property>
  <property name="audio_index">0</property>
  <property name="video_index">-1</property>
  <property name="astream">0</property>
  <property name="kdenlive:folderid">-1</property>
  <property name="kdenlive:id">121</property>
  <property name="kdenlive:control_uuid">{5cafc0a5-ed0b-473c-a175-fbf7d271981b}</property>
  <property name="kdenlive:clip_type">1</property>
  <property name="kdenlive:file_size">37216</property>
  <property name="kdenlive:file_hash">2bd8ea8b975f3aa261aec6be40e01b00</property>
  <property name="kdenlive:audio_max0">122</property>
  <property name="kdenlive:clipname">Audio script - page 11.04.01</property>
  <property name="kdenlive:monitorPosition">0</property>
 </chain>
 <chain id="chain58" out="00:00:06.433">
  <property name="length">194</property>
  <property name="eof">pause</property>
  <property name="resource">media/audio/audio-script-page-11.05.01.mp3</property>
  <property name="mlt_service">avformat</property>
  <property name="meta.media.nb_streams">1</property>
  <property name="meta.media.0.stream.type">audio</property>
  <property name="meta.media.0.codec.sample_fmt">fltp</property>
  <property name="meta.media.0.codec.sample_rate">44100</property>
  <property name="meta.media.0.codec.channels">1</property>
  <property name="meta.media.0.codec.layout">mono</property>
  <property name="meta.media.0.codec.name">mp3float</property>
  <property name="meta.media.0.codec.long_name">MP3 (MPEG audio layer 3)</property>
  <property name="meta.media.0.codec.bit_rate">64000</property>
  <property name="meta.attr.encoder.markup">Lavf60.16.100</property>
  <property name="seekable">1</property>
  <property name="audio_index">0</property>
  <property name="video_index">-1</property>
  <property name="astream">0</property>
  <property name="kdenlive:folderid">-1</property>
  <property name="kdenlive:id">122</property>
  <property name="kdenlive:control_uuid">{df003b8e-73d6-4e67-b7d9-b26568411567}</property>
  <property name="kdenlive:clip_type">1</property>
  <property name="kdenlive:file_size">51844</property>
  <property name="kdenlive:file_hash">873056bf3a7835029f03c34cec658fa4</property>
  <property name="kdenlive:audio_max0">134</property>
  <property name="kdenlive:clipname">Audio script - page 11.05.01</property>
  <property name="kdenlive:monitorPosition">0</property>
 </chain>
 <chain id="chain59" out="00:08:14.100">
  <property name="length">14824</property>
  <property name="eof">pause</property>
  <property name="resource">media/videos/03 - gombi build - download install kits.mkv</property>
  <property name="mlt_service">avformat-novalidate</property>
  <property name="meta.media.nb_streams">2</property>
  <property name="meta.media.0.stream.type">video</property>
  <property name="meta.media.0.stream.frame_rate">50</property>
  <property name="meta.media.0.stream.sample_aspect_ratio">0</property>
  <property name="meta.media.0.codec.width">3840</property>
  <property name="meta.media.0.codec.height">2400</property>
  <property name="meta.media.0.codec.rotate">0</property>
  <property name="meta.media.0.codec.pix_fmt">yuv420p</property>
  <property name="meta.media.0.codec.sample_aspect_ratio">0</property>
  <property name="meta.media.0.codec.colorspace">709</property>
  <property name="meta.media.0.codec.color_trc">1</property>
  <property name="meta.media.0.codec.name">h264</property>
  <property name="meta.media.0.codec.long_name">H.264 / AVC / MPEG-4 AVC / MPEG-4 part 10</property>
  <property name="meta.media.0.codec.bit_rate">0</property>
  <property name="meta.attr.0.stream.DURATION.markup">00:08:14.140000000</property>
  <property name="meta.media.1.stream.type">audio</property>
  <property name="meta.media.1.codec.sample_fmt">fltp</property>
  <property name="meta.media.1.codec.sample_rate">44100</property>
  <property name="meta.media.1.codec.channels">1</property>
  <property name="meta.media.1.codec.layout">mono</property>
  <property name="meta.media.1.codec.name">aac</property>
  <property name="meta.media.1.codec.long_name">AAC (Advanced Audio Coding)</property>
  <property name="meta.media.1.codec.bit_rate">0</property>
  <property name="meta.attr.1.stream.title.markup">Track1</property>
  <property name="meta.attr.1.stream.DURATION.markup">00:08:14.144000000</property>
  <property name="meta.attr.ENCODER.markup">Lavf60.16.100</property>
  <property name="seekable">1</property>
  <property name="meta.media.sample_aspect_num">1</property>
  <property name="meta.media.sample_aspect_den">1</property>
  <property name="format">3</property>
  <property name="audio_index">1</property>
  <property name="video_index">0</property>
  <property name="vstream">0</property>
  <property name="meta.media.frame_rate_num">50</property>
  <property name="meta.media.frame_rate_den">1</property>
  <property name="meta.media.colorspace">709</property>
  <property name="meta.media.color_trc">1</property>
  <property name="meta.media.has_b_frames">0</property>
  <property name="meta.media.width">3840</property>
  <property name="meta.media.height">2400</property>
  <property name="meta.media.aspect_ratio">1</property>
  <property name="meta.media.color_range">mpeg</property>
  <property name="astream">0</property>
  <property name="meta.media.top_field_first">0</property>
  <property name="meta.media.progressive">1</property>
  <property name="kdenlive:folderid">-1</property>
  <property name="kdenlive:id">123</property>
  <property name="kdenlive:control_uuid">{6afebae9-415f-449d-80f1-d218889a4c0c}</property>
  <property name="mute_on_pause">0</property>
  <property name="kdenlive:clip_type">0</property>
  <property name="kdenlive:file_size">154815744</property>
  <property name="kdenlive:file_hash">80cd39117d45902c3fd0bb6bd6fcaf00</property>
  <property name="kdenlive:audio_max1">1</property>
  <property name="kdenlive:clipname">Video - gombi build - 03 download install kits</property>
  <property name="kdenlive:monitorPosition">0</property>
 </chain>
 <chain id="chain60" out="00:00:18.200">
  <property name="length">547</property>
  <property name="eof">pause</property>
  <property name="resource">media/audio/audio-script-page-11.02.02.mp3</property>
  <property name="mlt_service">avformat</property>
  <property name="meta.media.nb_streams">1</property>
  <property name="meta.media.0.stream.type">audio</property>
  <property name="meta.media.0.codec.sample_fmt">fltp</property>
  <property name="meta.media.0.codec.sample_rate">44100</property>
  <property name="meta.media.0.codec.channels">1</property>
  <property name="meta.media.0.codec.layout">mono</property>
  <property name="meta.media.0.codec.name">mp3float</property>
  <property name="meta.media.0.codec.long_name">MP3 (MPEG audio layer 3)</property>
  <property name="meta.media.0.codec.bit_rate">64000</property>
  <property name="meta.attr.encoder.markup">Lavf60.16.100</property>
  <property name="seekable">1</property>
  <property name="audio_index">0</property>
  <property name="video_index">-1</property>
  <property name="astream">0</property>
  <property name="kdenlive:folderid">-1</property>
  <property name="kdenlive:id">124</property>
  <property name="kdenlive:control_uuid">{e6e1ffca-ced1-41be-9a3a-984c8cee44c3}</property>
  <property name="kdenlive:clip_type">1</property>
  <property name="kdenlive:file_size">146094</property>
  <property name="kdenlive:file_hash">1be3bf7322b5b8a73e5da4200e311cc9</property>
  <property name="kdenlive:audio_max0">127</property>
  <property name="kdenlive:clipname">Audio script - page 11.02.02</property>
  <property name="kdenlive:monitorPosition">0</property>
 </chain>
 <producer id="producer96" in="00:00:00.000" out="00:04:33.533">
  <property name="length">8207</property>
  <property name="eof">pause</property>
  <property name="resource"/>
  <property name="meta.media.progressive">1</property>
  <property name="aspect_ratio">1</property>
  <property name="seekable">1</property>
  <property name="mlt_service">kdenlivetitle</property>
  <property name="kdenlive:duration">00:00:05:00</property>
  <property name="kdenlive:clipname">Page 11.06</property>
  <property name="xmldata">&lt;kdenlivetitle LC_NUMERIC="C" duration="150" height="2160" out="149" width="4096">
 &lt;item type="QGraphicsTextItem" z-index="5">
  &lt;position x="1157" y="620">
   &lt;transform>1,0,0,0,1,0,0,0,1&lt;/transform>
  &lt;/position>
  &lt;content alignment="2" box-height="1000" box-width="68.625" font="Noto Sans" font-color="213,0,0,255" font-italic="0" font-outline="0" font-outline-color="0,0,0,255" font-pixel-size="60" font-underline="0" font-weight="700" letter-spacing="0" line-spacing="20" shadow="0;#64000000;3;3;3" tab-width="80" typewriter="0;2;1;0;0">1
2
3
4
5
6
7
8
9
10&lt;/content>
 &lt;/item>
 &lt;startviewport rect="0,0,4096,2160"/>
 &lt;endviewport rect="0,0,4096,2160"/>
 &lt;background color="0,0,0,0"/>
&lt;/kdenlivetitle>
</property>
  <property name="xml">was here</property>
  <property name="kdenlive:folderid">-1</property>
  <property name="kdenlive:id">125</property>
  <property name="kdenlive:clip_type">2</property>
  <property name="kdenlive:file_hash">f8bf220229e87a4bb97488da0bc31836</property>
  <property name="force_reload">0</property>
  <property name="kdenlive:monitorPosition">30</property>
  <property name="kdenlive:control_uuid">{f8013b62-31e6-4045-9d47-7f070e95c2db}</property>
  <property name="kdenlive:uniqueId">{1c70e886-6a5f-42ae-ae00-efeb618ddce3}</property>
  <property name="meta.media.width">4096</property>
  <property name="meta.media.height">2160</property>
 </producer>
 <producer id="producer97" in="00:00:00.000" out="00:04:33.533">
  <property name="length">8207</property>
  <property name="eof">pause</property>
  <property name="resource"/>
  <property name="meta.media.progressive">1</property>
  <property name="aspect_ratio">1</property>
  <property name="seekable">1</property>
  <property name="mlt_service">kdenlivetitle</property>
  <property name="kdenlive:duration">00:00:05:00</property>
  <property name="kdenlive:clipname">Page 11.07</property>
  <property name="xmldata">&lt;kdenlivetitle LC_NUMERIC="C" duration="150" height="2160" out="149" width="4096">
 &lt;item type="QGraphicsTextItem" z-index="7">
  &lt;position x="720" y="1370">
   &lt;transform>1,0,0,0,1,0,0,0,1&lt;/transform>
  &lt;/position>
  &lt;content alignment="2" box-height="370" box-width="30.875" font="Noto Sans" font-color="255,255,255,255" font-italic="0" font-pixel-size="27" font-underline="0" font-weight="700" letter-spacing="0" line-spacing="0" shadow="0;#64000000;3;3;3" tab-width="80" typewriter="0;2;1;0;0">1
2
3
4
5
6
7
8
9
10&lt;/content>
 &lt;/item>
 &lt;item type="QGraphicsRectItem" z-index="6">
  &lt;position x="710" y="1340">
   &lt;transform zoom="100">1,0,0,0,1,0,0,0,1&lt;/transform>
  &lt;/position>
  &lt;content brushcolor="51,105,30,255" pencolor="0,0,0,255" penwidth="0" rect="0,0,60,420"/>
 &lt;/item>
 &lt;startviewport rect="0,0,4096,2160"/>
 &lt;endviewport rect="0,0,4096,2160"/>
 &lt;background color="0,0,0,0"/>
&lt;/kdenlivetitle>
</property>
  <property name="xml">was here</property>
  <property name="kdenlive:folderid">-1</property>
  <property name="kdenlive:id">126</property>
  <property name="kdenlive:clip_type">2</property>
  <property name="kdenlive:file_hash">f7978e94cb550b13591ecc050ce09473</property>
  <property name="force_reload">0</property>
  <property name="kdenlive:monitorPosition">30</property>
  <property name="kdenlive:control_uuid">{988726d5-1c1f-4b2e-8a6e-3094830ce3fd}</property>
  <property name="kdenlive:uniqueId">{ca769ec3-42fe-4b31-9742-c5d767067e11}</property>
  <property name="meta.media.width">4096</property>
  <property name="meta.media.height">2160</property>
 </producer>
 <producer id="producer0" in="00:00:00.000" out="00:15:35.300">
  <property name="length">2147483647</property>
  <property name="eof">continue</property>
  <property name="resource">black</property>
  <property name="aspect_ratio">1</property>
  <property name="mlt_service">color</property>
  <property name="kdenlive:playlistid">black_track</property>
  <property name="mlt_image_format">rgba</property>
  <property name="set.test_audio">0</property>
 </producer>
 <chain id="chain0" out="00:04:30.533">
  <property name="length">8117</property>
  <property name="eof">pause</property>
  <property name="resource">media/audio/background-music-freedom.mp3</property>
  <property name="mlt_service">avformat-novalidate</property>
  <property name="seekable">1</property>
  <property name="audio_index">0</property>
  <property name="video_index">-1</property>
  <property name="astream">0</property>
  <property name="kdenlive:folderid">-1</property>
  <property name="kdenlive:id">40</property>
  <property name="kdenlive:control_uuid">{9801a800-c36e-40c6-9e05-cfbff6c70b4e}</property>
  <property name="kdenlive:clip_type">1</property>
  <property name="kdenlive:file_size">10824280</property>
  <property name="kdenlive:file_hash">77cbff1ce69ee3ac25751219be97df16</property>
  <property name="kdenlive:audio_max0">232</property>
  <property name="kdenlive:clipname">Audio bakground music - freedom</property>
  <property name="kdenlive:monitorPosition">8</property>
  <property name="meta.media.nb_streams">1</property>
  <property name="meta.media.0.stream.type">audio</property>
  <property name="meta.media.0.codec.sample_fmt">fltp</property>
  <property name="meta.media.0.codec.sample_rate">44100</property>
  <property name="meta.media.0.codec.channels">2</property>
  <property name="meta.media.0.codec.layout">stereo</property>
  <property name="meta.media.0.codec.name">mp3float</property>
  <property name="meta.media.0.codec.long_name">MP3 (MPEG audio layer 3)</property>
  <property name="meta.media.0.codec.bit_rate">320000</property>
  <property name="meta.attr.artist.markup">Roa</property>
  <property name="meta.attr.TBPM.markup">130</property>
  <property name="meta.attr.encoded_by.markup">LAME in FL Studio 20</property>
  <property name="meta.attr.title.markup">freedom</property>
  <property name="meta.attr.date.markup">2020</property>
  <property name="xml">was here</property>
  <property name="mute_on_pause">0</property>
  <property name="set.test_audio">0</property>
  <property name="set.test_image">1</property>
 </chain>
 <chain id="chain2" out="00:02:16.000">
  <property name="length">4081</property>
  <property name="eof">pause</property>
  <property name="resource">media/audio/background-music-maxkomusic-inspirational-corporate.mp3</property>
  <property name="mlt_service">avformat-novalidate</property>
  <property name="seekable">1</property>
  <property name="format">3</property>
  <property name="audio_index">0</property>
  <property name="video_index">1</property>
  <property name="vstream">0</property>
  <property name="astream">0</property>
  <property name="kdenlive:folderid">-1</property>
  <property name="kdenlive:id">109</property>
  <property name="kdenlive:control_uuid">{417f7a87-5c54-45a7-b685-57a4f4bd2b03}</property>
  <property name="mute_on_pause">0</property>
  <property name="kdenlive:clip_type">0</property>
  <property name="kdenlive:file_size">5513070</property>
  <property name="kdenlive:file_hash">ba02b47dfdf6b3ccd816c8aa6b0261a7</property>
  <property name="kdenlive:audio_max0">244</property>
  <property name="kdenlive:clipname">Audio background - music - maxkomusic inspirational corporate</property>
  <property name="kdenlive:monitorPosition">1171</property>
  <property name="meta.media.nb_streams">2</property>
  <property name="meta.media.0.stream.type">audio</property>
  <property name="meta.media.0.codec.sample_fmt">fltp</property>
  <property name="meta.media.0.codec.sample_rate">44100</property>
  <property name="meta.media.0.codec.channels">2</property>
  <property name="meta.media.0.codec.layout">stereo</property>
  <property name="meta.media.0.codec.name">mp3float</property>
  <property name="meta.media.0.codec.long_name">MP3 (MPEG audio layer 3)</property>
  <property name="meta.media.0.codec.bit_rate">320000</property>
  <property name="meta.attr.0.stream.encoder.markup">LAME3.100</property>
  <property name="meta.media.1.stream.type">video</property>
  <property name="meta.media.1.stream.frame_rate">90000</property>
  <property name="meta.media.1.stream.sample_aspect_ratio">0</property>
  <property name="meta.media.1.codec.width">502</property>
  <property name="meta.media.1.codec.height">502</property>
  <property name="meta.media.1.codec.rotate">0</property>
  <property name="meta.media.1.codec.pix_fmt">yuvj422p</property>
  <property name="meta.media.1.codec.sample_aspect_ratio">1</property>
  <property name="meta.media.1.codec.colorspace">601</property>
  <property name="meta.media.1.codec.name">mjpeg</property>
  <property name="meta.media.1.codec.long_name">MJPEG (Motion JPEG)</property>
  <property name="meta.media.1.codec.bit_rate">0</property>
  <property name="meta.attr.1.stream.comment.markup">Cover (front)</property>
  <property name="meta.attr.album.markup">No-Copyright Background Music</property>
  <property name="meta.attr.artist.markup">MaxKoMusic</property>
  <property name="meta.attr.TBPM.markup">120</property>
  <property name="meta.attr.genre.markup">Soundtrack</property>
  <property name="meta.media.sample_aspect_num">76</property>
  <property name="meta.media.sample_aspect_den">76</property>
  <property name="meta.media.frame_rate_num">90000</property>
  <property name="meta.media.frame_rate_den">1</property>
  <property name="meta.media.colorspace">601</property>
  <property name="meta.media.color_trc">2</property>
  <property name="meta.media.has_b_frames">0</property>
  <property name="meta.media.width">502</property>
  <property name="meta.media.height">502</property>
  <property name="meta.media.aspect_ratio">1</property>
  <property name="meta.media.color_range">full</property>
  <property name="xml">was here</property>
  <property name="meta.media.top_field_first">0</property>
  <property name="meta.media.progressive">1</property>
  <property name="set.test_audio">0</property>
  <property name="set.test_image">1</property>
 </chain>
 <playlist id="playlist0">
  <property name="kdenlive:audio_track">1</property>
  <entry in="00:00:00.000" out="00:00:31.000" producer="chain0">
   <property name="kdenlive:id">40</property>
   <property name="kdenlive:activeeffect">1</property>
   <filter id="filter0">
    <property name="window">75</property>
    <property name="max_gain">20dB</property>
    <property name="level">00:00:00.000=-10</property>
    <property name="mlt_service">volume</property>
    <property name="kdenlive_id">volume</property>
    <property name="kdenlive:collapsed">0</property>
   </filter>
   <filter id="filter1" in="00:00:29.000" out="00:00:31.000">
    <property name="window">75</property>
    <property name="max_gain">20dB</property>
    <property name="mlt_service">volume</property>
    <property name="kdenlive_id">fadeout</property>
    <property name="gain">1</property>
    <property name="end">0</property>
    <property name="kdenlive:collapsed">0</property>
   </filter>
  </entry>
  <entry in="00:00:31.033" out="00:00:38.767" producer="chain0">
   <property name="kdenlive:id">40</property>
   <filter id="filter2">
    <property name="window">75</property>
    <property name="max_gain">20dB</property>
    <property name="level">00:00:31.033=-30</property>
    <property name="mlt_service">volume</property>
    <property name="kdenlive_id">volume</property>
    <property name="kdenlive:collapsed">0</property>
   </filter>
  </entry>
  <entry in="00:00:38.800" out="00:00:39.533" producer="chain0">
   <property name="kdenlive:id">40</property>
   <filter id="filter3">
    <property name="window">75</property>
    <property name="max_gain">20dB</property>
    <property name="level">00:00:38.800=-10</property>
    <property name="mlt_service">volume</property>
    <property name="kdenlive_id">volume</property>
    <property name="kdenlive:collapsed">0</property>
   </filter>
   <filter id="filter4" in="00:00:39.200" out="00:00:39.533">
    <property name="window">75</property>
    <property name="max_gain">20dB</property>
    <property name="mlt_service">volume</property>
    <property name="kdenlive_id">fadeout</property>
    <property name="gain">1</property>
    <property name="end">0</property>
    <property name="kdenlive:collapsed">0</property>
   </filter>
  </entry>
  <entry in="00:00:39.567" out="00:00:57.100" producer="chain0">
   <property name="kdenlive:id">40</property>
   <filter id="filter5">
    <property name="window">75</property>
    <property name="max_gain">20dB</property>
    <property name="level">00:00:39.567=-30</property>
    <property name="mlt_service">volume</property>
    <property name="kdenlive_id">volume</property>
    <property name="kdenlive:collapsed">0</property>
   </filter>
  </entry>
  <entry in="00:00:57.133" out="00:01:00.967" producer="chain0">
   <property name="kdenlive:id">40</property>
   <filter id="filter6">
    <property name="window">75</property>
    <property name="max_gain">20dB</property>
    <property name="level">00:00:57.133=-10</property>
    <property name="mlt_service">volume</property>
    <property name="kdenlive_id">volume</property>
    <property name="kdenlive:collapsed">0</property>
   </filter>
   <filter id="filter7" in="00:00:58.967" out="00:01:00.967">
    <property name="window">75</property>
    <property name="max_gain">20dB</property>
    <property name="mlt_service">volume</property>
    <property name="kdenlive_id">fadeout</property>
    <property name="gain">1</property>
    <property name="end">0</property>
    <property name="kdenlive:collapsed">0</property>
   </filter>
  </entry>
  <entry in="00:01:01.000" out="00:01:14.767" producer="chain0">
   <property name="kdenlive:id">40</property>
   <filter id="filter9">
    <property name="window">75</property>
    <property name="max_gain">20dB</property>
    <property name="level">00:01:01.000=-30</property>
    <property name="mlt_service">volume</property>
    <property name="kdenlive_id">volume</property>
    <property name="kdenlive:collapsed">0</property>
   </filter>
  </entry>
  <entry in="00:01:14.800" out="00:01:16.800" producer="chain0">
   <property name="kdenlive:id">40</property>
   <filter id="filter10">
    <property name="window">75</property>
    <property name="max_gain">20dB</property>
    <property name="level">00:01:14.800=-10</property>
    <property name="mlt_service">volume</property>
    <property name="kdenlive_id">volume</property>
    <property name="kdenlive:collapsed">0</property>
   </filter>
   <filter id="filter11" in="00:01:15.800" out="00:01:16.800">
    <property name="window">75</property>
    <property name="max_gain">20dB</property>
    <property name="mlt_service">volume</property>
    <property name="kdenlive_id">fadeout</property>
    <property name="gain">1</property>
    <property name="end">0</property>
    <property name="kdenlive:collapsed">0</property>
   </filter>
  </entry>
  <entry in="00:01:16.833" out="00:01:32.800" producer="chain0">
   <property name="kdenlive:id">40</property>
   <filter id="filter12">
    <property name="window">75</property>
    <property name="max_gain">20dB</property>
    <property name="level">00:01:16.833=-30</property>
    <property name="mlt_service">volume</property>
    <property name="kdenlive_id">volume</property>
    <property name="kdenlive:collapsed">0</property>
   </filter>
  </entry>
  <entry in="00:01:32.833" out="00:01:37.867" producer="chain0">
   <property name="kdenlive:id">40</property>
   <filter id="filter13">
    <property name="window">75</property>
    <property name="max_gain">20dB</property>
    <property name="level">00:01:32.833=-10</property>
    <property name="mlt_service">volume</property>
    <property name="kdenlive_id">volume</property>
    <property name="kdenlive:collapsed">0</property>
   </filter>
   <filter id="filter14" in="00:01:35.867" out="00:01:37.867">
    <property name="window">75</property>
    <property name="max_gain">20dB</property>
    <property name="mlt_service">volume</property>
    <property name="kdenlive_id">fadeout</property>
    <property name="gain">1</property>
    <property name="end">0</property>
    <property name="kdenlive:collapsed">0</property>
   </filter>
  </entry>
  <entry in="00:01:37.900" out="00:01:41.300" producer="chain0">
   <property name="kdenlive:id">40</property>
   <filter id="filter15">
    <property name="window">75</property>
    <property name="max_gain">20dB</property>
    <property name="level">00:01:37.900=-30</property>
    <property name="mlt_service">volume</property>
    <property name="kdenlive_id">volume</property>
    <property name="kdenlive:collapsed">0</property>
   </filter>
  </entry>
  <entry in="00:01:41.333" out="00:01:46.267" producer="chain0">
   <property name="kdenlive:id">40</property>
   <filter id="filter16">
    <property name="window">75</property>
    <property name="max_gain">20dB</property>
    <property name="level">00:01:41.333=-10</property>
    <property name="mlt_service">volume</property>
    <property name="kdenlive_id">volume</property>
    <property name="kdenlive:collapsed">0</property>
   </filter>
   <filter id="filter17" in="00:01:44.267" out="00:01:46.267">
    <property name="window">75</property>
    <property name="max_gain">20dB</property>
    <property name="mlt_service">volume</property>
    <property name="kdenlive_id">fadeout</property>
    <property name="gain">1</property>
    <property name="end">0</property>
    <property name="kdenlive:collapsed">0</property>
   </filter>
  </entry>
  <entry in="00:01:46.300" out="00:01:47.367" producer="chain0">
   <property name="kdenlive:id">40</property>
   <filter id="filter18">
    <property name="window">75</property>
    <property name="max_gain">20dB</property>
    <property name="level">00:01:46.300=-30</property>
    <property name="mlt_service">volume</property>
    <property name="kdenlive_id">volume</property>
    <property name="kdenlive:collapsed">0</property>
   </filter>
  </entry>
  <entry in="00:01:47.400" out="00:01:48.433" producer="chain0">
   <property name="kdenlive:id">40</property>
   <filter id="filter19">
    <property name="window">75</property>
    <property name="max_gain">20dB</property>
    <property name="level">00:01:47.400=-10</property>
    <property name="mlt_service">volume</property>
    <property name="kdenlive_id">volume</property>
    <property name="kdenlive:collapsed">0</property>
   </filter>
   <filter id="filter20" in="00:01:47.767" out="00:01:48.433">
    <property name="window">75</property>
    <property name="max_gain">20dB</property>
    <property name="mlt_service">volume</property>
    <property name="kdenlive_id">fadeout</property>
    <property name="gain">1</property>
    <property name="end">0</property>
    <property name="kdenlive:collapsed">0</property>
   </filter>
  </entry>
  <entry in="00:01:48.467" out="00:01:53.367" producer="chain0">
   <property name="kdenlive:id">40</property>
   <filter id="filter21">
    <property name="window">75</property>
    <property name="max_gain">20dB</property>
    <property name="level">00:01:48.467=-30</property>
    <property name="mlt_service">volume</property>
    <property name="kdenlive_id">volume</property>
    <property name="kdenlive:collapsed">0</property>
   </filter>
  </entry>
  <entry in="00:01:53.400" out="00:01:54.433" producer="chain0">
   <property name="kdenlive:id">40</property>
   <filter id="filter22">
    <property name="window">75</property>
    <property name="max_gain">20dB</property>
    <property name="level">00:01:53.400=-10</property>
    <property name="mlt_service">volume</property>
    <property name="kdenlive_id">volume</property>
    <property name="kdenlive:collapsed">0</property>
   </filter>
   <filter id="filter23" in="00:01:53.767" out="00:01:54.433">
    <property name="window">75</property>
    <property name="max_gain">20dB</property>
    <property name="mlt_service">volume</property>
    <property name="kdenlive_id">fadeout</property>
    <property name="gain">1</property>
    <property name="end">0</property>
    <property name="kdenlive:collapsed">0</property>
   </filter>
  </entry>
  <entry in="00:01:54.467" out="00:01:59.300" producer="chain0">
   <property name="kdenlive:id">40</property>
   <filter id="filter24">
    <property name="window">75</property>
    <property name="max_gain">20dB</property>
    <property name="level">00:01:54.467=-30</property>
    <property name="mlt_service">volume</property>
    <property name="kdenlive_id">volume</property>
    <property name="kdenlive:collapsed">0</property>
   </filter>
  </entry>
  <entry in="00:01:59.333" out="00:02:00.333" producer="chain0">
   <property name="kdenlive:id">40</property>
   <filter id="filter25">
    <property name="window">75</property>
    <property name="max_gain">20dB</property>
    <property name="level">00:01:59.333=-10</property>
    <property name="mlt_service">volume</property>
    <property name="kdenlive_id">volume</property>
    <property name="kdenlive:collapsed">0</property>
   </filter>
   <filter id="filter26" in="00:01:59.667" out="00:02:00.333">
    <property name="window">75</property>
    <property name="max_gain">20dB</property>
    <property name="mlt_service">volume</property>
    <property name="kdenlive_id">fadeout</property>
    <property name="gain">1</property>
    <property name="end">0</property>
    <property name="kdenlive:collapsed">0</property>
   </filter>
  </entry>
  <entry in="00:02:00.367" out="00:02:02.600" producer="chain0">
   <property name="kdenlive:id">40</property>
   <filter id="filter27">
    <property name="window">75</property>
    <property name="max_gain">20dB</property>
    <property name="level">00:02:00.367=-30</property>
    <property name="mlt_service">volume</property>
    <property name="kdenlive_id">volume</property>
    <property name="kdenlive:collapsed">0</property>
   </filter>
  </entry>
  <entry in="00:02:02.633" out="00:02:03.667" producer="chain0">
   <property name="kdenlive:id">40</property>
   <filter id="filter28">
    <property name="window">75</property>
    <property name="max_gain">20dB</property>
    <property name="level">00:02:02.633=-10</property>
    <property name="mlt_service">volume</property>
    <property name="kdenlive_id">volume</property>
    <property name="kdenlive:collapsed">0</property>
   </filter>
   <filter id="filter29" in="00:02:03.000" out="00:02:03.667">
    <property name="window">75</property>
    <property name="max_gain">20dB</property>
    <property name="mlt_service">volume</property>
    <property name="kdenlive_id">fadeout</property>
    <property name="gain">1</property>
    <property name="end">0</property>
    <property name="kdenlive:collapsed">0</property>
   </filter>
  </entry>
  <entry in="00:02:03.700" out="00:02:07.133" producer="chain0">
   <property name="kdenlive:id">40</property>
   <filter id="filter30">
    <property name="window">75</property>
    <property name="max_gain">20dB</property>
    <property name="level">00:02:03.700=-30</property>
    <property name="mlt_service">volume</property>
    <property name="kdenlive_id">volume</property>
    <property name="kdenlive:collapsed">0</property>
   </filter>
  </entry>
  <entry in="00:02:07.167" out="00:02:12.167" producer="chain0">
   <property name="kdenlive:id">40</property>
   <filter id="filter31">
    <property name="window">75</property>
    <property name="max_gain">20dB</property>
    <property name="level">00:02:07.167=-10</property>
    <property name="mlt_service">volume</property>
    <property name="kdenlive_id">volume</property>
    <property name="kdenlive:collapsed">0</property>
   </filter>
   <filter id="filter32" in="00:02:10.167" out="00:02:12.167">
    <property name="window">75</property>
    <property name="max_gain">20dB</property>
    <property name="mlt_service">volume</property>
    <property name="kdenlive_id">fadeout</property>
    <property name="gain">1</property>
    <property name="end">0</property>
    <property name="kdenlive:collapsed">0</property>
   </filter>
  </entry>
  <entry in="00:02:12.200" out="00:02:13.167" producer="chain0">
   <property name="kdenlive:id">40</property>
   <filter id="filter33">
    <property name="window">75</property>
    <property name="max_gain">20dB</property>
    <property name="level">00:02:12.200=-30</property>
    <property name="mlt_service">volume</property>
    <property name="kdenlive_id">volume</property>
    <property name="kdenlive:collapsed">0</property>
   </filter>
  </entry>
  <entry in="00:02:13.200" out="00:02:14.233" producer="chain0">
   <property name="kdenlive:id">40</property>
   <filter id="filter34">
    <property name="window">75</property>
    <property name="max_gain">20dB</property>
    <property name="level">00:02:13.200=-10</property>
    <property name="mlt_service">volume</property>
    <property name="kdenlive_id">volume</property>
    <property name="kdenlive:collapsed">0</property>
   </filter>
   <filter id="filter35" in="00:02:13.567" out="00:02:14.233">
    <property name="window">75</property>
    <property name="max_gain">20dB</property>
    <property name="mlt_service">volume</property>
    <property name="kdenlive_id">fadeout</property>
    <property name="gain">1</property>
    <property name="end">0</property>
    <property name="kdenlive:collapsed">0</property>
   </filter>
  </entry>
  <entry in="00:02:14.267" out="00:02:19.867" producer="chain0">
   <property name="kdenlive:id">40</property>
   <filter id="filter36">
    <property name="window">75</property>
    <property name="max_gain">20dB</property>
    <property name="level">00:02:14.267=-30</property>
    <property name="mlt_service">volume</property>
    <property name="kdenlive_id">volume</property>
    <property name="kdenlive:collapsed">0</property>
   </filter>
  </entry>
  <entry in="00:02:19.900" out="00:02:22.033" producer="chain0">
   <property name="kdenlive:id">40</property>
   <filter id="filter37">
    <property name="window">75</property>
    <property name="max_gain">20dB</property>
    <property name="level">00:02:19.900=-10</property>
    <property name="mlt_service">volume</property>
    <property name="kdenlive_id">volume</property>
    <property name="kdenlive:collapsed">0</property>
   </filter>
   <filter id="filter38" in="00:02:21.033" out="00:02:22.033">
    <property name="window">75</property>
    <property name="max_gain">20dB</property>
    <property name="mlt_service">volume</property>
    <property name="kdenlive_id">fadeout</property>
    <property name="gain">1</property>
    <property name="end">0</property>
    <property name="kdenlive:collapsed">0</property>
   </filter>
  </entry>
  <entry in="00:02:22.067" out="00:02:26.567" producer="chain0">
   <property name="kdenlive:id">40</property>
   <filter id="filter39">
    <property name="window">75</property>
    <property name="max_gain">20dB</property>
    <property name="level">00:02:22.067=-30</property>
    <property name="mlt_service">volume</property>
    <property name="kdenlive_id">volume</property>
    <property name="kdenlive:collapsed">0</property>
   </filter>
  </entry>
  <entry in="00:02:26.600" out="00:02:27.633" producer="chain0">
   <property name="kdenlive:id">40</property>
   <filter id="filter40">
    <property name="window">75</property>
    <property name="max_gain">20dB</property>
    <property name="level">00:02:26.600=-10</property>
    <property name="mlt_service">volume</property>
    <property name="kdenlive_id">volume</property>
    <property name="kdenlive:collapsed">0</property>
   </filter>
   <filter id="filter41" in="00:02:26.967" out="00:02:27.633">
    <property name="window">75</property>
    <property name="max_gain">20dB</property>
    <property name="mlt_service">volume</property>
    <property name="kdenlive_id">fadeout</property>
    <property name="gain">1</property>
    <property name="end">0</property>
    <property name="kdenlive:collapsed">0</property>
   </filter>
  </entry>
  <entry in="00:02:27.667" out="00:02:29.833" producer="chain0">
   <property name="kdenlive:id">40</property>
   <filter id="filter42">
    <property name="window">75</property>
    <property name="max_gain">20dB</property>
    <property name="level">00:02:27.667=-30</property>
    <property name="mlt_service">volume</property>
    <property name="kdenlive_id">volume</property>
    <property name="kdenlive:collapsed">0</property>
   </filter>
  </entry>
  <entry in="00:02:29.867" out="00:02:30.900" producer="chain0">
   <property name="kdenlive:id">40</property>
   <filter id="filter43">
    <property name="window">75</property>
    <property name="max_gain">20dB</property>
    <property name="level">00:02:29.867=-10</property>
    <property name="mlt_service">volume</property>
    <property name="kdenlive_id">volume</property>
    <property name="kdenlive:collapsed">0</property>
   </filter>
   <filter id="filter44" in="00:02:30.233" out="00:02:30.900">
    <property name="window">75</property>
    <property name="max_gain">20dB</property>
    <property name="mlt_service">volume</property>
    <property name="kdenlive_id">fadeout</property>
    <property name="gain">1</property>
    <property name="end">0</property>
    <property name="kdenlive:collapsed">0</property>
   </filter>
  </entry>
  <entry in="00:02:30.933" out="00:02:33.067" producer="chain0">
   <property name="kdenlive:id">40</property>
   <filter id="filter45">
    <property name="window">75</property>
    <property name="max_gain">20dB</property>
    <property name="level">00:02:30.933=-30</property>
    <property name="mlt_service">volume</property>
    <property name="kdenlive_id">volume</property>
    <property name="kdenlive:collapsed">0</property>
   </filter>
  </entry>
  <entry in="00:02:33.100" out="00:02:38.100" producer="chain0">
   <property name="kdenlive:id">40</property>
   <filter id="filter46">
    <property name="window">75</property>
    <property name="max_gain">20dB</property>
    <property name="level">00:02:33.100=-10</property>
    <property name="mlt_service">volume</property>
    <property name="kdenlive_id">volume</property>
    <property name="kdenlive:collapsed">0</property>
   </filter>
   <filter id="filter47" in="00:02:36.100" out="00:02:38.100">
    <property name="window">75</property>
    <property name="max_gain">20dB</property>
    <property name="mlt_service">volume</property>
    <property name="kdenlive_id">fadeout</property>
    <property name="gain">1</property>
    <property name="end">0</property>
    <property name="kdenlive:collapsed">0</property>
   </filter>
  </entry>
  <entry in="00:02:38.133" out="00:02:39.133" producer="chain0">
   <property name="kdenlive:id">40</property>
   <filter id="filter48">
    <property name="window">75</property>
    <property name="max_gain">20dB</property>
    <property name="level">00:02:38.133=-30</property>
    <property name="mlt_service">volume</property>
    <property name="kdenlive_id">volume</property>
    <property name="kdenlive:collapsed">0</property>
   </filter>
  </entry>
  <entry in="00:02:39.167" out="00:02:40.200" producer="chain0">
   <property name="kdenlive:id">40</property>
   <filter id="filter49">
    <property name="window">75</property>
    <property name="max_gain">20dB</property>
    <property name="level">00:02:39.167=-10</property>
    <property name="mlt_service">volume</property>
    <property name="kdenlive_id">volume</property>
    <property name="kdenlive:collapsed">0</property>
   </filter>
   <filter id="filter50" in="00:02:39.533" out="00:02:40.200">
    <property name="window">75</property>
    <property name="max_gain">20dB</property>
    <property name="mlt_service">volume</property>
    <property name="kdenlive_id">fadeout</property>
    <property name="gain">1</property>
    <property name="end">0</property>
    <property name="kdenlive:collapsed">0</property>
   </filter>
  </entry>
  <entry in="00:02:40.233" out="00:02:48.133" producer="chain0">
   <property name="kdenlive:id">40</property>
   <filter id="filter51">
    <property name="window">75</property>
    <property name="max_gain">20dB</property>
    <property name="level">00:02:40.233=-30</property>
    <property name="mlt_service">volume</property>
    <property name="kdenlive_id">volume</property>
    <property name="kdenlive:collapsed">0</property>
   </filter>
  </entry>
  <entry in="00:02:48.167" out="00:02:49.233" producer="chain0">
   <property name="kdenlive:id">40</property>
   <filter id="filter52">
    <property name="window">75</property>
    <property name="max_gain">20dB</property>
    <property name="level">00:02:48.167=-10</property>
    <property name="mlt_service">volume</property>
    <property name="kdenlive_id">volume</property>
    <property name="kdenlive:collapsed">0</property>
   </filter>
   <filter id="filter53" in="00:02:48.567" out="00:02:49.233">
    <property name="window">75</property>
    <property name="max_gain">20dB</property>
    <property name="mlt_service">volume</property>
    <property name="kdenlive_id">fadeout</property>
    <property name="gain">1</property>
    <property name="end">0</property>
    <property name="kdenlive:collapsed">0</property>
   </filter>
  </entry>
  <entry in="00:02:49.267" out="00:02:55.167" producer="chain0">
   <property name="kdenlive:id">40</property>
   <filter id="filter54">
    <property name="window">75</property>
    <property name="max_gain">20dB</property>
    <property name="level">00:02:49.267=-30</property>
    <property name="mlt_service">volume</property>
    <property name="kdenlive_id">volume</property>
    <property name="kdenlive:collapsed">0</property>
   </filter>
  </entry>
  <entry in="00:02:55.200" out="00:02:56.167" producer="chain0">
   <property name="kdenlive:id">40</property>
   <filter id="filter55">
    <property name="window">75</property>
    <property name="max_gain">20dB</property>
    <property name="level">00:02:55.200=-10</property>
    <property name="mlt_service">volume</property>
    <property name="kdenlive_id">volume</property>
    <property name="kdenlive:collapsed">0</property>
   </filter>
   <filter id="filter56" in="00:02:55.833" out="00:02:56.167">
    <property name="window">75</property>
    <property name="max_gain">20dB</property>
    <property name="mlt_service">volume</property>
    <property name="kdenlive_id">fadeout</property>
    <property name="gain">1</property>
    <property name="end">0</property>
    <property name="kdenlive:collapsed">0</property>
   </filter>
  </entry>
  <entry in="00:02:56.200" out="00:02:58.233" producer="chain0">
   <property name="kdenlive:id">40</property>
   <filter id="filter57">
    <property name="window">75</property>
    <property name="max_gain">20dB</property>
    <property name="level">00:02:56.200=-30</property>
    <property name="mlt_service">volume</property>
    <property name="kdenlive_id">volume</property>
    <property name="kdenlive:collapsed">0</property>
   </filter>
  </entry>
  <entry in="00:02:58.267" out="00:03:39.900" producer="chain0">
   <property name="kdenlive:id">40</property>
   <filter id="filter58">
    <property name="window">75</property>
    <property name="max_gain">20dB</property>
    <property name="level">00:02:58.267=-10</property>
    <property name="mlt_service">volume</property>
    <property name="kdenlive_id">volume</property>
    <property name="kdenlive:collapsed">0</property>
   </filter>
   <filter id="filter59" in="00:03:37.900" out="00:03:39.900">
    <property name="window">75</property>
    <property name="max_gain">20dB</property>
    <property name="mlt_service">volume</property>
    <property name="kdenlive_id">fadeout</property>
    <property name="gain">1</property>
    <property name="end">0</property>
    <property name="kdenlive:collapsed">0</property>
   </filter>
  </entry>
  <entry in="00:00:00.000" out="00:00:01.000" producer="chain2">
   <property name="kdenlive:id">109</property>
   <property name="kdenlive:activeeffect">1</property>
   <filter id="filter60">
    <property name="window">75</property>
    <property name="max_gain">20dB</property>
    <property name="level">00:00:00.000=-10</property>
    <property name="mlt_service">volume</property>
    <property name="kdenlive_id">volume</property>
    <property name="kdenlive:collapsed">0</property>
   </filter>
   <filter id="filter61" in="00:00:00.500" out="00:00:01.000">
    <property name="window">75</property>
    <property name="max_gain">20dB</property>
    <property name="mlt_service">volume</property>
    <property name="kdenlive_id">fadeout</property>
    <property name="gain">1</property>
    <property name="end">0</property>
    <property name="kdenlive:collapsed">0</property>
   </filter>
  </entry>
  <entry in="00:00:01.033" out="00:00:01.567" producer="chain2">
   <property name="kdenlive:id">109</property>
   <filter id="filter62">
    <property name="window">75</property>
    <property name="max_gain">20dB</property>
    <property name="level">00:00:01.033=-30</property>
    <property name="mlt_service">volume</property>
    <property name="kdenlive_id">volume</property>
    <property name="kdenlive:collapsed">0</property>
   </filter>
  </entry>
  <entry in="00:00:01.600" out="00:00:02.567" producer="chain2">
   <property name="kdenlive:id">109</property>
   <filter id="filter63">
    <property name="window">75</property>
    <property name="max_gain">20dB</property>
    <property name="level">00:00:01.600=-10</property>
    <property name="mlt_service">volume</property>
    <property name="kdenlive_id">volume</property>
    <property name="kdenlive:collapsed">0</property>
   </filter>
   <filter id="filter64" in="00:00:02.067" out="00:00:02.567">
    <property name="window">75</property>
    <property name="max_gain">20dB</property>
    <property name="mlt_service">volume</property>
    <property name="kdenlive_id">fadeout</property>
    <property name="gain">1</property>
    <property name="end">0</property>
    <property name="kdenlive:collapsed">0</property>
   </filter>
  </entry>
  <entry in="00:00:02.600" out="00:00:03.433" producer="chain2">
   <property name="kdenlive:id">109</property>
   <filter id="filter65">
    <property name="window">75</property>
    <property name="max_gain">20dB</property>
    <property name="level">00:00:02.600=-30</property>
    <property name="mlt_service">volume</property>
    <property name="kdenlive_id">volume</property>
    <property name="kdenlive:collapsed">0</property>
   </filter>
  </entry>
  <entry in="00:00:03.467" out="00:00:08.800" producer="chain2">
   <property name="kdenlive:id">109</property>
   <filter id="filter66">
    <property name="window">75</property>
    <property name="max_gain">20dB</property>
    <property name="level">00:00:03.467=-10</property>
    <property name="mlt_service">volume</property>
    <property name="kdenlive_id">volume</property>
    <property name="kdenlive:collapsed">0</property>
   </filter>
   <filter id="filter67" in="00:00:08.300" out="00:00:08.800">
    <property name="window">75</property>
    <property name="max_gain">20dB</property>
    <property name="mlt_service">volume</property>
    <property name="kdenlive_id">fadeout</property>
    <property name="gain">1</property>
    <property name="end">0</property>
    <property name="kdenlive:collapsed">0</property>
   </filter>
  </entry>
  <entry in="00:00:08.833" out="00:00:09.967" producer="chain2">
   <property name="kdenlive:id">109</property>
   <filter id="filter68">
    <property name="window">75</property>
    <property name="max_gain">20dB</property>
    <property name="level">00:00:08.833=-30</property>
    <property name="mlt_service">volume</property>
    <property name="kdenlive_id">volume</property>
    <property name="kdenlive:collapsed">0</property>
   </filter>
  </entry>
  <entry in="00:00:10.000" out="00:00:11.967" producer="chain2">
   <property name="kdenlive:id">109</property>
   <filter id="filter69">
    <property name="window">75</property>
    <property name="max_gain">20dB</property>
    <property name="level">00:00:10.000=-10</property>
    <property name="mlt_service">volume</property>
    <property name="kdenlive_id">volume</property>
    <property name="kdenlive:collapsed">0</property>
   </filter>
   <filter id="filter70" in="00:00:11.467" out="00:00:11.967">
    <property name="window">75</property>
    <property name="max_gain">20dB</property>
    <property name="mlt_service">volume</property>
    <property name="kdenlive_id">fadeout</property>
    <property name="gain">1</property>
    <property name="end">0</property>
    <property name="kdenlive:collapsed">0</property>
   </filter>
  </entry>
  <entry in="00:00:12.000" out="00:00:13.233" producer="chain2">
   <property name="kdenlive:id">109</property>
   <filter id="filter71">
    <property name="window">75</property>
    <property name="max_gain">20dB</property>
    <property name="level">00:00:12.000=-30</property>
    <property name="mlt_service">volume</property>
    <property name="kdenlive_id">volume</property>
    <property name="kdenlive:collapsed">0</property>
   </filter>
  </entry>
  <entry in="00:00:13.267" out="00:01:30.333" producer="chain2">
   <property name="kdenlive:id">109</property>
   <filter id="filter72">
    <property name="window">75</property>
    <property name="max_gain">20dB</property>
    <property name="level">00:00:13.267=-10</property>
    <property name="mlt_service">volume</property>
    <property name="kdenlive_id">volume</property>
    <property name="kdenlive:collapsed">0</property>
   </filter>
   <filter id="filter73" in="00:01:29.333" out="00:01:30.333">
    <property name="window">75</property>
    <property name="max_gain">20dB</property>
    <property name="mlt_service">volume</property>
    <property name="kdenlive_id">fadeout</property>
    <property name="gain">1</property>
    <property name="end">0</property>
    <property name="kdenlive:collapsed">0</property>
   </filter>
  </entry>
  <entry in="00:01:30.367" out="00:01:42.833" producer="chain2">
   <property name="kdenlive:id">109</property>
   <filter id="filter74">
    <property name="window">75</property>
    <property name="max_gain">20dB</property>
    <property name="level">00:01:30.367=-30</property>
    <property name="mlt_service">volume</property>
    <property name="kdenlive_id">volume</property>
    <property name="kdenlive:collapsed">0</property>
   </filter>
  </entry>
  <entry in="00:01:42.867" out="00:02:16.000" producer="chain2">
   <property name="kdenlive:id">109</property>
   <filter id="filter75">
    <property name="window">75</property>
    <property name="max_gain">20dB</property>
    <property name="level">00:01:42.867=-10</property>
    <property name="mlt_service">volume</property>
    <property name="kdenlive_id">volume</property>
    <property name="kdenlive:collapsed">0</property>
   </filter>
  </entry>
  <entry in="00:00:00.000" out="00:02:16.000" producer="chain2">
   <property name="kdenlive:id">109</property>
   <filter id="filter76">
    <property name="window">75</property>
    <property name="max_gain">20dB</property>
    <property name="level">00:00:00.000=-10</property>
    <property name="mlt_service">volume</property>
    <property name="kdenlive_id">volume</property>
    <property name="kdenlive:collapsed">0</property>
   </filter>
  </entry>
  <entry in="00:00:00.000" out="00:02:16.000" producer="chain2">
   <property name="kdenlive:id">109</property>
   <filter id="filter77">
    <property name="window">75</property>
    <property name="max_gain">20dB</property>
    <property name="level">00:00:00.000=-10</property>
    <property name="mlt_service">volume</property>
    <property name="kdenlive_id">volume</property>
    <property name="kdenlive:collapsed">0</property>
   </filter>
  </entry>
 </playlist>
 <playlist id="playlist1">
  <property name="kdenlive:audio_track">1</property>
 </playlist>
 <tractor id="tractor0" in="00:00:00.000" out="00:10:28.000">
  <property name="kdenlive:audio_track">1</property>
  <property name="kdenlive:trackheight">75</property>
  <property name="kdenlive:timeline_active">1</property>
  <property name="kdenlive:collapsed">0</property>
  <property name="kdenlive:thumbs_format"/>
  <property name="kdenlive:audio_rec"/>
  <track hide="video" producer="playlist0"/>
  <track hide="video" producer="playlist1"/>
  <filter id="filter78">
   <property name="window">75</property>
   <property name="max_gain">20dB</property>
   <property name="mlt_service">volume</property>
   <property name="internal_added">237</property>
   <property name="disable">1</property>
  </filter>
  <filter id="filter79">
   <property name="channel">-1</property>
   <property name="mlt_service">panner</property>
   <property name="internal_added">237</property>
   <property name="start">0.5</property>
   <property name="disable">1</property>
  </filter>
  <filter id="filter80">
   <property name="iec_scale">0</property>
   <property name="mlt_service">audiolevel</property>
   <property name="dbpeak">1</property>
   <property name="disable">1</property>
  </filter>
 </tractor>
 <chain id="chain3" out="00:00:00.600">
  <property name="length">19</property>
  <property name="eof">pause</property>
  <property name="resource">media/audio/audio-effect-slide-in.mp3</property>
  <property name="mlt_service">avformat-novalidate</property>
  <property name="seekable">1</property>
  <property name="audio_index">0</property>
  <property name="video_index">-1</property>
  <property name="astream">0</property>
  <property name="kdenlive:folderid">-1</property>
  <property name="kdenlive:id">20</property>
  <property name="kdenlive:control_uuid">{c2dbb3fe-03b3-468b-9d71-e31c429ddd4c}</property>
  <property name="kdenlive:clip_type">1</property>
  <property name="kdenlive:file_size">12480</property>
  <property name="kdenlive:file_hash">d5422d72a14f925b8c4876041f8a90fd</property>
  <property name="kdenlive:audio_max0">193</property>
  <property name="kdenlive:clipname">Audio - effect - slide-in</property>
  <property name="meta.media.nb_streams">1</property>
  <property name="meta.media.0.stream.type">audio</property>
  <property name="meta.media.0.codec.sample_fmt">fltp</property>
  <property name="meta.media.0.codec.sample_rate">24000</property>
  <property name="meta.media.0.codec.channels">2</property>
  <property name="meta.media.0.codec.layout">stereo</property>
  <property name="meta.media.0.codec.name">mp3float</property>
  <property name="meta.media.0.codec.long_name">MP3 (MPEG audio layer 3)</property>
  <property name="meta.media.0.codec.bit_rate">160000</property>
  <property name="xml">was here</property>
  <property name="mute_on_pause">0</property>
  <property name="set.test_audio">0</property>
  <property name="set.test_image">1</property>
 </chain>
 <chain id="chain4" out="00:00:16.167">
  <property name="length">486</property>
  <property name="eof">pause</property>
  <property name="resource">media/audio/audio-script-page-04.02.mp3</property>
  <property name="mlt_service">avformat-novalidate</property>
  <property name="seekable">1</property>
  <property name="audio_index">0</property>
  <property name="video_index">-1</property>
  <property name="astream">0</property>
  <property name="kdenlive:control_uuid">{e6396cf1-2f6c-4db4-8c28-2857a5e09fd1}</property>
  <property name="kdenlive:id">33</property>
  <property name="kdenlive:clip_type">1</property>
  <property name="kdenlive:file_size">129794</property>
  <property name="kdenlive:file_hash">5bf99a2ade285dc73bbba06032d2c72d</property>
  <property name="kdenlive:folderid">-1</property>
  <property name="meta.media.nb_streams">1</property>
  <property name="meta.media.0.stream.type">audio</property>
  <property name="meta.media.0.codec.sample_fmt">fltp</property>
  <property name="meta.media.0.codec.sample_rate">44100</property>
  <property name="meta.media.0.codec.channels">1</property>
  <property name="meta.media.0.codec.layout">mono</property>
  <property name="meta.media.0.codec.name">mp3float</property>
  <property name="meta.media.0.codec.long_name">MP3 (MPEG audio layer 3)</property>
  <property name="meta.media.0.codec.bit_rate">64000</property>
  <property name="meta.attr.encoder.markup">Lavf60.16.100</property>
  <property name="xml">was here</property>
  <property name="mute_on_pause">0</property>
  <property name="set.test_audio">0</property>
  <property name="set.test_image">1</property>
 </chain>
 <chain id="chain8" out="00:00:24.533">
  <property name="length">737</property>
  <property name="eof">pause</property>
  <property name="resource">media/audio/audio-script-page-04.03.mp3</property>
  <property name="mlt_service">avformat-novalidate</property>
  <property name="seekable">1</property>
  <property name="audio_index">0</property>
  <property name="video_index">-1</property>
  <property name="astream">0</property>
  <property name="kdenlive:control_uuid">{717b0317-0259-4e4a-946c-838009c7a9a7}</property>
  <property name="kdenlive:id">34</property>
  <property name="kdenlive:clip_type">1</property>
  <property name="kdenlive:file_size">196667</property>
  <property name="kdenlive:file_hash">dbb024fd214a96604e0d17b89602ee71</property>
  <property name="kdenlive:folderid">-1</property>
  <property name="meta.media.nb_streams">1</property>
  <property name="meta.media.0.stream.type">audio</property>
  <property name="meta.media.0.codec.sample_fmt">fltp</property>
  <property name="meta.media.0.codec.sample_rate">44100</property>
  <property name="meta.media.0.codec.channels">1</property>
  <property name="meta.media.0.codec.layout">mono</property>
  <property name="meta.media.0.codec.name">mp3float</property>
  <property name="meta.media.0.codec.long_name">MP3 (MPEG audio layer 3)</property>
  <property name="meta.media.0.codec.bit_rate">64000</property>
  <property name="meta.attr.encoder.markup">Lavf60.16.100</property>
  <property name="xml">was here</property>
  <property name="mute_on_pause">0</property>
  <property name="set.test_audio">0</property>
  <property name="set.test_image">1</property>
 </chain>
 <chain id="chain9" out="00:00:21.500">
  <property name="length">646</property>
  <property name="eof">pause</property>
  <property name="resource">media/audio/audio-script-page-05.02.mp3</property>
  <property name="mlt_service">avformat-novalidate</property>
  <property name="seekable">1</property>
  <property name="audio_index">0</property>
  <property name="video_index">-1</property>
  <property name="astream">0</property>
  <property name="kdenlive:folderid">-1</property>
  <property name="kdenlive:id">41</property>
  <property name="kdenlive:control_uuid">{ddcc005e-d162-41ef-93ac-770da8cb2db6}</property>
  <property name="kdenlive:clip_type">1</property>
  <property name="kdenlive:file_size">172426</property>
  <property name="kdenlive:file_hash">c99051ac3ff277e968adbd04ab2906cd</property>
  <property name="kdenlive:audio_max0">133</property>
  <property name="kdenlive:monitorPosition">0</property>
  <property name="kdenlive:clipname">Audio script - page 5.2</property>
  <property name="meta.media.nb_streams">1</property>
  <property name="meta.media.0.stream.type">audio</property>
  <property name="meta.media.0.codec.sample_fmt">fltp</property>
  <property name="meta.media.0.codec.sample_rate">44100</property>
  <property name="meta.media.0.codec.channels">1</property>
  <property name="meta.media.0.codec.layout">mono</property>
  <property name="meta.media.0.codec.name">mp3float</property>
  <property name="meta.media.0.codec.long_name">MP3 (MPEG audio layer 3)</property>
  <property name="meta.media.0.codec.bit_rate">64000</property>
  <property name="meta.attr.encoder.markup">Lavf60.16.100</property>
  <property name="xml">was here</property>
  <property name="mute_on_pause">0</property>
  <property name="set.test_audio">0</property>
  <property name="set.test_image">1</property>
 </chain>
 <chain id="chain10" out="00:00:28.167">
  <property name="length">846</property>
  <property name="eof">pause</property>
  <property name="resource">media/audio/audio-script-page-05.03.mp3</property>
  <property name="mlt_service">avformat-novalidate</property>
  <property name="seekable">1</property>
  <property name="audio_index">0</property>
  <property name="video_index">-1</property>
  <property name="astream">0</property>
  <property name="kdenlive:folderid">-1</property>
  <property name="kdenlive:id">42</property>
  <property name="kdenlive:control_uuid">{98905c49-2706-4c68-8a56-08ba347301ff}</property>
  <property name="kdenlive:clip_type">1</property>
  <property name="kdenlive:file_size">225924</property>
  <property name="kdenlive:file_hash">24f171659f2719a175b2d4fa06b674fe</property>
  <property name="kdenlive:audio_max0">125</property>
  <property name="kdenlive:clipname">Audio script - page 5.3</property>
  <property name="kdenlive:monitorPosition">0</property>
  <property name="meta.media.nb_streams">1</property>
  <property name="meta.media.0.stream.type">audio</property>
  <property name="meta.media.0.codec.sample_fmt">fltp</property>
  <property name="meta.media.0.codec.sample_rate">44100</property>
  <property name="meta.media.0.codec.channels">1</property>
  <property name="meta.media.0.codec.layout">mono</property>
  <property name="meta.media.0.codec.name">mp3float</property>
  <property name="meta.media.0.codec.long_name">MP3 (MPEG audio layer 3)</property>
  <property name="meta.media.0.codec.bit_rate">64000</property>
  <property name="meta.attr.encoder.markup">Lavf60.16.100</property>
  <property name="xml">was here</property>
  <property name="mute_on_pause">0</property>
  <property name="set.test_audio">0</property>
  <property name="set.test_image">1</property>
 </chain>
 <chain id="chain11" out="00:00:12.167">
  <property name="length">366</property>
  <property name="eof">pause</property>
  <property name="resource">media/audio/audio-script-page-06.02.mp3</property>
  <property name="mlt_service">avformat-novalidate</property>
  <property name="seekable">1</property>
  <property name="audio_index">0</property>
  <property name="video_index">-1</property>
  <property name="astream">0</property>
  <property name="kdenlive:folderid">-1</property>
  <property name="kdenlive:id">47</property>
  <property name="kdenlive:control_uuid">{9c74faa8-f53b-4615-bc99-5636a54f397a}</property>
  <property name="kdenlive:clip_type">1</property>
  <property name="kdenlive:file_size">97820</property>
  <property name="kdenlive:file_hash">aa9e1d3e4f36438ec47f8dec646e2fc9</property>
  <property name="kdenlive:audio_max0">133</property>
  <property name="kdenlive:clipname">Audio script - page 6.2</property>
  <property name="meta.media.nb_streams">1</property>
  <property name="meta.media.0.stream.type">audio</property>
  <property name="meta.media.0.codec.sample_fmt">fltp</property>
  <property name="meta.media.0.codec.sample_rate">44100</property>
  <property name="meta.media.0.codec.channels">1</property>
  <property name="meta.media.0.codec.layout">mono</property>
  <property name="meta.media.0.codec.name">mp3float</property>
  <property name="meta.media.0.codec.long_name">MP3 (MPEG audio layer 3)</property>
  <property name="meta.media.0.codec.bit_rate">64000</property>
  <property name="meta.attr.encoder.markup">Lavf60.16.100</property>
  <property name="xml">was here</property>
  <property name="mute_on_pause">0</property>
  <property name="set.test_audio">0</property>
  <property name="set.test_image">1</property>
 </chain>
 <chain id="chain12" out="00:00:04.500">
  <property name="length">136</property>
  <property name="eof">pause</property>
  <property name="resource">media/audio/audio-script-page-07.02.mp3</property>
  <property name="mlt_service">avformat-novalidate</property>
  <property name="seekable">1</property>
  <property name="audio_index">0</property>
  <property name="video_index">-1</property>
  <property name="astream">0</property>
  <property name="kdenlive:folderid">-1</property>
  <property name="kdenlive:id">59</property>
  <property name="kdenlive:control_uuid">{53b5129c-7380-4f16-a1d5-4aac3339b412}</property>
  <property name="kdenlive:clip_type">1</property>
  <property name="kdenlive:file_size">36380</property>
  <property name="kdenlive:file_hash">f0ec771680207062a235813262614ccc</property>
  <property name="kdenlive:audio_max0">127</property>
  <property name="kdenlive:clipname">Audio script - page 7.2</property>
  <property name="meta.media.nb_streams">1</property>
  <property name="meta.media.0.stream.type">audio</property>
  <property name="meta.media.0.codec.sample_fmt">fltp</property>
  <property name="meta.media.0.codec.sample_rate">44100</property>
  <property name="meta.media.0.codec.channels">1</property>
  <property name="meta.media.0.codec.layout">mono</property>
  <property name="meta.media.0.codec.name">mp3float</property>
  <property name="meta.media.0.codec.long_name">MP3 (MPEG audio layer 3)</property>
  <property name="meta.media.0.codec.bit_rate">64000</property>
  <property name="meta.attr.encoder.markup">Lavf60.16.100</property>
  <property name="xml">was here</property>
  <property name="mute_on_pause">0</property>
  <property name="set.test_audio">0</property>
  <property name="set.test_image">1</property>
 </chain>
 <chain id="chain13" out="00:00:09.400">
  <property name="length">283</property>
  <property name="eof">pause</property>
  <property name="resource">media/audio/audio-script-page-07.03.mp3</property>
  <property name="mlt_service">avformat-novalidate</property>
  <property name="seekable">1</property>
  <property name="audio_index">0</property>
  <property name="video_index">-1</property>
  <property name="astream">0</property>
  <property name="kdenlive:folderid">-1</property>
  <property name="kdenlive:id">56</property>
  <property name="kdenlive:control_uuid">{c70599fd-b2da-406a-a0d4-57e83cac3b30}</property>
  <property name="kdenlive:clip_type">1</property>
  <property name="kdenlive:file_size">75668</property>
  <property name="kdenlive:file_hash">9ff9f0cafcd0c9000a9a6659521404b6</property>
  <property name="kdenlive:audio_max0">140</property>
  <property name="kdenlive:clipname">Audio script - page 7.3</property>
  <property name="meta.media.nb_streams">1</property>
  <property name="meta.media.0.stream.type">audio</property>
  <property name="meta.media.0.codec.sample_fmt">fltp</property>
  <property name="meta.media.0.codec.sample_rate">44100</property>
  <property name="meta.media.0.codec.channels">1</property>
  <property name="meta.media.0.codec.layout">mono</property>
  <property name="meta.media.0.codec.name">mp3float</property>
  <property name="meta.media.0.codec.long_name">MP3 (MPEG audio layer 3)</property>
  <property name="meta.media.0.codec.bit_rate">64000</property>
  <property name="meta.attr.encoder.markup">Lavf60.16.100</property>
  <property name="xml">was here</property>
  <property name="mute_on_pause">0</property>
  <property name="set.test_audio">0</property>
  <property name="set.test_image">1</property>
 </chain>
 <chain id="chain14" out="00:00:09.800">
  <property name="length">295</property>
  <property name="eof">pause</property>
  <property name="resource">media/audio/audio-script-page-07.04.mp3</property>
  <property name="mlt_service">avformat-novalidate</property>
  <property name="seekable">1</property>
  <property name="audio_index">0</property>
  <property name="video_index">-1</property>
  <property name="astream">0</property>
  <property name="kdenlive:folderid">-1</property>
  <property name="kdenlive:id">57</property>
  <property name="kdenlive:control_uuid">{d6663bab-ce59-45eb-b951-897e2459de8d}</property>
  <property name="kdenlive:clip_type">1</property>
  <property name="kdenlive:file_size">79012</property>
  <property name="kdenlive:file_hash">0228718c201b0531a8ff011dd1f12998</property>
  <property name="kdenlive:audio_max0">136</property>
  <property name="kdenlive:monitorPosition">0</property>
  <property name="kdenlive:clipname">Audio script - page 7.4</property>
  <property name="meta.media.nb_streams">1</property>
  <property name="meta.media.0.stream.type">audio</property>
  <property name="meta.media.0.codec.sample_fmt">fltp</property>
  <property name="meta.media.0.codec.sample_rate">44100</property>
  <property name="meta.media.0.codec.channels">1</property>
  <property name="meta.media.0.codec.layout">mono</property>
  <property name="meta.media.0.codec.name">mp3float</property>
  <property name="meta.media.0.codec.long_name">MP3 (MPEG audio layer 3)</property>
  <property name="meta.media.0.codec.bit_rate">64000</property>
  <property name="meta.attr.encoder.markup">Lavf60.16.100</property>
  <property name="xml">was here</property>
  <property name="mute_on_pause">0</property>
  <property name="set.test_audio">0</property>
  <property name="set.test_image">1</property>
 </chain>
 <chain id="chain15" out="00:00:08.233">
  <property name="length">248</property>
  <property name="eof">pause</property>
  <property name="resource">media/audio/audio-script-page-07.05.mp3</property>
  <property name="mlt_service">avformat-novalidate</property>
  <property name="seekable">1</property>
  <property name="audio_index">0</property>
  <property name="video_index">-1</property>
  <property name="astream">0</property>
  <property name="kdenlive:folderid">-1</property>
  <property name="kdenlive:id">58</property>
  <property name="kdenlive:control_uuid">{f95a3266-3a61-4751-87a7-b88eb99aa844}</property>
  <property name="kdenlive:clip_type">1</property>
  <property name="kdenlive:file_size">66473</property>
  <property name="kdenlive:file_hash">f4f84a4b55ae2c2329efc4bf19dabc24</property>
  <property name="kdenlive:audio_max0">121</property>
  <property name="kdenlive:clipname">Audio script - page 7.5</property>
  <property name="meta.media.nb_streams">1</property>
  <property name="meta.media.0.stream.type">audio</property>
  <property name="meta.media.0.codec.sample_fmt">fltp</property>
  <property name="meta.media.0.codec.sample_rate">44100</property>
  <property name="meta.media.0.codec.channels">1</property>
  <property name="meta.media.0.codec.layout">mono</property>
  <property name="meta.media.0.codec.name">mp3float</property>
  <property name="meta.media.0.codec.long_name">MP3 (MPEG audio layer 3)</property>
  <property name="meta.media.0.codec.bit_rate">64000</property>
  <property name="meta.attr.encoder.markup">Lavf60.16.100</property>
  <property name="xml">was here</property>
  <property name="mute_on_pause">0</property>
  <property name="set.test_audio">0</property>
  <property name="set.test_image">1</property>
 </chain>
 <chain id="chain16" out="00:00:07.667">
  <property name="length">231</property>
  <property name="eof">pause</property>
  <property name="resource">media/audio/audio-script-page-07.06.mp3</property>
  <property name="mlt_service">avformat-novalidate</property>
  <property name="seekable">1</property>
  <property name="audio_index">0</property>
  <property name="video_index">-1</property>
  <property name="astream">0</property>
  <property name="kdenlive:folderid">-1</property>
  <property name="kdenlive:id">60</property>
  <property name="kdenlive:control_uuid">{e67953d9-8cb5-414f-91c8-3231d84f09a2}</property>
  <property name="kdenlive:clip_type">1</property>
  <property name="kdenlive:file_size">61875</property>
  <property name="kdenlive:file_hash">d4ea2c3c273ec95ed651a90f7b4246df</property>
  <property name="kdenlive:audio_max0">123</property>
  <property name="kdenlive:clipname">Audio script - page 7.6</property>
  <property name="meta.media.nb_streams">1</property>
  <property name="meta.media.0.stream.type">audio</property>
  <property name="meta.media.0.codec.sample_fmt">fltp</property>
  <property name="meta.media.0.codec.sample_rate">44100</property>
  <property name="meta.media.0.codec.channels">1</property>
  <property name="meta.media.0.codec.layout">mono</property>
  <property name="meta.media.0.codec.name">mp3float</property>
  <property name="meta.media.0.codec.long_name">MP3 (MPEG audio layer 3)</property>
  <property name="meta.media.0.codec.bit_rate">64000</property>
  <property name="meta.attr.encoder.markup">Lavf60.16.100</property>
  <property name="xml">was here</property>
  <property name="mute_on_pause">0</property>
  <property name="set.test_audio">0</property>
  <property name="set.test_image">1</property>
 </chain>
 <chain id="chain26" out="00:00:04.500">
  <property name="length">136</property>
  <property name="eof">pause</property>
  <property name="resource">media/audio/audio-script-page-08.02.mp3</property>
  <property name="mlt_service">avformat-novalidate</property>
  <property name="seekable">1</property>
  <property name="audio_index">0</property>
  <property name="video_index">-1</property>
  <property name="astream">0</property>
  <property name="kdenlive:folderid">-1</property>
  <property name="kdenlive:id">65</property>
  <property name="kdenlive:control_uuid">{b483fe96-7764-4336-adc9-954a50177733}</property>
  <property name="kdenlive:clip_type">1</property>
  <property name="kdenlive:file_size">36380</property>
  <property name="kdenlive:file_hash">f0ec771680207062a235813262614ccc</property>
  <property name="kdenlive:audio_max0">127</property>
  <property name="kdenlive:clipname">Audio script - page 8.2</property>
  <property name="meta.media.nb_streams">1</property>
  <property name="meta.media.0.stream.type">audio</property>
  <property name="meta.media.0.codec.sample_fmt">fltp</property>
  <property name="meta.media.0.codec.sample_rate">44100</property>
  <property name="meta.media.0.codec.channels">1</property>
  <property name="meta.media.0.codec.layout">mono</property>
  <property name="meta.media.0.codec.name">mp3float</property>
  <property name="meta.media.0.codec.long_name">MP3 (MPEG audio layer 3)</property>
  <property name="meta.media.0.codec.bit_rate">64000</property>
  <property name="meta.attr.encoder.markup">Lavf60.16.100</property>
  <property name="xml">was here</property>
  <property name="mute_on_pause">0</property>
  <property name="set.test_audio">0</property>
  <property name="set.test_image">1</property>
 </chain>
 <chain id="chain27" out="00:00:10.633">
  <property name="length">320</property>
  <property name="eof">pause</property>
  <property name="resource">media/audio/audio-script-page-08.03.mp3</property>
  <property name="mlt_service">avformat-novalidate</property>
  <property name="seekable">1</property>
  <property name="audio_index">0</property>
  <property name="video_index">-1</property>
  <property name="astream">0</property>
  <property name="kdenlive:control_uuid">{c04c7ead-a63d-4043-9725-42737eb30bd0}</property>
  <property name="kdenlive:id">67</property>
  <property name="kdenlive:clip_type">1</property>
  <property name="kdenlive:file_size">85490</property>
  <property name="kdenlive:file_hash">85a48e699b0c763fae4a3c573f8b0209</property>
  <property name="kdenlive:folderid">-1</property>
  <property name="kdenlive:monitorPosition">0</property>
  <property name="kdenlive:audio_max0">122</property>
  <property name="meta.media.nb_streams">1</property>
  <property name="meta.media.0.stream.type">audio</property>
  <property name="meta.media.0.codec.sample_fmt">fltp</property>
  <property name="meta.media.0.codec.sample_rate">44100</property>
  <property name="meta.media.0.codec.channels">1</property>
  <property name="meta.media.0.codec.layout">mono</property>
  <property name="meta.media.0.codec.name">mp3float</property>
  <property name="meta.media.0.codec.long_name">MP3 (MPEG audio layer 3)</property>
  <property name="meta.media.0.codec.bit_rate">64000</property>
  <property name="meta.attr.encoder.markup">Lavf60.16.100</property>
  <property name="xml">was here</property>
  <property name="mute_on_pause">0</property>
  <property name="set.test_audio">0</property>
  <property name="set.test_image">1</property>
 </chain>
 <chain id="chain28" out="00:00:10.433">
  <property name="length">314</property>
  <property name="eof">pause</property>
  <property name="resource">media/audio/audio-script-page-08.04.mp3</property>
  <property name="mlt_service">avformat-novalidate</property>
  <property name="seekable">1</property>
  <property name="audio_index">0</property>
  <property name="video_index">-1</property>
  <property name="astream">0</property>
  <property name="kdenlive:folderid">-1</property>
  <property name="kdenlive:id">69</property>
  <property name="kdenlive:control_uuid">{16145d68-01af-4a55-b423-74ee20105388}</property>
  <property name="kdenlive:clip_type">1</property>
  <property name="kdenlive:file_size">84027</property>
  <property name="kdenlive:file_hash">b0938865f180658cfb6762d901dd8bf1</property>
  <property name="kdenlive:audio_max0">121</property>
  <property name="kdenlive:clipname">Audio script - page 8.4</property>
  <property name="meta.media.nb_streams">1</property>
  <property name="meta.media.0.stream.type">audio</property>
  <property name="meta.media.0.codec.sample_fmt">fltp</property>
  <property name="meta.media.0.codec.sample_rate">44100</property>
  <property name="meta.media.0.codec.channels">1</property>
  <property name="meta.media.0.codec.layout">mono</property>
  <property name="meta.media.0.codec.name">mp3float</property>
  <property name="meta.media.0.codec.long_name">MP3 (MPEG audio layer 3)</property>
  <property name="meta.media.0.codec.bit_rate">64000</property>
  <property name="meta.attr.encoder.markup">Lavf60.16.100</property>
  <property name="xml">was here</property>
  <property name="mute_on_pause">0</property>
  <property name="set.test_audio">0</property>
  <property name="set.test_image">1</property>
 </chain>
 <chain id="chain29" out="00:00:10.333">
  <property name="length">311</property>
  <property name="eof">pause</property>
  <property name="resource">media/audio/audio-script-page-08.05.mp3</property>
  <property name="mlt_service">avformat-novalidate</property>
  <property name="seekable">1</property>
  <property name="audio_index">0</property>
  <property name="video_index">-1</property>
  <property name="astream">0</property>
  <property name="kdenlive:folderid">-1</property>
  <property name="kdenlive:id">71</property>
  <property name="kdenlive:control_uuid">{7d02d658-aab1-4941-b4a6-489d257fa071}</property>
  <property name="kdenlive:clip_type">1</property>
  <property name="kdenlive:file_size">83191</property>
  <property name="kdenlive:file_hash">249dd48ea854fc819b642ded5580e1aa</property>
  <property name="kdenlive:audio_max0">132</property>
  <property name="kdenlive:clipname">Audio script - page 8.5</property>
  <property name="meta.media.nb_streams">1</property>
  <property name="meta.media.0.stream.type">audio</property>
  <property name="meta.media.0.codec.sample_fmt">fltp</property>
  <property name="meta.media.0.codec.sample_rate">44100</property>
  <property name="meta.media.0.codec.channels">1</property>
  <property name="meta.media.0.codec.layout">mono</property>
  <property name="meta.media.0.codec.name">mp3float</property>
  <property name="meta.media.0.codec.long_name">MP3 (MPEG audio layer 3)</property>
  <property name="meta.media.0.codec.bit_rate">64000</property>
  <property name="meta.attr.encoder.markup">Lavf60.16.100</property>
  <property name="xml">was here</property>
  <property name="mute_on_pause">0</property>
  <property name="set.test_audio">0</property>
  <property name="set.test_image">1</property>
 </chain>
 <chain id="chain30" out="00:00:06.367">
  <property name="length">192</property>
  <property name="eof">pause</property>
  <property name="resource">media/audio/audio-script-page-08.06.mp3</property>
  <property name="mlt_service">avformat-novalidate</property>
  <property name="seekable">1</property>
  <property name="audio_index">0</property>
  <property name="video_index">-1</property>
  <property name="astream">0</property>
  <property name="kdenlive:folderid">-1</property>
  <property name="kdenlive:id">73</property>
  <property name="kdenlive:control_uuid">{7eba94de-6bc2-4516-afa6-24a92b5c1afe}</property>
  <property name="kdenlive:clip_type">1</property>
  <property name="kdenlive:file_size">51427</property>
  <property name="kdenlive:file_hash">4fb53bc6c546f29c230d6934417fa11f</property>
  <property name="kdenlive:audio_max0">124</property>
  <property name="kdenlive:clipname">Audio script - page 8.6</property>
  <property name="meta.media.nb_streams">1</property>
  <property name="meta.media.0.stream.type">audio</property>
  <property name="meta.media.0.codec.sample_fmt">fltp</property>
  <property name="meta.media.0.codec.sample_rate">44100</property>
  <property name="meta.media.0.codec.channels">1</property>
  <property name="meta.media.0.codec.layout">mono</property>
  <property name="meta.media.0.codec.name">mp3float</property>
  <property name="meta.media.0.codec.long_name">MP3 (MPEG audio layer 3)</property>
  <property name="meta.media.0.codec.bit_rate">64000</property>
  <property name="meta.attr.encoder.markup">Lavf60.16.100</property>
  <property name="xml">was here</property>
  <property name="mute_on_pause">0</property>
  <property name="set.test_audio">0</property>
  <property name="set.test_image">1</property>
 </chain>
 <chain id="chain34" out="00:00:04.500">
  <property name="length">136</property>
  <property name="eof">pause</property>
  <property name="resource">media/audio/audio-script-page-09.02.mp3</property>
  <property name="mlt_service">avformat-novalidate</property>
  <property name="seekable">1</property>
  <property name="audio_index">0</property>
  <property name="video_index">-1</property>
  <property name="astream">0</property>
  <property name="kdenlive:folderid">-1</property>
  <property name="kdenlive:id">84</property>
  <property name="kdenlive:control_uuid">{d6afb067-0d61-4650-9f03-188bb3186adc}</property>
  <property name="kdenlive:clip_type">1</property>
  <property name="kdenlive:file_size">36380</property>
  <property name="kdenlive:file_hash">f0ec771680207062a235813262614ccc</property>
  <property name="kdenlive:audio_max0">127</property>
  <property name="kdenlive:clipname">Audio script - page 9.2</property>
  <property name="meta.media.nb_streams">1</property>
  <property name="meta.media.0.stream.type">audio</property>
  <property name="meta.media.0.codec.sample_fmt">fltp</property>
  <property name="meta.media.0.codec.sample_rate">44100</property>
  <property name="meta.media.0.codec.channels">1</property>
  <property name="meta.media.0.codec.layout">mono</property>
  <property name="meta.media.0.codec.name">mp3float</property>
  <property name="meta.media.0.codec.long_name">MP3 (MPEG audio layer 3)</property>
  <property name="meta.media.0.codec.bit_rate">64000</property>
  <property name="meta.attr.encoder.markup">Lavf60.16.100</property>
  <property name="xml">was here</property>
  <property name="mute_on_pause">0</property>
  <property name="set.test_audio">0</property>
  <property name="set.test_image">1</property>
 </chain>
 <chain id="chain35" out="00:00:14.200">
  <property name="length">427</property>
  <property name="eof">pause</property>
  <property name="resource">media/audio/audio-script-page-09.03.mp3</property>
  <property name="mlt_service">avformat-novalidate</property>
  <property name="seekable">1</property>
  <property name="audio_index">0</property>
  <property name="video_index">-1</property>
  <property name="astream">0</property>
  <property name="kdenlive:folderid">-1</property>
  <property name="kdenlive:id">79</property>
  <property name="kdenlive:control_uuid">{835b5832-6a47-466d-a7d1-d08c2ca77680}</property>
  <property name="kdenlive:clip_type">1</property>
  <property name="kdenlive:file_size">114120</property>
  <property name="kdenlive:file_hash">68cb20332b0e1027d674b203a79410b7</property>
  <property name="kdenlive:audio_max0">118</property>
  <property name="kdenlive:clipname">Audio script - page 9.3</property>
  <property name="meta.media.nb_streams">1</property>
  <property name="meta.media.0.stream.type">audio</property>
  <property name="meta.media.0.codec.sample_fmt">fltp</property>
  <property name="meta.media.0.codec.sample_rate">44100</property>
  <property name="meta.media.0.codec.channels">1</property>
  <property name="meta.media.0.codec.layout">mono</property>
  <property name="meta.media.0.codec.name">mp3float</property>
  <property name="meta.media.0.codec.long_name">MP3 (MPEG audio layer 3)</property>
  <property name="meta.media.0.codec.bit_rate">64000</property>
  <property name="meta.attr.encoder.markup">Lavf60.16.100</property>
  <property name="xml">was here</property>
  <property name="mute_on_pause">0</property>
  <property name="set.test_audio">0</property>
  <property name="set.test_image">1</property>
 </chain>
 <chain id="chain36" out="00:00:12.167">
  <property name="length">366</property>
  <property name="eof">pause</property>
  <property name="resource">media/audio/audio-script-page-09.04.mp3</property>
  <property name="mlt_service">avformat-novalidate</property>
  <property name="seekable">1</property>
  <property name="audio_index">0</property>
  <property name="video_index">-1</property>
  <property name="astream">0</property>
  <property name="kdenlive:folderid">-1</property>
  <property name="kdenlive:id">81</property>
  <property name="kdenlive:control_uuid">{daccbdb7-8734-42f4-ad30-10e34b328926}</property>
  <property name="kdenlive:clip_type">1</property>
  <property name="kdenlive:file_size">97820</property>
  <property name="kdenlive:file_hash">354db9a964d8ef813d35666ec38e9776</property>
  <property name="kdenlive:audio_max0">131</property>
  <property name="kdenlive:clipname">Audio script - page 9.4</property>
  <property name="meta.media.nb_streams">1</property>
  <property name="meta.media.0.stream.type">audio</property>
  <property name="meta.media.0.codec.sample_fmt">fltp</property>
  <property name="meta.media.0.codec.sample_rate">44100</property>
  <property name="meta.media.0.codec.channels">1</property>
  <property name="meta.media.0.codec.layout">mono</property>
  <property name="meta.media.0.codec.name">mp3float</property>
  <property name="meta.media.0.codec.long_name">MP3 (MPEG audio layer 3)</property>
  <property name="meta.media.0.codec.bit_rate">64000</property>
  <property name="meta.attr.encoder.markup">Lavf60.16.100</property>
  <property name="xml">was here</property>
  <property name="mute_on_pause">0</property>
  <property name="set.test_audio">0</property>
  <property name="set.test_image">1</property>
 </chain>
 <chain id="chain37" out="00:00:06.167">
  <property name="length">186</property>
  <property name="eof">pause</property>
  <property name="resource">media/audio/audio-script-page-09.05.mp3</property>
  <property name="mlt_service">avformat-novalidate</property>
  <property name="seekable">1</property>
  <property name="audio_index">0</property>
  <property name="video_index">-1</property>
  <property name="astream">0</property>
  <property name="kdenlive:folderid">-1</property>
  <property name="kdenlive:id">83</property>
  <property name="kdenlive:control_uuid">{d70d4327-c173-4db6-babc-770acbcce0de}</property>
  <property name="kdenlive:clip_type">1</property>
  <property name="kdenlive:file_size">49755</property>
  <property name="kdenlive:file_hash">72d3c3a8f41afefc89a550e2b4f0ccf8</property>
  <property name="kdenlive:audio_max0">134</property>
  <property name="kdenlive:clipname">Audio script - page 9.5</property>
  <property name="kdenlive:monitorPosition">0</property>
  <property name="meta.media.nb_streams">1</property>
  <property name="meta.media.0.stream.type">audio</property>
  <property name="meta.media.0.codec.sample_fmt">fltp</property>
  <property name="meta.media.0.codec.sample_rate">44100</property>
  <property name="meta.media.0.codec.channels">1</property>
  <property name="meta.media.0.codec.layout">mono</property>
  <property name="meta.media.0.codec.name">mp3float</property>
  <property name="meta.media.0.codec.long_name">MP3 (MPEG audio layer 3)</property>
  <property name="meta.media.0.codec.bit_rate">64000</property>
  <property name="meta.attr.encoder.markup">Lavf60.16.100</property>
  <property name="xml">was here</property>
  <property name="mute_on_pause">0</property>
  <property name="set.test_audio">0</property>
  <property name="set.test_image">1</property>
 </chain>
 <chain id="chain46" out="00:00:05.533">
  <property name="length">167</property>
  <property name="eof">pause</property>
  <property name="resource">media/audio/audio-script-page-11.01.mp3</property>
  <property name="mlt_service">avformat-novalidate</property>
  <property name="seekable">1</property>
  <property name="audio_index">0</property>
  <property name="video_index">-1</property>
  <property name="astream">0</property>
  <property name="kdenlive:folderid">-1</property>
  <property name="kdenlive:id">118</property>
  <property name="kdenlive:control_uuid">{55e1c06d-7ba1-4455-ad85-f7970ca8f0f3}</property>
  <property name="kdenlive:clip_type">1</property>
  <property name="kdenlive:file_size">44739</property>
  <property name="kdenlive:file_hash">538a270a268e21a549e5ebb5954c6575</property>
  <property name="kdenlive:audio_max0">94</property>
  <property name="kdenlive:clipname">Audio-script - page 11.01</property>
  <property name="meta.media.nb_streams">1</property>
  <property name="meta.media.0.stream.type">audio</property>
  <property name="meta.media.0.codec.sample_fmt">fltp</property>
  <property name="meta.media.0.codec.sample_rate">44100</property>
  <property name="meta.media.0.codec.channels">1</property>
  <property name="meta.media.0.codec.layout">mono</property>
  <property name="meta.media.0.codec.name">mp3float</property>
  <property name="meta.media.0.codec.long_name">MP3 (MPEG audio layer 3)</property>
  <property name="meta.media.0.codec.bit_rate">64000</property>
  <property name="meta.attr.encoder.markup">Lavf60.16.100</property>
  <property name="xml">was here</property>
  <property name="mute_on_pause">0</property>
  <property name="set.test_audio">0</property>
  <property name="set.test_image">1</property>
 </chain>
 <chain id="chain47" out="00:00:05.400">
  <property name="length">163</property>
  <property name="eof">pause</property>
  <property name="resource">media/audio/audio-script-page-11.02.01.mp3</property>
  <property name="mlt_service">avformat-novalidate</property>
  <property name="seekable">1</property>
  <property name="audio_index">0</property>
  <property name="video_index">-1</property>
  <property name="astream">0</property>
  <property name="kdenlive:folderid">-1</property>
  <property name="kdenlive:id">119</property>
  <property name="kdenlive:control_uuid">{d6765626-3bd0-4cdd-aa12-75895412ee53}</property>
  <property name="kdenlive:clip_type">1</property>
  <property name="kdenlive:file_size">43694</property>
  <property name="kdenlive:file_hash">3a2afba065dfde4cd9ebbe2be62f3e50</property>
  <property name="kdenlive:audio_max0">121</property>
  <property name="kdenlive:clipname">Audio script - page 11.02.01</property>
  <property name="kdenlive:monitorPosition">0</property>
  <property name="meta.media.nb_streams">1</property>
  <property name="meta.media.0.stream.type">audio</property>
  <property name="meta.media.0.codec.sample_fmt">fltp</property>
  <property name="meta.media.0.codec.sample_rate">44100</property>
  <property name="meta.media.0.codec.channels">1</property>
  <property name="meta.media.0.codec.layout">mono</property>
  <property name="meta.media.0.codec.name">mp3float</property>
  <property name="meta.media.0.codec.long_name">MP3 (MPEG audio layer 3)</property>
  <property name="meta.media.0.codec.bit_rate">64000</property>
  <property name="meta.attr.encoder.markup">Lavf60.16.100</property>
  <property name="xml">was here</property>
  <property name="mute_on_pause">0</property>
  <property name="set.test_audio">0</property>
  <property name="set.test_image">1</property>
 </chain>
 <chain id="chain48" out="00:00:08.867">
  <property name="length">267</property>
  <property name="eof">pause</property>
  <property name="resource">media/audio/audio-script-page-11.03.01.mp3</property>
  <property name="mlt_service">avformat-novalidate</property>
  <property name="seekable">1</property>
  <property name="audio_index">0</property>
  <property name="video_index">-1</property>
  <property name="astream">0</property>
  <property name="kdenlive:folderid">-1</property>
  <property name="kdenlive:id">120</property>
  <property name="kdenlive:control_uuid">{56ad58e5-0348-4232-afa4-45e7a094ed3e}</property>
  <property name="kdenlive:clip_type">1</property>
  <property name="kdenlive:file_size">71489</property>
  <property name="kdenlive:file_hash">89d074eb84e03a2a6ba00e0c64414bb1</property>
  <property name="kdenlive:audio_max0">103</property>
  <property name="kdenlive:clipname">Audio script - page 11.03.01</property>
  <property name="meta.media.nb_streams">1</property>
  <property name="meta.media.0.stream.type">audio</property>
  <property name="meta.media.0.codec.sample_fmt">fltp</property>
  <property name="meta.media.0.codec.sample_rate">44100</property>
  <property name="meta.media.0.codec.channels">1</property>
  <property name="meta.media.0.codec.layout">mono</property>
  <property name="meta.media.0.codec.name">mp3float</property>
  <property name="meta.media.0.codec.long_name">MP3 (MPEG audio layer 3)</property>
  <property name="meta.media.0.codec.bit_rate">64000</property>
  <property name="meta.attr.encoder.markup">Lavf60.16.100</property>
  <property name="xml">was here</property>
  <property name="mute_on_pause">0</property>
  <property name="set.test_audio">0</property>
  <property name="set.test_image">1</property>
 </chain>
 <chain id="chain49" out="00:00:04.600">
  <property name="length">139</property>
  <property name="eof">pause</property>
  <property name="resource">media/audio/audio-script-page-11.04.01.mp3</property>
  <property name="mlt_service">avformat-novalidate</property>
  <property name="seekable">1</property>
  <property name="audio_index">0</property>
  <property name="video_index">-1</property>
  <property name="astream">0</property>
  <property name="kdenlive:folderid">-1</property>
  <property name="kdenlive:id">121</property>
  <property name="kdenlive:control_uuid">{5cafc0a5-ed0b-473c-a175-fbf7d271981b}</property>
  <property name="kdenlive:clip_type">1</property>
  <property name="kdenlive:file_size">37216</property>
  <property name="kdenlive:file_hash">2bd8ea8b975f3aa261aec6be40e01b00</property>
  <property name="kdenlive:audio_max0">122</property>
  <property name="kdenlive:clipname">Audio script - page 11.04.01</property>
  <property name="meta.media.nb_streams">1</property>
  <property name="meta.media.0.stream.type">audio</property>
  <property name="meta.media.0.codec.sample_fmt">fltp</property>
  <property name="meta.media.0.codec.sample_rate">44100</property>
  <property name="meta.media.0.codec.channels">1</property>
  <property name="meta.media.0.codec.layout">mono</property>
  <property name="meta.media.0.codec.name">mp3float</property>
  <property name="meta.media.0.codec.long_name">MP3 (MPEG audio layer 3)</property>
  <property name="meta.media.0.codec.bit_rate">64000</property>
  <property name="meta.attr.encoder.markup">Lavf60.16.100</property>
  <property name="xml">was here</property>
  <property name="mute_on_pause">0</property>
  <property name="set.test_audio">0</property>
  <property name="set.test_image">1</property>
 </chain>
 <chain id="chain50" out="00:00:06.433">
  <property name="length">194</property>
  <property name="eof">pause</property>
  <property name="resource">media/audio/audio-script-page-11.05.01.mp3</property>
  <property name="mlt_service">avformat-novalidate</property>
  <property name="seekable">1</property>
  <property name="audio_index">0</property>
  <property name="video_index">-1</property>
  <property name="astream">0</property>
  <property name="kdenlive:folderid">-1</property>
  <property name="kdenlive:id">122</property>
  <property name="kdenlive:control_uuid">{df003b8e-73d6-4e67-b7d9-b26568411567}</property>
  <property name="kdenlive:clip_type">1</property>
  <property name="kdenlive:file_size">51844</property>
  <property name="kdenlive:file_hash">873056bf3a7835029f03c34cec658fa4</property>
  <property name="kdenlive:audio_max0">134</property>
  <property name="kdenlive:clipname">Audio script - page 11.05.01</property>
  <property name="meta.media.nb_streams">1</property>
  <property name="meta.media.0.stream.type">audio</property>
  <property name="meta.media.0.codec.sample_fmt">fltp</property>
  <property name="meta.media.0.codec.sample_rate">44100</property>
  <property name="meta.media.0.codec.channels">1</property>
  <property name="meta.media.0.codec.layout">mono</property>
  <property name="meta.media.0.codec.name">mp3float</property>
  <property name="meta.media.0.codec.long_name">MP3 (MPEG audio layer 3)</property>
  <property name="meta.media.0.codec.bit_rate">64000</property>
  <property name="meta.attr.encoder.markup">Lavf60.16.100</property>
  <property name="xml">was here</property>
  <property name="mute_on_pause">0</property>
  <property name="set.test_audio">0</property>
  <property name="set.test_image">1</property>
 </chain>
 <chain id="chain51" out="00:00:18.200">
  <property name="length">547</property>
  <property name="eof">pause</property>
  <property name="resource">media/audio/audio-script-page-11.02.02.mp3</property>
  <property name="mlt_service">avformat-novalidate</property>
  <property name="seekable">1</property>
  <property name="audio_index">0</property>
  <property name="video_index">-1</property>
  <property name="astream">0</property>
  <property name="kdenlive:folderid">-1</property>
  <property name="kdenlive:id">124</property>
  <property name="kdenlive:control_uuid">{e6e1ffca-ced1-41be-9a3a-984c8cee44c3}</property>
  <property name="kdenlive:clip_type">1</property>
  <property name="kdenlive:file_size">146094</property>
  <property name="kdenlive:file_hash">1be3bf7322b5b8a73e5da4200e311cc9</property>
  <property name="kdenlive:audio_max0">127</property>
  <property name="kdenlive:clipname">Audio script - page 11.02.02</property>
  <property name="meta.media.nb_streams">1</property>
  <property name="meta.media.0.stream.type">audio</property>
  <property name="meta.media.0.codec.sample_fmt">fltp</property>
  <property name="meta.media.0.codec.sample_rate">44100</property>
  <property name="meta.media.0.codec.channels">1</property>
  <property name="meta.media.0.codec.layout">mono</property>
  <property name="meta.media.0.codec.name">mp3float</property>
  <property name="meta.media.0.codec.long_name">MP3 (MPEG audio layer 3)</property>
  <property name="meta.media.0.codec.bit_rate">64000</property>
  <property name="meta.attr.encoder.markup">Lavf60.16.100</property>
  <property name="xml">was here</property>
  <property name="mute_on_pause">0</property>
  <property name="set.test_audio">0</property>
  <property name="set.test_image">1</property>
 </chain>
 <playlist id="playlist2">
  <property name="kdenlive:audio_track">1</property>
  <blank length="00:00:15.367"/>
  <entry in="00:00:00.000" out="00:00:00.600" producer="chain3">
   <property name="kdenlive:id">20</property>
   <filter id="filter81">
    <property name="window">75</property>
    <property name="max_gain">20dB</property>
    <property name="level">00:00:00.000=-10</property>
    <property name="mlt_service">volume</property>
    <property name="kdenlive_id">volume</property>
    <property name="kdenlive:collapsed">0</property>
   </filter>
  </entry>
  <blank length="00:00:02.367"/>
  <entry in="00:00:00.000" out="00:00:00.600" producer="chain3">
   <property name="kdenlive:id">20</property>
   <filter id="filter82">
    <property name="window">75</property>
    <property name="max_gain">20dB</property>
    <property name="level">00:00:00.000=-10</property>
    <property name="mlt_service">volume</property>
    <property name="kdenlive_id">volume</property>
    <property name="kdenlive:collapsed">0</property>
   </filter>
  </entry>
  <blank length="00:00:02.433"/>
  <entry in="00:00:00.000" out="00:00:00.600" producer="chain3">
   <property name="kdenlive:id">20</property>
   <filter id="filter83">
    <property name="window">75</property>
    <property name="max_gain">20dB</property>
    <property name="level">00:00:00.000=-10</property>
    <property name="mlt_service">volume</property>
    <property name="kdenlive_id">volume</property>
    <property name="kdenlive:collapsed">0</property>
   </filter>
  </entry>
  <blank length="00:00:00.367"/>
  <entry in="00:00:00.000" out="00:00:00.600" producer="chain3">
   <property name="kdenlive:id">20</property>
   <filter id="filter84">
    <property name="window">75</property>
    <property name="max_gain">20dB</property>
    <property name="level">00:00:00.000=-10</property>
    <property name="mlt_service">volume</property>
    <property name="kdenlive_id">volume</property>
    <property name="kdenlive:collapsed">0</property>
   </filter>
  </entry>
  <blank length="00:00:07.967"/>
  <entry in="00:00:06.567" out="00:00:14.333" producer="chain4">
   <property name="kdenlive:id">33</property>
   <filter id="filter85">
    <property name="window">75</property>
    <property name="max_gain">20dB</property>
    <property name="level">00:00:06.567=10</property>
    <property name="mlt_service">volume</property>
    <property name="kdenlive_id">volume</property>
    <property name="kdenlive:collapsed">0</property>
   </filter>
  </entry>
  <blank length="00:00:00.733"/>
  <entry in="00:00:04.900" out="00:00:22.467" producer="chain8">
   <property name="kdenlive:id">34</property>
   <filter id="filter86">
    <property name="window">75</property>
    <property name="max_gain">20dB</property>
    <property name="level">00:00:04.900=10</property>
    <property name="mlt_service">volume</property>
    <property name="kdenlive_id">volume</property>
    <property name="kdenlive:collapsed">0</property>
   </filter>
  </entry>
  <blank length="00:00:03.800"/>
  <entry in="00:00:05.533" out="00:00:19.367" producer="chain9">
   <property name="kdenlive:id">41</property>
   <filter id="filter87">
    <property name="window">75</property>
    <property name="max_gain">20dB</property>
    <property name="level">00:00:05.533=10</property>
    <property name="mlt_service">volume</property>
    <property name="kdenlive_id">volume</property>
    <property name="kdenlive:collapsed">0</property>
   </filter>
  </entry>
  <blank length="00:00:02.000"/>
  <entry in="00:00:05.200" out="00:00:21.200" producer="chain10">
   <property name="kdenlive:id">42</property>
   <filter id="filter88">
    <property name="window">75</property>
    <property name="max_gain">20dB</property>
    <property name="level">00:00:05.200=10</property>
    <property name="mlt_service">volume</property>
    <property name="kdenlive_id">volume</property>
    <property name="kdenlive:collapsed">0</property>
   </filter>
  </entry>
  <blank length="00:00:05.033"/>
  <entry in="00:00:06.667" out="00:00:10.133" producer="chain11">
   <property name="kdenlive:id">47</property>
   <filter id="filter89">
    <property name="window">75</property>
    <property name="max_gain">20dB</property>
    <property name="level">00:00:06.667=10</property>
    <property name="mlt_service">volume</property>
    <property name="kdenlive_id">volume</property>
    <property name="kdenlive:collapsed">0</property>
   </filter>
  </entry>
  <blank length="00:00:04.933"/>
  <entry in="00:00:02.500" out="00:00:03.600" producer="chain12">
   <property name="kdenlive:id">59</property>
   <filter id="filter90">
    <property name="window">75</property>
    <property name="max_gain">20dB</property>
    <property name="level">00:00:02.500=10</property>
    <property name="mlt_service">volume</property>
    <property name="kdenlive_id">volume</property>
    <property name="kdenlive:collapsed">0</property>
   </filter>
  </entry>
  <blank length="00:00:01.000"/>
  <entry in="00:00:03.067" out="00:00:08.067" producer="chain13">
   <property name="kdenlive:id">56</property>
   <filter id="filter91">
    <property name="window">75</property>
    <property name="max_gain">20dB</property>
    <property name="level">00:00:03.067=10</property>
    <property name="mlt_service">volume</property>
    <property name="kdenlive_id">volume</property>
    <property name="kdenlive:collapsed">0</property>
   </filter>
  </entry>
  <blank length="00:00:00.967"/>
  <entry in="00:00:03.400" out="00:00:08.300" producer="chain14">
   <property name="kdenlive:id">57</property>
   <filter id="filter92">
    <property name="window">75</property>
    <property name="max_gain">20dB</property>
    <property name="level">00:00:03.400=10</property>
    <property name="mlt_service">volume</property>
    <property name="kdenlive_id">volume</property>
    <property name="kdenlive:collapsed">0</property>
   </filter>
  </entry>
  <blank length="00:00:01.000"/>
  <entry in="00:00:04.100" out="00:00:06.367" producer="chain15">
   <property name="kdenlive:id">58</property>
   <filter id="filter93">
    <property name="window">75</property>
    <property name="max_gain">20dB</property>
    <property name="level">00:00:04.100=10</property>
    <property name="mlt_service">volume</property>
    <property name="kdenlive_id">volume</property>
    <property name="kdenlive:collapsed">0</property>
   </filter>
  </entry>
  <blank length="00:00:01.000"/>
  <entry in="00:00:03.167" out="00:00:06.633" producer="chain16">
   <property name="kdenlive:id">60</property>
   <filter id="filter94">
    <property name="window">75</property>
    <property name="max_gain">20dB</property>
    <property name="level">00:00:03.167=10</property>
    <property name="mlt_service">volume</property>
    <property name="kdenlive_id">volume</property>
    <property name="kdenlive:collapsed">0</property>
   </filter>
  </entry>
  <blank length="00:00:04.967"/>
  <entry in="00:00:02.500" out="00:00:03.567" producer="chain26">
   <property name="kdenlive:id">65</property>
   <filter id="filter95">
    <property name="window">75</property>
    <property name="max_gain">20dB</property>
    <property name="level">00:00:02.500=10</property>
    <property name="mlt_service">volume</property>
    <property name="kdenlive_id">volume</property>
    <property name="kdenlive:collapsed">0</property>
   </filter>
  </entry>
  <blank length="00:00:00.967"/>
  <entry in="00:00:04.100" out="00:00:09.767" producer="chain27">
   <property name="kdenlive:id">67</property>
   <filter id="filter96">
    <property name="window">75</property>
    <property name="max_gain">20dB</property>
    <property name="level">00:00:04.100=10</property>
    <property name="mlt_service">volume</property>
    <property name="kdenlive_id">volume</property>
    <property name="kdenlive:collapsed">0</property>
   </filter>
  </entry>
  <blank length="00:00:02.100"/>
  <entry in="00:00:05.100" out="00:00:09.700" producer="chain28">
   <property name="kdenlive:id">69</property>
   <filter id="filter97">
    <property name="window">75</property>
    <property name="max_gain">20dB</property>
    <property name="level">00:00:05.100=10</property>
    <property name="mlt_service">volume</property>
    <property name="kdenlive_id">volume</property>
    <property name="kdenlive:collapsed">0</property>
   </filter>
  </entry>
  <blank length="00:00:00.967"/>
  <entry in="00:00:06.867" out="00:00:09.133" producer="chain29">
   <property name="kdenlive:id">71</property>
   <filter id="filter98">
    <property name="window">75</property>
    <property name="max_gain">20dB</property>
    <property name="level">00:00:06.867=10</property>
    <property name="mlt_service">volume</property>
    <property name="kdenlive_id">volume</property>
    <property name="kdenlive:collapsed">0</property>
   </filter>
  </entry>
  <blank length="00:00:01.000"/>
  <entry in="00:00:03.067" out="00:00:05.233" producer="chain30">
   <property name="kdenlive:id">73</property>
   <filter id="filter99">
    <property name="window">75</property>
    <property name="max_gain">20dB</property>
    <property name="level">00:00:03.067=10</property>
    <property name="mlt_service">volume</property>
    <property name="kdenlive_id">volume</property>
    <property name="kdenlive:collapsed">0</property>
   </filter>
  </entry>
  <blank length="00:00:05.000"/>
  <entry in="00:00:02.500" out="00:00:03.567" producer="chain34">
   <property name="kdenlive:id">84</property>
   <filter id="filter100">
    <property name="window">75</property>
    <property name="max_gain">20dB</property>
    <property name="level">00:00:02.500=10</property>
    <property name="mlt_service">volume</property>
    <property name="kdenlive_id">volume</property>
    <property name="kdenlive:collapsed">0</property>
   </filter>
  </entry>
  <blank length="00:00:01.000"/>
  <entry in="00:00:05.033" out="00:00:13.000" producer="chain35">
   <property name="kdenlive:id">79</property>
   <filter id="filter101">
    <property name="window">75</property>
    <property name="max_gain">20dB</property>
    <property name="level">00:00:05.033=10</property>
    <property name="mlt_service">volume</property>
    <property name="kdenlive_id">volume</property>
    <property name="kdenlive:collapsed">0</property>
   </filter>
  </entry>
  <blank length="00:00:01.000"/>
  <entry in="00:00:04.967" out="00:00:10.933" producer="chain36">
   <property name="kdenlive:id">81</property>
   <filter id="filter102">
    <property name="window">75</property>
    <property name="max_gain">20dB</property>
    <property name="level">00:00:04.967=10</property>
    <property name="mlt_service">volume</property>
    <property name="kdenlive_id">volume</property>
    <property name="kdenlive:collapsed">0</property>
   </filter>
  </entry>
  <blank length="00:00:00.967"/>
  <entry in="00:00:02.800" out="00:00:04.900" producer="chain37">
   <property name="kdenlive:id">83</property>
   <filter id="filter103">
    <property name="window">75</property>
    <property name="max_gain">20dB</property>
    <property name="level">00:00:02.800=10</property>
    <property name="mlt_service">volume</property>
    <property name="kdenlive_id">volume</property>
    <property name="kdenlive:collapsed">0</property>
   </filter>
  </entry>
  <blank length="00:00:42.667"/>
  <entry in="00:00:02.933" out="00:00:03.500" producer="chain46">
   <property name="kdenlive:id">118</property>
   <filter id="filter104">
    <property name="window">75</property>
    <property name="max_gain">20dB</property>
    <property name="level">00:00:02.933=10</property>
    <property name="mlt_service">volume</property>
    <property name="kdenlive_id">volume</property>
    <property name="kdenlive:collapsed">0</property>
   </filter>
  </entry>
  <blank length="00:00:00.933"/>
  <entry in="00:00:03.500" out="00:00:04.400" producer="chain47">
   <property name="kdenlive:id">119</property>
   <filter id="filter105">
    <property name="window">75</property>
    <property name="max_gain">20dB</property>
    <property name="level">00:00:03.500=10</property>
    <property name="mlt_service">volume</property>
    <property name="kdenlive_id">volume</property>
    <property name="kdenlive:collapsed">0</property>
   </filter>
  </entry>
  <blank length="00:00:02.000"/>
  <entry in="00:00:06.200" out="00:00:07.400" producer="chain48">
   <property name="kdenlive:id">120</property>
   <filter id="filter106">
    <property name="window">75</property>
    <property name="max_gain">20dB</property>
    <property name="level">00:00:06.200=10</property>
    <property name="mlt_service">volume</property>
    <property name="kdenlive_id">volume</property>
    <property name="kdenlive:collapsed">0</property>
   </filter>
  </entry>
  <blank length="00:00:02.100"/>
  <entry in="00:00:02.600" out="00:00:03.767" producer="chain49">
   <property name="kdenlive:id">121</property>
   <filter id="filter107">
    <property name="window">75</property>
    <property name="max_gain">20dB</property>
    <property name="level">00:00:02.600=10</property>
    <property name="mlt_service">volume</property>
    <property name="kdenlive_id">volume</property>
    <property name="kdenlive:collapsed">0</property>
   </filter>
  </entry>
  <blank length="00:00:01.967"/>
  <entry in="00:00:03.367" out="00:00:04.633" producer="chain50">
   <property name="kdenlive:id">122</property>
   <filter id="filter108">
    <property name="window">75</property>
    <property name="max_gain">20dB</property>
    <property name="level">00:00:03.367=10</property>
    <property name="mlt_service">volume</property>
    <property name="kdenlive_id">volume</property>
    <property name="kdenlive:collapsed">0</property>
   </filter>
  </entry>
  <blank length="00:01:17.067"/>
  <entry in="00:00:04.467" out="00:00:16.967" producer="chain51">
   <property name="kdenlive:id">124</property>
   <filter id="filter109">
    <property name="window">75</property>
    <property name="max_gain">20dB</property>
    <property name="level">00:00:04.467=10</property>
    <property name="mlt_service">volume</property>
    <property name="kdenlive_id">volume</property>
    <property name="kdenlive:collapsed">0</property>
   </filter>
  </entry>
 </playlist>
 <playlist id="playlist3">
  <property name="kdenlive:audio_track">1</property>
 </playlist>
 <tractor id="tractor1" in="00:00:00.000" out="00:05:22.833">
  <property name="kdenlive:audio_track">1</property>
  <property name="kdenlive:trackheight">75</property>
  <property name="kdenlive:timeline_active">1</property>
  <property name="kdenlive:collapsed">0</property>
  <property name="kdenlive:thumbs_format"/>
  <property name="kdenlive:audio_rec"/>
  <track hide="video" producer="playlist2"/>
  <track hide="video" producer="playlist3"/>
  <filter id="filter110">
   <property name="window">75</property>
   <property name="max_gain">20dB</property>
   <property name="mlt_service">volume</property>
   <property name="internal_added">237</property>
   <property name="disable">1</property>
  </filter>
  <filter id="filter111">
   <property name="channel">-1</property>
   <property name="mlt_service">panner</property>
   <property name="internal_added">237</property>
   <property name="start">0.5</property>
   <property name="disable">1</property>
  </filter>
  <filter id="filter112">
   <property name="iec_scale">0</property>
   <property name="mlt_service">audiolevel</property>
   <property name="dbpeak">1</property>
   <property name="disable">1</property>
  </filter>
 </tractor>
 <playlist id="playlist4">
  <blank length="00:00:22.067"/>
  <entry in="00:00:00.000" out="00:00:07.900" producer="producer17">
   <property name="kdenlive:id">24</property>
   <filter id="filter113">
    <property name="rotate_center">1</property>
    <property name="mlt_service">qtblend</property>
    <property name="kdenlive_id">qtblend</property>
    <property name="compositing">0</property>
    <property name="distort">0</property>
    <property name="rect">00:00:00.000=4096 0 4096 2160 1.000000;00:00:01.000=0 0 4096 2160 1.000000</property>
    <property name="rotation">00:00:00.000=0;00:00:01.000=0</property>
    <property name="kdenlive:collapsed">0</property>
   </filter>
  </entry>
  <entry in="00:00:00.000" out="00:03:09.933" producer="producer22">
   <property name="kdenlive:id">31</property>
  </entry>
  <entry in="00:00:00.000" out="00:05:57.133" producer="producer54">
   <property name="kdenlive:id">108</property>
  </entry>
 </playlist>
 <playlist id="playlist5"/>
 <tractor id="tractor2" in="00:00:00.000" out="00:09:37.100">
  <property name="kdenlive:trackheight">75</property>
  <property name="kdenlive:timeline_active">0</property>
  <property name="kdenlive:collapsed">0</property>
  <property name="kdenlive:thumbs_format"/>
  <property name="kdenlive:audio_rec"/>
  <track hide="audio" producer="playlist4"/>
  <track hide="audio" producer="playlist5"/>
 </tractor>
 <playlist id="playlist6">
  <blank length="00:00:21.000"/>
  <entry in="00:00:00.000" out="00:00:08.967" producer="producer18">
   <property name="kdenlive:id">23</property>
   <filter id="filter114">
    <property name="rotate_center">1</property>
    <property name="mlt_service">qtblend</property>
    <property name="kdenlive_id">qtblend</property>
    <property name="compositing">0</property>
    <property name="distort">0</property>
    <property name="rect">00:00:00.000=4096 0 4096 2160 1.000000;00:00:01.000=0 0 4096 2160 1.000000</property>
    <property name="rotation">00:00:00.000=0;00:00:01.000=0</property>
    <property name="kdenlive:collapsed">0</property>
   </filter>
  </entry>
  <blank length="00:03:20.967"/>
  <entry in="00:00:00.000" out="00:05:46.167" producer="producer85">
   <property name="kdenlive:id">113</property>
   <filter id="filter115">
    <property name="rotate_center">1</property>
    <property name="mlt_service">qtblend</property>
    <property name="kdenlive_id">qtblend</property>
    <property name="compositing">0</property>
    <property name="distort">0</property>
    <property name="rect">00:00:00.000=4096 0 4096 2160 1.000000;00:00:01.000=0 0 4096 2160 1.000000</property>
    <property name="rotation">00:00:00.000=0;00:00:01.000=0</property>
    <property name="kdenlive:collapsed">0</property>
   </filter>
  </entry>
 </playlist>
 <playlist id="playlist7"/>
 <tractor id="tractor3" in="00:00:00.000" out="00:09:37.133">
  <property name="kdenlive:trackheight">75</property>
  <property name="kdenlive:timeline_active">1</property>
  <property name="kdenlive:collapsed">0</property>
  <property name="kdenlive:thumbs_format"/>
  <property name="kdenlive:audio_rec"/>
  <track hide="audio" producer="playlist6"/>
  <track hide="audio" producer="playlist7"/>
 </tractor>
 <playlist id="playlist8">
  <blank length="00:00:20.000"/>
  <entry in="00:00:00.000" out="00:00:09.967" producer="producer19">
   <property name="kdenlive:id">22</property>
   <filter id="filter116">
    <property name="rotate_center">1</property>
    <property name="mlt_service">qtblend</property>
    <property name="kdenlive_id">qtblend</property>
    <property name="compositing">0</property>
    <property name="distort">0</property>
    <property name="rect">00:00:00.000=4096 0 4096 2160 1.000000;00:00:01.000=0 0 4096 2160 1.000000</property>
    <property name="rotation">00:00:00.000=0;00:00:01.000=0</property>
    <property name="kdenlive:collapsed">0</property>
   </filter>
  </entry>
  <blank length="00:02:33.333"/>
  <entry in="00:00:00.000" out="00:00:36.633" producer="producer55">
   <property name="kdenlive:id">88</property>
   <filter id="filter117">
    <property name="rotate_center">1</property>
    <property name="mlt_service">qtblend</property>
    <property name="kdenlive_id">qtblend</property>
    <property name="compositing">0</property>
    <property name="distort">0</property>
    <property name="rect">00:00:00.000=2028 1191 40 21 1.000000;00:00:01.000=1024 662 2048 1080 1.000000;00:00:02.000=2028 1191 40 21 1.000000;00:00:03.000=146 320 3804 1638 1.000000</property>
    <property name="rotation">00:00:00.000=0;00:00:01.000=0;00:00:02.000=0;00:00:03.000=0</property>
    <property name="kdenlive:collapsed">0</property>
   </filter>
  </entry>
  <blank length="00:00:07.667"/>
  <entry in="00:00:00.000" out="00:05:49.433" producer="producer86">
   <property name="kdenlive:id">112</property>
   <filter id="filter118">
    <property name="rotate_center">1</property>
    <property name="mlt_service">qtblend</property>
    <property name="kdenlive_id">qtblend</property>
    <property name="compositing">0</property>
    <property name="distort">0</property>
    <property name="rect">00:00:00.000=4096 0 4096 2160 1.000000;00:00:01.000=0 0 4096 2160 1.000000;00:00:01.133=0 0 4096 2160 1.000000</property>
    <property name="rotation">00:00:00.000=0;00:00:01.000=0;00:00:01.133=0</property>
    <property name="kdenlive:collapsed">0</property>
   </filter>
  </entry>
 </playlist>
 <playlist id="playlist9"/>
 <tractor id="tractor4" in="00:00:00.000" out="00:09:37.100">
  <property name="kdenlive:trackheight">75</property>
  <property name="kdenlive:timeline_active">1</property>
  <property name="kdenlive:collapsed">0</property>
  <property name="kdenlive:thumbs_format"/>
  <property name="kdenlive:audio_rec"/>
  <track hide="audio" producer="playlist8"/>
  <track hide="audio" producer="playlist9"/>
 </tractor>
 <playlist id="playlist10">
  <blank length="00:00:19.000"/>
  <entry in="00:00:00.000" out="00:00:10.967" producer="producer20">
   <property name="kdenlive:id">21</property>
   <filter id="filter119">
    <property name="rotate_center">1</property>
    <property name="mlt_service">qtblend</property>
    <property name="kdenlive_id">qtblend</property>
    <property name="compositing">0</property>
    <property name="distort">0</property>
    <property name="rect">00:00:00.000=4096 0 4096 2160 1.000000;00:00:01.000=0 0 4096 2160 1.000000</property>
    <property name="rotation">00:00:00.000=0;00:00:01.000=0</property>
    <property name="kdenlive:collapsed">0</property>
   </filter>
  </entry>
  <blank length="00:01:32.700"/>
  <entry in="00:00:00.000" out="00:00:01.000" producer="producer34">
   <property name="kdenlive:id">55</property>
   <filter id="filter120">
    <property name="rotate_center">1</property>
    <property name="mlt_service">qtblend</property>
    <property name="kdenlive_id">qtblend</property>
    <property name="compositing">0</property>
    <property name="distort">0</property>
    <property name="rect">00:00:00.000=4096 0 4096 2160 1.000000;00:00:01.000=0 0 4096 2160 1.000000</property>
    <property name="rotation">00:00:00.000=0;00:00:01.000=0</property>
    <property name="kdenlive:collapsed">0</property>
   </filter>
  </entry>
  <entry in="00:00:00.000" out="00:00:07.400" producer="producer34">
   <property name="kdenlive:id">55</property>
   <filter id="filter121">
    <property name="rotate_center">1</property>
    <property name="mlt_service">qtblend</property>
    <property name="kdenlive_id">qtblend</property>
    <property name="compositing">0</property>
    <property name="distort">0</property>
    <property name="rect">00:00:00.000=0 0 4096 2160 1.000000</property>
    <property name="rotation">00:00:00.000=0</property>
    <property name="kdenlive:collapsed">0</property>
   </filter>
  </entry>
  <blank length="00:00:18.767"/>
  <entry in="00:00:00.000" out="00:00:07.167" producer="producer51">
   <property name="kdenlive:id">72</property>
   <filter id="filter122">
    <property name="rotate_center">1</property>
    <property name="mlt_service">qtblend</property>
    <property name="kdenlive_id">qtblend</property>
    <property name="compositing">0</property>
    <property name="distort">0</property>
    <property name="rect">00:00:00.000=4096 0 4096 2160 1.000000;00:00:01.000=0 0 4096 2160 1.000000</property>
    <property name="rotation">00:00:00.000=0;00:00:01.000=0</property>
    <property name="kdenlive:collapsed">0</property>
   </filter>
  </entry>
  <blank length="00:00:35.200"/>
  <entry in="00:00:00.000" out="00:00:04.967" producer="producer56">
   <property name="kdenlive:id">92</property>
   <filter id="filter123">
    <property name="rotate_center">1</property>
    <property name="mlt_service">qtblend</property>
    <property name="kdenlive_id">qtblend</property>
    <property name="compositing">0</property>
    <property name="distort">0</property>
    <property name="rect">00:00:00.000=0 0 4096 2160 0.000000;00:00:01.000=0 0 4096 2160 1.000000;00:00:04.000=0 0 4096 2160 1.000000;00:00:04.967=0 0 4096 2160 0.000000</property>
    <property name="rotation">00:00:00.000=0;00:00:01.000=0;00:00:04.000=0;00:00:04.967=0</property>
    <property name="kdenlive:collapsed">0</property>
   </filter>
  </entry>
  <blank length="00:00:02.900"/>
  <entry in="00:00:00.000" out="00:00:04.967" producer="producer57">
   <property name="kdenlive:id">97</property>
   <filter id="filter124">
    <property name="rotate_center">1</property>
    <property name="mlt_service">qtblend</property>
    <property name="kdenlive_id">qtblend</property>
    <property name="compositing">0</property>
    <property name="distort">0</property>
    <property name="rect">00:00:00.000=0 0 4096 2160 0.000000;00:00:01.000=0 0 4096 2160 1.000000;00:00:04.000=0 0 4096 2160 1.000000;00:00:04.967=0 0 4096 2160 0.000000</property>
    <property name="rotation">00:00:00.000=0;00:00:01.000=0;00:00:04.000=0;00:00:04.967=0</property>
    <property name="kdenlive:collapsed">0</property>
   </filter>
  </entry>
  <blank length="00:00:03.000"/>
  <entry in="00:00:00.000" out="00:00:04.967" producer="producer58">
   <property name="kdenlive:id">101</property>
   <filter id="filter125">
    <property name="rotate_center">1</property>
    <property name="mlt_service">qtblend</property>
    <property name="kdenlive_id">qtblend</property>
    <property name="compositing">0</property>
    <property name="distort">0</property>
    <property name="rect">00:00:00.000=0 0 4096 2160 0.000000;00:00:01.000=0 0 4096 2160 1.000000;00:00:04.000=0 0 4096 2160 1.000000;00:00:04.967=0 0 4096 2160 0.000000</property>
    <property name="rotation">00:00:00.000=0;00:00:01.000=0;00:00:04.000=0;00:00:04.967=0</property>
    <property name="kdenlive:collapsed">0</property>
   </filter>
  </entry>
  <blank length="00:00:11.233"/>
  <entry in="00:00:00.000" out="00:05:52.667" producer="producer87">
   <property name="kdenlive:id">111</property>
   <filter id="filter126">
    <property name="rotate_center">1</property>
    <property name="mlt_service">qtblend</property>
    <property name="kdenlive_id">qtblend</property>
    <property name="compositing">0</property>
    <property name="distort">0</property>
    <property name="rect">00:00:00.000=4096 0 4096 2160 1.000000;00:00:01.000=0 0 4096 2160 1.000000</property>
    <property name="rotation">00:00:00.000=0;00:00:01.000=0</property>
    <property name="kdenlive:collapsed">0</property>
   </filter>
  </entry>
 </playlist>
 <playlist id="playlist11"/>
 <tractor id="tractor5" in="00:00:00.000" out="00:09:37.133">
  <property name="kdenlive:trackheight">75</property>
  <property name="kdenlive:timeline_active">1</property>
  <property name="kdenlive:collapsed">0</property>
  <property name="kdenlive:thumbs_format"/>
  <property name="kdenlive:audio_rec"/>
  <track hide="audio" producer="playlist10"/>
  <track hide="audio" producer="playlist11"/>
 </tractor>
 <playlist id="playlist12">
  <blank length="00:00:18.000"/>
  <entry in="00:00:00.000" out="00:00:11.967" producer="producer13">
   <property name="kdenlive:id">19</property>
   <filter id="filter127">
    <property name="rotate_center">1</property>
    <property name="mlt_service">qtblend</property>
    <property name="kdenlive_id">qtblend</property>
    <property name="compositing">0</property>
    <property name="distort">0</property>
    <property name="rect">00:00:00.000=4096 0 4096 2160 1.000000;00:00:01.000=0 0 4096 2160 1.000000</property>
    <property name="rotation">00:00:00.000=0;00:00:01.000=0</property>
    <property name="kdenlive:collapsed">0</property>
   </filter>
  </entry>
  <blank length="00:01:29.400"/>
  <entry in="00:00:00.000" out="00:00:00.933" producer="producer35">
   <property name="kdenlive:id">54</property>
   <filter id="filter128">
    <property name="rotate_center">1</property>
    <property name="mlt_service">qtblend</property>
    <property name="kdenlive_id">qtblend</property>
    <property name="compositing">0</property>
    <property name="distort">0</property>
    <property name="rect">00:00:00.000=4096 0 4096 2160 1.000000;00:00:00.933=273 0 4096 2160 1.000000</property>
    <property name="rotation">00:00:00.000=0;00:00:00.933=0</property>
    <property name="kdenlive:collapsed">0</property>
   </filter>
  </entry>
  <entry in="00:00:00.000" out="00:00:06.733" producer="producer35">
   <property name="kdenlive:id">54</property>
   <filter id="filter129">
    <property name="rotate_center">1</property>
    <property name="mlt_service">qtblend</property>
    <property name="kdenlive_id">qtblend</property>
    <property name="compositing">0</property>
    <property name="distort">0</property>
    <property name="rect">00:00:00.000=136 0 4096 2160 1.000000;00:00:00.033=0 0 4096 2160 1.000000</property>
    <property name="rotation">00:00:00.000=0;00:00:00.033=0</property>
    <property name="kdenlive:collapsed">0</property>
   </filter>
  </entry>
  <entry in="00:00:00.000" out="00:00:04.000" producer="producer35">
   <property name="kdenlive:id">54</property>
   <filter id="filter130">
    <property name="rotate_center">1</property>
    <property name="mlt_service">qtblend</property>
    <property name="kdenlive_id">qtblend</property>
    <property name="compositing">0</property>
    <property name="distort">0</property>
    <property name="rect">00:00:00.000=0 0 4096 2160 1.000000</property>
    <property name="rotation">00:00:00.000=0</property>
    <property name="kdenlive:collapsed">0</property>
   </filter>
  </entry>
  <blank length="00:00:15.467"/>
  <entry in="00:00:00.000" out="00:00:00.967" producer="producer52">
   <property name="kdenlive:id">70</property>
   <filter id="filter131">
    <property name="rotate_center">1</property>
    <property name="mlt_service">qtblend</property>
    <property name="kdenlive_id">qtblend</property>
    <property name="compositing">0</property>
    <property name="distort">0</property>
    <property name="rect">00:00:00.000=4096 0 4096 2160 1.000000;00:00:00.967=136 0 4096 2160 1.000000</property>
    <property name="rotation">00:00:00.000=0;00:00:00.967=0</property>
    <property name="kdenlive:collapsed">0</property>
   </filter>
  </entry>
  <entry in="00:00:00.000" out="00:00:02.200" producer="producer52">
   <property name="kdenlive:id">70</property>
   <filter id="filter132">
    <property name="rotate_center">1</property>
    <property name="mlt_service">qtblend</property>
    <property name="kdenlive_id">qtblend</property>
    <property name="compositing">0</property>
    <property name="distort">0</property>
    <property name="rect">00:00:00.000=0 0 4096 2160 1.000000</property>
    <property name="rotation">00:00:00.000=0</property>
    <property name="kdenlive:collapsed">0</property>
   </filter>
  </entry>
  <entry in="00:00:00.000" out="00:00:00.000" producer="producer52">
   <property name="kdenlive:id">70</property>
   <filter id="filter133">
    <property name="rotate_center">1</property>
    <property name="mlt_service">qtblend</property>
    <property name="kdenlive_id">qtblend</property>
    <property name="compositing">0</property>
    <property name="distort">0</property>
    <property name="rect">00:00:00.000=0 0 4096 2160 1.000000</property>
    <property name="rotation">00:00:00.000=0</property>
    <property name="kdenlive:collapsed">0</property>
   </filter>
  </entry>
  <entry in="00:00:00.000" out="00:00:01.000" producer="producer52">
   <property name="kdenlive:id">70</property>
   <filter id="filter134">
    <property name="rotate_center">1</property>
    <property name="mlt_service">qtblend</property>
    <property name="kdenlive_id">qtblend</property>
    <property name="compositing">0</property>
    <property name="distort">0</property>
    <property name="rect">00:00:00.000=0 0 4096 2160 1.000000</property>
    <property name="rotation">00:00:00.000=0</property>
    <property name="kdenlive:collapsed">0</property>
   </filter>
  </entry>
  <entry in="00:00:00.000" out="00:00:06.167" producer="producer52">
   <property name="kdenlive:id">70</property>
   <filter id="filter135">
    <property name="rotate_center">1</property>
    <property name="mlt_service">qtblend</property>
    <property name="kdenlive_id">qtblend</property>
    <property name="compositing">0</property>
    <property name="distort">0</property>
    <property name="rect">00:00:00.000=0 0 4096 2160 1.000000</property>
    <property name="rotation">00:00:00.000=0</property>
    <property name="kdenlive:collapsed">0</property>
   </filter>
  </entry>
  <blank length="00:00:18.067"/>
  <entry in="00:00:00.000" out="00:00:01.000" producer="producer59">
   <property name="kdenlive:id">82</property>
   <filter id="filter136">
    <property name="rotate_center">1</property>
    <property name="mlt_service">qtblend</property>
    <property name="kdenlive_id">qtblend</property>
    <property name="compositing">0</property>
    <property name="distort">0</property>
    <property name="rect">00:00:00.000=4096 0 4096 2160 1.000000;00:00:01.000=0 0 4096 2160 1.000000</property>
    <property name="rotation">00:00:00.000=0;00:00:01.000=0</property>
    <property name="kdenlive:collapsed">0</property>
   </filter>
  </entry>
  <entry in="00:00:00.000" out="00:00:07.067" producer="producer59">
   <property name="kdenlive:id">82</property>
   <filter id="filter137">
    <property name="rotate_center">1</property>
    <property name="mlt_service">qtblend</property>
    <property name="kdenlive_id">qtblend</property>
    <property name="compositing">0</property>
    <property name="distort">0</property>
    <property name="rect">00:00:00.000=0 0 4096 2160 1.000000</property>
    <property name="rotation">00:00:00.000=0</property>
    <property name="kdenlive:collapsed">0</property>
   </filter>
  </entry>
  <blank length="00:00:09.000"/>
  <entry in="00:00:00.000" out="00:00:04.967" producer="producer60">
   <property name="kdenlive:id">94</property>
   <filter id="filter138">
    <property name="rotate_center">1</property>
    <property name="mlt_service">qtblend</property>
    <property name="kdenlive_id">qtblend</property>
    <property name="compositing">0</property>
    <property name="distort">0</property>
    <property name="rect">00:00:00.000=0 0 4096 2160 0.000000;00:00:01.000=0 0 4096 2160 1.000000;00:00:04.000=0 0 4096 2160 1.000000;00:00:04.967=0 0 4096 2160 0.000000</property>
    <property name="rotation">00:00:00.000=0;00:00:01.000=0;00:00:04.000=0;00:00:04.967=0</property>
    <property name="kdenlive:collapsed">0</property>
   </filter>
  </entry>
  <blank length="00:00:02.900"/>
  <entry in="00:00:00.000" out="00:00:04.967" producer="producer61">
   <property name="kdenlive:id">98</property>
   <filter id="filter139">
    <property name="rotate_center">1</property>
    <property name="mlt_service">qtblend</property>
    <property name="kdenlive_id">qtblend</property>
    <property name="compositing">0</property>
    <property name="distort">0</property>
    <property name="rect">00:00:00.000=0 0 4096 2160 0.000000;00:00:01.000=0 0 4096 2160 1.000000;00:00:04.000=0 0 4096 2160 1.000000;00:00:04.967=0 0 4096 2160 0.000000</property>
    <property name="rotation">00:00:00.000=0;00:00:01.000=0;00:00:04.000=0;00:00:04.967=0</property>
    <property name="kdenlive:collapsed">0</property>
   </filter>
  </entry>
  <blank length="00:00:03.000"/>
  <entry in="00:00:00.000" out="00:00:04.967" producer="producer62">
   <property name="kdenlive:id">102</property>
   <filter id="filter140">
    <property name="rotate_center">1</property>
    <property name="mlt_service">qtblend</property>
    <property name="kdenlive_id">qtblend</property>
    <property name="compositing">0</property>
    <property name="distort">0</property>
    <property name="rect">00:00:00.000=0 0 4096 2160 0.000000;00:00:01.000=0 0 4096 2160 1.000000;00:00:04.000=0 0 4096 2160 1.000000;00:00:04.967=0 0 4096 2160 0.000000</property>
    <property name="rotation">00:00:00.000=0;00:00:01.000=0;00:00:04.000=0;00:00:04.967=0</property>
    <property name="kdenlive:collapsed">0</property>
   </filter>
  </entry>
  <blank length="00:00:08.333"/>
  <entry in="00:00:00.000" out="00:05:55.533" producer="producer88">
   <property name="kdenlive:id">110</property>
   <filter id="filter141">
    <property name="rotate_center">1</property>
    <property name="mlt_service">qtblend</property>
    <property name="kdenlive_id">qtblend</property>
    <property name="compositing">0</property>
    <property name="distort">0</property>
    <property name="rect">00:00:00.000=4096 0 4096 2160 1.000000;00:00:00.967=136 0 4096 2160 1.000000;00:00:01.000=0 0 4096 2160 1.000000</property>
    <property name="rotation">00:00:00.000=0;00:00:00.967=0;00:00:01.000=0</property>
    <property name="kdenlive:collapsed">0</property>
   </filter>
  </entry>
 </playlist>
 <playlist id="playlist13"/>
 <tractor id="tractor6" in="00:00:00.000" out="00:09:37.100">
  <property name="kdenlive:trackheight">75</property>
  <property name="kdenlive:timeline_active">1</property>
  <property name="kdenlive:collapsed">0</property>
  <property name="kdenlive:thumbs_format"/>
  <property name="kdenlive:audio_rec"/>
  <track hide="audio" producer="playlist12"/>
  <track hide="audio" producer="playlist13"/>
 </tractor>
 <playlist id="playlist14">
  <entry in="00:00:00.000" out="00:00:04.967" producer="producer1">
   <property name="kdenlive:id">6</property>
   <filter id="filter142">
    <property name="rotate_center">1</property>
    <property name="mlt_service">qtblend</property>
    <property name="kdenlive_id">qtblend</property>
    <property name="compositing">0</property>
    <property name="distort">0</property>
    <property name="rect">00:00:00.000=0 0 4096 2304 1.000000</property>
    <property name="rotation">00:00:00.000=0</property>
    <property name="kdenlive:collapsed">0</property>
   </filter>
  </entry>
  <blank length="00:00:12.000"/>
  <entry in="00:00:00.000" out="00:00:12.967" producer="producer14">
   <property name="kdenlive:id">18</property>
   <filter id="filter143">
    <property name="rotate_center">1</property>
    <property name="mlt_service">qtblend</property>
    <property name="kdenlive_id">qtblend</property>
    <property name="compositing">0</property>
    <property name="distort">0</property>
    <property name="rect">00:00:00.000=4096 0 4096 2160 1.000000;00:00:01.000=0 0 4096 2160 1.000000</property>
    <property name="rotation">00:00:00.000=0;00:00:01.000=0</property>
    <property name="kdenlive:collapsed">0</property>
   </filter>
  </entry>
  <blank length="00:01:23.467"/>
  <entry in="00:00:00.000" out="00:00:17.667" producer="producer36">
   <property name="kdenlive:id">53</property>
   <filter id="filter144">
    <property name="rotate_center">1</property>
    <property name="mlt_service">qtblend</property>
    <property name="kdenlive_id">qtblend</property>
    <property name="compositing">0</property>
    <property name="distort">0</property>
    <property name="rect">00:00:00.000=4096 0 4096 2160 1.000000;00:00:01.000=0 0 4096 2160 1.000000</property>
    <property name="rotation">00:00:00.000=0;00:00:01.000=0</property>
    <property name="kdenlive:collapsed">0</property>
   </filter>
  </entry>
  <blank length="00:00:08.733"/>
  <entry in="00:00:00.000" out="00:00:17.200" producer="producer53">
   <property name="kdenlive:id">68</property>
   <filter id="filter145">
    <property name="rotate_center">1</property>
    <property name="mlt_service">qtblend</property>
    <property name="kdenlive_id">qtblend</property>
    <property name="compositing">0</property>
    <property name="distort">0</property>
    <property name="rect">00:00:00.000=4096 0 4096 2160 1.000000;00:00:01.000=0 0 4096 2160 1.000000</property>
    <property name="rotation">00:00:00.000=0;00:00:01.000=0</property>
    <property name="kdenlive:collapsed">0</property>
   </filter>
  </entry>
  <blank length="00:00:11.100"/>
  <entry in="00:00:00.000" out="00:00:15.067" producer="producer63">
   <property name="kdenlive:id">80</property>
   <filter id="filter146">
    <property name="rotate_center">1</property>
    <property name="mlt_service">qtblend</property>
    <property name="kdenlive_id">qtblend</property>
    <property name="compositing">0</property>
    <property name="distort">0</property>
    <property name="rect">00:00:00.000=4096 0 4096 2160 1.000000;00:00:01.000=0 0 4096 2160 1.000000</property>
    <property name="rotation">00:00:00.000=0;00:00:01.000=0</property>
    <property name="kdenlive:collapsed">0</property>
   </filter>
  </entry>
  <blank length="00:00:05.000"/>
  <entry in="00:00:00.000" out="00:00:04.967" producer="producer64">
   <property name="kdenlive:id">91</property>
   <filter id="filter147">
    <property name="rotate_center">1</property>
    <property name="mlt_service">qtblend</property>
    <property name="kdenlive_id">qtblend</property>
    <property name="compositing">0</property>
    <property name="distort">0</property>
    <property name="rect">00:00:00.000=0 0 4096 2160 0.000000;00:00:01.000=0 0 4096 2160 1.000000;00:00:04.000=0 0 4096 2160 1.000000;00:00:04.967=0 0 4096 2160 0.000000</property>
    <property name="rotation">00:00:00.000=0;00:00:01.000=0;00:00:04.000=0;00:00:04.967=0</property>
    <property name="kdenlive:collapsed">0</property>
   </filter>
  </entry>
  <blank length="00:00:03.000"/>
  <entry in="00:00:00.000" out="00:00:04.967" producer="producer65">
   <property name="kdenlive:id">95</property>
   <filter id="filter148">
    <property name="rotate_center">1</property>
    <property name="mlt_service">qtblend</property>
    <property name="kdenlive_id">qtblend</property>
    <property name="compositing">0</property>
    <property name="distort">0</property>
    <property name="rect">00:00:00.000=0 0 4096 2160 0.000000;00:00:01.000=0 0 4096 2160 1.000000;00:00:04.000=0 0 4096 2160 1.000000;00:00:04.967=0 0 4096 2160 0.000000</property>
    <property name="rotation">00:00:00.000=0;00:00:01.000=0;00:00:04.000=0;00:00:04.967=0</property>
    <property name="kdenlive:collapsed">0</property>
   </filter>
  </entry>
  <blank length="00:00:02.900"/>
  <entry in="00:00:00.000" out="00:00:04.967" producer="producer66">
   <property name="kdenlive:id">99</property>
   <filter id="filter149">
    <property name="rotate_center">1</property>
    <property name="mlt_service">qtblend</property>
    <property name="kdenlive_id">qtblend</property>
    <property name="compositing">0</property>
    <property name="distort">0</property>
    <property name="rect">00:00:00.000=0 0 4096 2160 0.000000;00:00:01.000=0 0 4096 2160 1.000000;00:00:04.000=0 0 4096 2160 1.000000;00:00:04.967=0 0 4096 2160 0.000000</property>
    <property name="rotation">00:00:00.000=0;00:00:01.000=0;00:00:04.000=0;00:00:04.967=0</property>
    <property name="kdenlive:collapsed">0</property>
   </filter>
  </entry>
  <blank length="00:00:03.000"/>
  <entry in="00:00:00.000" out="00:00:04.967" producer="producer67">
   <property name="kdenlive:id">103</property>
   <filter id="filter150">
    <property name="rotate_center">1</property>
    <property name="mlt_service">qtblend</property>
    <property name="kdenlive_id">qtblend</property>
    <property name="compositing">0</property>
    <property name="distort">0</property>
    <property name="rect">00:00:00.000=0 0 4096 2160 0.000000;00:00:01.000=0 0 4096 2160 1.000000;00:00:04.000=0 0 4096 2160 1.000000;00:00:04.967=0 0 4096 2160 0.000000</property>
    <property name="rotation">00:00:00.000=0;00:00:01.000=0;00:00:04.000=0;00:00:04.967=0</property>
    <property name="kdenlive:collapsed">0</property>
   </filter>
  </entry>
  <blank length="00:00:02.700"/>
  <entry in="00:00:00.000" out="00:05:57.167" producer="producer77">
   <property name="kdenlive:id">107</property>
  </entry>
 </playlist>
 <playlist id="playlist15"/>
 <tractor id="tractor7" in="00:00:00.000" out="00:09:37.100">
  <property name="kdenlive:trackheight">75</property>
  <property name="kdenlive:timeline_active">1</property>
  <property name="kdenlive:collapsed">0</property>
  <property name="kdenlive:thumbs_format"/>
  <property name="kdenlive:audio_rec"/>
  <track hide="audio" producer="playlist14"/>
  <track hide="audio" producer="playlist15"/>
 </tractor>
 <producer id="producer89" in="00:00:00.000" out="00:00:54.300">
  <property name="length">1630</property>
  <property name="eof">pause</property>
  <property name="resource">1.400000:media/videos/01 - gombi build - git clone.mkv</property>
  <property name="aspect_ratio">1</property>
  <property name="meta.media.nb_streams">2</property>
  <property name="meta.media.0.stream.type">video</property>
  <property name="meta.media.0.stream.frame_rate">50</property>
  <property name="meta.media.0.stream.sample_aspect_ratio">0</property>
  <property name="meta.media.0.codec.width">3840</property>
  <property name="meta.media.0.codec.height">2400</property>
  <property name="meta.media.0.codec.rotate">0</property>
  <property name="meta.media.0.codec.pix_fmt">yuv420p</property>
  <property name="meta.media.0.codec.sample_aspect_ratio">0</property>
  <property name="meta.media.0.codec.colorspace">709</property>
  <property name="meta.media.0.codec.color_trc">1</property>
  <property name="meta.media.0.codec.name">h264</property>
  <property name="meta.media.0.codec.long_name">H.264 / AVC / MPEG-4 AVC / MPEG-4 part 10</property>
  <property name="meta.media.0.codec.bit_rate">0</property>
  <property name="meta.attr.0.stream.DURATION.markup">00:01:16.060000000</property>
  <property name="meta.media.1.stream.type">audio</property>
  <property name="meta.media.1.codec.sample_fmt">fltp</property>
  <property name="meta.media.1.codec.sample_rate">44100</property>
  <property name="meta.media.1.codec.channels">1</property>
  <property name="meta.media.1.codec.layout">mono</property>
  <property name="meta.media.1.codec.name">aac</property>
  <property name="meta.media.1.codec.long_name">AAC (Advanced Audio Coding)</property>
  <property name="meta.media.1.codec.bit_rate">0</property>
  <property name="meta.attr.1.stream.title.markup">Track1</property>
  <property name="meta.attr.1.stream.DURATION.markup">00:01:16.068000000</property>
  <property name="meta.attr.ENCODER.markup">Lavf60.16.100</property>
  <property name="seekable">1</property>
  <property name="meta.media.sample_aspect_num">1</property>
  <property name="meta.media.sample_aspect_den">1</property>
  <property name="format">3</property>
  <property name="audio_index">1</property>
  <property name="video_index">0</property>
  <property name="warp_speed">1.4</property>
  <property name="warp_resource">media/videos/01 - gombi build - git clone.mkv</property>
  <property name="mlt_service">timewarp</property>
  <property name="kdenlive:control_uuid">{13ee9b59-1ccb-4821-9409-189a8762d690}</property>
  <property name="vstream">0</property>
  <property name="astream">0</property>
  <property name="set.test_audio">1</property>
  <property name="set.test_image">0</property>
  <property name="kdenlive:id">114</property>
  <property name="warp_pitch">0</property>
  <property name="meta.media.frame_rate_num">50</property>
  <property name="meta.media.frame_rate_den">1</property>
  <property name="meta.media.colorspace">709</property>
  <property name="meta.media.color_trc">1</property>
  <property name="meta.media.has_b_frames">0</property>
  <property name="meta.media.width">3840</property>
  <property name="meta.media.height">2400</property>
  <property name="meta.media.aspect_ratio">1</property>
  <property name="meta.media.color_range">mpeg</property>
  <property name="meta.media.top_field_first">0</property>
  <property name="meta.media.progressive">1</property>
 </producer>
 <producer id="producer90" in="00:00:00.000" out="00:01:10.533">
  <property name="length">2117</property>
  <property name="eof">pause</property>
  <property name="resource">1.300000:media/videos/02 - gombi build - start tomcat.mkv</property>
  <property name="aspect_ratio">1</property>
  <property name="meta.media.nb_streams">2</property>
  <property name="meta.media.0.stream.type">video</property>
  <property name="meta.media.0.stream.frame_rate">50</property>
  <property name="meta.media.0.stream.sample_aspect_ratio">0</property>
  <property name="meta.media.0.codec.width">3840</property>
  <property name="meta.media.0.codec.height">2400</property>
  <property name="meta.media.0.codec.rotate">0</property>
  <property name="meta.media.0.codec.pix_fmt">yuv420p</property>
  <property name="meta.media.0.codec.sample_aspect_ratio">0</property>
  <property name="meta.media.0.codec.colorspace">709</property>
  <property name="meta.media.0.codec.color_trc">1</property>
  <property name="meta.media.0.codec.name">h264</property>
  <property name="meta.media.0.codec.long_name">H.264 / AVC / MPEG-4 AVC / MPEG-4 part 10</property>
  <property name="meta.media.0.codec.bit_rate">0</property>
  <property name="meta.attr.0.stream.DURATION.markup">00:01:31.700000000</property>
  <property name="meta.media.1.stream.type">audio</property>
  <property name="meta.media.1.codec.sample_fmt">fltp</property>
  <property name="meta.media.1.codec.sample_rate">44100</property>
  <property name="meta.media.1.codec.channels">1</property>
  <property name="meta.media.1.codec.layout">mono</property>
  <property name="meta.media.1.codec.name">aac</property>
  <property name="meta.media.1.codec.long_name">AAC (Advanced Audio Coding)</property>
  <property name="meta.media.1.codec.bit_rate">0</property>
  <property name="meta.attr.1.stream.title.markup">Track1</property>
  <property name="meta.attr.1.stream.DURATION.markup">00:01:31.719000000</property>
  <property name="meta.attr.ENCODER.markup">Lavf60.16.100</property>
  <property name="seekable">1</property>
  <property name="meta.media.sample_aspect_num">1</property>
  <property name="meta.media.sample_aspect_den">1</property>
  <property name="format">3</property>
  <property name="audio_index">1</property>
  <property name="video_index">0</property>
  <property name="warp_speed">1.3</property>
  <property name="warp_resource">media/videos/02 - gombi build - start tomcat.mkv</property>
  <property name="mlt_service">timewarp</property>
  <property name="kdenlive:control_uuid">{01b46870-0f77-4c7d-8e59-b368a193625f}</property>
  <property name="vstream">0</property>
  <property name="astream">0</property>
  <property name="set.test_audio">1</property>
  <property name="set.test_image">0</property>
  <property name="kdenlive:id">116</property>
  <property name="warp_pitch">0</property>
  <property name="meta.media.frame_rate_num">50</property>
  <property name="meta.media.frame_rate_den">1</property>
  <property name="meta.media.colorspace">709</property>
  <property name="meta.media.color_trc">1</property>
  <property name="meta.media.has_b_frames">0</property>
  <property name="meta.media.width">3840</property>
  <property name="meta.media.height">2400</property>
  <property name="meta.media.aspect_ratio">1</property>
  <property name="meta.media.color_range">mpeg</property>
  <property name="meta.media.top_field_first">0</property>
  <property name="meta.media.progressive">1</property>
 </producer>
 <producer id="producer91" in="00:00:00.000" out="00:00:45.833">
  <property name="length">1376</property>
  <property name="eof">pause</property>
  <property name="resource">2.000000:media/videos/02 - gombi build - start tomcat.mkv</property>
  <property name="aspect_ratio">1</property>
  <property name="meta.media.nb_streams">2</property>
  <property name="meta.media.0.stream.type">video</property>
  <property name="meta.media.0.stream.frame_rate">50</property>
  <property name="meta.media.0.stream.sample_aspect_ratio">0</property>
  <property name="meta.media.0.codec.width">3840</property>
  <property name="meta.media.0.codec.height">2400</property>
  <property name="meta.media.0.codec.rotate">0</property>
  <property name="meta.media.0.codec.pix_fmt">yuv420p</property>
  <property name="meta.media.0.codec.sample_aspect_ratio">0</property>
  <property name="meta.media.0.codec.colorspace">709</property>
  <property name="meta.media.0.codec.color_trc">1</property>
  <property name="meta.media.0.codec.name">h264</property>
  <property name="meta.media.0.codec.long_name">H.264 / AVC / MPEG-4 AVC / MPEG-4 part 10</property>
  <property name="meta.media.0.codec.bit_rate">0</property>
  <property name="meta.attr.0.stream.DURATION.markup">00:01:31.700000000</property>
  <property name="meta.media.1.stream.type">audio</property>
  <property name="meta.media.1.codec.sample_fmt">fltp</property>
  <property name="meta.media.1.codec.sample_rate">44100</property>
  <property name="meta.media.1.codec.channels">1</property>
  <property name="meta.media.1.codec.layout">mono</property>
  <property name="meta.media.1.codec.name">aac</property>
  <property name="meta.media.1.codec.long_name">AAC (Advanced Audio Coding)</property>
  <property name="meta.media.1.codec.bit_rate">0</property>
  <property name="meta.attr.1.stream.title.markup">Track1</property>
  <property name="meta.attr.1.stream.DURATION.markup">00:01:31.719000000</property>
  <property name="meta.attr.ENCODER.markup">Lavf60.16.100</property>
  <property name="seekable">1</property>
  <property name="meta.media.sample_aspect_num">1</property>
  <property name="meta.media.sample_aspect_den">1</property>
  <property name="format">3</property>
  <property name="audio_index">1</property>
  <property name="video_index">0</property>
  <property name="warp_speed">2</property>
  <property name="warp_resource">media/videos/02 - gombi build - start tomcat.mkv</property>
  <property name="mlt_service">timewarp</property>
  <property name="kdenlive:control_uuid">{01b46870-0f77-4c7d-8e59-b368a193625f}</property>
  <property name="vstream">0</property>
  <property name="astream">0</property>
  <property name="set.test_audio">1</property>
  <property name="set.test_image">0</property>
  <property name="kdenlive:id">116</property>
  <property name="warp_pitch">0</property>
  <property name="meta.media.frame_rate_num">50</property>
  <property name="meta.media.frame_rate_den">1</property>
  <property name="meta.media.colorspace">709</property>
  <property name="meta.media.color_trc">1</property>
  <property name="meta.media.has_b_frames">0</property>
  <property name="meta.media.width">3840</property>
  <property name="meta.media.height">2400</property>
  <property name="meta.media.aspect_ratio">1</property>
  <property name="meta.media.color_range">mpeg</property>
  <property name="meta.media.top_field_first">0</property>
  <property name="meta.media.progressive">1</property>
 </producer>
 <producer id="producer94" in="00:00:00.000" out="00:05:29.400">
  <property name="length">9883</property>
  <property name="eof">pause</property>
  <property name="resource">1.500000:media/videos/03 - gombi build - download install kits.mkv</property>
  <property name="aspect_ratio">1</property>
  <property name="meta.media.nb_streams">2</property>
  <property name="meta.media.0.stream.type">video</property>
  <property name="meta.media.0.stream.frame_rate">50</property>
  <property name="meta.media.0.stream.sample_aspect_ratio">0</property>
  <property name="meta.media.0.codec.width">3840</property>
  <property name="meta.media.0.codec.height">2400</property>
  <property name="meta.media.0.codec.rotate">0</property>
  <property name="meta.media.0.codec.pix_fmt">yuv420p</property>
  <property name="meta.media.0.codec.sample_aspect_ratio">0</property>
  <property name="meta.media.0.codec.colorspace">709</property>
  <property name="meta.media.0.codec.color_trc">1</property>
  <property name="meta.media.0.codec.name">h264</property>
  <property name="meta.media.0.codec.long_name">H.264 / AVC / MPEG-4 AVC / MPEG-4 part 10</property>
  <property name="meta.media.0.codec.bit_rate">0</property>
  <property name="meta.attr.0.stream.DURATION.markup">00:08:14.140000000</property>
  <property name="meta.media.1.stream.type">audio</property>
  <property name="meta.media.1.codec.sample_fmt">fltp</property>
  <property name="meta.media.1.codec.sample_rate">44100</property>
  <property name="meta.media.1.codec.channels">1</property>
  <property name="meta.media.1.codec.layout">mono</property>
  <property name="meta.media.1.codec.name">aac</property>
  <property name="meta.media.1.codec.long_name">AAC (Advanced Audio Coding)</property>
  <property name="meta.media.1.codec.bit_rate">0</property>
  <property name="meta.attr.1.stream.title.markup">Track1</property>
  <property name="meta.attr.1.stream.DURATION.markup">00:08:14.144000000</property>
  <property name="meta.attr.ENCODER.markup">Lavf60.16.100</property>
  <property name="seekable">1</property>
  <property name="meta.media.sample_aspect_num">1</property>
  <property name="meta.media.sample_aspect_den">1</property>
  <property name="format">3</property>
  <property name="audio_index">1</property>
  <property name="video_index">0</property>
  <property name="warp_speed">1.5</property>
  <property name="warp_resource">media/videos/03 - gombi build - download install kits.mkv</property>
  <property name="mlt_service">timewarp</property>
  <property name="kdenlive:control_uuid">{6afebae9-415f-449d-80f1-d218889a4c0c}</property>
  <property name="vstream">0</property>
  <property name="astream">0</property>
  <property name="set.test_audio">1</property>
  <property name="set.test_image">0</property>
  <property name="kdenlive:id">123</property>
  <property name="warp_pitch">0</property>
  <property name="meta.media.frame_rate_num">50</property>
  <property name="meta.media.frame_rate_den">1</property>
  <property name="meta.media.colorspace">709</property>
  <property name="meta.media.color_trc">1</property>
  <property name="meta.media.has_b_frames">0</property>
  <property name="meta.media.width">3840</property>
  <property name="meta.media.height">2400</property>
  <property name="meta.media.aspect_ratio">1</property>
  <property name="meta.media.color_range">mpeg</property>
  <property name="meta.media.top_field_first">0</property>
  <property name="meta.media.progressive">1</property>
 </producer>
 <producer id="producer95" in="00:00:00.000" out="00:05:29.400">
  <property name="length">9883</property>
  <property name="eof">pause</property>
  <property name="resource">1.500000:media/videos/03 - gombi build - download install kits.mkv</property>
  <property name="aspect_ratio">1</property>
  <property name="meta.media.nb_streams">2</property>
  <property name="meta.media.0.stream.type">video</property>
  <property name="meta.media.0.stream.frame_rate">50</property>
  <property name="meta.media.0.stream.sample_aspect_ratio">0</property>
  <property name="meta.media.0.codec.width">3840</property>
  <property name="meta.media.0.codec.height">2400</property>
  <property name="meta.media.0.codec.rotate">0</property>
  <property name="meta.media.0.codec.pix_fmt">yuv420p</property>
  <property name="meta.media.0.codec.sample_aspect_ratio">0</property>
  <property name="meta.media.0.codec.colorspace">709</property>
  <property name="meta.media.0.codec.color_trc">1</property>
  <property name="meta.media.0.codec.name">h264</property>
  <property name="meta.media.0.codec.long_name">H.264 / AVC / MPEG-4 AVC / MPEG-4 part 10</property>
  <property name="meta.media.0.codec.bit_rate">0</property>
  <property name="meta.attr.0.stream.DURATION.markup">00:08:14.140000000</property>
  <property name="meta.media.1.stream.type">audio</property>
  <property name="meta.media.1.codec.sample_fmt">fltp</property>
  <property name="meta.media.1.codec.sample_rate">44100</property>
  <property name="meta.media.1.codec.channels">1</property>
  <property name="meta.media.1.codec.layout">mono</property>
  <property name="meta.media.1.codec.name">aac</property>
  <property name="meta.media.1.codec.long_name">AAC (Advanced Audio Coding)</property>
  <property name="meta.media.1.codec.bit_rate">0</property>
  <property name="meta.attr.1.stream.title.markup">Track1</property>
  <property name="meta.attr.1.stream.DURATION.markup">00:08:14.144000000</property>
  <property name="meta.attr.ENCODER.markup">Lavf60.16.100</property>
  <property name="seekable">1</property>
  <property name="meta.media.sample_aspect_num">1</property>
  <property name="meta.media.sample_aspect_den">1</property>
  <property name="format">3</property>
  <property name="audio_index">1</property>
  <property name="video_index">0</property>
  <property name="warp_speed">1.5</property>
  <property name="warp_resource">media/videos/03 - gombi build - download install kits.mkv</property>
  <property name="mlt_service">timewarp</property>
  <property name="kdenlive:control_uuid">{6afebae9-415f-449d-80f1-d218889a4c0c}</property>
  <property name="vstream">0</property>
  <property name="astream">0</property>
  <property name="set.test_audio">1</property>
  <property name="set.test_image">0</property>
  <property name="kdenlive:id">123</property>
  <property name="warp_pitch">0</property>
  <property name="meta.media.frame_rate_num">50</property>
  <property name="meta.media.frame_rate_den">1</property>
  <property name="meta.media.colorspace">709</property>
  <property name="meta.media.color_trc">1</property>
  <property name="meta.media.has_b_frames">0</property>
  <property name="meta.media.width">3840</property>
  <property name="meta.media.height">2400</property>
  <property name="meta.media.aspect_ratio">1</property>
  <property name="meta.media.color_range">mpeg</property>
  <property name="meta.media.top_field_first">0</property>
  <property name="meta.media.progressive">1</property>
 </producer>
 <chain id="chain53" out="00:08:14.100">
  <property name="length">14824</property>
  <property name="eof">pause</property>
  <property name="resource">media/videos/03 - gombi build - download install kits.mkv</property>
  <property name="mlt_service">avformat-novalidate</property>
  <property name="seekable">1</property>
  <property name="format">3</property>
  <property name="audio_index">1</property>
  <property name="video_index">0</property>
  <property name="vstream">0</property>
  <property name="astream">0</property>
  <property name="kdenlive:folderid">-1</property>
  <property name="kdenlive:id">123</property>
  <property name="kdenlive:control_uuid">{6afebae9-415f-449d-80f1-d218889a4c0c}</property>
  <property name="mute_on_pause">0</property>
  <property name="kdenlive:clip_type">0</property>
  <property name="kdenlive:file_size">154815744</property>
  <property name="kdenlive:file_hash">80cd39117d45902c3fd0bb6bd6fcaf00</property>
  <property name="kdenlive:audio_max1">1</property>
  <property name="kdenlive:clipname">Video - gombi build - 03 download install kits</property>
  <property name="kdenlive:monitorPosition">0</property>
  <property name="meta.media.nb_streams">2</property>
  <property name="meta.media.0.stream.type">video</property>
  <property name="meta.media.0.stream.frame_rate">50</property>
  <property name="meta.media.0.stream.sample_aspect_ratio">0</property>
  <property name="meta.media.0.codec.width">3840</property>
  <property name="meta.media.0.codec.height">2400</property>
  <property name="meta.media.0.codec.rotate">0</property>
  <property name="meta.media.0.codec.pix_fmt">yuv420p</property>
  <property name="meta.media.0.codec.sample_aspect_ratio">0</property>
  <property name="meta.media.0.codec.colorspace">709</property>
  <property name="meta.media.0.codec.color_trc">1</property>
  <property name="meta.media.0.codec.name">h264</property>
  <property name="meta.media.0.codec.long_name">H.264 / AVC / MPEG-4 AVC / MPEG-4 part 10</property>
  <property name="meta.media.0.codec.bit_rate">0</property>
  <property name="meta.attr.0.stream.DURATION.markup">00:08:14.140000000</property>
  <property name="meta.media.1.stream.type">audio</property>
  <property name="meta.media.1.codec.sample_fmt">fltp</property>
  <property name="meta.media.1.codec.sample_rate">44100</property>
  <property name="meta.media.1.codec.channels">1</property>
  <property name="meta.media.1.codec.layout">mono</property>
  <property name="meta.media.1.codec.name">aac</property>
  <property name="meta.media.1.codec.long_name">AAC (Advanced Audio Coding)</property>
  <property name="meta.media.1.codec.bit_rate">0</property>
  <property name="meta.attr.1.stream.title.markup">Track1</property>
  <property name="meta.attr.1.stream.DURATION.markup">00:08:14.144000000</property>
  <property name="meta.attr.ENCODER.markup">Lavf60.16.100</property>
  <property name="meta.media.sample_aspect_num">1</property>
  <property name="meta.media.sample_aspect_den">1</property>
  <property name="meta.media.frame_rate_num">50</property>
  <property name="meta.media.frame_rate_den">1</property>
  <property name="meta.media.colorspace">709</property>
  <property name="meta.media.color_trc">1</property>
  <property name="meta.media.has_b_frames">0</property>
  <property name="meta.media.width">3840</property>
  <property name="meta.media.height">2400</property>
  <property name="meta.media.aspect_ratio">1</property>
  <property name="meta.media.color_range">mpeg</property>
  <property name="xml">was here</property>
  <property name="meta.media.top_field_first">0</property>
  <property name="meta.media.progressive">1</property>
  <property name="set.test_audio">1</property>
  <property name="set.test_image">0</property>
 </chain>
 <producer id="producer98" in="00:00:00.000" out="00:00:50.333">
  <property name="length">1512</property>
  <property name="eof">pause</property>
  <property name="resource">2.000000:media/videos/04 - gombi build - update install kits.mkv</property>
  <property name="aspect_ratio">1</property>
  <property name="meta.media.nb_streams">2</property>
  <property name="meta.media.0.stream.type">video</property>
  <property name="meta.media.0.stream.frame_rate">50</property>
  <property name="meta.media.0.stream.sample_aspect_ratio">0</property>
  <property name="meta.media.0.codec.width">3840</property>
  <property name="meta.media.0.codec.height">2400</property>
  <property name="meta.media.0.codec.rotate">0</property>
  <property name="meta.media.0.codec.pix_fmt">yuv420p</property>
  <property name="meta.media.0.codec.sample_aspect_ratio">0</property>
  <property name="meta.media.0.codec.colorspace">709</property>
  <property name="meta.media.0.codec.color_trc">1</property>
  <property name="meta.media.0.codec.name">h264</property>
  <property name="meta.media.0.codec.long_name">H.264 / AVC / MPEG-4 AVC / MPEG-4 part 10</property>
  <property name="meta.media.0.codec.bit_rate">0</property>
  <property name="meta.attr.0.stream.DURATION.markup">00:01:40.740000000</property>
  <property name="meta.media.1.stream.type">audio</property>
  <property name="meta.media.1.codec.sample_fmt">fltp</property>
  <property name="meta.media.1.codec.sample_rate">44100</property>
  <property name="meta.media.1.codec.channels">1</property>
  <property name="meta.media.1.codec.layout">mono</property>
  <property name="meta.media.1.codec.name">aac</property>
  <property name="meta.media.1.codec.long_name">AAC (Advanced Audio Coding)</property>
  <property name="meta.media.1.codec.bit_rate">0</property>
  <property name="meta.attr.1.stream.title.markup">Track1</property>
  <property name="meta.attr.1.stream.DURATION.markup">00:01:40.751000000</property>
  <property name="meta.attr.ENCODER.markup">Lavf60.16.100</property>
  <property name="seekable">1</property>
  <property name="meta.media.sample_aspect_num">1</property>
  <property name="meta.media.sample_aspect_den">1</property>
  <property name="format">3</property>
  <property name="audio_index">1</property>
  <property name="video_index">0</property>
  <property name="warp_speed">2</property>
  <property name="warp_resource">media/videos/04 - gombi build - update install kits.mkv</property>
  <property name="mlt_service">timewarp</property>
  <property name="kdenlive:control_uuid">{15f8dcc1-dc96-4d1b-a8b0-df0a91c4bdbd}</property>
  <property name="vstream">0</property>
  <property name="astream">0</property>
  <property name="set.test_audio">1</property>
  <property name="set.test_image">0</property>
  <property name="kdenlive:id">129</property>
  <property name="warp_pitch">0</property>
  <property name="meta.media.frame_rate_num">50</property>
  <property name="meta.media.frame_rate_den">1</property>
  <property name="meta.media.colorspace">709</property>
  <property name="meta.media.color_trc">1</property>
  <property name="meta.media.has_b_frames">0</property>
  <property name="meta.media.width">3840</property>
  <property name="meta.media.height">2400</property>
  <property name="meta.media.aspect_ratio">1</property>
  <property name="meta.media.color_range">mpeg</property>
  <property name="meta.media.top_field_first">0</property>
  <property name="meta.media.progressive">1</property>
 </producer>
 <chain id="chain52" out="00:03:03.400">
  <property name="length">5503</property>
  <property name="eof">pause</property>
  <property name="resource">media/videos/05 - gombi build - docker build.mkv</property>
  <property name="mlt_service">avformat-novalidate</property>
  <property name="seekable">1</property>
  <property name="format">3</property>
  <property name="audio_index">1</property>
  <property name="video_index">0</property>
  <property name="vstream">0</property>
  <property name="astream">0</property>
  <property name="kdenlive:folderid">-1</property>
  <property name="kdenlive:id">130</property>
  <property name="kdenlive:control_uuid">{5c6b7f5b-c987-4107-b7fd-4bc8469e4e43}</property>
  <property name="mute_on_pause">0</property>
  <property name="kdenlive:clip_type">0</property>
  <property name="kdenlive:file_size">57561732</property>
  <property name="kdenlive:file_hash">2233ae2ef8ca04f0621fd87f5c9231d2</property>
  <property name="kdenlive:audio_max1">1</property>
  <property name="kdenlive:clipname">Video - gombi build - 05 docker build</property>
  <property name="meta.media.nb_streams">2</property>
  <property name="meta.media.0.stream.type">video</property>
  <property name="meta.media.0.stream.frame_rate">50</property>
  <property name="meta.media.0.stream.sample_aspect_ratio">0</property>
  <property name="meta.media.0.codec.width">3840</property>
  <property name="meta.media.0.codec.height">2400</property>
  <property name="meta.media.0.codec.rotate">0</property>
  <property name="meta.media.0.codec.pix_fmt">yuv420p</property>
  <property name="meta.media.0.codec.sample_aspect_ratio">0</property>
  <property name="meta.media.0.codec.colorspace">709</property>
  <property name="meta.media.0.codec.color_trc">1</property>
  <property name="meta.media.0.codec.name">h264</property>
  <property name="meta.media.0.codec.long_name">H.264 / AVC / MPEG-4 AVC / MPEG-4 part 10</property>
  <property name="meta.media.0.codec.bit_rate">0</property>
  <property name="meta.attr.0.stream.DURATION.markup">00:03:03.440000000</property>
  <property name="meta.media.1.stream.type">audio</property>
  <property name="meta.media.1.codec.sample_fmt">fltp</property>
  <property name="meta.media.1.codec.sample_rate">44100</property>
  <property name="meta.media.1.codec.channels">1</property>
  <property name="meta.media.1.codec.layout">mono</property>
  <property name="meta.media.1.codec.name">aac</property>
  <property name="meta.media.1.codec.long_name">AAC (Advanced Audio Coding)</property>
  <property name="meta.media.1.codec.bit_rate">0</property>
  <property name="meta.attr.1.stream.title.markup">Track1</property>
  <property name="meta.attr.1.stream.DURATION.markup">00:03:03.437000000</property>
  <property name="meta.attr.ENCODER.markup">Lavf60.16.100</property>
  <property name="meta.media.sample_aspect_num">1</property>
  <property name="meta.media.sample_aspect_den">1</property>
  <property name="meta.media.frame_rate_num">50</property>
  <property name="meta.media.frame_rate_den">1</property>
  <property name="meta.media.colorspace">709</property>
  <property name="meta.media.color_trc">1</property>
  <property name="meta.media.has_b_frames">0</property>
  <property name="meta.media.width">3840</property>
  <property name="meta.media.height">2400</property>
  <property name="meta.media.aspect_ratio">1</property>
  <property name="meta.media.color_range">mpeg</property>
  <property name="xml">was here</property>
  <property name="meta.media.top_field_first">0</property>
  <property name="meta.media.progressive">1</property>
  <property name="set.test_audio">1</property>
  <property name="set.test_image">0</property>
 </chain>
 <producer id="producer99" in="00:00:00.000" out="00:01:13.333">
  <property name="length">2201</property>
  <property name="eof">pause</property>
  <property name="resource">2.500000:media/videos/05 - gombi build - docker build.mkv</property>
  <property name="aspect_ratio">1</property>
  <property name="meta.media.nb_streams">2</property>
  <property name="meta.media.0.stream.type">video</property>
  <property name="meta.media.0.stream.frame_rate">50</property>
  <property name="meta.media.0.stream.sample_aspect_ratio">0</property>
  <property name="meta.media.0.codec.width">3840</property>
  <property name="meta.media.0.codec.height">2400</property>
  <property name="meta.media.0.codec.rotate">0</property>
  <property name="meta.media.0.codec.pix_fmt">yuv420p</property>
  <property name="meta.media.0.codec.sample_aspect_ratio">0</property>
  <property name="meta.media.0.codec.colorspace">709</property>
  <property name="meta.media.0.codec.color_trc">1</property>
  <property name="meta.media.0.codec.name">h264</property>
  <property name="meta.media.0.codec.long_name">H.264 / AVC / MPEG-4 AVC / MPEG-4 part 10</property>
  <property name="meta.media.0.codec.bit_rate">0</property>
  <property name="meta.attr.0.stream.DURATION.markup">00:03:03.440000000</property>
  <property name="meta.media.1.stream.type">audio</property>
  <property name="meta.media.1.codec.sample_fmt">fltp</property>
  <property name="meta.media.1.codec.sample_rate">44100</property>
  <property name="meta.media.1.codec.channels">1</property>
  <property name="meta.media.1.codec.layout">mono</property>
  <property name="meta.media.1.codec.name">aac</property>
  <property name="meta.media.1.codec.long_name">AAC (Advanced Audio Coding)</property>
  <property name="meta.media.1.codec.bit_rate">0</property>
  <property name="meta.attr.1.stream.title.markup">Track1</property>
  <property name="meta.attr.1.stream.DURATION.markup">00:03:03.437000000</property>
  <property name="meta.attr.ENCODER.markup">Lavf60.16.100</property>
  <property name="seekable">1</property>
  <property name="meta.media.sample_aspect_num">1</property>
  <property name="meta.media.sample_aspect_den">1</property>
  <property name="format">3</property>
  <property name="audio_index">1</property>
  <property name="video_index">0</property>
  <property name="warp_speed">2.5</property>
  <property name="warp_resource">media/videos/05 - gombi build - docker build.mkv</property>
  <property name="mlt_service">timewarp</property>
  <property name="kdenlive:control_uuid">{5c6b7f5b-c987-4107-b7fd-4bc8469e4e43}</property>
  <property name="vstream">0</property>
  <property name="astream">0</property>
  <property name="set.test_audio">1</property>
  <property name="set.test_image">0</property>
  <property name="kdenlive:id">130</property>
  <property name="warp_pitch">0</property>
  <property name="meta.media.frame_rate_num">50</property>
  <property name="meta.media.frame_rate_den">1</property>
  <property name="meta.media.colorspace">709</property>
  <property name="meta.media.color_trc">1</property>
  <property name="meta.media.has_b_frames">0</property>
  <property name="meta.media.width">3840</property>
  <property name="meta.media.height">2400</property>
  <property name="meta.media.aspect_ratio">1</property>
  <property name="meta.media.color_range">mpeg</property>
  <property name="meta.media.top_field_first">0</property>
  <property name="meta.media.progressive">1</property>
 </producer>
 <playlist id="playlist16">
  <entry in="00:00:00.000" out="00:00:04.967" producer="producer3">
   <property name="kdenlive:id">4</property>
   <filter id="filter151">
    <property name="rotate_center">1</property>
    <property name="mlt_service">qtblend</property>
    <property name="kdenlive_id">qtblend</property>
    <property name="compositing">0</property>
    <property name="distort">0</property>
    <property name="rect">00:00:00.000=-6363 -4758 9742 5610 1.000000</property>
    <property name="rotation">00:00:00.000=0</property>
    <property name="kdenlive:collapsed">0</property>
   </filter>
  </entry>
  <blank length="00:00:11.000"/>
  <entry in="00:00:00.000" out="00:00:13.967" producer="producer15">
   <property name="kdenlive:id">17</property>
   <filter id="filter152">
    <property name="rotate_center">1</property>
    <property name="mlt_service">qtblend</property>
    <property name="kdenlive_id">qtblend</property>
    <property name="compositing">0</property>
    <property name="distort">0</property>
    <property name="rect">00:00:00.000=4096 0 4096 2160 1.000000;00:00:01.000=0 0 4096 2160 1.000000</property>
    <property name="rotation">00:00:00.000=0;00:00:01.000=0</property>
    <property name="kdenlive:collapsed">0</property>
   </filter>
  </entry>
  <blank length="00:00:08.567"/>
  <entry in="00:00:00.000" out="00:00:21.367" producer="producer23">
   <property name="kdenlive:id">32</property>
   <filter id="filter153">
    <property name="rotate_center">1</property>
    <property name="mlt_service">qtblend</property>
    <property name="kdenlive_id">qtblend</property>
    <property name="compositing">0</property>
    <property name="distort">0</property>
    <property name="rect">00:00:00.000=4096 0 4096 2160 1.000000;00:00:01.000=0 0 4096 2160 1.000000</property>
    <property name="rotation">00:00:00.000=0;00:00:01.000=0</property>
    <property name="kdenlive:collapsed">0</property>
   </filter>
  </entry>
  <blank length="00:00:15.867"/>
  <entry in="00:00:00.000" out="00:00:21.000" producer="producer29">
   <property name="kdenlive:id">39</property>
   <filter id="filter154">
    <property name="rotate_center">1</property>
    <property name="mlt_service">qtblend</property>
    <property name="kdenlive_id">qtblend</property>
    <property name="compositing">0</property>
    <property name="distort">0</property>
    <property name="rect">00:00:00.000=4096 0 4096 2160 1.000000;00:00:01.000=0 0 4096 2160 1.000000</property>
    <property name="rotation">00:00:00.000=0;00:00:01.000=0</property>
    <property name="kdenlive:collapsed">0</property>
   </filter>
  </entry>
  <blank length="00:00:10.600"/>
  <entry in="00:00:00.000" out="00:00:23.667" producer="producer37">
   <property name="kdenlive:id">52</property>
   <filter id="filter155">
    <property name="rotate_center">1</property>
    <property name="mlt_service">qtblend</property>
    <property name="kdenlive_id">qtblend</property>
    <property name="compositing">0</property>
    <property name="distort">0</property>
    <property name="rect">00:00:00.000=4096 0 4096 2160 1.000000;00:00:01.000=0 0 4096 2160 1.000000</property>
    <property name="rotation">00:00:00.000=0;00:00:01.000=0</property>
    <property name="kdenlive:collapsed">0</property>
   </filter>
  </entry>
  <blank length="00:00:02.067"/>
  <entry in="00:00:00.000" out="00:00:23.867" producer="producer38">
   <property name="kdenlive:id">66</property>
   <filter id="filter156">
    <property name="rotate_center">1</property>
    <property name="mlt_service">qtblend</property>
    <property name="kdenlive_id">qtblend</property>
    <property name="compositing">0</property>
    <property name="distort">0</property>
    <property name="rect">00:00:00.000=4096 0 4096 2160 1.000000;00:00:01.000=0 0 4096 2160 1.000000</property>
    <property name="rotation">00:00:00.000=0;00:00:01.000=0</property>
    <property name="kdenlive:collapsed">0</property>
   </filter>
  </entry>
  <blank length="00:00:02.100"/>
  <entry in="00:00:00.000" out="00:00:24.067" producer="producer68">
   <property name="kdenlive:id">78</property>
   <filter id="filter157">
    <property name="rotate_center">1</property>
    <property name="mlt_service">qtblend</property>
    <property name="kdenlive_id">qtblend</property>
    <property name="compositing">0</property>
    <property name="distort">0</property>
    <property name="rect">00:00:00.000=4096 0 4096 2160 1.000000;00:00:01.000=0 0 4096 2160 1.000000</property>
    <property name="rotation">00:00:00.000=0;00:00:01.000=0</property>
    <property name="kdenlive:collapsed">0</property>
   </filter>
  </entry>
  <blank length="00:00:05.000"/>
  <entry in="00:00:00.000" out="00:00:04.967" producer="producer69">
   <property name="kdenlive:id">93</property>
   <filter id="filter158">
    <property name="rotate_center">1</property>
    <property name="mlt_service">qtblend</property>
    <property name="kdenlive_id">qtblend</property>
    <property name="compositing">0</property>
    <property name="distort">0</property>
    <property name="rect">00:00:00.000=0 0 4096 2160 0.000000;00:00:01.000=0 0 4096 2160 1.000000;00:00:04.000=0 0 4096 2160 1.000000;00:00:04.967=0 0 4096 2160 0.000000</property>
    <property name="rotation">00:00:00.000=0;00:00:01.000=0;00:00:04.000=0;00:00:04.967=0</property>
    <property name="kdenlive:collapsed">0</property>
   </filter>
  </entry>
  <blank length="00:00:02.900"/>
  <entry in="00:00:00.000" out="00:00:04.967" producer="producer70">
   <property name="kdenlive:id">96</property>
   <filter id="filter159">
    <property name="rotate_center">1</property>
    <property name="mlt_service">qtblend</property>
    <property name="kdenlive_id">qtblend</property>
    <property name="compositing">0</property>
    <property name="distort">0</property>
    <property name="rect">00:00:00.000=0 0 4096 2160 0.000000;00:00:01.000=0 0 4096 2160 1.000000;00:00:04.000=0 0 4096 2160 1.000000;00:00:04.967=0 0 4096 2160 0.000000</property>
    <property name="rotation">00:00:00.000=0;00:00:01.000=0;00:00:04.000=0;00:00:04.967=0</property>
    <property name="kdenlive:collapsed">0</property>
   </filter>
  </entry>
  <blank length="00:00:03.000"/>
  <entry in="00:00:00.000" out="00:00:04.967" producer="producer71">
   <property name="kdenlive:id">100</property>
   <filter id="filter160">
    <property name="rotate_center">1</property>
    <property name="mlt_service">qtblend</property>
    <property name="kdenlive_id">qtblend</property>
    <property name="compositing">0</property>
    <property name="distort">0</property>
    <property name="rect">00:00:00.000=0 0 4096 2160 0.000000;00:00:01.000=0 0 4096 2160 1.000000;00:00:04.000=0 0 4096 2160 1.000000;00:00:04.967=0 0 4096 2160 0.000000</property>
    <property name="rotation">00:00:00.000=0;00:00:01.000=0;00:00:04.000=0;00:00:04.967=0</property>
    <property name="kdenlive:collapsed">0</property>
   </filter>
  </entry>
  <blank length="00:00:03.000"/>
  <entry in="00:00:00.000" out="00:00:04.967" producer="producer72">
   <property name="kdenlive:id">104</property>
   <filter id="filter161">
    <property name="rotate_center">1</property>
    <property name="mlt_service">qtblend</property>
    <property name="kdenlive_id">qtblend</property>
    <property name="compositing">0</property>
    <property name="distort">0</property>
    <property name="rect">00:00:00.000=0 0 4096 2160 0.000000;00:00:01.000=0 0 4096 2160 1.000000;00:00:04.000=0 0 4096 2160 1.000000;00:00:04.967=0 0 4096 2160 0.000000</property>
    <property name="rotation">00:00:00.000=0;00:00:01.000=0;00:00:04.000=0;00:00:04.967=0</property>
    <property name="kdenlive:collapsed">0</property>
   </filter>
  </entry>
  <blank length="00:00:18.000"/>
  <entry in="00:00:01.867" out="00:00:51.800" producer="producer89">
   <property name="kdenlive:id">114</property>
   <filter id="filter162">
    <property name="rotate_center">1</property>
    <property name="mlt_service">qtblend</property>
    <property name="kdenlive_id">qtblend</property>
    <property name="compositing">0</property>
    <property name="distort">0</property>
    <property name="rect">00:00:01.867=1415 720 500 263 1.000000;00:00:03.667=0 0 4096 2560 1.000000;00:00:50.833=0 0 4096 2560 1.000000;00:00:51.800=1415 720 500 263 1.000000</property>
    <property name="rotation">00:00:01.867=0;00:00:03.667=0;00:00:50.833=0;00:00:51.800=0</property>
    <property name="kdenlive:collapsed">0</property>
   </filter>
  </entry>
  <blank length="00:00:01.967"/>
  <entry in="00:00:03.267" out="00:00:14.533" producer="producer90">
   <property name="kdenlive:id">116</property>
   <filter id="filter163">
    <property name="rotate_center">1</property>
    <property name="mlt_service">qtblend</property>
    <property name="kdenlive_id">qtblend</property>
    <property name="compositing">0</property>
    <property name="distort">0</property>
    <property name="rect">00:00:03.267=1415 1110 500 263 1.000000;00:00:04.567=0 0 4096 2560 1.000000</property>
    <property name="rotation">00:00:03.267=0;00:00:04.567=0</property>
    <property name="kdenlive:collapsed">0</property>
   </filter>
  </entry>
  <entry in="00:00:09.433" out="00:00:41.833" producer="producer91">
   <property name="kdenlive:id">116</property>
   <filter id="filter164">
    <property name="rotate_center">1</property>
    <property name="mlt_service">qtblend</property>
    <property name="kdenlive_id">qtblend</property>
    <property name="compositing">0</property>
    <property name="distort">0</property>
    <property name="rect">00:00:09.433=0 0 4096 2560 1.000000</property>
    <property name="rotation">00:00:09.433=0</property>
    <property name="kdenlive:collapsed">0</property>
   </filter>
  </entry>
  <entry in="00:00:05.800" out="00:00:21.600" producer="producer94">
   <property name="kdenlive:id">123</property>
   <filter id="filter165">
    <property name="rotate_center">1</property>
    <property name="mlt_service">qtblend</property>
    <property name="kdenlive_id">qtblend</property>
    <property name="compositing">0</property>
    <property name="distort">0</property>
    <property name="rect">00:00:05.800=0 0 4096 2560 1.000000</property>
    <property name="rotation">00:00:05.800=0</property>
    <property name="kdenlive:collapsed">0</property>
   </filter>
  </entry>
  <entry in="00:00:21.633" out="00:00:24.600" producer="producer95">
   <property name="kdenlive:id">123</property>
   <filter id="filter166">
    <property name="rotate_center">1</property>
    <property name="mlt_service">qtblend</property>
    <property name="kdenlive_id">qtblend</property>
    <property name="compositing">0</property>
    <property name="distort">0</property>
    <property name="rect">00:00:21.633=0 0 4096 2560 1.000000</property>
    <property name="rotation">00:00:21.633=0</property>
    <property name="kdenlive:collapsed">0</property>
   </filter>
  </entry>
  <entry in="00:01:19.633" out="00:01:40.433" producer="chain53">
   <property name="kdenlive:id">123</property>
   <filter id="filter167">
    <property name="rotate_center">1</property>
    <property name="mlt_service">qtblend</property>
    <property name="kdenlive_id">qtblend</property>
    <property name="compositing">0</property>
    <property name="distort">0</property>
    <property name="rect">00:01:19.633=0 0 4096 2560 1.000000</property>
    <property name="rotation">00:01:19.633=0</property>
    <property name="kdenlive:collapsed">0</property>
   </filter>
  </entry>
  <entry in="00:07:09.867" out="00:07:16.500" producer="chain53">
   <property name="kdenlive:id">123</property>
   <filter id="filter168">
    <property name="rotate_center">1</property>
    <property name="mlt_service">qtblend</property>
    <property name="kdenlive_id">qtblend</property>
    <property name="compositing">0</property>
    <property name="distort">0</property>
    <property name="rect">00:07:09.867=0 0 4096 2560 1.000000</property>
    <property name="rotation">00:07:09.867=0</property>
    <property name="kdenlive:collapsed">0</property>
   </filter>
  </entry>
  <entry in="00:07:28.700" out="00:07:56.167" producer="chain53">
   <property name="kdenlive:id">123</property>
   <filter id="filter169">
    <property name="rotate_center">1</property>
    <property name="mlt_service">qtblend</property>
    <property name="kdenlive_id">qtblend</property>
    <property name="compositing">0</property>
    <property name="distort">0</property>
    <property name="rect">00:07:28.700=0 0 4096 2560 1.000000;00:07:55.167=0 0 4096 2560 1.000000;00:07:56.167=1415 1100 500 263 1.000000</property>
    <property name="rotation">00:07:28.700=0;00:07:55.167=0;00:07:56.167=0</property>
    <property name="kdenlive:collapsed">0</property>
   </filter>
  </entry>
  <blank length="00:00:01.967"/>
  <entry in="00:00:01.400" out="00:00:49.367" producer="producer98">
   <property name="kdenlive:id">129</property>
   <filter id="filter170">
    <property name="rotate_center">1</property>
    <property name="mlt_service">qtblend</property>
    <property name="kdenlive_id">qtblend</property>
    <property name="compositing">0</property>
    <property name="distort">0</property>
    <property name="rect">00:00:01.400=3335 720 500 263 1.000000;00:00:03.800=0 0 4096 2560 1.000000</property>
    <property name="rotation">00:00:01.400=0;00:00:03.800=0</property>
    <property name="kdenlive:collapsed">0</property>
   </filter>
  </entry>
  <entry in="00:00:09.200" out="00:01:00.567" producer="chain52">
   <property name="kdenlive:id">130</property>
   <property name="kdenlive:activeeffect">0</property>
   <filter id="filter171">
    <property name="rotate_center">1</property>
    <property name="mlt_service">qtblend</property>
    <property name="kdenlive_id">qtblend</property>
    <property name="compositing">0</property>
    <property name="distort">0</property>
    <property name="rect">00:00:09.200=0 0 4096 2560 1.000000</property>
    <property name="rotation">00:00:09.200=0</property>
    <property name="kdenlive:collapsed">0</property>
   </filter>
  </entry>
  <entry in="00:01:04.500" out="00:01:15.067" producer="chain52">
   <property name="kdenlive:id">130</property>
   <filter id="filter172">
    <property name="rotate_center">1</property>
    <property name="mlt_service">qtblend</property>
    <property name="kdenlive_id">qtblend</property>
    <property name="compositing">0</property>
    <property name="distort">0</property>
    <property name="rect">00:01:04.500=0 0 4096 2560 1.000000</property>
    <property name="rotation">00:01:04.500=0</property>
    <property name="kdenlive:collapsed">0</property>
   </filter>
  </entry>
  <entry in="00:00:30.033" out="00:01:03.167" producer="producer99">
   <property name="kdenlive:id">130</property>
   <filter id="filter173">
    <property name="rotate_center">1</property>
    <property name="mlt_service">qtblend</property>
    <property name="kdenlive_id">qtblend</property>
    <property name="compositing">0</property>
    <property name="distort">0</property>
    <property name="rect">00:00:30.033=0 0 4096 2560 1.000000</property>
    <property name="rotation">00:00:30.033=0</property>
    <property name="kdenlive:collapsed">0</property>
   </filter>
  </entry>
  <entry in="00:02:38.000" out="00:03:01.367" producer="chain52">
   <property name="kdenlive:id">130</property>
   <filter id="filter174">
    <property name="rotate_center">1</property>
    <property name="mlt_service">qtblend</property>
    <property name="kdenlive_id">qtblend</property>
    <property name="compositing">0</property>
    <property name="distort">0</property>
    <property name="rect">00:02:38.000=0 0 4096 2560 1.000000;00:03:00.367=0 0 4096 2560 1.000000;00:03:01.367=3335 720 500 263 1.000000</property>
    <property name="rotation">00:02:38.000=0;00:03:00.367=0;00:03:01.367=0</property>
    <property name="kdenlive:collapsed">0</property>
   </filter>
  </entry>
 </playlist>
 <playlist id="playlist17"/>
 <tractor id="tractor8" in="00:00:00.000" out="00:09:33.233">
  <property name="kdenlive:trackheight">75</property>
  <property name="kdenlive:timeline_active">0</property>
  <property name="kdenlive:collapsed">0</property>
  <property name="kdenlive:thumbs_format"/>
  <property name="kdenlive:audio_rec"/>
  <track hide="audio" producer="playlist16"/>
  <track hide="audio" producer="playlist17"/>
 </tractor>
 <producer id="producer100" in="00:00:00.000" out="00:04:33.533">
  <property name="length">8207</property>
  <property name="eof">pause</property>
  <property name="resource"/>
  <property name="meta.media.progressive">1</property>
  <property name="aspect_ratio">1</property>
  <property name="seekable">1</property>
  <property name="mlt_service">kdenlivetitle</property>
  <property name="kdenlive:duration">00:00:05:00</property>
  <property name="kdenlive:clipname">Page 11.08 - hide private info</property>
  <property name="xmldata">&lt;kdenlivetitle LC_NUMERIC="C" duration="150" height="2160" out="149" width="4096">
 &lt;item type="QGraphicsRectItem" z-index="8">
  &lt;position x="530" y="1180">
   &lt;transform zoom="100">1,0,0,0,1,0,0,0,1&lt;/transform>
  &lt;/position>
  &lt;content brushcolor="243,242,242,255" pencolor="0,0,0,255" penwidth="0" rect="0,0,270,800"/>
 &lt;/item>
 &lt;startviewport rect="0,0,4096,2160"/>
 &lt;endviewport rect="0,0,4096,2160"/>
 &lt;background color="0,0,0,0"/>
&lt;/kdenlivetitle>
</property>
  <property name="xml">was here</property>
  <property name="kdenlive:folderid">-1</property>
  <property name="kdenlive:id">128</property>
  <property name="kdenlive:clip_type">2</property>
  <property name="kdenlive:file_hash">6650348e9fe5b3b9353c4b0da970922b</property>
  <property name="force_reload">0</property>
  <property name="kdenlive:monitorPosition">102</property>
  <property name="kdenlive:control_uuid">{32b6cc62-f3d3-48dc-a14b-e3289666a1b6}</property>
  <property name="kdenlive:uniqueId">{92d99a0f-32bd-41b6-92d6-9c7eb892cd07}</property>
  <property name="meta.media.width">4096</property>
  <property name="meta.media.height">2160</property>
 </producer>
 <playlist id="playlist18">
  <entry in="00:00:00.000" out="00:00:04.967" producer="producer21">
   <property name="kdenlive:id">25</property>
   <filter id="filter175">
    <property name="rotate_center">1</property>
    <property name="mlt_service">qtblend</property>
    <property name="kdenlive_id">qtblend</property>
    <property name="compositing">0</property>
    <property name="distort">0</property>
    <property name="rect">00:00:00.000=2398 633 1285 886 1.000000</property>
    <property name="rotation">00:00:00.000=0</property>
    <property name="kdenlive:collapsed">0</property>
   </filter>
  </entry>
  <entry in="00:00:00.000" out="00:00:09.967" producer="producer16">
   <property name="kdenlive:id">16</property>
   <filter id="filter176">
    <property name="rotate_center">1</property>
    <property name="mlt_service">qtblend</property>
    <property name="kdenlive_id">qtblend</property>
    <property name="compositing">0</property>
    <property name="distort">0</property>
    <property name="rect">00:00:00.000=147 425 1010 527 1.000000</property>
    <property name="rotation">00:00:00.000=0</property>
    <property name="kdenlive:collapsed">0</property>
   </filter>
  </entry>
  <entry in="00:00:00.000" out="00:00:14.967" producer="producer12">
   <property name="kdenlive:id">14</property>
   <filter id="filter177">
    <property name="rotate_center">1</property>
    <property name="mlt_service">qtblend</property>
    <property name="kdenlive_id">qtblend</property>
    <property name="compositing">0</property>
    <property name="distort">0</property>
    <property name="rect">00:00:00.000=4096 0 4096 2160 1.000000;00:00:01.000=0 0 4096 2160 1.000000</property>
    <property name="rotation">00:00:00.000=0;00:00:01.000=0</property>
    <property name="kdenlive:collapsed">0</property>
   </filter>
  </entry>
  <entry in="00:00:00.000" out="00:00:29.933" producer="producer24">
   <property name="kdenlive:id">29</property>
   <filter id="filter178">
    <property name="rotate_center">1</property>
    <property name="mlt_service">qtblend</property>
    <property name="kdenlive_id">qtblend</property>
    <property name="compositing">0</property>
    <property name="distort">0</property>
    <property name="rect">00:00:00.000=4096 0 4096 2160 1.000000;00:00:01.000=0 0 4096 2160 1.000000</property>
    <property name="rotation">00:00:00.000=0;00:00:01.000=0</property>
    <property name="kdenlive:collapsed">0</property>
   </filter>
  </entry>
  <entry in="00:00:00.000" out="00:00:36.867" producer="producer30">
   <property name="kdenlive:id">38</property>
   <filter id="filter179">
    <property name="rotate_center">1</property>
    <property name="mlt_service">qtblend</property>
    <property name="kdenlive_id">qtblend</property>
    <property name="compositing">0</property>
    <property name="distort">0</property>
    <property name="rect">00:00:00.000=4096 0 4096 2160 1.000000;00:00:01.000=0 0 4096 2160 1.000000</property>
    <property name="rotation">00:00:00.000=0;00:00:01.000=0</property>
    <property name="kdenlive:collapsed">0</property>
   </filter>
  </entry>
  <entry in="00:00:00.000" out="00:00:08.433" producer="producer39">
   <property name="kdenlive:id">46</property>
   <filter id="filter180">
    <property name="rotate_center">1</property>
    <property name="mlt_service">qtblend</property>
    <property name="kdenlive_id">qtblend</property>
    <property name="compositing">0</property>
    <property name="distort">0</property>
    <property name="rect">00:00:00.000=4096 0 4096 2160 1.000000;00:00:01.000=0 0 4096 2160 1.000000</property>
    <property name="rotation">00:00:00.000=0;00:00:01.000=0</property>
    <property name="kdenlive:collapsed">0</property>
   </filter>
  </entry>
  <entry in="00:00:00.000" out="00:00:25.800" producer="producer40">
   <property name="kdenlive:id">51</property>
   <filter id="filter181">
    <property name="rotate_center">1</property>
    <property name="mlt_service">qtblend</property>
    <property name="kdenlive_id">qtblend</property>
    <property name="compositing">0</property>
    <property name="distort">0</property>
    <property name="rect">00:00:00.000=4096 0 4096 2160 1.000000;00:00:01.000=0 0 4096 2160 1.000000</property>
    <property name="rotation">00:00:00.000=0;00:00:01.000=0</property>
    <property name="kdenlive:collapsed">0</property>
   </filter>
  </entry>
  <entry in="00:00:00.000" out="00:00:25.933" producer="producer41">
   <property name="kdenlive:id">64</property>
   <filter id="filter182">
    <property name="rotate_center">1</property>
    <property name="mlt_service">qtblend</property>
    <property name="kdenlive_id">qtblend</property>
    <property name="compositing">0</property>
    <property name="distort">0</property>
    <property name="rect">00:00:00.000=4096 0 4096 2160 1.000000;00:00:01.000=0 0 4096 2160 1.000000</property>
    <property name="rotation">00:00:00.000=0;00:00:01.000=0</property>
    <property name="kdenlive:collapsed">0</property>
   </filter>
  </entry>
  <entry in="00:00:00.000" out="00:00:26.167" producer="producer73">
   <property name="kdenlive:id">77</property>
   <filter id="filter183">
    <property name="rotate_center">1</property>
    <property name="mlt_service">qtblend</property>
    <property name="kdenlive_id">qtblend</property>
    <property name="compositing">0</property>
    <property name="distort">0</property>
    <property name="rect">00:00:00.000=4096 0 4096 2160 1.000000;00:00:01.000=0 0 4096 2160 1.000000</property>
    <property name="rotation">00:00:00.000=0;00:00:01.000=0</property>
    <property name="kdenlive:collapsed">0</property>
   </filter>
  </entry>
  <entry in="00:00:00.000" out="00:00:36.633" producer="producer74">
   <property name="kdenlive:id">90</property>
   <filter id="filter184">
    <property name="rotate_center">1</property>
    <property name="mlt_service">qtblend</property>
    <property name="kdenlive_id">qtblend</property>
    <property name="compositing">0</property>
    <property name="distort">0</property>
    <property name="rect">00:00:00.000=0 0 4096 2160 1</property>
    <property name="rotation">00:00:00.000=0</property>
    <property name="kdenlive:collapsed">0</property>
   </filter>
  </entry>
  <blank length="00:01:26.367"/>
  <entry in="00:00:00.000" out="00:00:01.333" producer="producer100">
   <property name="kdenlive:id">128</property>
  </entry>
  <blank length="00:00:02.600"/>
  <entry in="00:00:00.000" out="00:00:17.267" producer="producer92">
   <property name="kdenlive:id">117</property>
   <property name="kdenlive:activeeffect">1</property>
   <filter id="filter185" out="00:00:01.000">
    <property name="start">1</property>
    <property name="level">1</property>
    <property name="mlt_service">brightness</property>
    <property name="kdenlive_id">fade_from_black</property>
    <property name="alpha">00:00:00.000=0;00:00:01.000=1</property>
    <property name="kdenlive:collapsed">0</property>
   </filter>
   <filter id="filter186" in="00:00:16.300" out="00:00:17.300">
    <property name="start">1</property>
    <property name="level">1</property>
    <property name="mlt_service">brightness</property>
    <property name="kdenlive_id">fade_to_black</property>
    <property name="alpha">00:00:00.000=1;00:00:01.000=0</property>
    <property name="kdenlive:collapsed">0</property>
   </filter>
  </entry>
  <blank length="00:00:19.100"/>
  <entry in="00:00:00.000" out="00:00:03.133" producer="producer96">
   <property name="kdenlive:id">125</property>
   <property name="kdenlive:activeeffect">0</property>
   <filter id="filter187" out="00:00:01.000">
    <property name="start">1</property>
    <property name="level">1</property>
    <property name="mlt_service">brightness</property>
    <property name="kdenlive_id">fade_from_black</property>
    <property name="alpha">00:00:00.000=0;00:00:01.000=1</property>
    <property name="kdenlive:collapsed">0</property>
   </filter>
  </entry>
  <entry in="00:00:00.000" out="00:00:18.067" producer="producer100">
   <property name="kdenlive:id">128</property>
  </entry>
  <entry in="00:00:00.000" out="00:00:04.067" producer="producer96">
   <property name="kdenlive:id">125</property>
  </entry>
  <entry in="00:00:00.000" out="00:00:03.167" producer="producer100">
   <property name="kdenlive:id">128</property>
  </entry>
  <blank length="00:00:22.900"/>
  <entry in="00:00:00.000" out="00:00:03.967" producer="producer97">
   <property name="kdenlive:id">126</property>
   <filter id="filter188" out="00:00:01.000">
    <property name="start">1</property>
    <property name="level">1</property>
    <property name="mlt_service">brightness</property>
    <property name="kdenlive_id">fade_from_black</property>
    <property name="alpha">00:00:00.000=0;00:00:01.000=1</property>
    <property name="kdenlive:collapsed">0</property>
   </filter>
   <filter id="filter189" in="00:00:02.967" out="00:00:03.967">
    <property name="start">1</property>
    <property name="level">1</property>
    <property name="mlt_service">brightness</property>
    <property name="kdenlive_id">fade_to_black</property>
    <property name="alpha">00:00:00.000=1;00:00:01.000=0</property>
    <property name="kdenlive:collapsed">0</property>
   </filter>
  </entry>
 </playlist>
 <playlist id="playlist19"/>
 <tractor id="tractor9" in="00:00:00.000" out="00:06:42.167">
  <property name="kdenlive:trackheight">75</property>
  <property name="kdenlive:timeline_active">1</property>
  <property name="kdenlive:collapsed">0</property>
  <property name="kdenlive:thumbs_format"/>
  <property name="kdenlive:audio_rec"/>
  <track hide="audio" producer="playlist18"/>
  <track hide="audio" producer="playlist19"/>
 </tractor>
 <playlist id="playlist20">
  <blank length="00:00:05.000"/>
  <entry in="00:00:00.000" out="00:09:32.133" producer="producer21">
   <property name="kdenlive:id">25</property>
   <filter id="filter190">
    <property name="rotate_center">1</property>
    <property name="mlt_service">qtblend</property>
    <property name="kdenlive_id">qtblend</property>
    <property name="compositing">0</property>
    <property name="distort">0</property>
    <property name="rect">00:00:00.000=40 2000 286 151 1.000000</property>
    <property name="rotation">00:00:00.000=0</property>
    <property name="kdenlive:collapsed">0</property>
   </filter>
  </entry>
 </playlist>
 <playlist id="playlist21"/>
 <tractor id="tractor10" in="00:00:00.000" out="00:09:37.133">
  <property name="kdenlive:trackheight">75</property>
  <property name="kdenlive:timeline_active">1</property>
  <property name="kdenlive:collapsed">0</property>
  <property name="kdenlive:thumbs_format"/>
  <property name="kdenlive:audio_rec"/>
  <track hide="audio" producer="playlist20"/>
  <track hide="audio" producer="playlist21"/>
 </tractor>
 <playlist id="playlist22">
  <blank length="00:00:05.000"/>
  <entry in="00:00:00.000" out="00:09:32.133" producer="producer3">
   <property name="kdenlive:id">4</property>
   <filter id="filter191">
    <property name="rotate_center">1</property>
    <property name="mlt_service">qtblend</property>
    <property name="kdenlive_id">qtblend</property>
    <property name="compositing">0</property>
    <property name="distort">0</property>
    <property name="rect">00:00:00.000=0 -1965 4096 2160 1.000000</property>
    <property name="rotation">00:00:00.000=0</property>
    <property name="kdenlive:collapsed">0</property>
   </filter>
  </entry>
 </playlist>
 <playlist id="playlist23"/>
 <tractor id="tractor11" in="00:00:00.000" out="00:09:37.133">
  <property name="kdenlive:trackheight">75</property>
  <property name="kdenlive:timeline_active">1</property>
  <property name="kdenlive:collapsed">0</property>
  <property name="kdenlive:thumbs_format"/>
  <property name="kdenlive:audio_rec"/>
  <track hide="audio" producer="playlist22"/>
  <track hide="audio" producer="playlist23"/>
 </tractor>
 <playlist id="playlist24">
  <entry in="00:00:00.000" out="00:00:04.967" producer="producer4">
   <property name="kdenlive:id">5</property>
  </entry>
  <entry in="00:00:00.000" out="00:00:09.967" producer="producer7">
   <property name="kdenlive:id">11</property>
  </entry>
  <entry in="00:00:00.000" out="00:00:14.967" producer="producer8">
   <property name="kdenlive:id">10</property>
  </entry>
  <entry in="00:00:00.000" out="00:00:29.933" producer="producer25">
   <property name="kdenlive:id">28</property>
  </entry>
  <entry in="00:00:00.000" out="00:00:36.867" producer="producer31">
   <property name="kdenlive:id">37</property>
  </entry>
  <entry in="00:00:00.000" out="00:00:08.467" producer="producer42">
   <property name="kdenlive:id">45</property>
  </entry>
  <entry in="00:00:00.000" out="00:00:25.767" producer="producer43">
   <property name="kdenlive:id">50</property>
  </entry>
  <entry in="00:00:00.000" out="00:00:25.933" producer="producer44">
   <property name="kdenlive:id">63</property>
  </entry>
  <entry in="00:00:00.000" out="00:00:26.167" producer="producer75">
   <property name="kdenlive:id">76</property>
  </entry>
  <entry in="00:00:00.000" out="00:00:36.633" producer="producer76">
   <property name="kdenlive:id">87</property>
  </entry>
 </playlist>
 <playlist id="playlist25"/>
 <tractor id="tractor12" in="00:00:00.000" out="00:03:39.967">
  <property name="kdenlive:trackheight">75</property>
  <property name="kdenlive:timeline_active">1</property>
  <property name="kdenlive:collapsed">0</property>
  <property name="kdenlive:thumbs_format"/>
  <property name="kdenlive:audio_rec"/>
  <track hide="audio" producer="playlist24"/>
  <track hide="audio" producer="playlist25"/>
 </tractor>
 <playlist id="playlist26">
  <entry in="00:00:00.000" out="00:00:04.967" producer="producer5">
   <property name="kdenlive:id">8</property>
  </entry>
  <entry in="00:00:00.000" out="00:00:09.967" producer="producer9">
   <property name="kdenlive:id">12</property>
  </entry>
  <entry in="00:00:00.000" out="00:00:14.967" producer="producer10">
   <property name="kdenlive:id">15</property>
  </entry>
  <entry in="00:00:00.000" out="00:00:29.933" producer="producer26">
   <property name="kdenlive:id">27</property>
  </entry>
  <entry in="00:00:00.000" out="00:00:36.867" producer="producer32">
   <property name="kdenlive:id">35</property>
  </entry>
  <entry in="00:00:00.000" out="00:00:08.433" producer="producer45">
   <property name="kdenlive:id">43</property>
  </entry>
  <blank length="00:00:00.033"/>
  <entry in="00:00:00.000" out="00:00:25.767" producer="producer46">
   <property name="kdenlive:id">48</property>
  </entry>
  <entry in="00:00:00.000" out="00:00:25.933" producer="producer47">
   <property name="kdenlive:id">61</property>
  </entry>
  <entry in="00:00:00.000" out="00:00:26.167" producer="producer78">
   <property name="kdenlive:id">74</property>
  </entry>
  <entry in="00:00:00.000" out="00:00:36.633" producer="producer79">
   <property name="kdenlive:id">85</property>
  </entry>
  <entry in="00:00:00.000" out="00:05:57.133" producer="producer80">
   <property name="kdenlive:id">105</property>
  </entry>
 </playlist>
 <playlist id="playlist27"/>
 <tractor id="tractor13" in="00:00:00.000" out="00:09:37.133">
  <property name="kdenlive:trackheight">75</property>
  <property name="kdenlive:timeline_active">1</property>
  <property name="kdenlive:collapsed">0</property>
  <property name="kdenlive:thumbs_format"/>
  <property name="kdenlive:audio_rec"/>
  <track hide="audio" producer="playlist26"/>
  <track hide="audio" producer="playlist27"/>
 </tractor>
 <playlist id="playlist28">
  <entry in="00:00:00.000" out="00:00:04.967" producer="producer6">
   <property name="kdenlive:id">9</property>
   <filter id="filter192">
    <property name="rotate_center">1</property>
    <property name="mlt_service">qtblend</property>
    <property name="kdenlive_id">qtblend</property>
    <property name="compositing">0</property>
    <property name="distort">0</property>
    <property name="rect">00:00:00.000=0 0 4096 2160 1.000000;00:00:00.500=0 0 4096 2160 0.000000;00:00:04.500=0 0 4096 2160 0.000000;00:00:04.967=0 0 4096 2160 1.000000</property>
    <property name="rotation">00:00:00.000=0;00:00:00.500=0;00:00:04.500=0;00:00:04.967=0</property>
    <property name="kdenlive:collapsed">0</property>
   </filter>
  </entry>
  <entry in="00:00:00.000" out="00:00:09.967" producer="producer11">
   <property name="kdenlive:id">13</property>
   <filter id="filter193">
    <property name="rotate_center">1</property>
    <property name="mlt_service">qtblend</property>
    <property name="kdenlive_id">qtblend</property>
    <property name="compositing">0</property>
    <property name="distort">0</property>
    <property name="rect">00:00:00.000=0 0 4096 2160 1.000000;00:00:01.000=0 0 4096 2160 0.000000;00:00:09.000=0 0 4096 2160 0.000000;00:00:09.967=0 0 4096 2160 1.000000</property>
    <property name="rotation">00:00:00.000=0;00:00:01.000=0;00:00:09.000=0;00:00:09.967=0</property>
    <property name="kdenlive:collapsed">0</property>
   </filter>
  </entry>
  <entry in="00:00:00.000" out="00:00:14.967" producer="producer27">
   <property name="kdenlive:id">26</property>
   <filter id="filter194">
    <property name="rotate_center">1</property>
    <property name="mlt_service">qtblend</property>
    <property name="kdenlive_id">qtblend</property>
    <property name="compositing">0</property>
    <property name="distort">0</property>
    <property name="rect">00:00:00.000=0 0 4096 2160 1.000000;00:00:01.000=0 0 4096 2160 0.000000;00:00:14.000=0 0 4096 2160 0.000000;00:00:14.967=0 0 4096 2160 1.000000</property>
    <property name="rotation">00:00:00.000=0;00:00:01.000=0;00:00:14.000=0;00:00:14.967=0</property>
    <property name="kdenlive:collapsed">0</property>
   </filter>
  </entry>
  <entry in="00:00:00.000" out="00:00:29.933" producer="producer28">
   <property name="kdenlive:id">30</property>
   <filter id="filter195">
    <property name="rotate_center">1</property>
    <property name="mlt_service">qtblend</property>
    <property name="kdenlive_id">qtblend</property>
    <property name="compositing">0</property>
    <property name="distort">0</property>
    <property name="rect">00:00:00.000=0 0 4096 2160 1.000000;00:00:01.000=0 0 4096 2160 0.000000;00:00:28.933=0 0 4096 2160 0.000000;00:00:29.933=0 0 4096 2160 1.000000</property>
    <property name="rotation">00:00:00.000=0;00:00:01.000=0;00:00:28.933=0;00:00:29.933=0</property>
    <property name="kdenlive:collapsed">0</property>
   </filter>
  </entry>
  <entry in="00:00:00.000" out="00:00:36.867" producer="producer33">
   <property name="kdenlive:id">36</property>
   <filter id="filter196">
    <property name="rotate_center">1</property>
    <property name="mlt_service">qtblend</property>
    <property name="kdenlive_id">qtblend</property>
    <property name="compositing">0</property>
    <property name="distort">0</property>
    <property name="rect">00:00:00.000=0 0 4096 2160 1.000000;00:00:01.000=0 0 4096 2160 0.000000;00:00:35.867=0 0 4096 2160 0.000000;00:00:36.867=0 0 4096 2160 1.000000</property>
    <property name="rotation">00:00:00.000=0;00:00:01.000=0;00:00:35.867=0;00:00:36.867=0</property>
    <property name="kdenlive:collapsed">0</property>
   </filter>
  </entry>
  <entry in="00:00:00.000" out="00:00:08.467" producer="producer48">
   <property name="kdenlive:id">44</property>
   <filter id="filter197">
    <property name="rotate_center">1</property>
    <property name="mlt_service">qtblend</property>
    <property name="kdenlive_id">qtblend</property>
    <property name="compositing">0</property>
    <property name="distort">0</property>
    <property name="rect">00:00:00.000=0 0 4096 2160 1.000000;00:00:01.000=0 0 4096 2160 0.000000;00:00:07.467=0 0 4096 2160 0.000000;00:00:08.467=0 0 4096 2160 1.000000</property>
    <property name="rotation">00:00:00.000=0;00:00:01.000=0;00:00:07.467=0;00:00:08.467=0</property>
    <property name="kdenlive:collapsed">0</property>
   </filter>
  </entry>
  <entry in="00:00:00.000" out="00:00:25.767" producer="producer49">
   <property name="kdenlive:id">49</property>
   <filter id="filter198">
    <property name="rotate_center">1</property>
    <property name="mlt_service">qtblend</property>
    <property name="kdenlive_id">qtblend</property>
    <property name="compositing">0</property>
    <property name="distort">0</property>
    <property name="rect">00:00:00.000=0 0 4096 2160 1.000000;00:00:01.000=0 0 4096 2160 0.000000;00:00:24.767=0 0 4096 2160 0.000000;00:00:25.767=0 0 4096 2160 1.000000</property>
    <property name="rotation">00:00:00.000=0;00:00:01.000=0;00:00:24.767=0;00:00:25.767=0</property>
    <property name="kdenlive:collapsed">0</property>
   </filter>
  </entry>
  <entry in="00:00:00.000" out="00:00:25.933" producer="producer50">
   <property name="kdenlive:id">62</property>
   <filter id="filter199">
    <property name="rotate_center">1</property>
    <property name="mlt_service">qtblend</property>
    <property name="kdenlive_id">qtblend</property>
    <property name="compositing">0</property>
    <property name="distort">0</property>
    <property name="rect">00:00:00.000=0 0 4096 2160 1.000000;00:00:01.000=0 0 4096 2160 0.000000;00:00:24.933=0 0 4096 2160 0.000000;00:00:25.933=0 0 4096 2160 1.000000</property>
    <property name="rotation">00:00:00.000=0;00:00:01.000=0;00:00:24.933=0;00:00:25.933=0</property>
    <property name="kdenlive:collapsed">0</property>
   </filter>
  </entry>
  <entry in="00:00:00.000" out="00:00:26.167" producer="producer81">
   <property name="kdenlive:id">75</property>
   <filter id="filter200">
    <property name="rotate_center">1</property>
    <property name="mlt_service">qtblend</property>
    <property name="kdenlive_id">qtblend</property>
    <property name="compositing">0</property>
    <property name="distort">0</property>
    <property name="rect">00:00:00.000=0 0 4096 2160 1.000000;00:00:01.000=0 0 4096 2160 0.000000;00:00:25.167=0 0 4096 2160 0.000000;00:00:26.167=0 0 4096 2160 1.000000</property>
    <property name="rotation">00:00:00.000=0;00:00:01.000=0;00:00:25.167=0;00:00:26.167=0</property>
    <property name="kdenlive:collapsed">0</property>
   </filter>
  </entry>
  <entry in="00:00:00.000" out="00:00:36.633" producer="producer82">
   <property name="kdenlive:id">86</property>
   <filter id="filter201">
    <property name="rotate_center">1</property>
    <property name="mlt_service">qtblend</property>
    <property name="kdenlive_id">qtblend</property>
    <property name="compositing">0</property>
    <property name="distort">0</property>
    <property name="rect">00:00:00.000=0 0 4096 2160 1.000000;00:00:01.000=0 0 4096 2160 0.000000;00:00:35.633=0 0 4096 2160 0.000000;00:00:36.633=0 0 4096 2160 1.000000</property>
    <property name="rotation">00:00:00.000=0;00:00:01.000=0;00:00:35.633=0;00:00:36.633=0</property>
    <property name="kdenlive:collapsed">0</property>
   </filter>
  </entry>
  <entry in="00:00:00.000" out="00:06:55.267" producer="producer83">
   <property name="kdenlive:id">106</property>
   <filter id="filter202">
    <property name="rotate_center">1</property>
    <property name="mlt_service">qtblend</property>
    <property name="kdenlive_id">qtblend</property>
    <property name="compositing">0</property>
    <property name="distort">0</property>
    <property name="rect">00:00:00.000=0 0 4096 2160 1.000000;00:00:01.000=0 0 4096 2160 0.000000;00:06:54.267=0 0 4096 2160 0.000000;00:06:55.267=0 0 4096 2160 1.000000</property>
    <property name="rotation">00:00:00.000=0;00:00:01.000=0;00:06:54.267=0;00:06:55.267=0</property>
    <property name="kdenlive:collapsed">0</property>
   </filter>
  </entry>
 </playlist>
 <playlist id="playlist29"/>
 <tractor id="tractor14" in="00:00:00.000" out="00:10:35.267">
  <property name="kdenlive:trackheight">75</property>
  <property name="kdenlive:timeline_active">1</property>
  <property name="kdenlive:collapsed">0</property>
  <property name="kdenlive:thumbs_format"/>
  <property name="kdenlive:audio_rec"/>
  <track hide="audio" producer="playlist28"/>
  <track hide="audio" producer="playlist29"/>
 </tractor>
 <tractor id="tractor15" in="00:00:00.000" out="00:10:35.267">
  <property name="kdenlive:duration">00:10:35.300</property>
  <property name="kdenlive:maxduration">19059</property>
  <property name="kdenlive:clipname">Sequence 1</property>
  <property name="kdenlive:description"/>
  <property name="kdenlive:uuid">{ef5bd0fb-d293-4a83-a997-eea662af5c75}</property>
  <property name="kdenlive:producer_type">17</property>
  <property name="kdenlive:control_uuid">{ef5bd0fb-d293-4a83-a997-eea662af5c75}</property>
  <property name="kdenlive:id">3</property>
  <property name="kdenlive:clip_type">0</property>
  <property name="kdenlive:file_hash">e4b3488bb43d08483eb18550c01ba888</property>
  <property name="kdenlive:folderid">2</property>
  <property name="kdenlive:sequenceproperties.activeTrack">8</property>
  <property name="kdenlive:sequenceproperties.audioTarget">1</property>
  <property name="kdenlive:sequenceproperties.disablepreview">0</property>
  <property name="kdenlive:sequenceproperties.documentuuid">{ef5bd0fb-d293-4a83-a997-eea662af5c75}</property>
  <property name="kdenlive:sequenceproperties.hasAudio">1</property>
  <property name="kdenlive:sequenceproperties.hasVideo">1</property>
  <property name="kdenlive:sequenceproperties.lastUsedFrame">0</property>
  <property name="kdenlive:sequenceproperties.position">17167</property>
  <property name="kdenlive:sequenceproperties.scrollPos">5091</property>
  <property name="kdenlive:sequenceproperties.tracks">4</property>
  <property name="kdenlive:sequenceproperties.tracksCount">15</property>
  <property name="kdenlive:sequenceproperties.verticalzoom">1</property>
  <property name="kdenlive:sequenceproperties.videoTarget">2</property>
  <property name="kdenlive:sequenceproperties.zonein">21912</property>
  <property name="kdenlive:sequenceproperties.zoneout">24322</property>
  <property name="kdenlive:sequenceproperties.zoom">10</property>
  <property name="kdenlive:sequenceproperties.groups">[
    {
        "children": [
            {
                "data": "8:11317:-1",
                "leaf": "clip",
                "type": "Leaf"
            },
            {
                "data": "8:11117:-1",
                "leaf": "clip",
                "type": "Leaf"
            },
            {
                "data": "8:10492:-1",
                "leaf": "clip",
                "type": "Leaf"
            },
            {
                "data": "8:10402:-1",
                "leaf": "clip",
                "type": "Leaf"
            }
        ],
        "type": "Normal"
    }
]
</property>
  <property name="kdenlive:sequenceproperties.guides">[
]
</property>
  <track producer="producer0"/>
  <track producer="tractor0"/>
  <track producer="tractor1"/>
  <track producer="tractor2"/>
  <track producer="tractor3"/>
  <track producer="tractor4"/>
  <track producer="tractor5"/>
  <track producer="tractor6"/>
  <track producer="tractor7"/>
  <track producer="tractor8"/>
  <track producer="tractor9"/>
  <track producer="tractor10"/>
  <track producer="tractor11"/>
  <track producer="tractor12"/>
  <track producer="tractor13"/>
  <track producer="tractor14"/>
  <transition id="transition0">
   <property name="a_track">0</property>
   <property name="b_track">1</property>
   <property name="mlt_service">mix</property>
   <property name="kdenlive_id">mix</property>
   <property name="internal_added">237</property>
   <property name="always_active">1</property>
   <property name="accepts_blanks">1</property>
   <property name="sum">1</property>
  </transition>
  <transition id="transition1">
   <property name="a_track">0</property>
   <property name="b_track">2</property>
   <property name="mlt_service">mix</property>
   <property name="kdenlive_id">mix</property>
   <property name="internal_added">237</property>
   <property name="always_active">1</property>
   <property name="accepts_blanks">1</property>
   <property name="sum">1</property>
  </transition>
  <transition id="transition2">
   <property name="a_track">0</property>
   <property name="b_track">3</property>
   <property name="compositing">0</property>
   <property name="distort">0</property>
   <property name="rotate_center">0</property>
   <property name="mlt_service">qtblend</property>
   <property name="kdenlive_id">qtblend</property>
   <property name="internal_added">237</property>
   <property name="always_active">1</property>
  </transition>
  <transition id="transition3">
   <property name="a_track">0</property>
   <property name="b_track">4</property>
   <property name="compositing">0</property>
   <property name="distort">0</property>
   <property name="rotate_center">0</property>
   <property name="mlt_service">qtblend</property>
   <property name="kdenlive_id">qtblend</property>
   <property name="internal_added">237</property>
   <property name="always_active">1</property>
  </transition>
  <transition id="transition4">
   <property name="a_track">0</property>
   <property name="b_track">5</property>
   <property name="compositing">0</property>
   <property name="distort">0</property>
   <property name="rotate_center">0</property>
   <property name="mlt_service">qtblend</property>
   <property name="kdenlive_id">qtblend</property>
   <property name="internal_added">237</property>
   <property name="always_active">1</property>
  </transition>
  <transition id="transition5">
   <property name="a_track">0</property>
   <property name="b_track">6</property>
   <property name="compositing">0</property>
   <property name="distort">0</property>
   <property name="rotate_center">0</property>
   <property name="mlt_service">qtblend</property>
   <property name="kdenlive_id">qtblend</property>
   <property name="internal_added">237</property>
   <property name="always_active">1</property>
  </transition>
  <transition id="transition6">
   <property name="a_track">0</property>
   <property name="b_track">7</property>
   <property name="compositing">0</property>
   <property name="distort">0</property>
   <property name="rotate_center">0</property>
   <property name="mlt_service">qtblend</property>
   <property name="kdenlive_id">qtblend</property>
   <property name="internal_added">237</property>
   <property name="always_active">1</property>
  </transition>
  <transition id="transition7">
   <property name="a_track">0</property>
   <property name="b_track">8</property>
   <property name="compositing">0</property>
   <property name="distort">0</property>
   <property name="rotate_center">0</property>
   <property name="mlt_service">qtblend</property>
   <property name="kdenlive_id">qtblend</property>
   <property name="internal_added">237</property>
   <property name="always_active">1</property>
  </transition>
  <transition id="transition8">
   <property name="a_track">0</property>
   <property name="b_track">9</property>
   <property name="compositing">0</property>
   <property name="distort">0</property>
   <property name="rotate_center">0</property>
   <property name="mlt_service">qtblend</property>
   <property name="kdenlive_id">qtblend</property>
   <property name="internal_added">237</property>
   <property name="always_active">1</property>
  </transition>
  <transition id="transition9">
   <property name="a_track">0</property>
   <property name="b_track">10</property>
   <property name="compositing">0</property>
   <property name="distort">0</property>
   <property name="rotate_center">0</property>
   <property name="mlt_service">qtblend</property>
   <property name="kdenlive_id">qtblend</property>
   <property name="internal_added">237</property>
   <property name="always_active">1</property>
  </transition>
  <transition id="transition10">
   <property name="a_track">0</property>
   <property name="b_track">11</property>
   <property name="compositing">0</property>
   <property name="distort">0</property>
   <property name="rotate_center">0</property>
   <property name="mlt_service">qtblend</property>
   <property name="kdenlive_id">qtblend</property>
   <property name="internal_added">237</property>
   <property name="always_active">1</property>
  </transition>
  <transition id="transition11">
   <property name="a_track">0</property>
   <property name="b_track">12</property>
   <property name="compositing">0</property>
   <property name="distort">0</property>
   <property name="rotate_center">0</property>
   <property name="mlt_service">qtblend</property>
   <property name="kdenlive_id">qtblend</property>
   <property name="internal_added">237</property>
   <property name="always_active">1</property>
  </transition>
  <transition id="transition12">
   <property name="a_track">0</property>
   <property name="b_track">13</property>
   <property name="compositing">0</property>
   <property name="distort">0</property>
   <property name="rotate_center">0</property>
   <property name="mlt_service">qtblend</property>
   <property name="kdenlive_id">qtblend</property>
   <property name="internal_added">237</property>
   <property name="always_active">1</property>
  </transition>
  <transition id="transition13">
   <property name="a_track">0</property>
   <property name="b_track">14</property>
   <property name="compositing">0</property>
   <property name="distort">0</property>
   <property name="rotate_center">0</property>
   <property name="mlt_service">qtblend</property>
   <property name="kdenlive_id">qtblend</property>
   <property name="internal_added">237</property>
   <property name="always_active">1</property>
  </transition>
  <transition id="transition14">
   <property name="a_track">0</property>
   <property name="b_track">15</property>
   <property name="compositing">0</property>
   <property name="distort">0</property>
   <property name="rotate_center">0</property>
   <property name="mlt_service">qtblend</property>
   <property name="kdenlive_id">qtblend</property>
   <property name="internal_added">237</property>
   <property name="always_active">1</property>
  </transition>
  <filter id="filter203">
   <property name="window">75</property>
   <property name="max_gain">20dB</property>
   <property name="mlt_service">volume</property>
   <property name="internal_added">237</property>
   <property name="disable">1</property>
  </filter>
  <filter id="filter204">
   <property name="channel">-1</property>
   <property name="mlt_service">panner</property>
   <property name="internal_added">237</property>
   <property name="start">0.5</property>
   <property name="disable">1</property>
  </filter>
 </tractor>
 <chain id="chain61" out="00:01:40.733">
  <property name="length">3023</property>
  <property name="eof">pause</property>
  <property name="resource">media/videos/04 - gombi build - update install kits.mkv</property>
  <property name="mlt_service">avformat-novalidate</property>
  <property name="meta.media.nb_streams">2</property>
  <property name="meta.media.0.stream.type">video</property>
  <property name="meta.media.0.stream.frame_rate">50</property>
  <property name="meta.media.0.stream.sample_aspect_ratio">0</property>
  <property name="meta.media.0.codec.width">3840</property>
  <property name="meta.media.0.codec.height">2400</property>
  <property name="meta.media.0.codec.rotate">0</property>
  <property name="meta.media.0.codec.pix_fmt">yuv420p</property>
  <property name="meta.media.0.codec.sample_aspect_ratio">0</property>
  <property name="meta.media.0.codec.colorspace">709</property>
  <property name="meta.media.0.codec.color_trc">1</property>
  <property name="meta.media.0.codec.name">h264</property>
  <property name="meta.media.0.codec.long_name">H.264 / AVC / MPEG-4 AVC / MPEG-4 part 10</property>
  <property name="meta.media.0.codec.bit_rate">0</property>
  <property name="meta.attr.0.stream.DURATION.markup">00:01:40.740000000</property>
  <property name="meta.media.1.stream.type">audio</property>
  <property name="meta.media.1.codec.sample_fmt">fltp</property>
  <property name="meta.media.1.codec.sample_rate">44100</property>
  <property name="meta.media.1.codec.channels">1</property>
  <property name="meta.media.1.codec.layout">mono</property>
  <property name="meta.media.1.codec.name">aac</property>
  <property name="meta.media.1.codec.long_name">AAC (Advanced Audio Coding)</property>
  <property name="meta.media.1.codec.bit_rate">0</property>
  <property name="meta.attr.1.stream.title.markup">Track1</property>
  <property name="meta.attr.1.stream.DURATION.markup">00:01:40.751000000</property>
  <property name="meta.attr.ENCODER.markup">Lavf60.16.100</property>
  <property name="seekable">1</property>
  <property name="meta.media.sample_aspect_num">1</property>
  <property name="meta.media.sample_aspect_den">1</property>
  <property name="format">3</property>
  <property name="audio_index">1</property>
  <property name="video_index">0</property>
  <property name="vstream">0</property>
  <property name="meta.media.frame_rate_num">50</property>
  <property name="meta.media.frame_rate_den">1</property>
  <property name="meta.media.colorspace">709</property>
  <property name="meta.media.color_trc">1</property>
  <property name="meta.media.has_b_frames">0</property>
  <property name="meta.media.width">3840</property>
  <property name="meta.media.height">2400</property>
  <property name="meta.media.aspect_ratio">1</property>
  <property name="meta.media.color_range">mpeg</property>
  <property name="astream">0</property>
  <property name="meta.media.top_field_first">0</property>
  <property name="meta.media.progressive">1</property>
  <property name="kdenlive:folderid">-1</property>
  <property name="kdenlive:id">129</property>
  <property name="kdenlive:control_uuid">{15f8dcc1-dc96-4d1b-a8b0-df0a91c4bdbd}</property>
  <property name="mute_on_pause">0</property>
  <property name="kdenlive:clip_type">0</property>
  <property name="kdenlive:file_size">31572086</property>
  <property name="kdenlive:file_hash">0c16689404da63521f6f9b7add31c1fb</property>
  <property name="kdenlive:audio_max1">1</property>
  <property name="kdenlive:clipname">Video - gombi build - 04 update install kits</property>
  <property name="kdenlive:monitorPosition">0</property>
 </chain>
 <chain id="chain62" out="00:03:03.400">
  <property name="length">5503</property>
  <property name="eof">pause</property>
  <property name="resource">media/videos/05 - gombi build - docker build.mkv</property>
  <property name="mlt_service">avformat-novalidate</property>
  <property name="meta.media.nb_streams">2</property>
  <property name="meta.media.0.stream.type">video</property>
  <property name="meta.media.0.stream.frame_rate">50</property>
  <property name="meta.media.0.stream.sample_aspect_ratio">0</property>
  <property name="meta.media.0.codec.width">3840</property>
  <property name="meta.media.0.codec.height">2400</property>
  <property name="meta.media.0.codec.rotate">0</property>
  <property name="meta.media.0.codec.pix_fmt">yuv420p</property>
  <property name="meta.media.0.codec.sample_aspect_ratio">0</property>
  <property name="meta.media.0.codec.colorspace">709</property>
  <property name="meta.media.0.codec.color_trc">1</property>
  <property name="meta.media.0.codec.name">h264</property>
  <property name="meta.media.0.codec.long_name">H.264 / AVC / MPEG-4 AVC / MPEG-4 part 10</property>
  <property name="meta.media.0.codec.bit_rate">0</property>
  <property name="meta.attr.0.stream.DURATION.markup">00:03:03.440000000</property>
  <property name="meta.media.1.stream.type">audio</property>
  <property name="meta.media.1.codec.sample_fmt">fltp</property>
  <property name="meta.media.1.codec.sample_rate">44100</property>
  <property name="meta.media.1.codec.channels">1</property>
  <property name="meta.media.1.codec.layout">mono</property>
  <property name="meta.media.1.codec.name">aac</property>
  <property name="meta.media.1.codec.long_name">AAC (Advanced Audio Coding)</property>
  <property name="meta.media.1.codec.bit_rate">0</property>
  <property name="meta.attr.1.stream.title.markup">Track1</property>
  <property name="meta.attr.1.stream.DURATION.markup">00:03:03.437000000</property>
  <property name="meta.attr.ENCODER.markup">Lavf60.16.100</property>
  <property name="seekable">1</property>
  <property name="meta.media.sample_aspect_num">1</property>
  <property name="meta.media.sample_aspect_den">1</property>
  <property name="format">3</property>
  <property name="audio_index">1</property>
  <property name="video_index">0</property>
  <property name="vstream">0</property>
  <property name="meta.media.frame_rate_num">50</property>
  <property name="meta.media.frame_rate_den">1</property>
  <property name="meta.media.colorspace">709</property>
  <property name="meta.media.color_trc">1</property>
  <property name="meta.media.has_b_frames">0</property>
  <property name="meta.media.width">3840</property>
  <property name="meta.media.height">2400</property>
  <property name="meta.media.aspect_ratio">1</property>
  <property name="meta.media.color_range">mpeg</property>
  <property name="astream">0</property>
  <property name="meta.media.top_field_first">0</property>
  <property name="meta.media.progressive">1</property>
  <property name="kdenlive:folderid">-1</property>
  <property name="kdenlive:id">130</property>
  <property name="kdenlive:control_uuid">{5c6b7f5b-c987-4107-b7fd-4bc8469e4e43}</property>
  <property name="mute_on_pause">0</property>
  <property name="kdenlive:clip_type">0</property>
  <property name="kdenlive:file_size">57561732</property>
  <property name="kdenlive:file_hash">2233ae2ef8ca04f0621fd87f5c9231d2</property>
  <property name="kdenlive:audio_max1">1</property>
  <property name="kdenlive:clipname">Video - gombi build - 05 docker build</property>
  <property name="kdenlive:monitorPosition">0</property>
 </chain>
 <playlist id="main_bin">
  <property name="kdenlive:folder.-1.2">Sequences</property>
  <property name="kdenlive:sequenceFolder">2</property>
  <property name="kdenlive:docproperties.activetimeline">{ef5bd0fb-d293-4a83-a997-eea662af5c75}</property>
  <property name="kdenlive:docproperties.audioChannels">2</property>
  <property name="kdenlive:docproperties.binsort">0</property>
  <property name="kdenlive:docproperties.browserurl">/home/soma/Applications/</property>
  <property name="kdenlive:docproperties.documentid">1740160896789</property>
  <property name="kdenlive:docproperties.enableTimelineZone">0</property>
  <property name="kdenlive:docproperties.enableexternalproxy">0</property>
  <property name="kdenlive:docproperties.enableproxy">0</property>
  <property name="kdenlive:docproperties.externalproxyparams"/>
  <property name="kdenlive:docproperties.generateimageproxy">0</property>
  <property name="kdenlive:docproperties.generateproxy">0</property>
  <property name="kdenlive:docproperties.guidesCategories">[
    {
        "color": "#9b59b6",
        "comment": "Category 1",
        "index": 0
    },
    {
        "color": "#3daee9",
        "comment": "Category 2",
        "index": 1
    },
    {
        "color": "#1abc9c",
        "comment": "Category 3",
        "index": 2
    },
    {
        "color": "#1cdc9a",
        "comment": "Category 4",
        "index": 3
    },
    {
        "color": "#c9ce3b",
        "comment": "Category 5",
        "index": 4
    },
    {
        "color": "#fdbc4b",
        "comment": "Category 6",
        "index": 5
    },
    {
        "color": "#f39c1f",
        "comment": "Category 7",
        "index": 6
    },
    {
        "color": "#f47750",
        "comment": "Category 8",
        "index": 7
    },
    {
        "color": "#da4453",
        "comment": "Category 9",
        "index": 8
    }
]
</property>
  <property name="kdenlive:docproperties.kdenliveversion">24.12.2</property>
  <property name="kdenlive:docproperties.opensequences">{ef5bd0fb-d293-4a83-a997-eea662af5c75}</property>
  <property name="kdenlive:docproperties.previewextension"/>
  <property name="kdenlive:docproperties.previewparameters"/>
  <property name="kdenlive:docproperties.profile">/tmp/.mount_kdenlivehMB9/usr/share/kdenlive/profiles/dci_2160p_30</property>
  <property name="kdenlive:docproperties.proxyextension"/>
  <property name="kdenlive:docproperties.proxyimageminsize">2000</property>
  <property name="kdenlive:docproperties.proxyimagesize">800</property>
  <property name="kdenlive:docproperties.proxyminsize">1000</property>
  <property name="kdenlive:docproperties.proxyparams"/>
  <property name="kdenlive:docproperties.proxyresize">640</property>
  <property name="kdenlive:docproperties.rendercategory">Generic (HD for web, mobile devices...)</property>
  <property name="kdenlive:docproperties.rendercustomquality">-1</property>
  <property name="kdenlive:docproperties.renderendguide">-1</property>
  <property name="kdenlive:docproperties.renderexportaudio">0</property>
  <property name="kdenlive:docproperties.renderfullcolorrange">0</property>
  <property name="kdenlive:docproperties.rendermode">0</property>
  <property name="kdenlive:docproperties.renderplay">0</property>
  <property name="kdenlive:docproperties.renderpreview">0</property>
  <property name="kdenlive:docproperties.renderprofile">MP4-H264/AAC</property>
  <property name="kdenlive:docproperties.renderrescale">0</property>
  <property name="kdenlive:docproperties.renderrescaleheight">1080</property>
  <property name="kdenlive:docproperties.renderrescalewidth">2048</property>
  <property name="kdenlive:docproperties.renderspeed">6</property>
  <property name="kdenlive:docproperties.renderstartguide">-1</property>
  <property name="kdenlive:docproperties.rendertcoverlay">0</property>
  <property name="kdenlive:docproperties.rendertctype">-1</property>
  <property name="kdenlive:docproperties.rendertwopass">0</property>
  <property name="kdenlive:docproperties.renderurl">remal-gombi-0.5.0.mp4</property>
  <property name="kdenlive:docproperties.seekOffset">7500</property>
  <property name="kdenlive:docproperties.sessionid">{dfbf0e16-bef0-4cd1-b54e-f4367876c252}</property>
  <property name="kdenlive:docproperties.uuid">{ef5bd0fb-d293-4a83-a997-eea662af5c75}</property>
  <property name="kdenlive:docproperties.version">1.1</property>
  <property name="kdenlive:docmetadata.meta.attr.author.markup">arnold.somogyi@gmail.com</property>
  <property name="kdenlive:docmetadata.meta.attr.copyright.markup">Remal Software</property>
  <property name="kdenlive:docmetadata.meta.attr.title.markup">Remal Gombi Platform</property>
  <property name="kdenlive:docmetadata.meta.attr.year.markup">2025</property>
  <property name="kdenlive:expandedFolders"/>
  <property name="kdenlive:binZoom">4</property>
  <property name="kdenlive:extraBins">project_bin:-1:0</property>
  <property name="kdenlive:documentnotes"/>
  <property name="kdenlive:documentnotesversion">2</property>
  <property name="xml_retain">1</property>
  <entry in="00:00:00.000" out="00:08:19.500" producer="producer3"/>
  <entry in="00:00:00.000" out="00:00:18.733" producer="producer4"/>
  <entry in="00:00:00.000" out="00:00:21.233" producer="producer1"/>
  <entry in="00:00:00.000" out="00:00:35.267" producer="producer2"/>
  <entry in="00:00:00.000" out="00:00:04.967" producer="producer5"/>
  <entry in="00:00:00.000" out="00:00:04.967" producer="producer6"/>
  <entry in="00:00:00.000" out="00:00:20.400" producer="producer8"/>
  <entry in="00:00:00.000" out="00:00:09.967" producer="producer7"/>
  <entry in="00:00:00.000" out="00:00:09.967" producer="producer9"/>
  <entry in="00:00:00.000" out="00:00:12.133" producer="producer11"/>
  <entry in="00:00:00.000" out="00:00:20.400" producer="producer12"/>
  <entry in="00:00:00.000" out="00:00:25.533" producer="producer10"/>
  <entry in="00:00:00.000" out="00:00:13.600" producer="producer16"/>
  <entry in="00:00:00.000" out="00:00:18.433" producer="producer15"/>
  <entry in="00:00:00.000" out="00:00:19.067" producer="producer14"/>
  <entry in="00:00:00.000" out="00:00:18.067" producer="producer13"/>
  <entry in="00:00:00.000" out="00:00:00.600" producer="chain1"/>
  <entry in="00:00:00.000" out="00:00:18.433" producer="producer20"/>
  <entry in="00:00:00.000" out="00:00:18.433" producer="producer19"/>
  <entry in="00:00:00.000" out="00:00:18.067" producer="producer18"/>
  <entry in="00:00:00.000" out="00:00:18.067" producer="producer17"/>
  <entry in="00:00:00.000" out="00:08:25.267" producer="producer21"/>
  <entry in="00:00:00.000" out="00:00:19.033" producer="producer27"/>
  <entry in="00:00:00.000" out="00:00:29.933" producer="producer26"/>
  <entry in="00:00:00.000" out="00:00:29.933" producer="producer25"/>
  <entry in="00:00:00.000" out="00:00:31.167" producer="producer24"/>
  <entry in="00:00:00.000" out="00:00:29.933" producer="producer28"/>
  <entry in="00:00:00.000" out="00:03:41.867" producer="producer22"/>
  <entry in="00:00:00.000" out="00:00:21.400" producer="producer23"/>
  <entry in="00:00:00.000" out="00:00:16.167" producer="chain5"/>
  <entry in="00:00:00.000" out="00:00:24.533" producer="chain6"/>
  <entry in="00:00:00.000" out="00:00:36.867" producer="producer32"/>
  <entry in="00:00:00.000" out="00:00:36.867" producer="producer33"/>
  <entry in="00:00:00.000" out="00:00:36.867" producer="producer31"/>
  <entry in="00:00:00.000" out="00:00:36.867" producer="producer30"/>
  <entry in="00:00:00.000" out="00:00:31.167" producer="producer29"/>
  <entry in="00:00:00.000" out="00:04:30.533" producer="chain7"/>
  <entry in="00:00:00.000" out="00:00:21.500" producer="chain17"/>
  <entry in="00:00:00.000" out="00:00:28.167" producer="chain18"/>
  <entry in="00:00:00.000" out="00:00:37.567" producer="producer45"/>
  <entry in="00:00:00.000" out="00:00:41.767" producer="producer48"/>
  <entry in="00:00:00.000" out="00:00:37.100" producer="producer42"/>
  <entry in="00:00:00.000" out="00:00:36.867" producer="producer39"/>
  <entry in="00:00:00.000" out="00:00:12.167" producer="chain19"/>
  <entry in="00:00:00.000" out="00:00:37.567" producer="producer46"/>
  <entry in="00:00:00.000" out="00:00:41.767" producer="producer49"/>
  <entry in="00:00:00.000" out="00:00:37.100" producer="producer43"/>
  <entry in="00:00:00.000" out="00:00:36.867" producer="producer40"/>
  <entry in="00:00:00.000" out="00:00:36.867" producer="producer37"/>
  <entry in="00:00:00.000" out="00:00:36.867" producer="producer36"/>
  <entry in="00:00:00.000" out="00:00:36.867" producer="producer35"/>
  <entry in="00:00:00.000" out="00:00:36.867" producer="producer34"/>
  <entry in="00:00:00.000" out="00:00:09.400" producer="chain20"/>
  <entry in="00:00:00.000" out="00:00:09.800" producer="chain21"/>
  <entry in="00:00:00.000" out="00:00:08.233" producer="chain22"/>
  <entry in="00:00:00.000" out="00:00:04.500" producer="chain23"/>
  <entry in="00:00:00.000" out="00:00:07.667" producer="chain24"/>
  <entry in="00:00:00.000" out="00:00:37.567" producer="producer47"/>
  <entry in="00:00:00.000" out="00:00:41.767" producer="producer50"/>
  <entry in="00:00:00.000" out="00:00:37.100" producer="producer44"/>
  <entry in="00:00:00.000" out="00:00:36.867" producer="producer41"/>
  <entry in="00:00:00.000" out="00:00:04.500" producer="chain25"/>
  <entry in="00:00:00.000" out="00:00:36.867" producer="producer38"/>
  <entry in="00:00:00.000" out="00:00:10.633" producer="chain42"/>
  <entry in="00:00:00.000" out="00:00:36.867" producer="producer53"/>
  <entry in="00:00:00.000" out="00:00:10.433" producer="chain31"/>
  <entry in="00:00:00.000" out="00:00:36.867" producer="producer52"/>
  <entry in="00:00:00.000" out="00:00:10.333" producer="chain32"/>
  <entry in="00:00:00.000" out="00:00:36.867" producer="producer51"/>
  <entry in="00:00:00.000" out="00:00:06.367" producer="chain33"/>
  <entry in="00:00:00.000" out="00:00:37.567" producer="producer78"/>
  <entry in="00:00:00.000" out="00:00:41.767" producer="producer81"/>
  <entry in="00:00:00.000" out="00:00:37.100" producer="producer75"/>
  <entry in="00:00:00.000" out="00:00:36.867" producer="producer73"/>
  <entry in="00:00:00.000" out="00:00:36.867" producer="producer68"/>
  <entry in="00:00:00.000" out="00:00:14.200" producer="chain38"/>
  <entry in="00:00:00.000" out="00:00:36.867" producer="producer63"/>
  <entry in="00:00:00.000" out="00:00:12.167" producer="chain39"/>
  <entry in="00:00:00.000" out="00:00:36.867" producer="producer59"/>
  <entry in="00:00:00.000" out="00:00:06.167" producer="chain40"/>
  <entry in="00:00:00.000" out="00:00:04.500" producer="chain41"/>
  <entry in="00:00:00.000" out="00:00:53.200" producer="producer79"/>
  <entry in="00:00:00.000" out="00:00:55.700" producer="producer82"/>
  <entry in="00:00:00.000" out="00:00:53.600" producer="producer76"/>
  <entry in="00:00:00.000" out="00:01:05.600" producer="producer55"/>
  <entry in="00:00:00.000" out="00:01:12.167" producer="producer84"/>
  <entry in="00:00:00.000" out="00:00:51.867" producer="producer74"/>
  <entry in="00:00:00.000" out="00:00:04.967" producer="producer64"/>
  <entry in="00:00:00.000" out="00:00:04.967" producer="producer56"/>
  <entry in="00:00:00.000" out="00:00:44.000" producer="producer69"/>
  <entry in="00:00:00.000" out="00:00:44.000" producer="producer60"/>
  <entry in="00:00:00.000" out="00:00:04.967" producer="producer65"/>
  <entry in="00:00:00.000" out="00:00:44.000" producer="producer70"/>
  <entry in="00:00:00.000" out="00:00:04.967" producer="producer57"/>
  <entry in="00:00:00.000" out="00:00:44.000" producer="producer61"/>
  <entry in="00:00:00.000" out="00:00:04.967" producer="producer66"/>
  <entry in="00:00:00.000" out="00:00:44.000" producer="producer71"/>
  <entry in="00:00:00.000" out="00:00:04.967" producer="producer58"/>
  <entry in="00:00:00.000" out="00:00:44.000" producer="producer62"/>
  <entry in="00:00:00.000" out="00:00:04.967" producer="producer67"/>
  <entry in="00:00:00.000" out="00:00:44.000" producer="producer72"/>
  <entry in="00:00:00.000" out="00:04:44.500" producer="producer80"/>
  <entry in="00:00:00.000" out="00:04:44.500" producer="producer83"/>
  <entry in="00:00:00.000" out="00:04:44.500" producer="producer77"/>
  <entry in="00:00:00.000" out="00:04:44.533" producer="producer54"/>
  <entry in="00:00:00.000" out="00:02:16.000" producer="chain43"/>
  <entry in="00:00:00.000" out="00:04:42.933" producer="producer88"/>
  <entry in="00:00:00.000" out="00:04:40.433" producer="producer87"/>
  <entry in="00:00:00.000" out="00:04:40.667" producer="producer86"/>
  <entry in="00:00:00.000" out="00:04:33.533" producer="producer85"/>
  <entry in="00:00:00.000" out="00:01:16.033" producer="chain44"/>
  <entry in="00:00:00.000" out="00:01:11.267" producer="producer93"/>
  <entry in="00:00:00.000" out="00:01:31.700" producer="chain45"/>
  <entry in="00:00:00.000" out="00:02:36.533" producer="producer92"/>
  <entry in="00:00:00.000" out="00:00:05.533" producer="chain54"/>
  <entry in="00:00:00.000" out="00:00:05.400" producer="chain55"/>
  <entry in="00:00:00.000" out="00:00:08.867" producer="chain56"/>
  <entry in="00:00:00.000" out="00:00:04.600" producer="chain57"/>
  <entry in="00:00:00.000" out="00:00:06.433" producer="chain58"/>
  <entry in="00:00:00.000" out="00:08:14.100" producer="chain59"/>
  <entry in="00:00:00.000" out="00:00:18.200" producer="chain60"/>
  <entry in="00:00:00.000" out="00:04:33.533" producer="producer96"/>
  <entry in="00:00:00.000" out="00:04:33.533" producer="producer97"/>
  <entry in="00:00:00.000" out="00:12:31.233" producer="tractor15"/>
  <entry in="00:00:00.000" out="00:04:33.533" producer="producer100"/>
  <entry in="00:00:00.000" out="00:01:40.733" producer="chain61"/>
  <entry in="00:00:00.000" out="00:03:03.400" producer="chain62"/>
 </playlist>
 <tractor id="tractor16" in="00:00:00.000" out="00:10:35.267">
  <property name="kdenlive:projectTractor">1</property>
  <track in="00:00:00.000" out="00:10:35.267" producer="tractor15"/>
 </tractor>
</mlt>
