<?xml version='1.0' encoding='utf-8'?>
<mlt LC_NUMERIC="C" producer="main_bin" root="/home/soma/Videos/remal-gombi" version="7.30.0">
 <profile colorspace="709" description="4K DCI 2160p 30 fps" display_aspect_den="135" display_aspect_num="256" frame_rate_den="1" frame_rate_num="30" height="2160" progressive="1" sample_aspect_den="1" sample_aspect_num="1" width="4096"/>
 <producer id="producer3" in="00:00:00.000" out="00:01:27.500">
  <property name="length">2626</property>
  <property name="eof">pause</property>
  <property name="resource">media/pictures/logo-remal.jpg</property>
  <property name="ttl">25</property>
  <property name="aspect_ratio">1</property>
  <property name="meta.media.progressive">1</property>
  <property name="seekable">1</property>
  <property name="format">1</property>
  <property name="meta.media.width">600</property>
  <property name="meta.media.height">434</property>
  <property name="mlt_service">qimage</property>
  <property name="kdenlive:duration">00:00:05:00</property>
  <property name="xml">was here</property>
  <property name="kdenlive:folderid">-1</property>
  <property name="kdenlive:id">4</property>
  <property name="kdenlive:control_uuid">{3b8eb518-18f7-48c3-b911-a163b6c21ed0}</property>
  <property name="kdenlive:clip_type">2</property>
  <property name="kdenlive:file_size">39636</property>
  <property name="kdenlive:file_hash">7c84230aba034cea830b4202757a3089</property>
  <property name="kdenlive:activeeffect">0</property>
  <property name="kdenlive:monitorPosition">765</property>
  <property name="kdenlive:clipname">Logo - remal</property>
  <filter id="filter8">
   <property name="rotate_center">1</property>
   <property name="mlt_service">qtblend</property>
   <property name="kdenlive_id">qtblend</property>
   <property name="compositing">0</property>
   <property name="distort">0</property>
   <property name="rect">00:00:00.000=3872 1950 169 235 1.000000</property>
   <property name="rotation">00:00:00.000=0</property>
   <property name="kdenlive:collapsed">0</property>
  </filter>
 </producer>
 <producer id="producer4" in="00:00:00.000" out="00:00:18.733">
  <property name="length">563</property>
  <property name="eof">pause</property>
  <property name="resource"/>
  <property name="meta.media.progressive">1</property>
  <property name="aspect_ratio">1</property>
  <property name="seekable">1</property>
  <property name="mlt_service">kdenlivetitle</property>
  <property name="kdenlive:duration">00:00:05:00</property>
  <property name="kdenlive:clipname">Page 1.1</property>
  <property name="xmldata">&lt;kdenlivetitle LC_NUMERIC="C" duration="150" height="2160" out="149" width="4096">
 &lt;item type="QGraphicsTextItem" z-index="1002">
  &lt;position x="1827" y="1739">
   &lt;transform>1,0,0,0,1,0,0,0,1&lt;/transform>
  &lt;/position>
  &lt;content alignment="1" box-height="150" box-width="1872.33" font="Noto Sans" font-color="230,81,0,255" font-italic="0" font-outline="0" font-outline-color="0,0,0,255" font-pixel-size="110" font-underline="0" font-weight="700" letter-spacing="0" line-spacing="0" shadow="0;#64000000;3;3;3" tab-width="80" typewriter="0;2;1;0;0">https://github.com/zappee/gombi&lt;/content>
 &lt;/item>
 &lt;item type="QGraphicsTextItem" z-index="1001">
  &lt;position x="1429" y="1462">
   &lt;transform>1,0,0,0,1,0,0,0,1&lt;/transform>
  &lt;/position>
  &lt;content alignment="2" box-height="273" box-width="2267.52" font="Noto Sans" font-color="230,81,0,255" font-italic="0" font-pixel-size="200" font-underline="0" font-weight="900" letter-spacing="0" line-spacing="0" shadow="0;#64000000;3;3;3" tab-width="80" typewriter="0;2;1;0;0">Remal Gombi Platform&lt;/content>
 &lt;/item>
 &lt;startviewport rect="0,0,4096,2160"/>
 &lt;endviewport rect="0,0,4096,2160"/>
 &lt;background color="170,255,0,0"/>
&lt;/kdenlivetitle>
</property>
  <property name="xml">was here</property>
  <property name="kdenlive:folderid">-1</property>
  <property name="kdenlive:id">5</property>
  <property name="kdenlive:control_uuid">{50231655-40df-437b-a8d8-73d7b1ebe839}</property>
  <property name="kdenlive:clip_type">2</property>
  <property name="kdenlive:uniqueId">{5afd88b8-2b23-470c-a71d-6182966f8dcc}</property>
  <property name="kdenlive:file_hash">b54c7bb9f571b9d3292d64c6a6d0c3f9</property>
  <property name="force_reload">0</property>
  <property name="meta.media.width">4096</property>
  <property name="meta.media.height">2160</property>
  <property name="kdenlive:monitorPosition">194</property>
 </producer>
 <producer id="producer1" in="00:00:00.000" out="00:00:21.233">
  <property name="length">638</property>
  <property name="eof">pause</property>
  <property name="resource">media/pictures/background-with-orange-curved-shape-in-corner.eps</property>
  <property name="ttl">25</property>
  <property name="aspect_ratio">1</property>
  <property name="meta.media.progressive">1</property>
  <property name="seekable">1</property>
  <property name="format">1</property>
  <property name="meta.media.width">3900</property>
  <property name="meta.media.height">2194</property>
  <property name="mlt_service">qimage</property>
  <property name="kdenlive:duration">00:00:05:00</property>
  <property name="xml">was here</property>
  <property name="kdenlive:folderid">-1</property>
  <property name="kdenlive:id">6</property>
  <property name="kdenlive:control_uuid">{45491641-8633-4058-8de6-823e5fd78dbe}</property>
  <property name="kdenlive:clip_type">2</property>
  <property name="kdenlive:file_size">3559</property>
  <property name="kdenlive:file_hash">c02ef5f43fb7452d5dea95e1f26e9e9b</property>
  <property name="kdenlive:monitorPosition">49</property>
  <property name="kdenlive:clipname">Page 1 - background</property>
 </producer>
 <producer id="producer2" in="00:00:00.000" out="00:00:35.267">
  <property name="length">1059</property>
  <property name="eof">pause</property>
  <property name="resource">media/pictures/logo-gombi.png</property>
  <property name="ttl">25</property>
  <property name="aspect_ratio">1</property>
  <property name="meta.media.progressive">1</property>
  <property name="seekable">1</property>
  <property name="format">2</property>
  <property name="meta.media.width">810</property>
  <property name="meta.media.height">291</property>
  <property name="mlt_service">qimage</property>
  <property name="kdenlive:duration">00:00:05:00</property>
  <property name="xml">was here</property>
  <property name="kdenlive:folderid">-1</property>
  <property name="kdenlive:id">7</property>
  <property name="kdenlive:control_uuid">{2b9a229b-bf94-431f-bf3f-8dd28dd2b2d3}</property>
  <property name="kdenlive:clip_type">2</property>
  <property name="kdenlive:file_size">40957</property>
  <property name="kdenlive:file_hash">deca0020d89e255d6ad6d87d34bf6f6c</property>
  <property name="kdenlive:monitorPosition">104</property>
  <property name="kdenlive:clipname">Logo - gombi</property>
 </producer>
 <producer id="producer5" in="00:00:00.000" out="00:00:04.967">
  <property name="length">150</property>
  <property name="eof">pause</property>
  <property name="resource"/>
  <property name="meta.media.progressive">1</property>
  <property name="aspect_ratio">1</property>
  <property name="seekable">1</property>
  <property name="mlt_service">kdenlivetitle</property>
  <property name="kdenlive:duration">00:00:05:00</property>
  <property name="kdenlive:clipname">Page 1</property>
  <property name="xmldata">&lt;kdenlivetitle LC_NUMERIC="C" duration="150" height="2160" out="149" width="4096">
 &lt;item type="QGraphicsTextItem" z-index="0">
  &lt;position x="3971" y="2040">
   &lt;transform>1,0,0,0,1,0,0,0,1&lt;/transform>
  &lt;/position>
  &lt;content alignment="2" box-height="69" box-width="28.5938" font="Noto Sans" font-color="117,117,117,255" font-italic="0" font-outline="0" font-outline-color="0,0,0,255" font-pixel-size="50" font-underline="0" font-weight="900" letter-spacing="0" line-spacing="0" shadow="0;#64000000;3;3;3" tab-width="80" typewriter="0;2;1;0;0">1&lt;/content>
 &lt;/item>
 &lt;startviewport rect="0,0,4096,2160"/>
 &lt;endviewport rect="0,0,4096,2160"/>
 &lt;background color="170,255,0,0"/>
&lt;/kdenlivetitle>
</property>
  <property name="xml">was here</property>
  <property name="kdenlive:folderid">-1</property>
  <property name="kdenlive:id">8</property>
  <property name="kdenlive:control_uuid">{bd5d5dfb-6477-4896-8369-f01d96c611cc}</property>
  <property name="kdenlive:clip_type">2</property>
  <property name="kdenlive:uniqueId">{5d2b7536-6b14-41e5-9e9f-33a510c0b1c8}</property>
  <property name="kdenlive:file_hash">f6d1fd251024ffded92e1c2b61bd4706</property>
  <property name="force_reload">0</property>
  <property name="meta.media.width">4096</property>
  <property name="meta.media.height">2160</property>
  <property name="kdenlive:monitorPosition">48</property>
 </producer>
 <producer id="producer6" in="00:00:00.000" out="00:00:04.967">
  <property name="length">00:00:05.000</property>
  <property name="eof">pause</property>
  <property name="resource">#ff000000</property>
  <property name="aspect_ratio">1</property>
  <property name="mlt_service">color</property>
  <property name="kdenlive:clipname">Page 1 - fade</property>
  <property name="kdenlive:duration">00:00:05:00</property>
  <property name="xml">was here</property>
  <property name="seekable">1</property>
  <property name="kdenlive:folderid">-1</property>
  <property name="kdenlive:id">9</property>
  <property name="kdenlive:control_uuid">{efe077cf-a419-4db9-bc96-65a290bfb933}</property>
  <property name="mlt_image_format">rgb</property>
  <property name="kdenlive:clip_type">2</property>
  <property name="kdenlive:file_hash">5b0940ab70748200b1fae87129fa214e</property>
  <property name="kdenlive:monitorPosition">93</property>
 </producer>
 <producer id="producer8" in="00:00:00.000" out="00:00:20.400">
  <property name="length">613</property>
  <property name="eof">pause</property>
  <property name="resource"/>
  <property name="meta.media.progressive">1</property>
  <property name="aspect_ratio">1</property>
  <property name="seekable">1</property>
  <property name="mlt_service">kdenlivetitle</property>
  <property name="kdenlive:duration">00:00:05:00</property>
  <property name="kdenlive:clipname">Page 3.1</property>
  <property name="xmldata">&lt;kdenlivetitle LC_NUMERIC="C" duration="150" height="2160" out="149" width="4096">
 &lt;item type="QGraphicsTextItem" z-index="1">
  &lt;position x="320" y="100">
   &lt;transform>1,0,0,0,1,0,0,0,1&lt;/transform>
  &lt;/position>
  &lt;content alignment="2" box-height="205" box-width="604.313" font="Noto Sans" font-color="255,255,255,255" font-italic="0" font-pixel-size="150" font-underline="0" font-weight="900" letter-spacing="0" shadow="0;#64000000;3;3;3" tab-width="80" typewriter="0;2;1;0;0">Content&lt;/content>
 &lt;/item>
 &lt;startviewport rect="0,0,4096,2160"/>
 &lt;endviewport rect="0,0,4096,2160"/>
 &lt;background color="0,0,0,0"/>
&lt;/kdenlivetitle>
</property>
  <property name="xml">was here</property>
  <property name="kdenlive:folderid">-1</property>
  <property name="kdenlive:id">10</property>
  <property name="kdenlive:control_uuid">{f46581e5-b32c-433a-8d90-f0433ca77714}</property>
  <property name="kdenlive:clip_type">2</property>
  <property name="kdenlive:uniqueId">{3cd0159e-23c4-4227-a463-9ce4ffbf6263}</property>
  <property name="kdenlive:file_hash">1f459787c96c1f3bc044ac3c646fd7e5</property>
  <property name="force_reload">0</property>
  <property name="meta.media.width">4096</property>
  <property name="meta.media.height">2160</property>
  <property name="kdenlive:monitorPosition">54</property>
 </producer>
 <producer id="producer7" in="00:00:00.000" out="00:00:09.967">
  <property name="length">300</property>
  <property name="eof">pause</property>
  <property name="resource"/>
  <property name="meta.media.progressive">1</property>
  <property name="aspect_ratio">1</property>
  <property name="seekable">1</property>
  <property name="mlt_service">kdenlivetitle</property>
  <property name="kdenlive:duration">00:00:05:00</property>
  <property name="kdenlive:clipname">Page 2 .1</property>
  <property name="xmldata">&lt;kdenlivetitle LC_NUMERIC="C" duration="150" height="2160" out="149" width="4096">
 &lt;item type="QGraphicsTextItem" z-index="3">
  &lt;position x="1000" y="1390">
   &lt;transform>1,0,0,0,1,0,0,0,1&lt;/transform>
  &lt;/position>
  &lt;content alignment="1" box-height="545" box-width="2790.72" font="Noto Sans" font-color="255,255,255,255" font-italic="0" font-pixel-size="80" font-underline="0" font-weight="300" letter-spacing="0" line-spacing="0" shadow="0;#64000000;3;3;3" tab-width="80" typewriter="0;2;1;0;0">Congue taciti varius ligula nullam dapibus. Scelerisque tellus fermentum
fermentum porta. Sodales tempus vestibulum libero augue feugiat.
In posuere facilisi leo arcu potenti vulputate. Vivamus curabitur vulputate
vestibulum mattis faucibus conubia feugiat quam. Tempor pharetra iaculis
euismod tempus leo magnis luctus augue.&lt;/content>
 &lt;/item>
 &lt;item type="QGraphicsTextItem" z-index="2">
  &lt;position x="1000" y="980">
   &lt;transform>1,0,0,0,1,0,0,0,1&lt;/transform>
  &lt;/position>
  &lt;content alignment="0" box-height="109" box-width="1052.52" font="Noto Sans" font-color="255,255,255,255" font-italic="0" font-pixel-size="80" font-underline="0" font-weight="300" letter-spacing="0" shadow="0;#64000000;3;3;3" tab-width="80" typewriter="0;2;1;0;0">arnold.somogyi@gmail.com&lt;/content>
 &lt;/item>
 &lt;item type="QGraphicsTextItem" z-index="1">
  &lt;position x="400" y="1200">
   &lt;transform>1,0,0,0,1,0,0,0,1&lt;/transform>
  &lt;/position>
  &lt;content alignment="2" box-height="137" box-width="1315.31" font="Noto Sans" font-color="255,255,255,255" font-italic="0" font-pixel-size="100" font-underline="0" font-weight="700" letter-spacing="0" line-spacing="0" shadow="0;#64000000;3;3;3" tab-width="80" typewriter="0;2;1;0;0">About the Technical Editor&lt;/content>
 &lt;/item>
 &lt;item type="QGraphicsTextItem" z-index="0">
  &lt;position x="1000" y="400">
   &lt;transform>1,0,0,0,1,0,0,0,1&lt;/transform>
  &lt;/position>
  &lt;content alignment="1" box-height="545" box-width="2701.02" font="Noto Sans" font-color="255,255,255,255" font-italic="0" font-pixel-size="80" font-underline="0" font-weight="300" letter-spacing="0" line-spacing="0" shadow="0;#64000000;3;3;3" tab-width="80" typewriter="0;2;1;0;0">Lorem ipsum dolor sit amet, consectetur adipiscing elit, sed do eiusmod
incididunt ut labore et dolore magna aliqua. Ut enim ad minim veniam,
nostrud exercitation ullamco laboris nisi ut aliquip ex ea commodo.
Duis aute irure dolor in reprehenderit in voluptate velit esse cillum eu
fugiat nulla pariatur.&lt;/content>
 &lt;/item>
 &lt;item type="QGraphicsTextItem" z-index="0">
  &lt;position x="400" y="210">
   &lt;transform>1,0,0,0,1,0,0,0,1&lt;/transform>
  &lt;/position>
  &lt;content alignment="2" box-height="137" box-width="874.422" font="Noto Sans" font-color="255,255,255,255" font-italic="0" font-pixel-size="100" font-underline="0" font-weight="700" letter-spacing="0" line-spacing="0" shadow="0;#64000000;3;3;3" tab-width="80" typewriter="0;2;1;0;0">About the Author&lt;/content>
 &lt;/item>
 &lt;startviewport rect="0,0,4096,2160"/>
 &lt;endviewport rect="0,0,4096,2160"/>
 &lt;background color="0,0,0,0"/>
&lt;/kdenlivetitle>
</property>
  <property name="xml">was here</property>
  <property name="kdenlive:folderid">-1</property>
  <property name="kdenlive:id">11</property>
  <property name="kdenlive:control_uuid">{787ec912-990d-4653-bc3b-ff2ec9fcacaa}</property>
  <property name="kdenlive:clip_type">2</property>
  <property name="kdenlive:uniqueId">{bbdf98ac-f841-4eaa-a8a0-29e240b1e743}</property>
  <property name="kdenlive:file_hash">161a345c5920ccf4a3988e74de39fa89</property>
  <property name="force_reload">0</property>
  <property name="meta.media.width">4096</property>
  <property name="meta.media.height">2160</property>
  <property name="kdenlive:monitorPosition">149</property>
 </producer>
 <producer id="producer9" in="00:00:00.000" out="00:00:09.967">
  <property name="length">300</property>
  <property name="eof">pause</property>
  <property name="resource"/>
  <property name="meta.media.progressive">1</property>
  <property name="aspect_ratio">1</property>
  <property name="seekable">1</property>
  <property name="mlt_service">kdenlivetitle</property>
  <property name="kdenlive:duration">00:00:05:00</property>
  <property name="kdenlive:clipname">Page 2</property>
  <property name="xmldata">&lt;kdenlivetitle LC_NUMERIC="C" duration="150" height="2160" out="149" width="4096">
 &lt;item type="QGraphicsTextItem" z-index="0">
  &lt;position x="3971" y="2040">
   &lt;transform>1,0,0,0,1,0,0,0,1&lt;/transform>
  &lt;/position>
  &lt;content alignment="2" box-height="69" box-width="28.5938" font="Noto Sans" font-color="117,117,117,255" font-italic="0" font-pixel-size="50" font-underline="0" font-weight="900" letter-spacing="0" line-spacing="0" shadow="0;#64000000;3;3;3" tab-width="80" typewriter="0;2;1;0;0">2&lt;/content>
 &lt;/item>
 &lt;startviewport rect="0,0,4096,2160"/>
 &lt;endviewport rect="0,0,4096,2160"/>
 &lt;background color="170,255,0,0"/>
&lt;/kdenlivetitle>
</property>
  <property name="xml">was here</property>
  <property name="kdenlive:folderid">-1</property>
  <property name="kdenlive:id">12</property>
  <property name="kdenlive:clip_type">2</property>
  <property name="kdenlive:file_hash">ce7a57acf249ed30535d2f0c76a8cbcf</property>
  <property name="force_reload">0</property>
  <property name="kdenlive:monitorPosition">48</property>
  <property name="kdenlive:control_uuid">{c4e88a7d-e7eb-4c02-96d9-92588b11afd3}</property>
  <property name="kdenlive:uniqueId">{4e52f4d1-16f1-41dc-8920-ba1faac7f160}</property>
  <property name="meta.media.width">4096</property>
  <property name="meta.media.height">2160</property>
 </producer>
 <producer id="producer11" in="00:00:00.000" out="00:00:12.133">
  <property name="length">365</property>
  <property name="eof">pause</property>
  <property name="resource">#ff000000</property>
  <property name="aspect_ratio">1</property>
  <property name="mlt_service">color</property>
  <property name="kdenlive:clipname">Page 2 - fade</property>
  <property name="kdenlive:duration">00:00:05.000</property>
  <property name="xml">was here</property>
  <property name="seekable">1</property>
  <property name="kdenlive:folderid">-1</property>
  <property name="kdenlive:id">13</property>
  <property name="mlt_image_format">rgb</property>
  <property name="kdenlive:clip_type">2</property>
  <property name="kdenlive:file_hash">fb762ca3b45ce510ad2f75a8b6baef35</property>
  <property name="kdenlive:monitorPosition">48</property>
  <property name="kdenlive:control_uuid">{93ced9c2-1645-4337-b030-5c4bbb59e65b}</property>
 </producer>
 <producer id="producer12" in="00:00:00.000" out="00:00:20.400">
  <property name="length">613</property>
  <property name="eof">pause</property>
  <property name="resource"/>
  <property name="meta.media.progressive">1</property>
  <property name="aspect_ratio">1</property>
  <property name="seekable">1</property>
  <property name="mlt_service">kdenlivetitle</property>
  <property name="kdenlive:duration">00:00:05:00</property>
  <property name="kdenlive:clipname">Page 3.2</property>
  <property name="xmldata">&lt;kdenlivetitle LC_NUMERIC="C" duration="150" height="2160" out="149" width="4096">
 &lt;item type="QGraphicsRectItem" z-index="2">
  &lt;position x="630" y="490">
   &lt;transform zoom="100">1,0,0,0,1,0,0,0,1&lt;/transform>
  &lt;/position>
  &lt;content brushcolor="215,159,13,255" pencolor="0,0,0,255" penwidth="0" rect="0,0,2550,10"/>
 &lt;/item>
 &lt;item type="QGraphicsTextItem" z-index="1">
  &lt;position x="1095" y="340">
   &lt;transform>1,0,0,0,1,0,0,0,1&lt;/transform>
  &lt;/position>
  &lt;content alignment="0" box-height="137" box-width="1342.23" font="Noto Sans" font-color="255,255,255,255" font-italic="0" font-pixel-size="100" font-underline="0" font-weight="700" letter-spacing="0" shadow="0;#64000000;3;3;3" tab-width="80" typewriter="0;2;1;0;0">The Remal Gombi Platform&lt;/content>
 &lt;/item>
 &lt;item type="QGraphicsTextItem" z-index="0">
  &lt;position x="630" y="340">
   &lt;transform>1,0,0,0,1,0,0,0,1&lt;/transform>
  &lt;/position>
  &lt;content alignment="1" box-height="137" box-width="295.141" font="Noto Sans" font-color="255,255,255,255" font-italic="0" font-pixel-size="100" font-underline="0" font-weight="700" letter-spacing="0" line-spacing="0" shadow="0;#64000000;3;3;3" tab-width="80" typewriter="0;2;1;0;0">Part 1&lt;/content>
 &lt;/item>
 &lt;startviewport rect="0,0,4096,2160"/>
 &lt;endviewport rect="0,0,4096,2160"/>
 &lt;background color="0,0,0,0"/>
&lt;/kdenlivetitle>
</property>
  <property name="xml">was here</property>
  <property name="kdenlive:folderid">-1</property>
  <property name="kdenlive:id">14</property>
  <property name="kdenlive:control_uuid">{2e5db806-6027-47e0-b867-d5d1a83d744e}</property>
  <property name="kdenlive:clip_type">2</property>
  <property name="kdenlive:uniqueId">{09c51f14-b74b-4815-a63a-01efefc1f245}</property>
  <property name="kdenlive:file_hash">44f435862e8968dfe52d643523c0735b</property>
  <property name="force_reload">0</property>
  <property name="meta.media.width">4096</property>
  <property name="meta.media.height">2160</property>
  <property name="kdenlive:monitorPosition">222</property>
 </producer>
 <producer id="producer10" in="00:00:00.000" out="00:00:25.533">
  <property name="length">767</property>
  <property name="eof">pause</property>
  <property name="resource"/>
  <property name="meta.media.progressive">1</property>
  <property name="aspect_ratio">1</property>
  <property name="seekable">1</property>
  <property name="mlt_service">kdenlivetitle</property>
  <property name="kdenlive:duration">00:00:05:00</property>
  <property name="kdenlive:clipname">Page 3</property>
  <property name="xmldata">&lt;kdenlivetitle LC_NUMERIC="C" duration="150" height="2160" out="149" width="4096">
 &lt;item type="QGraphicsTextItem" z-index="0">
  &lt;position x="3971" y="2040">
   &lt;transform>1,0,0,0,1,0,0,0,1&lt;/transform>
  &lt;/position>
  &lt;content alignment="2" box-height="69" box-width="28.5938" font="Noto Sans" font-color="117,117,117,255" font-italic="0" font-pixel-size="50" font-underline="0" font-weight="900" letter-spacing="0" line-spacing="0" shadow="0;#64000000;3;3;3" tab-width="80" typewriter="0;2;1;0;0">3&lt;/content>
 &lt;/item>
 &lt;startviewport rect="0,0,4096,2160"/>
 &lt;endviewport rect="0,0,4096,2160"/>
 &lt;background color="170,255,0,0"/>
&lt;/kdenlivetitle>
</property>
  <property name="xml">was here</property>
  <property name="kdenlive:folderid">-1</property>
  <property name="kdenlive:id">15</property>
  <property name="kdenlive:clip_type">2</property>
  <property name="kdenlive:file_hash">3ba8e5820d63b40e0d5dee3d56f910fe</property>
  <property name="force_reload">0</property>
  <property name="kdenlive:monitorPosition">23</property>
  <property name="kdenlive:control_uuid">{fe41acec-18f0-425d-9cee-483049493e4d}</property>
  <property name="kdenlive:uniqueId">{174f0eb7-427a-4c83-a349-a8d14903f15e}</property>
  <property name="meta.media.width">4096</property>
  <property name="meta.media.height">2160</property>
 </producer>
 <producer id="producer16" in="00:00:00.000" out="00:00:13.600">
  <property name="length">409</property>
  <property name="eof">pause</property>
  <property name="resource">media/pictures/profilephoto-arnold.somogyi.png</property>
  <property name="ttl">25</property>
  <property name="aspect_ratio">1</property>
  <property name="meta.media.progressive">1</property>
  <property name="seekable">1</property>
  <property name="format">2</property>
  <property name="meta.media.width">560</property>
  <property name="meta.media.height">598</property>
  <property name="mlt_service">qimage</property>
  <property name="kdenlive:duration">00:00:05:00</property>
  <property name="xml">was here</property>
  <property name="kdenlive:folderid">-1</property>
  <property name="kdenlive:id">16</property>
  <property name="kdenlive:control_uuid">{799dc427-a236-40ce-9a02-a872e0f1afcb}</property>
  <property name="kdenlive:clip_type">2</property>
  <property name="kdenlive:file_size">391557</property>
  <property name="kdenlive:file_hash">a8920e187dfd8dd14156cf516fe7da18</property>
  <property name="kdenlive:clipname">Page 2.2</property>
  <property name="kdenlive:monitorPosition">0</property>
 </producer>
 <producer id="producer15" in="00:00:00.000" out="00:00:18.433">
  <property name="length">554</property>
  <property name="eof">pause</property>
  <property name="resource"/>
  <property name="meta.media.progressive">1</property>
  <property name="aspect_ratio">1</property>
  <property name="seekable">1</property>
  <property name="mlt_service">kdenlivetitle</property>
  <property name="kdenlive:duration">00:00:05:00</property>
  <property name="kdenlive:clipname">Page 3.2.1</property>
  <property name="xmldata">&lt;kdenlivetitle LC_NUMERIC="C" duration="150" height="2160" out="149" width="4096">
 &lt;item type="QGraphicsTextItem" z-index="1">
  &lt;position x="880" y="570">
   &lt;transform>1,0,0,0,1,0,0,0,1&lt;/transform>
  &lt;/position>
  &lt;content alignment="0" box-height="137" box-width="57.1875" font="Noto Sans" font-color="255,255,255,255" font-italic="0" font-pixel-size="100" font-underline="0" font-weight="300" letter-spacing="0" shadow="0;#64000000;3;3;3" tab-width="80" typewriter="0;2;1;0;0">1&lt;/content>
 &lt;/item>
 &lt;item type="QGraphicsTextItem" z-index="0">
  &lt;position x="1095" y="570">
   &lt;transform>1,0,0,0,1,0,0,0,1&lt;/transform>
  &lt;/position>
  &lt;content alignment="1" box-height="137" box-width="850.656" font="Noto Sans" font-color="255,255,255,255" font-italic="0" font-pixel-size="100" font-underline="0" font-weight="300" letter-spacing="0" line-spacing="0" shadow="0;#64000000;3;3;3" tab-width="80" typewriter="0;2;1;0;0">Platform overview&lt;/content>
 &lt;/item>
 &lt;startviewport rect="0,0,4096,2160"/>
 &lt;endviewport rect="0,0,4096,2160"/>
 &lt;background color="0,0,0,0"/>
&lt;/kdenlivetitle>
</property>
  <property name="xml">was here</property>
  <property name="kdenlive:folderid">-1</property>
  <property name="kdenlive:id">17</property>
  <property name="kdenlive:control_uuid">{b55d9891-dca8-4842-b285-ea32a83feba9}</property>
  <property name="kdenlive:clip_type">2</property>
  <property name="kdenlive:uniqueId">{de4360cc-5796-428f-ad1d-64586c5fabc9}</property>
  <property name="kdenlive:file_hash">532c9344aa5648f212d8419c95f6e6a8</property>
  <property name="force_reload">0</property>
  <property name="meta.media.width">4096</property>
  <property name="meta.media.height">2160</property>
  <property name="kdenlive:monitorPosition">30</property>
 </producer>
 <producer id="producer14" in="00:00:00.000" out="00:00:19.067">
  <property name="length">573</property>
  <property name="eof">pause</property>
  <property name="resource"/>
  <property name="meta.media.progressive">1</property>
  <property name="aspect_ratio">1</property>
  <property name="seekable">1</property>
  <property name="mlt_service">kdenlivetitle</property>
  <property name="kdenlive:duration">00:00:05:00</property>
  <property name="kdenlive:clipname">Page 3.2.2</property>
  <property name="xmldata">&lt;kdenlivetitle LC_NUMERIC="C" duration="150" height="2160" out="149" width="4096">
 &lt;item type="QGraphicsTextItem" z-index="1">
  &lt;position x="880" y="730">
   &lt;transform>1,0,0,0,1,0,0,0,1&lt;/transform>
  &lt;/position>
  &lt;content alignment="0" box-height="137" box-width="57.1875" font="Noto Sans" font-color="255,255,255,255" font-italic="0" font-pixel-size="100" font-underline="0" font-weight="300" letter-spacing="0" shadow="0;#64000000;3;3;3" tab-width="80" typewriter="0;2;1;0;0">2&lt;/content>
 &lt;/item>
 &lt;item type="QGraphicsTextItem" z-index="0">
  &lt;position x="1095" y="730">
   &lt;transform>1,0,0,0,1,0,0,0,1&lt;/transform>
  &lt;/position>
  &lt;content alignment="1" box-height="137" box-width="510.516" font="Noto Sans" font-color="255,255,255,255" font-italic="0" font-pixel-size="100" font-underline="0" font-weight="300" letter-spacing="0" line-spacing="0" shadow="0;#64000000;3;3;3" tab-width="80" typewriter="0;2;1;0;0">Quick start&lt;/content>
 &lt;/item>
 &lt;startviewport rect="0,0,4096,2160"/>
 &lt;endviewport rect="0,0,4096,2160"/>
 &lt;background color="0,0,0,0"/>
&lt;/kdenlivetitle>
</property>
  <property name="xml">was here</property>
  <property name="kdenlive:folderid">-1</property>
  <property name="kdenlive:id">18</property>
  <property name="kdenlive:clip_type">2</property>
  <property name="kdenlive:file_hash">4fcd6c9e44ad7d0c483152c6b562e221</property>
  <property name="force_reload">0</property>
  <property name="kdenlive:monitorPosition">30</property>
  <property name="kdenlive:control_uuid">{2f91ebc8-9289-4f6b-a58d-3e8295352ca0}</property>
  <property name="kdenlive:uniqueId">{76367af4-1502-46ef-9bd7-3f5e586e62e2}</property>
  <property name="meta.media.width">4096</property>
  <property name="meta.media.height">2160</property>
 </producer>
 <producer id="producer13" in="00:00:00.000" out="00:00:18.067">
  <property name="length">543</property>
  <property name="eof">pause</property>
  <property name="resource"/>
  <property name="meta.media.progressive">1</property>
  <property name="aspect_ratio">1</property>
  <property name="seekable">1</property>
  <property name="mlt_service">kdenlivetitle</property>
  <property name="kdenlive:duration">00:00:05:00</property>
  <property name="kdenlive:clipname">Page 3.3</property>
  <property name="xmldata">&lt;kdenlivetitle LC_NUMERIC="C" duration="150" height="2160" out="149" width="4096">
 &lt;item type="QGraphicsRectItem" z-index="2">
  &lt;position x="630" y="1080">
   &lt;transform zoom="100">1,0,0,0,1,0,0,0,1&lt;/transform>
  &lt;/position>
  &lt;content brushcolor="215,159,13,255" pencolor="0,0,0,255" penwidth="0" rect="0,0,2550,10"/>
 &lt;/item>
 &lt;item type="QGraphicsTextItem" z-index="1">
  &lt;position x="1095" y="930">
   &lt;transform>1,0,0,0,1,0,0,0,1&lt;/transform>
  &lt;/position>
  &lt;content alignment="0" box-height="137" box-width="740.859" font="Noto Sans" font-color="255,255,255,255" font-italic="0" font-pixel-size="100" font-underline="0" font-weight="700" letter-spacing="0" shadow="0;#64000000;3;3;3" tab-width="80" typewriter="0;2;1;0;0">Docker images&lt;/content>
 &lt;/item>
 &lt;item type="QGraphicsTextItem" z-index="0">
  &lt;position x="630" y="930">
   &lt;transform>1,0,0,0,1,0,0,0,1&lt;/transform>
  &lt;/position>
  &lt;content alignment="1" box-height="137" box-width="295.141" font="Noto Sans" font-color="255,255,255,255" font-italic="0" font-pixel-size="100" font-underline="0" font-weight="700" letter-spacing="0" line-spacing="0" shadow="0;#64000000;3;3;3" tab-width="80" typewriter="0;2;1;0;0">Part 2&lt;/content>
 &lt;/item>
 &lt;startviewport rect="0,0,4096,2160"/>
 &lt;endviewport rect="0,0,4096,2160"/>
 &lt;background color="0,0,0,0"/>
&lt;/kdenlivetitle>
</property>
  <property name="xml">was here</property>
  <property name="kdenlive:folderid">-1</property>
  <property name="kdenlive:id">19</property>
  <property name="kdenlive:clip_type">2</property>
  <property name="kdenlive:file_hash">111df1c574e23007e1fc90484a8bc671</property>
  <property name="force_reload">0</property>
  <property name="kdenlive:monitorPosition">135</property>
  <property name="kdenlive:control_uuid">{81092c95-4122-447d-aa1b-4dcd31287f50}</property>
  <property name="kdenlive:uniqueId">{742e0a12-814b-4b61-b8cd-4e53be7c7aba}</property>
  <property name="meta.media.width">4096</property>
  <property name="meta.media.height">2160</property>
 </producer>
 <chain id="chain1" out="00:00:00.600">
  <property name="length">19</property>
  <property name="eof">pause</property>
  <property name="resource">media/audio/audio-effect-slide-in.mp3</property>
  <property name="mlt_service">avformat</property>
  <property name="meta.media.nb_streams">1</property>
  <property name="meta.media.0.stream.type">audio</property>
  <property name="meta.media.0.codec.sample_fmt">fltp</property>
  <property name="meta.media.0.codec.sample_rate">24000</property>
  <property name="meta.media.0.codec.channels">2</property>
  <property name="meta.media.0.codec.layout">stereo</property>
  <property name="meta.media.0.codec.name">mp3float</property>
  <property name="meta.media.0.codec.long_name">MP3 (MPEG audio layer 3)</property>
  <property name="meta.media.0.codec.bit_rate">160000</property>
  <property name="seekable">1</property>
  <property name="audio_index">0</property>
  <property name="video_index">-1</property>
  <property name="astream">0</property>
  <property name="kdenlive:folderid">-1</property>
  <property name="kdenlive:id">20</property>
  <property name="kdenlive:control_uuid">{c2dbb3fe-03b3-468b-9d71-e31c429ddd4c}</property>
  <property name="kdenlive:clip_type">1</property>
  <property name="kdenlive:file_size">12480</property>
  <property name="kdenlive:file_hash">d5422d72a14f925b8c4876041f8a90fd</property>
  <property name="kdenlive:audio_max0">193</property>
  <property name="kdenlive:clipname">Audio - effect - slide-in</property>
  <property name="kdenlive:monitorPosition">0</property>
 </chain>
 <producer id="producer20" in="00:00:00.000" out="00:00:18.433">
  <property name="length">554</property>
  <property name="eof">pause</property>
  <property name="resource"/>
  <property name="meta.media.progressive">1</property>
  <property name="aspect_ratio">1</property>
  <property name="seekable">1</property>
  <property name="mlt_service">kdenlivetitle</property>
  <property name="kdenlive:duration">00:00:05:00</property>
  <property name="kdenlive:clipname">Page 3.3.1</property>
  <property name="xmldata">&lt;kdenlivetitle LC_NUMERIC="C" duration="150" height="2160" out="149" width="4096">
 &lt;item type="QGraphicsTextItem" z-index="1">
  &lt;position x="880" y="1160">
   &lt;transform>1,0,0,0,1,0,0,0,1&lt;/transform>
  &lt;/position>
  &lt;content alignment="0" box-height="137" box-width="57.1875" font="Noto Sans" font-color="255,255,255,255" font-italic="0" font-pixel-size="100" font-underline="0" font-weight="300" letter-spacing="0" shadow="0;#64000000;3;3;3" tab-width="80" typewriter="0;2;1;0;0">1&lt;/content>
 &lt;/item>
 &lt;item type="QGraphicsTextItem" z-index="0">
  &lt;position x="1095" y="1160">
   &lt;transform>1,0,0,0,1,0,0,0,1&lt;/transform>
  &lt;/position>
  &lt;content alignment="1" box-height="137" box-width="387.422" font="Noto Sans" font-color="255,255,255,255" font-italic="0" font-pixel-size="100" font-underline="0" font-weight="300" letter-spacing="0" line-spacing="0" shadow="0;#64000000;3;3;3" tab-width="80" typewriter="0;2;1;0;0">Concept&lt;/content>
 &lt;/item>
 &lt;startviewport rect="0,0,4096,2160"/>
 &lt;endviewport rect="0,0,4096,2160"/>
 &lt;background color="0,0,0,0"/>
&lt;/kdenlivetitle>
</property>
  <property name="xml">was here</property>
  <property name="kdenlive:folderid">-1</property>
  <property name="kdenlive:id">21</property>
  <property name="kdenlive:clip_type">2</property>
  <property name="kdenlive:file_hash">69e8d732ff5042489e0558d3c35899e5</property>
  <property name="force_reload">0</property>
  <property name="kdenlive:monitorPosition">30</property>
  <property name="kdenlive:control_uuid">{b5a59cd8-802c-4237-8605-2ceaebedf577}</property>
  <property name="kdenlive:uniqueId">{8d7f1933-a55c-4a9c-9697-fa55c676eb33}</property>
  <property name="meta.media.width">4096</property>
  <property name="meta.media.height">2160</property>
 </producer>
 <producer id="producer19" in="00:00:00.000" out="00:00:18.433">
  <property name="length">554</property>
  <property name="eof">pause</property>
  <property name="resource"/>
  <property name="meta.media.progressive">1</property>
  <property name="aspect_ratio">1</property>
  <property name="seekable">1</property>
  <property name="mlt_service">kdenlivetitle</property>
  <property name="kdenlive:duration">00:00:05:00</property>
  <property name="kdenlive:clipname">Page 3.3.2</property>
  <property name="xmldata">&lt;kdenlivetitle LC_NUMERIC="C" duration="150" height="2160" out="149" width="4096">
 &lt;item type="QGraphicsTextItem" z-index="1">
  &lt;position x="880" y="1320">
   &lt;transform>1,0,0,0,1,0,0,0,1&lt;/transform>
  &lt;/position>
  &lt;content alignment="0" box-height="137" box-width="57.1875" font="Noto Sans" font-color="255,255,255,255" font-italic="0" font-pixel-size="100" font-underline="0" font-weight="300" letter-spacing="0" shadow="0;#64000000;3;3;3" tab-width="80" typewriter="0;2;1;0;0">2&lt;/content>
 &lt;/item>
 &lt;item type="QGraphicsTextItem" z-index="0">
  &lt;position x="1095" y="1320">
   &lt;transform>1,0,0,0,1,0,0,0,1&lt;/transform>
  &lt;/position>
  &lt;content alignment="1" box-height="137" box-width="1521.48" font="Noto Sans" font-color="255,255,255,255" font-italic="0" font-pixel-size="100" font-underline="0" font-weight="300" letter-spacing="0" line-spacing="0" shadow="0;#64000000;3;3;3" tab-width="80" typewriter="0;2;1;0;0">Exploring the platform's images &lt;/content>
 &lt;/item>
 &lt;startviewport rect="0,0,4096,2160"/>
 &lt;endviewport rect="0,0,4096,2160"/>
 &lt;background color="0,0,0,0"/>
&lt;/kdenlivetitle>
</property>
  <property name="xml">was here</property>
  <property name="kdenlive:folderid">-1</property>
  <property name="kdenlive:id">22</property>
  <property name="kdenlive:clip_type">2</property>
  <property name="kdenlive:file_hash">88fc53b1fe8e1808da9f7342db3b8c73</property>
  <property name="force_reload">0</property>
  <property name="kdenlive:monitorPosition">30</property>
  <property name="kdenlive:control_uuid">{d0625ecd-1698-4ca9-99bf-828b9a8dca18}</property>
  <property name="kdenlive:uniqueId">{99eabd06-4dc7-4256-8e3b-ca732f98dfb0}</property>
  <property name="meta.media.width">4096</property>
  <property name="meta.media.height">2160</property>
 </producer>
 <producer id="producer18" in="00:00:00.000" out="00:00:18.067">
  <property name="length">543</property>
  <property name="eof">pause</property>
  <property name="resource"/>
  <property name="meta.media.progressive">1</property>
  <property name="aspect_ratio">1</property>
  <property name="seekable">1</property>
  <property name="mlt_service">kdenlivetitle</property>
  <property name="kdenlive:duration">00:00:05:00</property>
  <property name="kdenlive:clipname">Page 3.4</property>
  <property name="xmldata">&lt;kdenlivetitle LC_NUMERIC="C" duration="150" height="2160" out="149" width="4096">
 &lt;item type="QGraphicsRectItem" z-index="2">
  &lt;position x="630" y="1670">
   &lt;transform zoom="100">1,0,0,0,1,0,0,0,1&lt;/transform>
  &lt;/position>
  &lt;content brushcolor="215,159,13,255" pencolor="0,0,0,255" penwidth="0" rect="0,0,2550,10"/>
 &lt;/item>
 &lt;item type="QGraphicsTextItem" z-index="1">
  &lt;position x="1095" y="1520">
   &lt;transform>1,0,0,0,1,0,0,0,1&lt;/transform>
  &lt;/position>
  &lt;content alignment="0" box-height="137" box-width="2044.42" font="Noto Sans" font-color="255,255,255,255" font-italic="0" font-pixel-size="100" font-underline="0" font-weight="700" letter-spacing="0" shadow="0;#64000000;3;3;3" tab-width="80" typewriter="0;2;1;0;0">Software development with the Platform&lt;/content>
 &lt;/item>
 &lt;item type="QGraphicsTextItem" z-index="0">
  &lt;position x="630" y="1520">
   &lt;transform>1,0,0,0,1,0,0,0,1&lt;/transform>
  &lt;/position>
  &lt;content alignment="1" box-height="137" box-width="295.141" font="Noto Sans" font-color="255,255,255,255" font-italic="0" font-pixel-size="100" font-underline="0" font-weight="700" letter-spacing="0" line-spacing="0" shadow="0;#64000000;3;3;3" tab-width="80" typewriter="0;2;1;0;0">Part 3&lt;/content>
 &lt;/item>
 &lt;startviewport rect="0,0,4096,2160"/>
 &lt;endviewport rect="0,0,4096,2160"/>
 &lt;background color="0,0,0,0"/>
&lt;/kdenlivetitle>
</property>
  <property name="xml">was here</property>
  <property name="kdenlive:folderid">-1</property>
  <property name="kdenlive:id">23</property>
  <property name="kdenlive:clip_type">2</property>
  <property name="kdenlive:file_hash">811834f96d5bfd3cc5af1120de0381d4</property>
  <property name="force_reload">0</property>
  <property name="kdenlive:monitorPosition">37</property>
  <property name="kdenlive:control_uuid">{a41a1924-04af-4ea2-a2d1-ccaaf7d33b6e}</property>
  <property name="kdenlive:uniqueId">{665910a8-7e35-4858-b7cf-f2582ead6270}</property>
  <property name="meta.media.width">4096</property>
  <property name="meta.media.height">2160</property>
 </producer>
 <producer id="producer17" in="00:00:00.000" out="00:00:18.067">
  <property name="length">543</property>
  <property name="eof">pause</property>
  <property name="resource"/>
  <property name="meta.media.progressive">1</property>
  <property name="aspect_ratio">1</property>
  <property name="seekable">1</property>
  <property name="mlt_service">kdenlivetitle</property>
  <property name="kdenlive:duration">00:00:05:00</property>
  <property name="kdenlive:clipname">Page 3.5</property>
  <property name="xmldata">&lt;kdenlivetitle LC_NUMERIC="C" duration="150" height="2160" out="149" width="4096">
 &lt;item type="QGraphicsRectItem" z-index="2">
  &lt;position x="630" y="1890">
   &lt;transform zoom="100">1,0,0,0,1,0,0,0,1&lt;/transform>
  &lt;/position>
  &lt;content brushcolor="215,159,13,255" pencolor="0,0,0,255" penwidth="0" rect="0,0,2550,10"/>
 &lt;/item>
 &lt;item type="QGraphicsTextItem" z-index="1">
  &lt;position x="1095" y="1740">
   &lt;transform>1,0,0,0,1,0,0,0,1&lt;/transform>
  &lt;/position>
  &lt;content alignment="0" box-height="137" box-width="1882.91" font="Noto Sans" font-color="255,255,255,255" font-italic="0" font-pixel-size="100" font-underline="0" font-weight="700" letter-spacing="0" shadow="0;#64000000;3;3;3" tab-width="80" typewriter="0;2;1;0;0">Running in a production environment&lt;/content>
 &lt;/item>
 &lt;item type="QGraphicsTextItem" z-index="0">
  &lt;position x="630" y="1740">
   &lt;transform>1,0,0,0,1,0,0,0,1&lt;/transform>
  &lt;/position>
  &lt;content alignment="1" box-height="137" box-width="295.141" font="Noto Sans" font-color="255,255,255,255" font-italic="0" font-pixel-size="100" font-underline="0" font-weight="700" letter-spacing="0" line-spacing="0" shadow="0;#64000000;3;3;3" tab-width="80" typewriter="0;2;1;0;0">Part 4&lt;/content>
 &lt;/item>
 &lt;startviewport rect="0,0,4096,2160"/>
 &lt;endviewport rect="0,0,4096,2160"/>
 &lt;background color="0,0,0,0"/>
&lt;/kdenlivetitle>
</property>
  <property name="xml">was here</property>
  <property name="kdenlive:folderid">-1</property>
  <property name="kdenlive:id">24</property>
  <property name="kdenlive:clip_type">2</property>
  <property name="kdenlive:file_hash">4a6679b8e062b23c6e7f3f0cadb9c37c</property>
  <property name="force_reload">0</property>
  <property name="kdenlive:monitorPosition">50</property>
  <property name="kdenlive:control_uuid">{fc1ea1fa-c8ad-4280-a70f-3352dbc7af44}</property>
  <property name="kdenlive:uniqueId">{ccb63597-e037-4d5b-9cdf-6aeed9fd56db}</property>
  <property name="meta.media.width">4096</property>
  <property name="meta.media.height">2160</property>
 </producer>
 <producer id="producer21" in="00:00:00.000" out="00:01:22.467">
  <property name="length">2475</property>
  <property name="eof">pause</property>
  <property name="resource">media/pictures/logo-gombi-transparent.png</property>
  <property name="ttl">25</property>
  <property name="aspect_ratio">1</property>
  <property name="meta.media.progressive">1</property>
  <property name="seekable">1</property>
  <property name="format">2</property>
  <property name="meta.media.width">752</property>
  <property name="meta.media.height">240</property>
  <property name="mlt_service">qimage</property>
  <property name="kdenlive:duration">00:00:05:00</property>
  <property name="xml">was here</property>
  <property name="kdenlive:folderid">-1</property>
  <property name="kdenlive:id">25</property>
  <property name="kdenlive:control_uuid">{83bf1abd-d335-440a-b4fd-23243ee36d66}</property>
  <property name="kdenlive:clip_type">2</property>
  <property name="kdenlive:file_size">41054</property>
  <property name="kdenlive:file_hash">f292ad871fb3f3c6dd6a50ebe6c4bdb2</property>
  <property name="kdenlive:clipname">Logo - gombi - transparent</property>
  <property name="kdenlive:monitorPosition">29</property>
 </producer>
 <producer id="producer27" in="00:00:00.000" out="00:00:19.033">
  <property name="length">572</property>
  <property name="eof">pause</property>
  <property name="resource">#ff000000</property>
  <property name="aspect_ratio">1</property>
  <property name="mlt_service">color</property>
  <property name="kdenlive:clipname">Page 3 - fade</property>
  <property name="kdenlive:duration">00:00:05.000</property>
  <property name="xml">was here</property>
  <property name="seekable">1</property>
  <property name="kdenlive:folderid">-1</property>
  <property name="kdenlive:id">26</property>
  <property name="mlt_image_format">rgb</property>
  <property name="kdenlive:clip_type">2</property>
  <property name="kdenlive:file_hash">fb762ca3b45ce510ad2f75a8b6baef35</property>
  <property name="kdenlive:monitorPosition">401</property>
  <property name="kdenlive:control_uuid">{c01793cc-9b20-4f75-a3a2-260ef40eb30a}</property>
 </producer>
 <producer id="producer26" in="00:00:00.000" out="00:00:29.933">
  <property name="length">899</property>
  <property name="eof">pause</property>
  <property name="resource"/>
  <property name="meta.media.progressive">1</property>
  <property name="aspect_ratio">1</property>
  <property name="seekable">1</property>
  <property name="mlt_service">kdenlivetitle</property>
  <property name="kdenlive:duration">00:00:05:00</property>
  <property name="kdenlive:clipname">Page 4</property>
  <property name="xmldata">&lt;kdenlivetitle LC_NUMERIC="C" duration="150" height="2160" out="149" width="4096">
 &lt;item type="QGraphicsTextItem" z-index="0">
  &lt;position x="3971" y="2040">
   &lt;transform>1,0,0,0,1,0,0,0,1&lt;/transform>
  &lt;/position>
  &lt;content alignment="2" box-height="69" box-width="28.5938" font="Noto Sans" font-color="117,117,117,255" font-italic="0" font-pixel-size="50" font-underline="0" font-weight="900" letter-spacing="0" line-spacing="0" shadow="0;#64000000;3;3;3" tab-width="80" typewriter="0;2;1;0;0">4&lt;/content>
 &lt;/item>
 &lt;startviewport rect="0,0,4096,2160"/>
 &lt;endviewport rect="0,0,4096,2160"/>
 &lt;background color="170,255,0,0"/>
&lt;/kdenlivetitle>
</property>
  <property name="xml">was here</property>
  <property name="kdenlive:folderid">-1</property>
  <property name="kdenlive:id">27</property>
  <property name="kdenlive:clip_type">2</property>
  <property name="kdenlive:file_hash">e16de23023736080e7355f328e937502</property>
  <property name="force_reload">0</property>
  <property name="kdenlive:monitorPosition">826</property>
  <property name="kdenlive:control_uuid">{de9fddea-f4f5-41a9-a3f7-2dc806f7cfb1}</property>
  <property name="kdenlive:uniqueId">{de8422c3-d71f-456f-aef0-c4ae2e4acb23}</property>
  <property name="meta.media.width">4096</property>
  <property name="meta.media.height">2160</property>
 </producer>
 <producer id="producer25" in="00:00:00.000" out="00:00:29.933">
  <property name="length">899</property>
  <property name="eof">pause</property>
  <property name="resource"/>
  <property name="meta.media.progressive">1</property>
  <property name="aspect_ratio">1</property>
  <property name="seekable">1</property>
  <property name="mlt_service">kdenlivetitle</property>
  <property name="kdenlive:duration">00:00:05:00</property>
  <property name="kdenlive:clipname">Page 4.1</property>
  <property name="xmldata">&lt;kdenlivetitle LC_NUMERIC="C" duration="150" height="2160" out="149" width="4096">
 &lt;item type="QGraphicsTextItem" z-index="1">
  &lt;position x="320" y="100">
   &lt;transform>1,0,0,0,1,0,0,0,1&lt;/transform>
  &lt;/position>
  &lt;content alignment="1" box-height="205" box-width="1377.95" font="Noto Sans" font-color="0,0,0,255" font-italic="0" font-outline="0" font-outline-color="0,0,0,255" font-pixel-size="150" font-underline="0" font-weight="900" letter-spacing="0" line-spacing="0" shadow="0;#64000000;3;3;3" tab-width="80" typewriter="0;2;1;0;0">Platform overview&lt;/content>
 &lt;/item>
 &lt;startviewport rect="0,0,4096,2160"/>
 &lt;endviewport rect="0,0,4096,2160"/>
 &lt;background color="0,0,0,0"/>
&lt;/kdenlivetitle>
</property>
  <property name="xml">was here</property>
  <property name="kdenlive:folderid">-1</property>
  <property name="kdenlive:id">28</property>
  <property name="kdenlive:clip_type">2</property>
  <property name="kdenlive:file_hash">664104ee55e6bbd993c87685f59aa324</property>
  <property name="force_reload">0</property>
  <property name="kdenlive:monitorPosition">806</property>
  <property name="kdenlive:control_uuid">{e13e47f4-7238-4ae6-be4e-f22b3aca8a6b}</property>
  <property name="kdenlive:uniqueId">{6acc590e-108f-4b76-b2fc-b25adef0a287}</property>
  <property name="meta.media.width">4096</property>
  <property name="meta.media.height">2160</property>
 </producer>
 <producer id="producer24" in="00:00:00.000" out="00:00:31.167">
  <property name="length">936</property>
  <property name="eof">pause</property>
  <property name="resource"/>
  <property name="meta.media.progressive">1</property>
  <property name="aspect_ratio">1</property>
  <property name="seekable">1</property>
  <property name="mlt_service">kdenlivetitle</property>
  <property name="kdenlive:duration">00:00:05:00</property>
  <property name="kdenlive:clipname">Page 4.2</property>
  <property name="xmldata">&lt;kdenlivetitle LC_NUMERIC="C" duration="150" height="2160" out="149" width="4096">
 &lt;item type="QGraphicsTextItem" z-index="2">
  &lt;position x="320" y="500">
   &lt;transform>1,0,0,0,1,0,0,0,1&lt;/transform>
  &lt;/position>
  &lt;content alignment="1" box-height="680" box-width="2985.22" font="Noto Sans" font-color="0,0,0,255" font-italic="0" font-pixel-size="100" font-underline="0" font-weight="400" letter-spacing="0" line-spacing="0" shadow="0;#64000000;3;3;3" tab-width="80" typewriter="0;2;1;0;0">The Remal-Gombi is an open source development platform that
provides a ready for use development environment fits best for
Spring Boot development and supports Java 23.

&lt;/content>
 &lt;/item>
 &lt;startviewport rect="0,0,4096,2160"/>
 &lt;endviewport rect="0,0,4096,2160"/>
 &lt;background color="0,0,0,0"/>
&lt;/kdenlivetitle>
</property>
  <property name="xml">was here</property>
  <property name="kdenlive:folderid">-1</property>
  <property name="kdenlive:id">29</property>
  <property name="kdenlive:clip_type">2</property>
  <property name="kdenlive:file_hash">4ba8cd0511f3ce00bcd27d4763aed78b</property>
  <property name="force_reload">0</property>
  <property name="kdenlive:monitorPosition">149</property>
  <property name="kdenlive:control_uuid">{ebd9ab99-2338-4996-8c60-868b3897e445}</property>
  <property name="kdenlive:uniqueId">{0d5e95ec-2f1e-4a21-9b07-a2c716b9021a}</property>
  <property name="meta.media.width">4096</property>
  <property name="meta.media.height">2160</property>
 </producer>
 <producer id="producer28" in="00:00:00.000" out="00:00:29.933">
  <property name="length">899</property>
  <property name="eof">pause</property>
  <property name="resource">#ff000000</property>
  <property name="aspect_ratio">1</property>
  <property name="mlt_service">color</property>
  <property name="kdenlive:clipname">Page 4 - fade</property>
  <property name="kdenlive:duration">00:00:05.000</property>
  <property name="xml">was here</property>
  <property name="seekable">1</property>
  <property name="kdenlive:folderid">-1</property>
  <property name="kdenlive:id">30</property>
  <property name="mlt_image_format">rgb</property>
  <property name="kdenlive:clip_type">2</property>
  <property name="kdenlive:monitorPosition">23</property>
  <property name="kdenlive:control_uuid">{ce5552a3-f88b-4139-91b6-3a6e947202fc}</property>
  <property name="kdenlive:file_hash">5b0940ab70748200b1fae87129fa214e</property>
 </producer>
 <producer id="producer22" in="00:00:00.000" out="00:00:51.700">
  <property name="length">1552</property>
  <property name="eof">pause</property>
  <property name="resource">0xffe082ff</property>
  <property name="aspect_ratio">1</property>
  <property name="mlt_service">color</property>
  <property name="kdenlive:clipname">Page 4 - background</property>
  <property name="kdenlive:duration">00:00:05:00</property>
  <property name="xml">was here</property>
  <property name="seekable">1</property>
  <property name="kdenlive:folderid">-1</property>
  <property name="kdenlive:id">31</property>
  <property name="kdenlive:control_uuid">{9a50b4bd-491f-4acc-9e2b-d3d1ecd42322}</property>
  <property name="mlt_image_format">rgb</property>
  <property name="kdenlive:clip_type">2</property>
  <property name="kdenlive:file_hash">24e606ed783120c61fedcda843a89d4a</property>
  <property name="kdenlive:monitorPosition">222</property>
 </producer>
 <producer id="producer23" in="00:00:00.000" out="00:00:21.400">
  <property name="length">643</property>
  <property name="eof">pause</property>
  <property name="resource"/>
  <property name="meta.media.progressive">1</property>
  <property name="aspect_ratio">1</property>
  <property name="seekable">1</property>
  <property name="mlt_service">kdenlivetitle</property>
  <property name="kdenlive:duration">00:00:05:00</property>
  <property name="kdenlive:clipname">Page 4.3</property>
  <property name="xmldata">&lt;kdenlivetitle LC_NUMERIC="C" duration="150" height="2160" out="149" width="4096">
 &lt;item type="QGraphicsTextItem" z-index="2">
  &lt;position x="320" y="1000">
   &lt;transform>1,0,0,0,1,0,0,0,1&lt;/transform>
  &lt;/position>
  &lt;content alignment="1" box-height="1088" box-width="3088.42" font="Noto Sans" font-color="0,0,0,255" font-italic="0" font-pixel-size="100" font-underline="0" font-weight="400" letter-spacing="0" line-spacing="0" shadow="0;#64000000;3;3;3" tab-width="80" typewriter="0;2;1;0;0">The Gombi Platform that developers use to build applications can
also be used in a production environment without modification. It
is fully horizontally scalable, uses secure communication channels
between the building boxes and provides a full Private Certificate
Authority server to issue, renew and revoke server certificates
signed by the organisation's root CA.

&lt;/content>
 &lt;/item>
 &lt;startviewport rect="0,0,4096,2160"/>
 &lt;endviewport rect="0,0,4096,2160"/>
 &lt;background color="0,0,0,0"/>
&lt;/kdenlivetitle>
</property>
  <property name="xml">was here</property>
  <property name="kdenlive:folderid">-1</property>
  <property name="kdenlive:id">32</property>
  <property name="kdenlive:clip_type">2</property>
  <property name="kdenlive:file_hash">7846a8db31e479d6ed99b2d93531229e</property>
  <property name="force_reload">0</property>
  <property name="kdenlive:monitorPosition">23</property>
  <property name="kdenlive:control_uuid">{3de02f6e-df6b-4f6c-b45c-d19b0eefb009}</property>
  <property name="kdenlive:uniqueId">{f1039f73-67be-4e57-9e19-cfffab9d5e1d}</property>
  <property name="meta.media.width">4096</property>
  <property name="meta.media.height">2160</property>
 </producer>
 <chain id="chain5" out="00:00:10.067">
  <property name="length">303</property>
  <property name="eof">pause</property>
  <property name="resource">media/audio/audio-script-page-4.2.mp3</property>
  <property name="mlt_service">avformat</property>
  <property name="meta.media.nb_streams">1</property>
  <property name="meta.media.0.stream.type">audio</property>
  <property name="meta.media.0.codec.sample_fmt">fltp</property>
  <property name="meta.media.0.codec.sample_rate">44100</property>
  <property name="meta.media.0.codec.channels">1</property>
  <property name="meta.media.0.codec.layout">mono</property>
  <property name="meta.media.0.codec.name">mp3float</property>
  <property name="meta.media.0.codec.long_name">MP3 (MPEG audio layer 3)</property>
  <property name="meta.media.0.codec.bit_rate">64000</property>
  <property name="meta.attr.encoder.markup">Lavf60.16.100</property>
  <property name="seekable">1</property>
  <property name="audio_index">0</property>
  <property name="video_index">-1</property>
  <property name="astream">0</property>
  <property name="kdenlive:folderid">-1</property>
  <property name="kdenlive:id">33</property>
  <property name="kdenlive:control_uuid">{e6396cf1-2f6c-4db4-8c28-2857a5e09fd1}</property>
  <property name="kdenlive:clip_type">1</property>
  <property name="kdenlive:file_size">81102</property>
  <property name="kdenlive:file_hash">b9375252578873980ae1459c85a482ab</property>
  <property name="kdenlive:audio_max0">131</property>
  <property name="kdenlive:clipname">Audio - script - page 4.2</property>
  <property name="kdenlive:monitorPosition">0</property>
 </chain>
 <chain id="chain6" out="00:00:20.333">
  <property name="length">611</property>
  <property name="eof">pause</property>
  <property name="resource">media/audio/audio-script-page-4.3.mp3</property>
  <property name="mlt_service">avformat</property>
  <property name="meta.media.nb_streams">1</property>
  <property name="meta.media.0.stream.type">audio</property>
  <property name="meta.media.0.codec.sample_fmt">fltp</property>
  <property name="meta.media.0.codec.sample_rate">44100</property>
  <property name="meta.media.0.codec.channels">1</property>
  <property name="meta.media.0.codec.layout">mono</property>
  <property name="meta.media.0.codec.name">mp3float</property>
  <property name="meta.media.0.codec.long_name">MP3 (MPEG audio layer 3)</property>
  <property name="meta.media.0.codec.bit_rate">64000</property>
  <property name="meta.attr.encoder.markup">Lavf60.16.100</property>
  <property name="seekable">1</property>
  <property name="audio_index">0</property>
  <property name="video_index">-1</property>
  <property name="astream">0</property>
  <property name="kdenlive:folderid">-1</property>
  <property name="kdenlive:id">34</property>
  <property name="kdenlive:control_uuid">{717b0317-0259-4e4a-946c-838009c7a9a7}</property>
  <property name="kdenlive:clip_type">1</property>
  <property name="kdenlive:file_size">163231</property>
  <property name="kdenlive:file_hash">c284956d2ff417c2fdad4193f0932bb7</property>
  <property name="kdenlive:audio_max0">133</property>
  <property name="kdenlive:clipname">Audio --script-- page-4.3</property>
  <property name="kdenlive:monitorPosition">0</property>
 </chain>
 <producer id="producer32" in="00:00:00.000" out="00:00:29.933">
  <property name="length">899</property>
  <property name="eof">pause</property>
  <property name="resource"/>
  <property name="meta.media.progressive">1</property>
  <property name="aspect_ratio">1</property>
  <property name="seekable">1</property>
  <property name="mlt_service">kdenlivetitle</property>
  <property name="kdenlive:duration">00:00:05:00</property>
  <property name="kdenlive:clipname">Page 5</property>
  <property name="xmldata">&lt;kdenlivetitle LC_NUMERIC="C" duration="150" height="2160" out="149" width="4096">
 &lt;item type="QGraphicsTextItem" z-index="0">
  &lt;position x="3971" y="2040">
   &lt;transform>1,0,0,0,1,0,0,0,1&lt;/transform>
  &lt;/position>
  &lt;content alignment="2" box-height="136" box-width="28.5938" font="Noto Sans" font-color="117,117,117,255" font-italic="0" font-pixel-size="50" font-underline="0" font-weight="900" letter-spacing="0" line-spacing="0" shadow="0;#64000000;3;3;3" tab-width="80" typewriter="0;2;1;0;0">5
&lt;/content>
 &lt;/item>
 &lt;startviewport rect="0,0,4096,2160"/>
 &lt;endviewport rect="0,0,4096,2160"/>
 &lt;background color="170,255,0,0"/>
&lt;/kdenlivetitle>
</property>
  <property name="xml">was here</property>
  <property name="kdenlive:folderid">-1</property>
  <property name="kdenlive:id">35</property>
  <property name="kdenlive:clip_type">2</property>
  <property name="kdenlive:file_hash">f3e7fcf726b1388f4f7f728e00dede89</property>
  <property name="force_reload">0</property>
  <property name="kdenlive:monitorPosition">95</property>
  <property name="kdenlive:control_uuid">{49fdb727-533f-43b7-a415-586c7023d8f6}</property>
  <property name="kdenlive:uniqueId">{97efe44e-87cc-45e3-9491-5762937a4e95}</property>
  <property name="meta.media.width">4096</property>
  <property name="meta.media.height">2160</property>
 </producer>
 <producer id="producer33" in="00:00:00.000" out="00:00:29.933">
  <property name="length">00:00:29.967</property>
  <property name="eof">pause</property>
  <property name="resource">#ff000000</property>
  <property name="aspect_ratio">1</property>
  <property name="mlt_service">color</property>
  <property name="kdenlive:clipname">Page 5 - fade</property>
  <property name="kdenlive:duration">00:00:05.000</property>
  <property name="xml">was here</property>
  <property name="seekable">1</property>
  <property name="kdenlive:folderid">-1</property>
  <property name="kdenlive:id">36</property>
  <property name="mlt_image_format">rgb</property>
  <property name="kdenlive:clip_type">2</property>
  <property name="kdenlive:monitorPosition">23</property>
  <property name="kdenlive:file_hash">fb762ca3b45ce510ad2f75a8b6baef35</property>
  <property name="kdenlive:control_uuid">{13cd2a40-3457-47a9-ad12-855b10fb3903}</property>
 </producer>
 <producer id="producer31" in="00:00:00.000" out="00:00:29.933">
  <property name="length">899</property>
  <property name="eof">pause</property>
  <property name="resource"/>
  <property name="meta.media.progressive">1</property>
  <property name="aspect_ratio">1</property>
  <property name="seekable">1</property>
  <property name="mlt_service">kdenlivetitle</property>
  <property name="kdenlive:duration">00:00:05:00</property>
  <property name="kdenlive:clipname">Page 5.1</property>
  <property name="xmldata">&lt;kdenlivetitle LC_NUMERIC="C" duration="150" height="2160" out="149" width="4096">
 &lt;item type="QGraphicsTextItem" z-index="1">
  &lt;position x="320" y="100">
   &lt;transform>1,0,0,0,1,0,0,0,1&lt;/transform>
  &lt;/position>
  &lt;content alignment="1" box-height="205" box-width="1377.95" font="Noto Sans" font-color="0,0,0,255" font-italic="0" font-outline="0" font-outline-color="0,0,0,255" font-pixel-size="150" font-underline="0" font-weight="900" letter-spacing="0" line-spacing="0" shadow="0;#64000000;3;3;3" tab-width="80" typewriter="0;2;1;0;0">Platform overview&lt;/content>
 &lt;/item>
 &lt;startviewport rect="0,0,4096,2160"/>
 &lt;endviewport rect="0,0,4096,2160"/>
 &lt;background color="0,0,0,0"/>
&lt;/kdenlivetitle>
</property>
  <property name="xml">was here</property>
  <property name="kdenlive:folderid">-1</property>
  <property name="kdenlive:id">37</property>
  <property name="kdenlive:clip_type">2</property>
  <property name="kdenlive:file_hash">4e06eb3e5d7f74c7c01a7cc2e4688608</property>
  <property name="force_reload">0</property>
  <property name="kdenlive:monitorPosition">806</property>
  <property name="kdenlive:control_uuid">{543e4298-6562-4bde-bf37-0c39a6d8e701}</property>
  <property name="kdenlive:uniqueId">{0baec353-250f-4b53-bb25-2b0a1abb48f5}</property>
  <property name="meta.media.width">4096</property>
  <property name="meta.media.height">2160</property>
 </producer>
 <producer id="producer30" in="00:00:00.000" out="00:00:31.167">
  <property name="length">936</property>
  <property name="eof">pause</property>
  <property name="resource"/>
  <property name="meta.media.progressive">1</property>
  <property name="aspect_ratio">1</property>
  <property name="seekable">1</property>
  <property name="mlt_service">kdenlivetitle</property>
  <property name="kdenlive:duration">00:00:05:00</property>
  <property name="kdenlive:clipname">Page 5.2</property>
  <property name="xmldata">&lt;kdenlivetitle LC_NUMERIC="C" duration="150" height="2160" out="149" width="4096">
 &lt;item type="QGraphicsTextItem" z-index="2">
  &lt;position x="320" y="500">
   &lt;transform>1,0,0,0,1,0,0,0,1&lt;/transform>
  &lt;/position>
  &lt;content alignment="1" box-height="680" box-width="3434.83" font="Noto Sans" font-color="0,0,0,255" font-italic="0" font-pixel-size="100" font-underline="0" font-weight="400" letter-spacing="0" line-spacing="0" shadow="0;#64000000;3;3;3" tab-width="80" typewriter="0;2;1;0;0">It also supports advanced real-time monitoring capabilities with time and
counter based metrics that can be used by the operations team or
managers to measure/present SLAs. Fully customisable charts can easily
show the frequency of service calls (e.g. REST endpoints) or the serving
time of requests for any service in the Platform.&lt;/content>
 &lt;/item>
 &lt;startviewport rect="0,0,4096,2160"/>
 &lt;endviewport rect="0,0,4096,2160"/>
 &lt;background color="0,0,0,0"/>
&lt;/kdenlivetitle>
</property>
  <property name="xml">was here</property>
  <property name="kdenlive:folderid">-1</property>
  <property name="kdenlive:id">38</property>
  <property name="kdenlive:clip_type">2</property>
  <property name="kdenlive:file_hash">46ca0f4015fb7273e01f4b463849bb08</property>
  <property name="force_reload">0</property>
  <property name="kdenlive:monitorPosition">149</property>
  <property name="kdenlive:control_uuid">{4c368f6d-a0ed-4c31-91e2-a66cadd9f5e8}</property>
  <property name="kdenlive:uniqueId">{47caa42a-39f8-44e6-8428-3702290e2a9e}</property>
  <property name="meta.media.width">4096</property>
  <property name="meta.media.height">2160</property>
 </producer>
 <producer id="producer29" in="00:00:00.000" out="00:00:31.167">
  <property name="length">936</property>
  <property name="eof">pause</property>
  <property name="resource"/>
  <property name="meta.media.progressive">1</property>
  <property name="aspect_ratio">1</property>
  <property name="seekable">1</property>
  <property name="mlt_service">kdenlivetitle</property>
  <property name="kdenlive:duration">00:00:05:00</property>
  <property name="kdenlive:clipname">Page 5.3</property>
  <property name="xmldata">&lt;kdenlivetitle LC_NUMERIC="C" duration="150" height="2160" out="149" width="4096">
 &lt;item type="QGraphicsTextItem" z-index="3">
  &lt;position x="320" y="1310">
   &lt;transform>1,0,0,0,1,0,0,0,1&lt;/transform>
  &lt;/position>
  &lt;content alignment="0" box-height="680" box-width="3567.39" font="Noto Sans" font-color="0,0,0,255" font-italic="0" font-outline="0" font-outline-color="0,0,0,255" font-pixel-size="100" font-underline="0" font-weight="400" letter-spacing="0" shadow="0;#64000000;3;3;3" tab-width="80" typewriter="0;2;1;0;0">The services provided by the Gombi Platform support rapid development
for start-ups, small and medium-sized companies. With the Gombi Platform,
IT teams can quickly deliver the IT solutions what the business needs, and
later, as the business evolves, the services and building blocks can be easily
improved and replaced with zero downtime.&lt;/content>
 &lt;/item>
 &lt;startviewport rect="0,0,4096,2160"/>
 &lt;endviewport rect="0,0,4096,2160"/>
 &lt;background color="0,0,0,0"/>
&lt;/kdenlivetitle>
</property>
  <property name="xml">was here</property>
  <property name="kdenlive:folderid">-1</property>
  <property name="kdenlive:id">39</property>
  <property name="kdenlive:clip_type">2</property>
  <property name="kdenlive:file_hash">cd40db49ec18d210eb9c525b2d3615bc</property>
  <property name="force_reload">0</property>
  <property name="kdenlive:monitorPosition">149</property>
  <property name="kdenlive:control_uuid">{b10ba586-4578-499c-b851-a4b0177d0c47}</property>
  <property name="kdenlive:uniqueId">{252e0bb7-c8f7-4860-b850-d55851ed5021}</property>
  <property name="meta.media.width">4096</property>
  <property name="meta.media.height">2160</property>
 </producer>
 <chain id="chain7" out="00:04:30.533">
  <property name="length">8117</property>
  <property name="eof">pause</property>
  <property name="resource">media/audio/bakground-music-freedom.mp3</property>
  <property name="mlt_service">avformat</property>
  <property name="meta.media.nb_streams">1</property>
  <property name="meta.media.0.stream.type">audio</property>
  <property name="meta.media.0.codec.sample_fmt">fltp</property>
  <property name="meta.media.0.codec.sample_rate">44100</property>
  <property name="meta.media.0.codec.channels">2</property>
  <property name="meta.media.0.codec.layout">stereo</property>
  <property name="meta.media.0.codec.name">mp3float</property>
  <property name="meta.media.0.codec.long_name">MP3 (MPEG audio layer 3)</property>
  <property name="meta.media.0.codec.bit_rate">320000</property>
  <property name="meta.attr.artist.markup">Roa</property>
  <property name="meta.attr.TBPM.markup">130</property>
  <property name="meta.attr.encoded_by.markup">LAME in FL Studio 20</property>
  <property name="meta.attr.title.markup">freedom</property>
  <property name="meta.attr.date.markup">2020</property>
  <property name="seekable">1</property>
  <property name="audio_index">0</property>
  <property name="video_index">-1</property>
  <property name="astream">0</property>
  <property name="kdenlive:folderid">-1</property>
  <property name="kdenlive:id">40</property>
  <property name="kdenlive:control_uuid">{9801a800-c36e-40c6-9e05-cfbff6c70b4e}</property>
  <property name="kdenlive:clip_type">1</property>
  <property name="kdenlive:file_size">10824280</property>
  <property name="kdenlive:file_hash">77cbff1ce69ee3ac25751219be97df16</property>
  <property name="kdenlive:audio_max0">232</property>
  <property name="kdenlive:clipname">Audio - bakground music - freedom</property>
  <property name="kdenlive:monitorPosition">8</property>
 </chain>
 <producer id="producer0" in="00:00:00.000" out="00:06:21.000">
  <property name="length">2147483647</property>
  <property name="eof">continue</property>
  <property name="resource">black</property>
  <property name="aspect_ratio">1</property>
  <property name="mlt_service">color</property>
  <property name="kdenlive:playlistid">black_track</property>
  <property name="mlt_image_format">rgba</property>
  <property name="set.test_audio">0</property>
 </producer>
 <chain id="chain0" out="00:04:30.533">
  <property name="length">8117</property>
  <property name="eof">pause</property>
  <property name="resource">media/audio/bakground-music-freedom.mp3</property>
  <property name="mlt_service">avformat-novalidate</property>
  <property name="seekable">1</property>
  <property name="audio_index">0</property>
  <property name="video_index">-1</property>
  <property name="astream">0</property>
  <property name="kdenlive:folderid">-1</property>
  <property name="kdenlive:id">40</property>
  <property name="kdenlive:control_uuid">{9801a800-c36e-40c6-9e05-cfbff6c70b4e}</property>
  <property name="kdenlive:clip_type">1</property>
  <property name="kdenlive:file_size">10824280</property>
  <property name="kdenlive:file_hash">77cbff1ce69ee3ac25751219be97df16</property>
  <property name="kdenlive:audio_max0">232</property>
  <property name="kdenlive:clipname">Audio - bakground music - freedom</property>
  <property name="meta.media.nb_streams">1</property>
  <property name="meta.media.0.stream.type">audio</property>
  <property name="meta.media.0.codec.sample_fmt">fltp</property>
  <property name="meta.media.0.codec.sample_rate">44100</property>
  <property name="meta.media.0.codec.channels">2</property>
  <property name="meta.media.0.codec.layout">stereo</property>
  <property name="meta.media.0.codec.name">mp3float</property>
  <property name="meta.media.0.codec.long_name">MP3 (MPEG audio layer 3)</property>
  <property name="meta.media.0.codec.bit_rate">320000</property>
  <property name="meta.attr.artist.markup">Roa</property>
  <property name="meta.attr.TBPM.markup">130</property>
  <property name="meta.attr.encoded_by.markup">LAME in FL Studio 20</property>
  <property name="meta.attr.title.markup">freedom</property>
  <property name="meta.attr.date.markup">2020</property>
  <property name="xml">was here</property>
  <property name="mute_on_pause">0</property>
  <property name="set.test_audio">0</property>
  <property name="set.test_image">1</property>
 </chain>
 <playlist id="playlist0">
  <property name="kdenlive:audio_track">1</property>
  <entry in="00:00:00.000" out="00:00:30.933" producer="chain0">
   <property name="kdenlive:id">40</property>
   <filter id="filter0">
    <property name="window">75</property>
    <property name="max_gain">20dB</property>
    <property name="level">00:00:00.000=-8</property>
    <property name="mlt_service">volume</property>
    <property name="kdenlive_id">volume</property>
    <property name="kdenlive:collapsed">0</property>
   </filter>
   <filter id="filter1" in="00:00:28.933" out="00:00:30.933">
    <property name="window">75</property>
    <property name="max_gain">20dB</property>
    <property name="mlt_service">volume</property>
    <property name="kdenlive_id">fadeout</property>
    <property name="gain">1</property>
    <property name="end">0</property>
    <property name="kdenlive:collapsed">0</property>
   </filter>
  </entry>
  <entry in="00:00:30.967" out="00:00:38.500" producer="chain0">
   <property name="kdenlive:id">40</property>
   <filter id="filter2">
    <property name="window">75</property>
    <property name="max_gain">20dB</property>
    <property name="level">00:00:30.967=-30</property>
    <property name="mlt_service">volume</property>
    <property name="kdenlive_id">volume</property>
    <property name="kdenlive:collapsed">0</property>
   </filter>
  </entry>
  <entry in="00:00:38.533" out="00:00:39.533" producer="chain0">
   <property name="kdenlive:id">40</property>
   <filter id="filter3">
    <property name="window">75</property>
    <property name="max_gain">20dB</property>
    <property name="level">00:00:38.533=-8</property>
    <property name="mlt_service">volume</property>
    <property name="kdenlive_id">volume</property>
    <property name="kdenlive:collapsed">0</property>
   </filter>
   <filter id="filter4" in="00:00:36.533" out="00:00:39.533">
    <property name="window">75</property>
    <property name="max_gain">20dB</property>
    <property name="mlt_service">volume</property>
    <property name="kdenlive_id">fadeout</property>
    <property name="gain">1</property>
    <property name="end">0</property>
    <property name="kdenlive:collapsed">0</property>
   </filter>
  </entry>
  <entry in="00:00:39.567" out="00:00:57.067" producer="chain0">
   <property name="kdenlive:id">40</property>
   <filter id="filter5">
    <property name="window">75</property>
    <property name="max_gain">20dB</property>
    <property name="level">00:00:39.567=-30</property>
    <property name="mlt_service">volume</property>
    <property name="kdenlive_id">volume</property>
    <property name="kdenlive:collapsed">0</property>
   </filter>
  </entry>
  <entry in="00:00:57.100" out="00:01:20.933" producer="chain0">
   <property name="kdenlive:id">40</property>
   <filter id="filter6" in="00:01:18.933" out="00:01:20.933">
    <property name="window">75</property>
    <property name="max_gain">20dB</property>
    <property name="mlt_service">volume</property>
    <property name="kdenlive_id">fadeout</property>
    <property name="gain">1</property>
    <property name="end">0</property>
    <property name="kdenlive:collapsed">0</property>
   </filter>
   <filter id="filter7">
    <property name="window">75</property>
    <property name="max_gain">20dB</property>
    <property name="level">00:00:57.100=-8</property>
    <property name="mlt_service">volume</property>
    <property name="kdenlive_id">volume</property>
    <property name="kdenlive:collapsed">0</property>
   </filter>
   <filter id="filter9" in="00:00:57.100" out="00:00:59.100">
    <property name="window">75</property>
    <property name="max_gain">20dB</property>
    <property name="mlt_service">volume</property>
    <property name="kdenlive_id">fadein</property>
    <property name="gain">0</property>
    <property name="end">1</property>
    <property name="kdenlive:collapsed">0</property>
   </filter>
  </entry>
 </playlist>
 <playlist id="playlist1">
  <property name="kdenlive:audio_track">1</property>
 </playlist>
 <tractor id="tractor0" in="00:00:00.000" out="00:01:20.933">
  <property name="kdenlive:audio_track">1</property>
  <property name="kdenlive:trackheight">75</property>
  <property name="kdenlive:timeline_active">1</property>
  <property name="kdenlive:collapsed">0</property>
  <property name="kdenlive:thumbs_format"/>
  <property name="kdenlive:audio_rec"/>
  <track hide="video" producer="playlist0"/>
  <track hide="video" producer="playlist1"/>
  <filter id="filter10">
   <property name="window">75</property>
   <property name="max_gain">20dB</property>
   <property name="mlt_service">volume</property>
   <property name="internal_added">237</property>
   <property name="disable">1</property>
  </filter>
  <filter id="filter11">
   <property name="channel">-1</property>
   <property name="mlt_service">panner</property>
   <property name="internal_added">237</property>
   <property name="start">0.5</property>
   <property name="disable">1</property>
  </filter>
  <filter id="filter12">
   <property name="iec_scale">0</property>
   <property name="mlt_service">audiolevel</property>
   <property name="dbpeak">1</property>
   <property name="disable">1</property>
  </filter>
 </tractor>
 <chain id="chain2" out="00:00:00.600">
  <property name="length">19</property>
  <property name="eof">pause</property>
  <property name="resource">media/audio/audio-effect-slide-in.mp3</property>
  <property name="mlt_service">avformat-novalidate</property>
  <property name="seekable">1</property>
  <property name="audio_index">0</property>
  <property name="video_index">-1</property>
  <property name="astream">0</property>
  <property name="kdenlive:folderid">-1</property>
  <property name="kdenlive:id">20</property>
  <property name="kdenlive:control_uuid">{c2dbb3fe-03b3-468b-9d71-e31c429ddd4c}</property>
  <property name="kdenlive:clip_type">1</property>
  <property name="kdenlive:file_size">12480</property>
  <property name="kdenlive:file_hash">d5422d72a14f925b8c4876041f8a90fd</property>
  <property name="kdenlive:audio_max0">193</property>
  <property name="kdenlive:clipname">Audio - effect - slide-in</property>
  <property name="meta.media.nb_streams">1</property>
  <property name="meta.media.0.stream.type">audio</property>
  <property name="meta.media.0.codec.sample_fmt">fltp</property>
  <property name="meta.media.0.codec.sample_rate">24000</property>
  <property name="meta.media.0.codec.channels">2</property>
  <property name="meta.media.0.codec.layout">stereo</property>
  <property name="meta.media.0.codec.name">mp3float</property>
  <property name="meta.media.0.codec.long_name">MP3 (MPEG audio layer 3)</property>
  <property name="meta.media.0.codec.bit_rate">160000</property>
  <property name="xml">was here</property>
  <property name="mute_on_pause">0</property>
  <property name="set.test_audio">0</property>
  <property name="set.test_image">1</property>
 </chain>
 <chain id="chain3" out="00:00:10.067">
  <property name="length">303</property>
  <property name="eof">pause</property>
  <property name="resource">media/audio/audio-script-page-4.2.mp3</property>
  <property name="mlt_service">avformat-novalidate</property>
  <property name="seekable">1</property>
  <property name="audio_index">0</property>
  <property name="video_index">-1</property>
  <property name="astream">0</property>
  <property name="kdenlive:folderid">-1</property>
  <property name="kdenlive:id">33</property>
  <property name="kdenlive:control_uuid">{e6396cf1-2f6c-4db4-8c28-2857a5e09fd1}</property>
  <property name="kdenlive:clip_type">1</property>
  <property name="kdenlive:file_size">81102</property>
  <property name="kdenlive:file_hash">b9375252578873980ae1459c85a482ab</property>
  <property name="kdenlive:audio_max0">131</property>
  <property name="kdenlive:clipname">Audio - script - page 4.2</property>
  <property name="kdenlive:monitorPosition">0</property>
  <property name="meta.media.nb_streams">1</property>
  <property name="meta.media.0.stream.type">audio</property>
  <property name="meta.media.0.codec.sample_fmt">fltp</property>
  <property name="meta.media.0.codec.sample_rate">44100</property>
  <property name="meta.media.0.codec.channels">1</property>
  <property name="meta.media.0.codec.layout">mono</property>
  <property name="meta.media.0.codec.name">mp3float</property>
  <property name="meta.media.0.codec.long_name">MP3 (MPEG audio layer 3)</property>
  <property name="meta.media.0.codec.bit_rate">64000</property>
  <property name="meta.attr.encoder.markup">Lavf60.16.100</property>
  <property name="xml">was here</property>
  <property name="mute_on_pause">0</property>
  <property name="set.test_audio">0</property>
  <property name="set.test_image">1</property>
 </chain>
 <chain id="chain4" out="00:00:20.333">
  <property name="length">611</property>
  <property name="eof">pause</property>
  <property name="resource">media/audio/audio-script-page-4.3.mp3</property>
  <property name="mlt_service">avformat-novalidate</property>
  <property name="seekable">1</property>
  <property name="audio_index">0</property>
  <property name="video_index">-1</property>
  <property name="astream">0</property>
  <property name="kdenlive:folderid">-1</property>
  <property name="kdenlive:id">34</property>
  <property name="kdenlive:control_uuid">{717b0317-0259-4e4a-946c-838009c7a9a7}</property>
  <property name="kdenlive:clip_type">1</property>
  <property name="kdenlive:file_size">163231</property>
  <property name="kdenlive:file_hash">c284956d2ff417c2fdad4193f0932bb7</property>
  <property name="kdenlive:audio_max0">133</property>
  <property name="kdenlive:clipname">Audio --script-- page-4.3</property>
  <property name="kdenlive:monitorPosition">0</property>
  <property name="meta.media.nb_streams">1</property>
  <property name="meta.media.0.stream.type">audio</property>
  <property name="meta.media.0.codec.sample_fmt">fltp</property>
  <property name="meta.media.0.codec.sample_rate">44100</property>
  <property name="meta.media.0.codec.channels">1</property>
  <property name="meta.media.0.codec.layout">mono</property>
  <property name="meta.media.0.codec.name">mp3float</property>
  <property name="meta.media.0.codec.long_name">MP3 (MPEG audio layer 3)</property>
  <property name="meta.media.0.codec.bit_rate">64000</property>
  <property name="meta.attr.encoder.markup">Lavf60.16.100</property>
  <property name="xml">was here</property>
  <property name="mute_on_pause">0</property>
  <property name="set.test_audio">0</property>
  <property name="set.test_image">1</property>
 </chain>
 <playlist id="playlist2">
  <property name="kdenlive:audio_track">1</property>
  <blank length="00:00:15.367"/>
  <entry in="00:00:00.000" out="00:00:00.600" producer="chain2">
   <property name="kdenlive:id">20</property>
   <filter id="filter13">
    <property name="window">75</property>
    <property name="max_gain">20dB</property>
    <property name="level">00:00:00.000=-10</property>
    <property name="mlt_service">volume</property>
    <property name="kdenlive_id">volume</property>
    <property name="kdenlive:collapsed">0</property>
   </filter>
  </entry>
  <blank length="00:00:02.367"/>
  <entry in="00:00:00.000" out="00:00:00.600" producer="chain2">
   <property name="kdenlive:id">20</property>
   <filter id="filter14">
    <property name="window">75</property>
    <property name="max_gain">20dB</property>
    <property name="level">00:00:00.000=-10</property>
    <property name="mlt_service">volume</property>
    <property name="kdenlive_id">volume</property>
    <property name="kdenlive:collapsed">0</property>
   </filter>
  </entry>
  <blank length="00:00:02.433"/>
  <entry in="00:00:00.000" out="00:00:00.600" producer="chain2">
   <property name="kdenlive:id">20</property>
   <filter id="filter15">
    <property name="window">75</property>
    <property name="max_gain">20dB</property>
    <property name="level">00:00:00.000=-10</property>
    <property name="mlt_service">volume</property>
    <property name="kdenlive_id">volume</property>
    <property name="kdenlive:collapsed">0</property>
   </filter>
  </entry>
  <blank length="00:00:00.367"/>
  <entry in="00:00:00.000" out="00:00:00.600" producer="chain2">
   <property name="kdenlive:id">20</property>
   <filter id="filter16">
    <property name="window">75</property>
    <property name="max_gain">20dB</property>
    <property name="level">00:00:00.000=-10</property>
    <property name="mlt_service">volume</property>
    <property name="kdenlive_id">volume</property>
    <property name="kdenlive:collapsed">0</property>
   </filter>
  </entry>
  <blank length="00:00:07.933"/>
  <entry in="00:00:01.300" out="00:00:08.867" producer="chain3">
   <property name="kdenlive:id">33</property>
  </entry>
  <blank length="00:00:00.967"/>
  <entry in="00:00:01.300" out="00:00:18.867" producer="chain4">
   <property name="kdenlive:id">34</property>
   <filter id="filter17">
    <property name="window">75</property>
    <property name="max_gain">20dB</property>
    <property name="level">00:00:01.300=5</property>
    <property name="mlt_service">volume</property>
    <property name="kdenlive_id">volume</property>
    <property name="kdenlive:collapsed">0</property>
   </filter>
  </entry>
 </playlist>
 <playlist id="playlist3">
  <property name="kdenlive:audio_track">1</property>
 </playlist>
 <tractor id="tractor1" in="00:00:00.000" out="00:00:57.133">
  <property name="kdenlive:audio_track">1</property>
  <property name="kdenlive:trackheight">75</property>
  <property name="kdenlive:timeline_active">1</property>
  <property name="kdenlive:collapsed">0</property>
  <property name="kdenlive:thumbs_format"/>
  <property name="kdenlive:audio_rec"/>
  <track hide="video" producer="playlist2"/>
  <track hide="video" producer="playlist3"/>
  <filter id="filter18">
   <property name="window">75</property>
   <property name="max_gain">20dB</property>
   <property name="mlt_service">volume</property>
   <property name="internal_added">237</property>
   <property name="disable">1</property>
  </filter>
  <filter id="filter19">
   <property name="channel">-1</property>
   <property name="mlt_service">panner</property>
   <property name="internal_added">237</property>
   <property name="start">0.5</property>
   <property name="disable">1</property>
  </filter>
  <filter id="filter20">
   <property name="iec_scale">0</property>
   <property name="mlt_service">audiolevel</property>
   <property name="dbpeak">1</property>
   <property name="disable">1</property>
  </filter>
 </tractor>
 <playlist id="playlist4">
  <blank length="00:00:22.067"/>
  <entry in="00:00:00.000" out="00:00:07.900" producer="producer17">
   <property name="kdenlive:id">24</property>
   <filter id="filter21">
    <property name="rotate_center">1</property>
    <property name="mlt_service">qtblend</property>
    <property name="kdenlive_id">qtblend</property>
    <property name="compositing">0</property>
    <property name="distort">0</property>
    <property name="rect">00:00:00.000=4096 0 4096 2160 1.000000;00:00:01.000=0 0 4096 2160 1.000000</property>
    <property name="rotation">00:00:00.000=0;00:00:01.000=0</property>
    <property name="kdenlive:collapsed">0</property>
   </filter>
  </entry>
 </playlist>
 <playlist id="playlist5"/>
 <tractor id="tractor2" in="00:00:00.000" out="00:00:29.967">
  <property name="kdenlive:trackheight">75</property>
  <property name="kdenlive:timeline_active">1</property>
  <property name="kdenlive:collapsed">0</property>
  <property name="kdenlive:thumbs_format"/>
  <property name="kdenlive:audio_rec"/>
  <track hide="audio" producer="playlist4"/>
  <track hide="audio" producer="playlist5"/>
 </tractor>
 <playlist id="playlist6">
  <blank length="00:00:21.000"/>
  <entry in="00:00:00.000" out="00:00:08.967" producer="producer18">
   <property name="kdenlive:id">23</property>
   <filter id="filter22">
    <property name="rotate_center">1</property>
    <property name="mlt_service">qtblend</property>
    <property name="kdenlive_id">qtblend</property>
    <property name="compositing">0</property>
    <property name="distort">0</property>
    <property name="rect">00:00:00.000=4096 0 4096 2160 1.000000;00:00:01.000=0 0 4096 2160 1.000000</property>
    <property name="rotation">00:00:00.000=0;00:00:01.000=0</property>
    <property name="kdenlive:collapsed">0</property>
   </filter>
  </entry>
 </playlist>
 <playlist id="playlist7"/>
 <tractor id="tractor3" in="00:00:00.000" out="00:00:29.967">
  <property name="kdenlive:trackheight">75</property>
  <property name="kdenlive:timeline_active">1</property>
  <property name="kdenlive:collapsed">0</property>
  <property name="kdenlive:thumbs_format"/>
  <property name="kdenlive:audio_rec"/>
  <track hide="audio" producer="playlist6"/>
  <track hide="audio" producer="playlist7"/>
 </tractor>
 <playlist id="playlist8">
  <blank length="00:00:20.000"/>
  <entry in="00:00:00.000" out="00:00:09.967" producer="producer19">
   <property name="kdenlive:id">22</property>
   <filter id="filter23">
    <property name="rotate_center">1</property>
    <property name="mlt_service">qtblend</property>
    <property name="kdenlive_id">qtblend</property>
    <property name="compositing">0</property>
    <property name="distort">0</property>
    <property name="rect">00:00:00.000=4096 0 4096 2160 1.000000;00:00:01.000=0 0 4096 2160 1.000000</property>
    <property name="rotation">00:00:00.000=0;00:00:01.000=0</property>
    <property name="kdenlive:collapsed">0</property>
   </filter>
  </entry>
 </playlist>
 <playlist id="playlist9"/>
 <tractor id="tractor4" in="00:00:00.000" out="00:00:29.967">
  <property name="kdenlive:trackheight">75</property>
  <property name="kdenlive:timeline_active">1</property>
  <property name="kdenlive:collapsed">0</property>
  <property name="kdenlive:thumbs_format"/>
  <property name="kdenlive:audio_rec"/>
  <track hide="audio" producer="playlist8"/>
  <track hide="audio" producer="playlist9"/>
 </tractor>
 <playlist id="playlist10">
  <blank length="00:00:19.000"/>
  <entry in="00:00:00.000" out="00:00:10.967" producer="producer20">
   <property name="kdenlive:id">21</property>
   <filter id="filter24">
    <property name="rotate_center">1</property>
    <property name="mlt_service">qtblend</property>
    <property name="kdenlive_id">qtblend</property>
    <property name="compositing">0</property>
    <property name="distort">0</property>
    <property name="rect">00:00:00.000=4096 0 4096 2160 1.000000;00:00:01.000=0 0 4096 2160 1.000000</property>
    <property name="rotation">00:00:00.000=0;00:00:01.000=0</property>
    <property name="kdenlive:collapsed">0</property>
   </filter>
  </entry>
 </playlist>
 <playlist id="playlist11"/>
 <tractor id="tractor5" in="00:00:00.000" out="00:00:29.967">
  <property name="kdenlive:trackheight">75</property>
  <property name="kdenlive:timeline_active">1</property>
  <property name="kdenlive:collapsed">0</property>
  <property name="kdenlive:thumbs_format"/>
  <property name="kdenlive:audio_rec"/>
  <track hide="audio" producer="playlist10"/>
  <track hide="audio" producer="playlist11"/>
 </tractor>
 <playlist id="playlist12">
  <blank length="00:00:18.000"/>
  <entry in="00:00:00.000" out="00:00:11.967" producer="producer13">
   <property name="kdenlive:id">19</property>
   <filter id="filter25">
    <property name="rotate_center">1</property>
    <property name="mlt_service">qtblend</property>
    <property name="kdenlive_id">qtblend</property>
    <property name="compositing">0</property>
    <property name="distort">0</property>
    <property name="rect">00:00:00.000=4096 0 4096 2160 1.000000;00:00:01.000=0 0 4096 2160 1.000000</property>
    <property name="rotation">00:00:00.000=0;00:00:01.000=0</property>
    <property name="kdenlive:collapsed">0</property>
   </filter>
  </entry>
 </playlist>
 <playlist id="playlist13"/>
 <tractor id="tractor6" in="00:00:00.000" out="00:00:29.967">
  <property name="kdenlive:trackheight">75</property>
  <property name="kdenlive:timeline_active">1</property>
  <property name="kdenlive:collapsed">0</property>
  <property name="kdenlive:thumbs_format"/>
  <property name="kdenlive:audio_rec"/>
  <track hide="audio" producer="playlist12"/>
  <track hide="audio" producer="playlist13"/>
 </tractor>
 <playlist id="playlist14">
  <entry in="00:00:00.000" out="00:00:04.967" producer="producer1">
   <property name="kdenlive:id">6</property>
   <filter id="filter26">
    <property name="rotate_center">1</property>
    <property name="mlt_service">qtblend</property>
    <property name="kdenlive_id">qtblend</property>
    <property name="compositing">0</property>
    <property name="distort">0</property>
    <property name="rect">00:00:00.000=0 0 4096 2304 1.000000</property>
    <property name="rotation">00:00:00.000=0</property>
    <property name="kdenlive:collapsed">0</property>
   </filter>
  </entry>
  <blank length="00:00:12.000"/>
  <entry in="00:00:00.000" out="00:00:12.967" producer="producer14">
   <property name="kdenlive:id">18</property>
   <filter id="filter27">
    <property name="rotate_center">1</property>
    <property name="mlt_service">qtblend</property>
    <property name="kdenlive_id">qtblend</property>
    <property name="compositing">0</property>
    <property name="distort">0</property>
    <property name="rect">00:00:00.000=4096 0 4096 2160 1.000000;00:00:01.000=0 0 4096 2160 1.000000</property>
    <property name="rotation">00:00:00.000=0;00:00:01.000=0</property>
    <property name="kdenlive:collapsed">0</property>
   </filter>
  </entry>
  <entry in="00:00:00.000" out="00:00:00.967" producer="producer22">
   <property name="kdenlive:id">31</property>
  </entry>
  <entry in="00:00:00.000" out="00:00:03.200" producer="producer22">
   <property name="kdenlive:id">31</property>
  </entry>
  <entry in="00:00:00.000" out="00:00:04.300" producer="producer22">
   <property name="kdenlive:id">31</property>
  </entry>
  <entry in="00:00:00.000" out="00:00:00.800" producer="producer22">
   <property name="kdenlive:id">31</property>
  </entry>
  <entry in="00:00:00.000" out="00:00:17.433" producer="producer22">
   <property name="kdenlive:id">31</property>
  </entry>
  <entry in="00:00:00.000" out="00:00:24.100" producer="producer22">
   <property name="kdenlive:id">31</property>
  </entry>
 </playlist>
 <playlist id="playlist15"/>
 <tractor id="tractor7" in="00:00:00.000" out="00:01:20.967">
  <property name="kdenlive:trackheight">75</property>
  <property name="kdenlive:timeline_active">1</property>
  <property name="kdenlive:collapsed">0</property>
  <property name="kdenlive:thumbs_format"/>
  <property name="kdenlive:audio_rec"/>
  <track hide="audio" producer="playlist14"/>
  <track hide="audio" producer="playlist15"/>
 </tractor>
 <playlist id="playlist16">
  <entry in="00:00:00.000" out="00:00:04.967" producer="producer3">
   <property name="kdenlive:id">4</property>
   <filter id="filter28">
    <property name="rotate_center">1</property>
    <property name="mlt_service">qtblend</property>
    <property name="kdenlive_id">qtblend</property>
    <property name="compositing">0</property>
    <property name="distort">0</property>
    <property name="rect">00:00:00.000=-6363 -4758 9742 5610 1.000000</property>
    <property name="rotation">00:00:00.000=0</property>
    <property name="kdenlive:collapsed">0</property>
   </filter>
  </entry>
  <blank length="00:00:11.000"/>
  <entry in="00:00:00.000" out="00:00:13.967" producer="producer15">
   <property name="kdenlive:id">17</property>
   <filter id="filter29">
    <property name="rotate_center">1</property>
    <property name="mlt_service">qtblend</property>
    <property name="kdenlive_id">qtblend</property>
    <property name="compositing">0</property>
    <property name="distort">0</property>
    <property name="rect">00:00:00.000=4096 0 4096 2160 1.000000;00:00:01.000=0 0 4096 2160 1.000000</property>
    <property name="rotation">00:00:00.000=0;00:00:01.000=0</property>
    <property name="kdenlive:collapsed">0</property>
   </filter>
  </entry>
  <blank length="00:00:08.567"/>
  <entry in="00:00:00.000" out="00:00:21.367" producer="producer23">
   <property name="kdenlive:id">32</property>
   <filter id="filter30">
    <property name="rotate_center">1</property>
    <property name="mlt_service">qtblend</property>
    <property name="kdenlive_id">qtblend</property>
    <property name="compositing">0</property>
    <property name="distort">0</property>
    <property name="rect">00:00:00.000=4096 0 4096 2160 1.000000;00:00:01.000=0 0 4096 2160 1.000000</property>
    <property name="rotation">00:00:00.000=0;00:00:01.000=0</property>
    <property name="kdenlive:collapsed">0</property>
   </filter>
  </entry>
  <blank length="00:00:11.033"/>
  <entry in="00:00:00.000" out="00:00:09.967" producer="producer29">
   <property name="kdenlive:id">39</property>
   <filter id="filter31">
    <property name="rotate_center">1</property>
    <property name="mlt_service">qtblend</property>
    <property name="kdenlive_id">qtblend</property>
    <property name="compositing">0</property>
    <property name="distort">0</property>
    <property name="rect">00:00:00.000=4096 0 4096 2160 1.000000;00:00:01.000=0 0 4096 2160 1.000000</property>
    <property name="rotation">00:00:00.000=0;00:00:01.000=0</property>
    <property name="kdenlive:collapsed">0</property>
   </filter>
  </entry>
 </playlist>
 <playlist id="playlist17"/>
 <tractor id="tractor8" in="00:00:00.000" out="00:01:20.967">
  <property name="kdenlive:trackheight">75</property>
  <property name="kdenlive:timeline_active">1</property>
  <property name="kdenlive:collapsed">0</property>
  <property name="kdenlive:thumbs_format"/>
  <property name="kdenlive:audio_rec"/>
  <track hide="audio" producer="playlist16"/>
  <track hide="audio" producer="playlist17"/>
 </tractor>
 <playlist id="playlist18">
  <entry in="00:00:00.000" out="00:00:04.967" producer="producer21">
   <property name="kdenlive:id">25</property>
   <filter id="filter32">
    <property name="rotate_center">1</property>
    <property name="mlt_service">qtblend</property>
    <property name="kdenlive_id">qtblend</property>
    <property name="compositing">0</property>
    <property name="distort">0</property>
    <property name="rect">00:00:00.000=2398 633 1285 886 1.000000</property>
    <property name="rotation">00:00:00.000=0</property>
    <property name="kdenlive:collapsed">0</property>
   </filter>
  </entry>
  <entry in="00:00:00.000" out="00:00:09.967" producer="producer16">
   <property name="kdenlive:id">16</property>
   <filter id="filter33">
    <property name="rotate_center">1</property>
    <property name="mlt_service">qtblend</property>
    <property name="kdenlive_id">qtblend</property>
    <property name="compositing">0</property>
    <property name="distort">0</property>
    <property name="rect">00:00:00.000=147 425 1010 527 1.000000</property>
    <property name="rotation">00:00:00.000=0</property>
    <property name="kdenlive:collapsed">0</property>
   </filter>
  </entry>
  <entry in="00:00:00.000" out="00:00:14.967" producer="producer12">
   <property name="kdenlive:id">14</property>
   <filter id="filter34">
    <property name="rotate_center">1</property>
    <property name="mlt_service">qtblend</property>
    <property name="kdenlive_id">qtblend</property>
    <property name="compositing">0</property>
    <property name="distort">0</property>
    <property name="rect">00:00:00.000=4096 0 4096 2160 1.000000;00:00:01.000=0 0 4096 2160 1.000000</property>
    <property name="rotation">00:00:00.000=0;00:00:01.000=0</property>
    <property name="kdenlive:collapsed">0</property>
   </filter>
  </entry>
  <entry in="00:00:00.000" out="00:00:29.933" producer="producer24">
   <property name="kdenlive:id">29</property>
   <filter id="filter35">
    <property name="rotate_center">1</property>
    <property name="mlt_service">qtblend</property>
    <property name="kdenlive_id">qtblend</property>
    <property name="compositing">0</property>
    <property name="distort">0</property>
    <property name="rect">00:00:00.000=4096 0 4096 2160 1.000000;00:00:01.000=0 0 4096 2160 1.000000</property>
    <property name="rotation">00:00:00.000=0;00:00:01.000=0</property>
    <property name="kdenlive:collapsed">0</property>
   </filter>
  </entry>
  <entry in="00:00:00.000" out="00:00:21.000" producer="producer30">
   <property name="kdenlive:id">38</property>
   <filter id="filter36">
    <property name="rotate_center">1</property>
    <property name="mlt_service">qtblend</property>
    <property name="kdenlive_id">qtblend</property>
    <property name="compositing">0</property>
    <property name="distort">0</property>
    <property name="rect">00:00:00.000=4096 0 4096 2160 1.000000;00:00:01.000=0 0 4096 2160 1.000000</property>
    <property name="rotation">00:00:00.000=0;00:00:01.000=0</property>
    <property name="kdenlive:collapsed">0</property>
   </filter>
  </entry>
 </playlist>
 <playlist id="playlist19"/>
 <tractor id="tractor9" in="00:00:00.000" out="00:01:20.967">
  <property name="kdenlive:trackheight">75</property>
  <property name="kdenlive:timeline_active">1</property>
  <property name="kdenlive:collapsed">0</property>
  <property name="kdenlive:thumbs_format"/>
  <property name="kdenlive:audio_rec"/>
  <track hide="audio" producer="playlist18"/>
  <track hide="audio" producer="playlist19"/>
 </tractor>
 <playlist id="playlist20">
  <blank length="00:00:05.000"/>
  <entry in="00:00:00.000" out="00:01:15.967" producer="producer21">
   <property name="kdenlive:id">25</property>
   <filter id="filter37">
    <property name="rotate_center">1</property>
    <property name="mlt_service">qtblend</property>
    <property name="kdenlive_id">qtblend</property>
    <property name="compositing">0</property>
    <property name="distort">0</property>
    <property name="rect">00:00:00.000=40 2000 286 151 1.000000</property>
    <property name="rotation">00:00:00.000=0</property>
    <property name="kdenlive:collapsed">0</property>
   </filter>
  </entry>
 </playlist>
 <playlist id="playlist21"/>
 <tractor id="tractor10" in="00:00:00.000" out="00:01:20.967">
  <property name="kdenlive:trackheight">75</property>
  <property name="kdenlive:timeline_active">1</property>
  <property name="kdenlive:collapsed">0</property>
  <property name="kdenlive:thumbs_format"/>
  <property name="kdenlive:audio_rec"/>
  <track hide="audio" producer="playlist20"/>
  <track hide="audio" producer="playlist21"/>
 </tractor>
 <playlist id="playlist22">
  <blank length="00:00:05.000"/>
  <entry in="00:00:00.000" out="00:01:15.967" producer="producer3">
   <property name="kdenlive:id">4</property>
   <filter id="filter38">
    <property name="rotate_center">1</property>
    <property name="mlt_service">qtblend</property>
    <property name="kdenlive_id">qtblend</property>
    <property name="compositing">0</property>
    <property name="distort">0</property>
    <property name="rect">00:00:00.000=0 -1965 4096 2160 1.000000</property>
    <property name="rotation">00:00:00.000=0</property>
    <property name="kdenlive:collapsed">0</property>
   </filter>
  </entry>
 </playlist>
 <playlist id="playlist23"/>
 <tractor id="tractor11" in="00:00:00.000" out="00:01:20.967">
  <property name="kdenlive:trackheight">75</property>
  <property name="kdenlive:timeline_active">1</property>
  <property name="kdenlive:collapsed">0</property>
  <property name="kdenlive:thumbs_format"/>
  <property name="kdenlive:audio_rec"/>
  <track hide="audio" producer="playlist22"/>
  <track hide="audio" producer="playlist23"/>
 </tractor>
 <playlist id="playlist24">
  <entry in="00:00:00.000" out="00:00:04.967" producer="producer4">
   <property name="kdenlive:id">5</property>
  </entry>
  <entry in="00:00:00.000" out="00:00:09.967" producer="producer7">
   <property name="kdenlive:id">11</property>
  </entry>
  <entry in="00:00:00.000" out="00:00:14.967" producer="producer8">
   <property name="kdenlive:id">10</property>
  </entry>
  <entry in="00:00:00.000" out="00:00:29.933" producer="producer25">
   <property name="kdenlive:id">28</property>
  </entry>
  <entry in="00:00:00.000" out="00:00:21.000" producer="producer31">
   <property name="kdenlive:id">37</property>
  </entry>
 </playlist>
 <playlist id="playlist25"/>
 <tractor id="tractor12" in="00:00:00.000" out="00:01:20.967">
  <property name="kdenlive:trackheight">75</property>
  <property name="kdenlive:timeline_active">1</property>
  <property name="kdenlive:collapsed">0</property>
  <property name="kdenlive:thumbs_format"/>
  <property name="kdenlive:audio_rec"/>
  <track hide="audio" producer="playlist24"/>
  <track hide="audio" producer="playlist25"/>
 </tractor>
 <playlist id="playlist26">
  <entry in="00:00:00.000" out="00:00:04.967" producer="producer5">
   <property name="kdenlive:id">8</property>
  </entry>
  <entry in="00:00:00.000" out="00:00:09.967" producer="producer9">
   <property name="kdenlive:id">12</property>
  </entry>
  <entry in="00:00:00.000" out="00:00:14.967" producer="producer10">
   <property name="kdenlive:id">15</property>
  </entry>
  <entry in="00:00:00.000" out="00:00:29.933" producer="producer26">
   <property name="kdenlive:id">27</property>
  </entry>
  <entry in="00:00:00.000" out="00:00:21.000" producer="producer32">
   <property name="kdenlive:id">35</property>
  </entry>
 </playlist>
 <playlist id="playlist27"/>
 <tractor id="tractor13" in="00:00:00.000" out="00:01:20.967">
  <property name="kdenlive:trackheight">75</property>
  <property name="kdenlive:timeline_active">1</property>
  <property name="kdenlive:collapsed">0</property>
  <property name="kdenlive:thumbs_format"/>
  <property name="kdenlive:audio_rec"/>
  <track hide="audio" producer="playlist26"/>
  <track hide="audio" producer="playlist27"/>
 </tractor>
 <playlist id="playlist28">
  <entry in="00:00:00.000" out="00:00:04.967" producer="producer6">
   <property name="kdenlive:id">9</property>
   <filter id="filter39">
    <property name="rotate_center">1</property>
    <property name="mlt_service">qtblend</property>
    <property name="kdenlive_id">qtblend</property>
    <property name="compositing">0</property>
    <property name="distort">0</property>
    <property name="rect">00:00:00.000=0 0 4096 2160 1.000000;00:00:00.500=0 0 4096 2160 0.000000;00:00:04.500=0 0 4096 2160 0.000000;00:00:04.967=0 0 4096 2160 1.000000</property>
    <property name="rotation">00:00:00.000=0;00:00:00.500=0;00:00:04.500=0;00:00:04.967=0</property>
    <property name="kdenlive:collapsed">0</property>
   </filter>
  </entry>
  <entry in="00:00:00.000" out="00:00:09.967" producer="producer11">
   <property name="kdenlive:id">13</property>
   <filter id="filter40">
    <property name="rotate_center">1</property>
    <property name="mlt_service">qtblend</property>
    <property name="kdenlive_id">qtblend</property>
    <property name="compositing">0</property>
    <property name="distort">0</property>
    <property name="rect">00:00:00.000=0 0 4096 2160 1.000000;00:00:01.000=0 0 4096 2160 0.000000;00:00:09.000=0 0 4096 2160 0.000000;00:00:09.967=0 0 4096 2160 1.000000</property>
    <property name="rotation">00:00:00.000=0;00:00:01.000=0;00:00:09.000=0;00:00:09.967=0</property>
    <property name="kdenlive:collapsed">0</property>
   </filter>
  </entry>
  <entry in="00:00:00.000" out="00:00:14.967" producer="producer27">
   <property name="kdenlive:id">26</property>
   <filter id="filter41">
    <property name="rotate_center">1</property>
    <property name="mlt_service">qtblend</property>
    <property name="kdenlive_id">qtblend</property>
    <property name="compositing">0</property>
    <property name="distort">0</property>
    <property name="rect">00:00:00.000=0 0 4096 2160 1.000000;00:00:01.000=0 0 4096 2160 0.000000;00:00:14.000=0 0 4096 2160 0.000000;00:00:14.967=0 0 4096 2160 1.000000</property>
    <property name="rotation">00:00:00.000=0;00:00:01.000=0;00:00:14.000=0;00:00:14.967=0</property>
    <property name="kdenlive:collapsed">0</property>
   </filter>
  </entry>
  <entry in="00:00:00.000" out="00:00:29.933" producer="producer28">
   <property name="kdenlive:id">30</property>
   <filter id="filter42">
    <property name="rotate_center">1</property>
    <property name="mlt_service">qtblend</property>
    <property name="kdenlive_id">qtblend</property>
    <property name="compositing">0</property>
    <property name="distort">0</property>
    <property name="rect">00:00:00.000=0 0 4096 2160 1.000000;00:00:01.000=0 0 4096 2160 0.000000;00:00:28.933=0 0 4096 2160 0.000000;00:00:29.933=0 0 4096 2160 1.000000</property>
    <property name="rotation">00:00:00.000=0;00:00:01.000=0;00:00:28.933=0;00:00:29.933=0</property>
    <property name="kdenlive:collapsed">0</property>
   </filter>
  </entry>
  <entry in="00:00:00.000" out="00:00:21.000" producer="producer33">
   <property name="kdenlive:id">36</property>
   <filter id="filter43">
    <property name="rotate_center">1</property>
    <property name="mlt_service">qtblend</property>
    <property name="kdenlive_id">qtblend</property>
    <property name="compositing">0</property>
    <property name="distort">0</property>
    <property name="rect">00:00:00.000=0 0 4096 2160 1.000000;00:00:01.000=0 0 4096 2160 0.000000;00:00:20.000=0 0 4096 2160 0.000000;00:00:21.000=0 0 4096 2160 1.000000</property>
    <property name="rotation">00:00:00.000=0;00:00:01.000=0;00:00:20.000=0;00:00:21.000=0</property>
    <property name="kdenlive:collapsed">0</property>
   </filter>
  </entry>
 </playlist>
 <playlist id="playlist29"/>
 <tractor id="tractor14" in="00:00:00.000" out="00:01:20.967">
  <property name="kdenlive:trackheight">75</property>
  <property name="kdenlive:timeline_active">1</property>
  <property name="kdenlive:collapsed">0</property>
  <property name="kdenlive:thumbs_format"/>
  <property name="kdenlive:audio_rec"/>
  <track hide="audio" producer="playlist28"/>
  <track hide="audio" producer="playlist29"/>
 </tractor>
 <tractor id="tractor15" in="00:00:00.000" out="00:01:20.967">
  <property name="kdenlive:duration">00:01:21.000</property>
  <property name="kdenlive:maxduration">2430</property>
  <property name="kdenlive:clipname">Sequence 1</property>
  <property name="kdenlive:description"/>
  <property name="kdenlive:uuid">{ef5bd0fb-d293-4a83-a997-eea662af5c75}</property>
  <property name="kdenlive:producer_type">17</property>
  <property name="kdenlive:control_uuid">{ef5bd0fb-d293-4a83-a997-eea662af5c75}</property>
  <property name="kdenlive:id">3</property>
  <property name="kdenlive:clip_type">0</property>
  <property name="kdenlive:file_hash">e4b3488bb43d08483eb18550c01ba888</property>
  <property name="kdenlive:folderid">2</property>
  <property name="kdenlive:sequenceproperties.activeTrack">10</property>
  <property name="kdenlive:sequenceproperties.audioTarget">1</property>
  <property name="kdenlive:sequenceproperties.disablepreview">0</property>
  <property name="kdenlive:sequenceproperties.documentuuid">{ef5bd0fb-d293-4a83-a997-eea662af5c75}</property>
  <property name="kdenlive:sequenceproperties.hasAudio">1</property>
  <property name="kdenlive:sequenceproperties.hasVideo">1</property>
  <property name="kdenlive:sequenceproperties.lastUsedFrame">0</property>
  <property name="kdenlive:sequenceproperties.position">292</property>
  <property name="kdenlive:sequenceproperties.scrollPos">0</property>
  <property name="kdenlive:sequenceproperties.tracks">4</property>
  <property name="kdenlive:sequenceproperties.tracksCount">15</property>
  <property name="kdenlive:sequenceproperties.verticalzoom">1</property>
  <property name="kdenlive:sequenceproperties.videoTarget">2</property>
  <property name="kdenlive:sequenceproperties.zonein">0</property>
  <property name="kdenlive:sequenceproperties.zoneout">5</property>
  <property name="kdenlive:sequenceproperties.zoom">5</property>
  <property name="kdenlive:sequenceproperties.groups">[
]
</property>
  <property name="kdenlive:sequenceproperties.guides">[
]
</property>
  <track producer="producer0"/>
  <track producer="tractor0"/>
  <track producer="tractor1"/>
  <track producer="tractor2"/>
  <track producer="tractor3"/>
  <track producer="tractor4"/>
  <track producer="tractor5"/>
  <track producer="tractor6"/>
  <track producer="tractor7"/>
  <track producer="tractor8"/>
  <track producer="tractor9"/>
  <track producer="tractor10"/>
  <track producer="tractor11"/>
  <track producer="tractor12"/>
  <track producer="tractor13"/>
  <track producer="tractor14"/>
  <transition id="transition0">
   <property name="a_track">0</property>
   <property name="b_track">1</property>
   <property name="mlt_service">mix</property>
   <property name="kdenlive_id">mix</property>
   <property name="internal_added">237</property>
   <property name="always_active">1</property>
   <property name="accepts_blanks">1</property>
   <property name="sum">1</property>
  </transition>
  <transition id="transition1">
   <property name="a_track">0</property>
   <property name="b_track">2</property>
   <property name="mlt_service">mix</property>
   <property name="kdenlive_id">mix</property>
   <property name="internal_added">237</property>
   <property name="always_active">1</property>
   <property name="accepts_blanks">1</property>
   <property name="sum">1</property>
  </transition>
  <transition id="transition2">
   <property name="a_track">0</property>
   <property name="b_track">3</property>
   <property name="compositing">0</property>
   <property name="distort">0</property>
   <property name="rotate_center">0</property>
   <property name="mlt_service">qtblend</property>
   <property name="kdenlive_id">qtblend</property>
   <property name="internal_added">237</property>
   <property name="always_active">1</property>
  </transition>
  <transition id="transition3">
   <property name="a_track">0</property>
   <property name="b_track">4</property>
   <property name="compositing">0</property>
   <property name="distort">0</property>
   <property name="rotate_center">0</property>
   <property name="mlt_service">qtblend</property>
   <property name="kdenlive_id">qtblend</property>
   <property name="internal_added">237</property>
   <property name="always_active">1</property>
  </transition>
  <transition id="transition4">
   <property name="a_track">0</property>
   <property name="b_track">5</property>
   <property name="compositing">0</property>
   <property name="distort">0</property>
   <property name="rotate_center">0</property>
   <property name="mlt_service">qtblend</property>
   <property name="kdenlive_id">qtblend</property>
   <property name="internal_added">237</property>
   <property name="always_active">1</property>
  </transition>
  <transition id="transition5">
   <property name="a_track">0</property>
   <property name="b_track">6</property>
   <property name="compositing">0</property>
   <property name="distort">0</property>
   <property name="rotate_center">0</property>
   <property name="mlt_service">qtblend</property>
   <property name="kdenlive_id">qtblend</property>
   <property name="internal_added">237</property>
   <property name="always_active">1</property>
  </transition>
  <transition id="transition6">
   <property name="a_track">0</property>
   <property name="b_track">7</property>
   <property name="compositing">0</property>
   <property name="distort">0</property>
   <property name="rotate_center">0</property>
   <property name="mlt_service">qtblend</property>
   <property name="kdenlive_id">qtblend</property>
   <property name="internal_added">237</property>
   <property name="always_active">1</property>
  </transition>
  <transition id="transition7">
   <property name="a_track">0</property>
   <property name="b_track">8</property>
   <property name="compositing">0</property>
   <property name="distort">0</property>
   <property name="rotate_center">0</property>
   <property name="mlt_service">qtblend</property>
   <property name="kdenlive_id">qtblend</property>
   <property name="internal_added">237</property>
   <property name="always_active">1</property>
  </transition>
  <transition id="transition8">
   <property name="a_track">0</property>
   <property name="b_track">9</property>
   <property name="compositing">0</property>
   <property name="distort">0</property>
   <property name="rotate_center">0</property>
   <property name="mlt_service">qtblend</property>
   <property name="kdenlive_id">qtblend</property>
   <property name="internal_added">237</property>
   <property name="always_active">1</property>
  </transition>
  <transition id="transition9">
   <property name="a_track">0</property>
   <property name="b_track">10</property>
   <property name="compositing">0</property>
   <property name="distort">0</property>
   <property name="rotate_center">0</property>
   <property name="mlt_service">qtblend</property>
   <property name="kdenlive_id">qtblend</property>
   <property name="internal_added">237</property>
   <property name="always_active">1</property>
  </transition>
  <transition id="transition10">
   <property name="a_track">0</property>
   <property name="b_track">11</property>
   <property name="compositing">0</property>
   <property name="distort">0</property>
   <property name="rotate_center">0</property>
   <property name="mlt_service">qtblend</property>
   <property name="kdenlive_id">qtblend</property>
   <property name="internal_added">237</property>
   <property name="always_active">1</property>
  </transition>
  <transition id="transition11">
   <property name="a_track">0</property>
   <property name="b_track">12</property>
   <property name="compositing">0</property>
   <property name="distort">0</property>
   <property name="rotate_center">0</property>
   <property name="mlt_service">qtblend</property>
   <property name="kdenlive_id">qtblend</property>
   <property name="internal_added">237</property>
   <property name="always_active">1</property>
  </transition>
  <transition id="transition12">
   <property name="a_track">0</property>
   <property name="b_track">13</property>
   <property name="compositing">0</property>
   <property name="distort">0</property>
   <property name="rotate_center">0</property>
   <property name="mlt_service">qtblend</property>
   <property name="kdenlive_id">qtblend</property>
   <property name="internal_added">237</property>
   <property name="always_active">1</property>
  </transition>
  <transition id="transition13">
   <property name="a_track">0</property>
   <property name="b_track">14</property>
   <property name="compositing">0</property>
   <property name="distort">0</property>
   <property name="rotate_center">0</property>
   <property name="mlt_service">qtblend</property>
   <property name="kdenlive_id">qtblend</property>
   <property name="internal_added">237</property>
   <property name="always_active">1</property>
  </transition>
  <transition id="transition14">
   <property name="a_track">0</property>
   <property name="b_track">15</property>
   <property name="compositing">0</property>
   <property name="distort">0</property>
   <property name="rotate_center">0</property>
   <property name="mlt_service">qtblend</property>
   <property name="kdenlive_id">qtblend</property>
   <property name="internal_added">237</property>
   <property name="always_active">1</property>
  </transition>
  <filter id="filter44">
   <property name="window">75</property>
   <property name="max_gain">20dB</property>
   <property name="mlt_service">volume</property>
   <property name="internal_added">237</property>
   <property name="disable">1</property>
  </filter>
  <filter id="filter45">
   <property name="channel">-1</property>
   <property name="mlt_service">panner</property>
   <property name="internal_added">237</property>
   <property name="start">0.5</property>
   <property name="disable">1</property>
  </filter>
 </tractor>
 <playlist id="main_bin">
  <property name="kdenlive:folder.-1.2">Sequences</property>
  <property name="kdenlive:sequenceFolder">2</property>
  <property name="kdenlive:docproperties.activetimeline">{ef5bd0fb-d293-4a83-a997-eea662af5c75}</property>
  <property name="kdenlive:docproperties.audioChannels">2</property>
  <property name="kdenlive:docproperties.binsort">0</property>
  <property name="kdenlive:docproperties.browserurl">/home/soma/Applications/</property>
  <property name="kdenlive:docproperties.documentid">1740160896789</property>
  <property name="kdenlive:docproperties.enableTimelineZone">0</property>
  <property name="kdenlive:docproperties.enableexternalproxy">0</property>
  <property name="kdenlive:docproperties.enableproxy">0</property>
  <property name="kdenlive:docproperties.externalproxyparams"/>
  <property name="kdenlive:docproperties.generateimageproxy">0</property>
  <property name="kdenlive:docproperties.generateproxy">0</property>
  <property name="kdenlive:docproperties.guidesCategories">[
    {
        "color": "#9b59b6",
        "comment": "Category 1",
        "index": 0
    },
    {
        "color": "#3daee9",
        "comment": "Category 2",
        "index": 1
    },
    {
        "color": "#1abc9c",
        "comment": "Category 3",
        "index": 2
    },
    {
        "color": "#1cdc9a",
        "comment": "Category 4",
        "index": 3
    },
    {
        "color": "#c9ce3b",
        "comment": "Category 5",
        "index": 4
    },
    {
        "color": "#fdbc4b",
        "comment": "Category 6",
        "index": 5
    },
    {
        "color": "#f39c1f",
        "comment": "Category 7",
        "index": 6
    },
    {
        "color": "#f47750",
        "comment": "Category 8",
        "index": 7
    },
    {
        "color": "#da4453",
        "comment": "Category 9",
        "index": 8
    }
]
</property>
  <property name="kdenlive:docproperties.kdenliveversion">24.12.2</property>
  <property name="kdenlive:docproperties.opensequences">{ef5bd0fb-d293-4a83-a997-eea662af5c75}</property>
  <property name="kdenlive:docproperties.previewextension"/>
  <property name="kdenlive:docproperties.previewparameters"/>
  <property name="kdenlive:docproperties.profile">/tmp/.mount_kdenliPShncw/usr/share/kdenlive/profiles/dci_2160p_30</property>
  <property name="kdenlive:docproperties.proxyextension"/>
  <property name="kdenlive:docproperties.proxyimageminsize">2000</property>
  <property name="kdenlive:docproperties.proxyimagesize">800</property>
  <property name="kdenlive:docproperties.proxyminsize">1000</property>
  <property name="kdenlive:docproperties.proxyparams"/>
  <property name="kdenlive:docproperties.proxyresize">640</property>
  <property name="kdenlive:docproperties.rendercategory">Generic (HD for web, mobile devices...)</property>
  <property name="kdenlive:docproperties.rendercustomquality">-1</property>
  <property name="kdenlive:docproperties.renderendguide">-1</property>
  <property name="kdenlive:docproperties.renderexportaudio">0</property>
  <property name="kdenlive:docproperties.renderfullcolorrange">0</property>
  <property name="kdenlive:docproperties.rendermode">0</property>
  <property name="kdenlive:docproperties.renderplay">0</property>
  <property name="kdenlive:docproperties.renderpreview">0</property>
  <property name="kdenlive:docproperties.renderprofile">MP4-H264/AAC</property>
  <property name="kdenlive:docproperties.renderrescale">0</property>
  <property name="kdenlive:docproperties.renderrescaleheight">1080</property>
  <property name="kdenlive:docproperties.renderrescalewidth">2048</property>
  <property name="kdenlive:docproperties.renderspeed">6</property>
  <property name="kdenlive:docproperties.renderstartguide">-1</property>
  <property name="kdenlive:docproperties.rendertcoverlay">0</property>
  <property name="kdenlive:docproperties.rendertctype">-1</property>
  <property name="kdenlive:docproperties.rendertwopass">0</property>
  <property name="kdenlive:docproperties.renderurl">remal-gombi-0.5.0.mp4</property>
  <property name="kdenlive:docproperties.seekOffset">7500</property>
  <property name="kdenlive:docproperties.sessionid">{f6543d70-1d65-4021-933f-ccef37311877}</property>
  <property name="kdenlive:docproperties.uuid">{ef5bd0fb-d293-4a83-a997-eea662af5c75}</property>
  <property name="kdenlive:docproperties.version">1.1</property>
  <property name="kdenlive:docmetadata.meta.attr.author.markup">arnold.somogyi@gmail.com</property>
  <property name="kdenlive:docmetadata.meta.attr.copyright.markup">Remal Software</property>
  <property name="kdenlive:docmetadata.meta.attr.title.markup">Remal Gombi Platform</property>
  <property name="kdenlive:docmetadata.meta.attr.year.markup">2025</property>
  <property name="kdenlive:expandedFolders"/>
  <property name="kdenlive:binZoom">4</property>
  <property name="kdenlive:extraBins">project_bin:-1:0</property>
  <property name="kdenlive:documentnotes"/>
  <property name="kdenlive:documentnotesversion">2</property>
  <property name="xml_retain">1</property>
  <entry in="00:00:00.000" out="00:01:27.500" producer="producer3"/>
  <entry in="00:00:00.000" out="00:00:18.733" producer="producer4"/>
  <entry in="00:00:00.000" out="00:00:21.233" producer="producer1"/>
  <entry in="00:00:00.000" out="00:00:35.267" producer="producer2"/>
  <entry in="00:00:00.000" out="00:00:04.967" producer="producer5"/>
  <entry in="00:00:00.000" out="00:00:04.967" producer="producer6"/>
  <entry in="00:00:00.000" out="00:00:20.400" producer="producer8"/>
  <entry in="00:00:00.000" out="00:00:09.967" producer="producer7"/>
  <entry in="00:00:00.000" out="00:00:09.967" producer="producer9"/>
  <entry in="00:00:00.000" out="00:00:12.133" producer="producer11"/>
  <entry in="00:00:00.000" out="00:00:20.400" producer="producer12"/>
  <entry in="00:00:00.000" out="00:00:25.533" producer="producer10"/>
  <entry in="00:00:00.000" out="00:00:13.600" producer="producer16"/>
  <entry in="00:00:00.000" out="00:00:18.433" producer="producer15"/>
  <entry in="00:00:00.000" out="00:00:19.067" producer="producer14"/>
  <entry in="00:00:00.000" out="00:00:18.067" producer="producer13"/>
  <entry in="00:00:00.000" out="00:00:00.600" producer="chain1"/>
  <entry in="00:00:00.000" out="00:00:18.433" producer="producer20"/>
  <entry in="00:00:00.000" out="00:00:18.433" producer="producer19"/>
  <entry in="00:00:00.000" out="00:00:18.067" producer="producer18"/>
  <entry in="00:00:00.000" out="00:00:18.067" producer="producer17"/>
  <entry in="00:00:00.000" out="00:01:22.467" producer="producer21"/>
  <entry in="00:00:00.000" out="00:00:19.033" producer="producer27"/>
  <entry in="00:00:00.000" out="00:00:29.933" producer="producer26"/>
  <entry in="00:00:00.000" out="00:00:29.933" producer="producer25"/>
  <entry in="00:00:00.000" out="00:00:31.167" producer="producer24"/>
  <entry in="00:00:00.000" out="00:00:29.933" producer="producer28"/>
  <entry in="00:00:00.000" out="00:00:51.700" producer="producer22"/>
  <entry in="00:00:00.000" out="00:00:21.400" producer="producer23"/>
  <entry in="00:00:00.000" out="00:00:10.067" producer="chain5"/>
  <entry in="00:00:00.000" out="00:00:20.333" producer="chain6"/>
  <entry in="00:00:00.000" out="00:00:29.933" producer="producer32"/>
  <entry in="00:00:00.000" out="00:00:29.933" producer="producer33"/>
  <entry in="00:00:00.000" out="00:00:29.933" producer="producer31"/>
  <entry in="00:00:00.000" out="00:00:31.167" producer="producer30"/>
  <entry in="00:00:00.000" out="00:00:31.167" producer="producer29"/>
  <entry in="00:00:00.000" out="00:04:30.533" producer="chain7"/>
  <entry in="00:00:00.000" out="00:01:20.967" producer="tractor15"/>
 </playlist>
 <tractor id="tractor16" in="00:00:00.000" out="00:01:20.967">
  <property name="kdenlive:projectTractor">1</property>
  <track in="00:00:00.000" out="00:01:20.967" producer="tractor15"/>
 </tractor>
</mlt>
